<?xml version="1.0" encoding="utf-8" standalone="no"?>
<!DOCTYPE svg PUBLIC "-//W3C//DTD SVG 1.1//EN"
  "http://www.w3.org/Graphics/SVG/1.1/DTD/svg11.dtd">
<svg height="310.86825pt" version="1.1" viewBox="0 0 411.285625 310.86825" width="411.285625pt" xmlns="http://www.w3.org/2000/svg" xmlns:xlink="http://www.w3.org/1999/xlink">
 <metadata>
  <rdf:RDF xmlns:cc="http://creativecommons.org/ns#" xmlns:dc="http://purl.org/dc/elements/1.1/" xmlns:rdf="http://www.w3.org/1999/02/22-rdf-syntax-ns#">
   <cc:Work>
    <dc:type rdf:resource="http://purl.org/dc/dcmitype/StillImage"/>
    <dc:date>2022-01-24T14:35:23.324869</dc:date>
    <dc:format>image/svg+xml</dc:format>
    <dc:creator>
     <cc:Agent>
      <dc:title>Matplotlib v3.4.2, https://matplotlib.org/</dc:title>
     </cc:Agent>
    </dc:creator>
   </cc:Work>
  </rdf:RDF>
 </metadata>
 <defs>
  <style type="text/css">*{stroke-linecap:butt;stroke-linejoin:round;}</style>
 </defs>
 <g id="figure_1">
  <g id="patch_1">
   <path d="M 0 310.86825 
L 411.285625 310.86825 
L 411.285625 0 
L 0 0 
z
" style="fill:#ffffff;"/>
  </g>
  <g id="axes_1">
   <g id="patch_2">
    <path d="M 46.965625 273.312 
L 404.085625 273.312 
L 404.085625 7.2 
L 46.965625 7.2 
z
" style="fill:#ffffff;"/>
   </g>
   <g id="matplotlib.axis_1">
    <g id="xtick_1">
     <g id="line2d_1">
      <defs>
       <path d="M 0 0 
L 0 3.5 
" id="m2678ea63b5" style="stroke:#000000;stroke-width:0.8;"/>
      </defs>
      <g>
       <use style="stroke:#000000;stroke-width:0.8;" x="77.888269" xlink:href="#m2678ea63b5" y="273.312"/>
      </g>
     </g>
     <g id="text_1">
      <!-- −10 -->
      <g transform="translate(67.335925 287.910437)scale(0.1 -0.1)">
       <defs>
        <path d="M 678 2272 
L 4684 2272 
L 4684 1741 
L 678 1741 
L 678 2272 
z
" id="DejaVuSans-2212" transform="scale(0.015625)"/>
        <path d="M 794 531 
L 1825 531 
L 1825 4091 
L 703 3866 
L 703 4441 
L 1819 4666 
L 2450 4666 
L 2450 531 
L 3481 531 
L 3481 0 
L 794 0 
L 794 531 
z
" id="DejaVuSans-31" transform="scale(0.015625)"/>
        <path d="M 2034 4250 
Q 1547 4250 1301 3770 
Q 1056 3291 1056 2328 
Q 1056 1369 1301 889 
Q 1547 409 2034 409 
Q 2525 409 2770 889 
Q 3016 1369 3016 2328 
Q 3016 3291 2770 3770 
Q 2525 4250 2034 4250 
z
M 2034 4750 
Q 2819 4750 3233 4129 
Q 3647 3509 3647 2328 
Q 3647 1150 3233 529 
Q 2819 -91 2034 -91 
Q 1250 -91 836 529 
Q 422 1150 422 2328 
Q 422 3509 836 4129 
Q 1250 4750 2034 4750 
z
" id="DejaVuSans-30" transform="scale(0.015625)"/>
       </defs>
       <use xlink:href="#DejaVuSans-2212"/>
       <use x="83.789062" xlink:href="#DejaVuSans-31"/>
       <use x="147.412109" xlink:href="#DejaVuSans-30"/>
      </g>
     </g>
    </g>
    <g id="xtick_2">
     <g id="line2d_2">
      <g>
       <use style="stroke:#000000;stroke-width:0.8;" x="151.706947" xlink:href="#m2678ea63b5" y="273.312"/>
      </g>
     </g>
     <g id="text_2">
      <!-- −5 -->
      <g transform="translate(144.335853 287.910437)scale(0.1 -0.1)">
       <defs>
        <path d="M 691 4666 
L 3169 4666 
L 3169 4134 
L 1269 4134 
L 1269 2991 
Q 1406 3038 1543 3061 
Q 1681 3084 1819 3084 
Q 2600 3084 3056 2656 
Q 3513 2228 3513 1497 
Q 3513 744 3044 326 
Q 2575 -91 1722 -91 
Q 1428 -91 1123 -41 
Q 819 9 494 109 
L 494 744 
Q 775 591 1075 516 
Q 1375 441 1709 441 
Q 2250 441 2565 725 
Q 2881 1009 2881 1497 
Q 2881 1984 2565 2268 
Q 2250 2553 1709 2553 
Q 1456 2553 1204 2497 
Q 953 2441 691 2322 
L 691 4666 
z
" id="DejaVuSans-35" transform="scale(0.015625)"/>
       </defs>
       <use xlink:href="#DejaVuSans-2212"/>
       <use x="83.789062" xlink:href="#DejaVuSans-35"/>
      </g>
     </g>
    </g>
    <g id="xtick_3">
     <g id="line2d_3">
      <g>
       <use style="stroke:#000000;stroke-width:0.8;" x="225.525625" xlink:href="#m2678ea63b5" y="273.312"/>
      </g>
     </g>
     <g id="text_3">
      <!-- 0 -->
      <g transform="translate(222.344375 287.910437)scale(0.1 -0.1)">
       <use xlink:href="#DejaVuSans-30"/>
      </g>
     </g>
    </g>
    <g id="xtick_4">
     <g id="line2d_4">
      <g>
       <use style="stroke:#000000;stroke-width:0.8;" x="299.344303" xlink:href="#m2678ea63b5" y="273.312"/>
      </g>
     </g>
     <g id="text_4">
      <!-- 5 -->
      <g transform="translate(296.163053 287.910437)scale(0.1 -0.1)">
       <use xlink:href="#DejaVuSans-35"/>
      </g>
     </g>
    </g>
    <g id="xtick_5">
     <g id="line2d_5">
      <g>
       <use style="stroke:#000000;stroke-width:0.8;" x="373.162981" xlink:href="#m2678ea63b5" y="273.312"/>
      </g>
     </g>
     <g id="text_5">
      <!-- 10 -->
      <g transform="translate(366.800481 287.910437)scale(0.1 -0.1)">
       <use xlink:href="#DejaVuSans-31"/>
       <use x="63.623047" xlink:href="#DejaVuSans-30"/>
      </g>
     </g>
    </g>
    <g id="text_6">
     <!-- CV (Angstrom) -->
     <g transform="translate(188.9225 301.588562)scale(0.1 -0.1)">
      <defs>
       <path d="M 4122 4306 
L 4122 3641 
Q 3803 3938 3442 4084 
Q 3081 4231 2675 4231 
Q 1875 4231 1450 3742 
Q 1025 3253 1025 2328 
Q 1025 1406 1450 917 
Q 1875 428 2675 428 
Q 3081 428 3442 575 
Q 3803 722 4122 1019 
L 4122 359 
Q 3791 134 3420 21 
Q 3050 -91 2638 -91 
Q 1578 -91 968 557 
Q 359 1206 359 2328 
Q 359 3453 968 4101 
Q 1578 4750 2638 4750 
Q 3056 4750 3426 4639 
Q 3797 4528 4122 4306 
z
" id="DejaVuSans-43" transform="scale(0.015625)"/>
       <path d="M 1831 0 
L 50 4666 
L 709 4666 
L 2188 738 
L 3669 4666 
L 4325 4666 
L 2547 0 
L 1831 0 
z
" id="DejaVuSans-56" transform="scale(0.015625)"/>
       <path id="DejaVuSans-20" transform="scale(0.015625)"/>
       <path d="M 1984 4856 
Q 1566 4138 1362 3434 
Q 1159 2731 1159 2009 
Q 1159 1288 1364 580 
Q 1569 -128 1984 -844 
L 1484 -844 
Q 1016 -109 783 600 
Q 550 1309 550 2009 
Q 550 2706 781 3412 
Q 1013 4119 1484 4856 
L 1984 4856 
z
" id="DejaVuSans-28" transform="scale(0.015625)"/>
       <path d="M 2188 4044 
L 1331 1722 
L 3047 1722 
L 2188 4044 
z
M 1831 4666 
L 2547 4666 
L 4325 0 
L 3669 0 
L 3244 1197 
L 1141 1197 
L 716 0 
L 50 0 
L 1831 4666 
z
" id="DejaVuSans-41" transform="scale(0.015625)"/>
       <path d="M 3513 2113 
L 3513 0 
L 2938 0 
L 2938 2094 
Q 2938 2591 2744 2837 
Q 2550 3084 2163 3084 
Q 1697 3084 1428 2787 
Q 1159 2491 1159 1978 
L 1159 0 
L 581 0 
L 581 3500 
L 1159 3500 
L 1159 2956 
Q 1366 3272 1645 3428 
Q 1925 3584 2291 3584 
Q 2894 3584 3203 3211 
Q 3513 2838 3513 2113 
z
" id="DejaVuSans-6e" transform="scale(0.015625)"/>
       <path d="M 2906 1791 
Q 2906 2416 2648 2759 
Q 2391 3103 1925 3103 
Q 1463 3103 1205 2759 
Q 947 2416 947 1791 
Q 947 1169 1205 825 
Q 1463 481 1925 481 
Q 2391 481 2648 825 
Q 2906 1169 2906 1791 
z
M 3481 434 
Q 3481 -459 3084 -895 
Q 2688 -1331 1869 -1331 
Q 1566 -1331 1297 -1286 
Q 1028 -1241 775 -1147 
L 775 -588 
Q 1028 -725 1275 -790 
Q 1522 -856 1778 -856 
Q 2344 -856 2625 -561 
Q 2906 -266 2906 331 
L 2906 616 
Q 2728 306 2450 153 
Q 2172 0 1784 0 
Q 1141 0 747 490 
Q 353 981 353 1791 
Q 353 2603 747 3093 
Q 1141 3584 1784 3584 
Q 2172 3584 2450 3431 
Q 2728 3278 2906 2969 
L 2906 3500 
L 3481 3500 
L 3481 434 
z
" id="DejaVuSans-67" transform="scale(0.015625)"/>
       <path d="M 2834 3397 
L 2834 2853 
Q 2591 2978 2328 3040 
Q 2066 3103 1784 3103 
Q 1356 3103 1142 2972 
Q 928 2841 928 2578 
Q 928 2378 1081 2264 
Q 1234 2150 1697 2047 
L 1894 2003 
Q 2506 1872 2764 1633 
Q 3022 1394 3022 966 
Q 3022 478 2636 193 
Q 2250 -91 1575 -91 
Q 1294 -91 989 -36 
Q 684 19 347 128 
L 347 722 
Q 666 556 975 473 
Q 1284 391 1588 391 
Q 1994 391 2212 530 
Q 2431 669 2431 922 
Q 2431 1156 2273 1281 
Q 2116 1406 1581 1522 
L 1381 1569 
Q 847 1681 609 1914 
Q 372 2147 372 2553 
Q 372 3047 722 3315 
Q 1072 3584 1716 3584 
Q 2034 3584 2315 3537 
Q 2597 3491 2834 3397 
z
" id="DejaVuSans-73" transform="scale(0.015625)"/>
       <path d="M 1172 4494 
L 1172 3500 
L 2356 3500 
L 2356 3053 
L 1172 3053 
L 1172 1153 
Q 1172 725 1289 603 
Q 1406 481 1766 481 
L 2356 481 
L 2356 0 
L 1766 0 
Q 1100 0 847 248 
Q 594 497 594 1153 
L 594 3053 
L 172 3053 
L 172 3500 
L 594 3500 
L 594 4494 
L 1172 4494 
z
" id="DejaVuSans-74" transform="scale(0.015625)"/>
       <path d="M 2631 2963 
Q 2534 3019 2420 3045 
Q 2306 3072 2169 3072 
Q 1681 3072 1420 2755 
Q 1159 2438 1159 1844 
L 1159 0 
L 581 0 
L 581 3500 
L 1159 3500 
L 1159 2956 
Q 1341 3275 1631 3429 
Q 1922 3584 2338 3584 
Q 2397 3584 2469 3576 
Q 2541 3569 2628 3553 
L 2631 2963 
z
" id="DejaVuSans-72" transform="scale(0.015625)"/>
       <path d="M 1959 3097 
Q 1497 3097 1228 2736 
Q 959 2375 959 1747 
Q 959 1119 1226 758 
Q 1494 397 1959 397 
Q 2419 397 2687 759 
Q 2956 1122 2956 1747 
Q 2956 2369 2687 2733 
Q 2419 3097 1959 3097 
z
M 1959 3584 
Q 2709 3584 3137 3096 
Q 3566 2609 3566 1747 
Q 3566 888 3137 398 
Q 2709 -91 1959 -91 
Q 1206 -91 779 398 
Q 353 888 353 1747 
Q 353 2609 779 3096 
Q 1206 3584 1959 3584 
z
" id="DejaVuSans-6f" transform="scale(0.015625)"/>
       <path d="M 3328 2828 
Q 3544 3216 3844 3400 
Q 4144 3584 4550 3584 
Q 5097 3584 5394 3201 
Q 5691 2819 5691 2113 
L 5691 0 
L 5113 0 
L 5113 2094 
Q 5113 2597 4934 2840 
Q 4756 3084 4391 3084 
Q 3944 3084 3684 2787 
Q 3425 2491 3425 1978 
L 3425 0 
L 2847 0 
L 2847 2094 
Q 2847 2600 2669 2842 
Q 2491 3084 2119 3084 
Q 1678 3084 1418 2786 
Q 1159 2488 1159 1978 
L 1159 0 
L 581 0 
L 581 3500 
L 1159 3500 
L 1159 2956 
Q 1356 3278 1631 3431 
Q 1906 3584 2284 3584 
Q 2666 3584 2933 3390 
Q 3200 3197 3328 2828 
z
" id="DejaVuSans-6d" transform="scale(0.015625)"/>
       <path d="M 513 4856 
L 1013 4856 
Q 1481 4119 1714 3412 
Q 1947 2706 1947 2009 
Q 1947 1309 1714 600 
Q 1481 -109 1013 -844 
L 513 -844 
Q 928 -128 1133 580 
Q 1338 1288 1338 2009 
Q 1338 2731 1133 3434 
Q 928 4138 513 4856 
z
" id="DejaVuSans-29" transform="scale(0.015625)"/>
      </defs>
      <use xlink:href="#DejaVuSans-43"/>
      <use x="69.824219" xlink:href="#DejaVuSans-56"/>
      <use x="138.232422" xlink:href="#DejaVuSans-20"/>
      <use x="170.019531" xlink:href="#DejaVuSans-28"/>
      <use x="209.033203" xlink:href="#DejaVuSans-41"/>
      <use x="277.441406" xlink:href="#DejaVuSans-6e"/>
      <use x="340.820312" xlink:href="#DejaVuSans-67"/>
      <use x="404.296875" xlink:href="#DejaVuSans-73"/>
      <use x="456.396484" xlink:href="#DejaVuSans-74"/>
      <use x="495.605469" xlink:href="#DejaVuSans-72"/>
      <use x="534.46875" xlink:href="#DejaVuSans-6f"/>
      <use x="595.650391" xlink:href="#DejaVuSans-6d"/>
      <use x="693.0625" xlink:href="#DejaVuSans-29"/>
     </g>
    </g>
   </g>
   <g id="matplotlib.axis_2">
    <g id="ytick_1">
     <g id="line2d_6">
      <defs>
       <path d="M 0 0 
L -3.5 0 
" id="m69f632b580" style="stroke:#000000;stroke-width:0.8;"/>
      </defs>
      <g>
       <use style="stroke:#000000;stroke-width:0.8;" x="46.965625" xlink:href="#m69f632b580" y="261.216"/>
      </g>
     </g>
     <g id="text_7">
      <!-- 0 -->
      <g transform="translate(33.603125 265.015219)scale(0.1 -0.1)">
       <use xlink:href="#DejaVuSans-30"/>
      </g>
     </g>
    </g>
    <g id="ytick_2">
     <g id="line2d_7">
      <g>
       <use style="stroke:#000000;stroke-width:0.8;" x="46.965625" xlink:href="#m69f632b580" y="222.963079"/>
      </g>
     </g>
     <g id="text_8">
      <!-- 20 -->
      <g transform="translate(27.240625 226.762298)scale(0.1 -0.1)">
       <defs>
        <path d="M 1228 531 
L 3431 531 
L 3431 0 
L 469 0 
L 469 531 
Q 828 903 1448 1529 
Q 2069 2156 2228 2338 
Q 2531 2678 2651 2914 
Q 2772 3150 2772 3378 
Q 2772 3750 2511 3984 
Q 2250 4219 1831 4219 
Q 1534 4219 1204 4116 
Q 875 4013 500 3803 
L 500 4441 
Q 881 4594 1212 4672 
Q 1544 4750 1819 4750 
Q 2544 4750 2975 4387 
Q 3406 4025 3406 3419 
Q 3406 3131 3298 2873 
Q 3191 2616 2906 2266 
Q 2828 2175 2409 1742 
Q 1991 1309 1228 531 
z
" id="DejaVuSans-32" transform="scale(0.015625)"/>
       </defs>
       <use xlink:href="#DejaVuSans-32"/>
       <use x="63.623047" xlink:href="#DejaVuSans-30"/>
      </g>
     </g>
    </g>
    <g id="ytick_3">
     <g id="line2d_8">
      <g>
       <use style="stroke:#000000;stroke-width:0.8;" x="46.965625" xlink:href="#m69f632b580" y="184.710159"/>
      </g>
     </g>
     <g id="text_9">
      <!-- 40 -->
      <g transform="translate(27.240625 188.509378)scale(0.1 -0.1)">
       <defs>
        <path d="M 2419 4116 
L 825 1625 
L 2419 1625 
L 2419 4116 
z
M 2253 4666 
L 3047 4666 
L 3047 1625 
L 3713 1625 
L 3713 1100 
L 3047 1100 
L 3047 0 
L 2419 0 
L 2419 1100 
L 313 1100 
L 313 1709 
L 2253 4666 
z
" id="DejaVuSans-34" transform="scale(0.015625)"/>
       </defs>
       <use xlink:href="#DejaVuSans-34"/>
       <use x="63.623047" xlink:href="#DejaVuSans-30"/>
      </g>
     </g>
    </g>
    <g id="ytick_4">
     <g id="line2d_9">
      <g>
       <use style="stroke:#000000;stroke-width:0.8;" x="46.965625" xlink:href="#m69f632b580" y="146.457238"/>
      </g>
     </g>
     <g id="text_10">
      <!-- 60 -->
      <g transform="translate(27.240625 150.256457)scale(0.1 -0.1)">
       <defs>
        <path d="M 2113 2584 
Q 1688 2584 1439 2293 
Q 1191 2003 1191 1497 
Q 1191 994 1439 701 
Q 1688 409 2113 409 
Q 2538 409 2786 701 
Q 3034 994 3034 1497 
Q 3034 2003 2786 2293 
Q 2538 2584 2113 2584 
z
M 3366 4563 
L 3366 3988 
Q 3128 4100 2886 4159 
Q 2644 4219 2406 4219 
Q 1781 4219 1451 3797 
Q 1122 3375 1075 2522 
Q 1259 2794 1537 2939 
Q 1816 3084 2150 3084 
Q 2853 3084 3261 2657 
Q 3669 2231 3669 1497 
Q 3669 778 3244 343 
Q 2819 -91 2113 -91 
Q 1303 -91 875 529 
Q 447 1150 447 2328 
Q 447 3434 972 4092 
Q 1497 4750 2381 4750 
Q 2619 4750 2861 4703 
Q 3103 4656 3366 4563 
z
" id="DejaVuSans-36" transform="scale(0.015625)"/>
       </defs>
       <use xlink:href="#DejaVuSans-36"/>
       <use x="63.623047" xlink:href="#DejaVuSans-30"/>
      </g>
     </g>
    </g>
    <g id="ytick_5">
     <g id="line2d_10">
      <g>
       <use style="stroke:#000000;stroke-width:0.8;" x="46.965625" xlink:href="#m69f632b580" y="108.204318"/>
      </g>
     </g>
     <g id="text_11">
      <!-- 80 -->
      <g transform="translate(27.240625 112.003537)scale(0.1 -0.1)">
       <defs>
        <path d="M 2034 2216 
Q 1584 2216 1326 1975 
Q 1069 1734 1069 1313 
Q 1069 891 1326 650 
Q 1584 409 2034 409 
Q 2484 409 2743 651 
Q 3003 894 3003 1313 
Q 3003 1734 2745 1975 
Q 2488 2216 2034 2216 
z
M 1403 2484 
Q 997 2584 770 2862 
Q 544 3141 544 3541 
Q 544 4100 942 4425 
Q 1341 4750 2034 4750 
Q 2731 4750 3128 4425 
Q 3525 4100 3525 3541 
Q 3525 3141 3298 2862 
Q 3072 2584 2669 2484 
Q 3125 2378 3379 2068 
Q 3634 1759 3634 1313 
Q 3634 634 3220 271 
Q 2806 -91 2034 -91 
Q 1263 -91 848 271 
Q 434 634 434 1313 
Q 434 1759 690 2068 
Q 947 2378 1403 2484 
z
M 1172 3481 
Q 1172 3119 1398 2916 
Q 1625 2713 2034 2713 
Q 2441 2713 2670 2916 
Q 2900 3119 2900 3481 
Q 2900 3844 2670 4047 
Q 2441 4250 2034 4250 
Q 1625 4250 1398 4047 
Q 1172 3844 1172 3481 
z
" id="DejaVuSans-38" transform="scale(0.015625)"/>
       </defs>
       <use xlink:href="#DejaVuSans-38"/>
       <use x="63.623047" xlink:href="#DejaVuSans-30"/>
      </g>
     </g>
    </g>
    <g id="ytick_6">
     <g id="line2d_11">
      <g>
       <use style="stroke:#000000;stroke-width:0.8;" x="46.965625" xlink:href="#m69f632b580" y="69.951397"/>
      </g>
     </g>
     <g id="text_12">
      <!-- 100 -->
      <g transform="translate(20.878125 73.750616)scale(0.1 -0.1)">
       <use xlink:href="#DejaVuSans-31"/>
       <use x="63.623047" xlink:href="#DejaVuSans-30"/>
       <use x="127.246094" xlink:href="#DejaVuSans-30"/>
      </g>
     </g>
    </g>
    <g id="ytick_7">
     <g id="line2d_12">
      <g>
       <use style="stroke:#000000;stroke-width:0.8;" x="46.965625" xlink:href="#m69f632b580" y="31.698477"/>
      </g>
     </g>
     <g id="text_13">
      <!-- 120 -->
      <g transform="translate(20.878125 35.497695)scale(0.1 -0.1)">
       <use xlink:href="#DejaVuSans-31"/>
       <use x="63.623047" xlink:href="#DejaVuSans-32"/>
       <use x="127.246094" xlink:href="#DejaVuSans-30"/>
      </g>
     </g>
    </g>
    <g id="text_14">
     <!-- F (kJ/mol) -->
     <g transform="translate(14.798438 163.995844)rotate(-90)scale(0.1 -0.1)">
      <defs>
       <path d="M 628 4666 
L 3309 4666 
L 3309 4134 
L 1259 4134 
L 1259 2759 
L 3109 2759 
L 3109 2228 
L 1259 2228 
L 1259 0 
L 628 0 
L 628 4666 
z
" id="DejaVuSans-46" transform="scale(0.015625)"/>
       <path d="M 581 4863 
L 1159 4863 
L 1159 1991 
L 2875 3500 
L 3609 3500 
L 1753 1863 
L 3688 0 
L 2938 0 
L 1159 1709 
L 1159 0 
L 581 0 
L 581 4863 
z
" id="DejaVuSans-6b" transform="scale(0.015625)"/>
       <path d="M 628 4666 
L 1259 4666 
L 1259 325 
Q 1259 -519 939 -900 
Q 619 -1281 -91 -1281 
L -331 -1281 
L -331 -750 
L -134 -750 
Q 284 -750 456 -515 
Q 628 -281 628 325 
L 628 4666 
z
" id="DejaVuSans-4a" transform="scale(0.015625)"/>
       <path d="M 1625 4666 
L 2156 4666 
L 531 -594 
L 0 -594 
L 1625 4666 
z
" id="DejaVuSans-2f" transform="scale(0.015625)"/>
       <path d="M 603 4863 
L 1178 4863 
L 1178 0 
L 603 0 
L 603 4863 
z
" id="DejaVuSans-6c" transform="scale(0.015625)"/>
      </defs>
      <use xlink:href="#DejaVuSans-46"/>
      <use x="57.519531" xlink:href="#DejaVuSans-20"/>
      <use x="89.306641" xlink:href="#DejaVuSans-28"/>
      <use x="128.320312" xlink:href="#DejaVuSans-6b"/>
      <use x="186.230469" xlink:href="#DejaVuSans-4a"/>
      <use x="215.722656" xlink:href="#DejaVuSans-2f"/>
      <use x="249.414062" xlink:href="#DejaVuSans-6d"/>
      <use x="346.826172" xlink:href="#DejaVuSans-6f"/>
      <use x="408.007812" xlink:href="#DejaVuSans-6c"/>
      <use x="435.791016" xlink:href="#DejaVuSans-29"/>
     </g>
    </g>
   </g>
   <g id="line2d_13">
    <path clip-path="url(#p95e232014b)" d="M 63.198352 216.994476 
L 63.34599 224.670386 
L 63.493627 223.607861 
L 63.641264 220.307453 
L 63.936539 224.704913 
L 64.084176 224.724456 
L 64.231814 223.683753 
L 64.379451 225.64631 
L 64.527088 225.678756 
L 64.674726 226.450876 
L 64.822363 225.756382 
L 64.970001 228.238551 
L 65.117638 227.223282 
L 65.56055 230.702787 
L 65.855825 227.531325 
L 66.003462 230.911866 
L 66.151099 229.61702 
L 66.298737 230.433965 
L 66.446374 231.976263 
L 66.594011 231.807524 
L 66.741649 229.966116 
L 66.889286 233.931601 
L 67.184561 230.649103 
L 67.332198 233.044646 
L 67.479836 233.589781 
L 67.627473 233.492312 
L 67.77511 232.910914 
L 67.922748 235.211382 
L 68.218022 232.754213 
L 68.36566 235.595005 
L 68.660934 233.931963 
L 68.808572 236.461198 
L 68.956209 235.466817 
L 69.251484 237.816384 
L 69.546759 236.587161 
L 69.989671 238.597236 
L 70.432583 238.317704 
L 70.58022 239.495085 
L 70.727857 239.188719 
L 70.875495 239.606283 
L 71.023132 239.005436 
L 71.170769 240.411524 
L 71.318407 240.589004 
L 71.466044 240.06841 
L 71.613682 241.159952 
L 71.761319 240.171714 
L 71.908956 242.199146 
L 72.056594 241.706506 
L 72.204231 242.093514 
L 72.351868 241.40838 
L 72.499506 242.84536 
L 72.647143 242.234185 
L 72.79478 242.310722 
L 72.942418 242.714131 
L 73.237692 243.957506 
L 73.38533 243.379384 
L 73.532967 244.241919 
L 73.680605 243.203731 
L 73.828242 244.240406 
L 73.975879 244.227518 
L 74.123517 245.162885 
L 74.271154 245.171094 
L 74.418791 243.892046 
L 74.566429 245.538982 
L 74.861703 245.903719 
L 75.009341 245.087186 
L 75.156978 245.588923 
L 75.304615 246.873712 
L 75.452253 246.437874 
L 75.59989 246.707077 
L 75.747528 245.748495 
L 75.895165 247.147228 
L 76.042802 246.847088 
L 76.338077 247.187969 
L 76.485714 248.258988 
L 76.633352 246.99799 
L 76.928626 248.140427 
L 77.223901 248.367703 
L 77.371538 249.552254 
L 77.519176 249.472187 
L 77.666813 248.334677 
L 77.81445 249.084788 
L 77.962088 248.743693 
L 78.257363 250.690034 
L 78.405 249.862003 
L 78.552637 250.005813 
L 78.700275 250.739592 
L 79.143187 250.825101 
L 79.290824 251.596641 
L 79.438461 249.486985 
L 79.586099 249.735566 
L 79.881373 251.479019 
L 80.029011 251.853248 
L 80.176648 251.727723 
L 80.61956 253.219512 
L 80.914835 250.830694 
L 81.21011 252.279393 
L 81.357747 251.916076 
L 81.505384 252.405696 
L 81.653022 252.129931 
L 81.800659 253.606872 
L 81.948296 252.236825 
L 82.243571 252.538264 
L 82.391209 252.734815 
L 82.538846 254.105583 
L 82.686483 252.625253 
L 82.834121 253.020386 
L 82.981758 252.599193 
L 83.129395 253.105187 
L 83.277033 252.442679 
L 83.42467 254.102711 
L 83.572307 253.751553 
L 83.867582 252.424991 
L 84.015219 252.752757 
L 84.162857 253.993659 
L 84.310494 252.278255 
L 84.458132 253.227627 
L 84.605769 252.570654 
L 84.753406 253.817455 
L 84.901044 253.681716 
L 85.048681 253.864248 
L 85.196318 252.874015 
L 85.343956 253.904758 
L 85.491593 254.084433 
L 85.63923 252.67632 
L 85.786868 254.226709 
L 85.934505 254.604476 
L 86.082142 253.301065 
L 86.22978 254.104757 
L 86.377417 253.939503 
L 86.525054 254.460984 
L 86.672692 254.190145 
L 86.820329 253.635061 
L 86.967967 254.320215 
L 87.263241 253.554527 
L 87.410879 254.954584 
L 87.558516 253.817811 
L 87.706153 255.183241 
L 87.853791 253.512931 
L 88.149065 254.697903 
L 88.296703 254.385356 
L 88.44434 253.600123 
L 88.591977 253.658474 
L 88.739615 253.398149 
L 89.03489 254.128801 
L 89.182527 254.327607 
L 89.330164 253.103692 
L 89.477802 254.96961 
L 89.625439 253.735113 
L 89.773076 255.990655 
L 89.920714 254.460244 
L 90.068351 256.590757 
L 90.363626 255.417104 
L 90.511263 255.935414 
L 90.6589 255.875271 
L 90.806538 254.478213 
L 90.954175 257.0882 
L 91.101813 255.796688 
L 91.24945 255.602694 
L 91.397087 254.525333 
L 91.544725 255.172553 
L 91.692362 255.222356 
L 91.839999 254.83119 
L 91.987637 255.85178 
L 92.135274 254.773034 
L 92.430549 256.909607 
L 92.578186 256.745877 
L 92.873461 256.015326 
L 93.021098 255.659694 
L 93.168736 254.607517 
L 93.316373 256.530084 
L 93.46401 256.456587 
L 93.611648 257.494333 
L 93.759285 255.896172 
L 93.906922 255.943034 
L 94.05456 253.691014 
L 94.202197 254.569408 
L 94.349834 256.858153 
L 94.645109 255.73462 
L 94.792746 256.078933 
L 94.940384 256.797881 
L 95.088021 254.651292 
L 95.383296 257.948698 
L 95.678571 255.394477 
L 95.826208 257.069737 
L 95.973845 255.657462 
L 96.121483 255.528376 
L 96.26912 258.699365 
L 96.416757 256.275584 
L 96.564395 257.163361 
L 96.712032 255.87709 
L 97.007307 257.419964 
L 97.154944 257.825005 
L 97.302581 257.628628 
L 97.450219 257.015956 
L 97.597856 258.177871 
L 97.745494 258.10681 
L 97.893131 256.99712 
L 98.040768 259.728013 
L 98.188406 257.492813 
L 98.336043 259.724867 
L 98.48368 257.702588 
L 98.778955 257.780077 
L 98.926592 256.488538 
L 99.07423 258.682597 
L 99.221867 258.020508 
L 99.369504 258.302126 
L 99.517142 259.497662 
L 99.812417 259.077107 
L 99.960054 258.790577 
L 100.107691 257.562574 
L 100.255329 258.269986 
L 100.402966 258.427827 
L 100.550603 257.209621 
L 100.698241 258.960153 
L 100.845878 257.87237 
L 100.993515 258.79765 
L 101.28879 257.526699 
L 101.584065 258.803752 
L 101.731702 258.951345 
L 101.879339 257.798272 
L 102.026977 258.51971 
L 102.174614 260.351685 
L 102.322252 257.731706 
L 102.469889 259.943201 
L 102.617526 259.969947 
L 102.765164 259.260736 
L 103.060438 259.533457 
L 103.208076 260.071496 
L 103.355713 259.997113 
L 103.50335 259.495737 
L 103.650988 256.931258 
L 103.798625 259.862566 
L 103.946262 259.217444 
L 104.0939 259.583524 
L 104.241537 259.258948 
L 104.389175 259.945565 
L 104.536812 259.643048 
L 104.832087 257.633019 
L 105.127361 259.368789 
L 105.274999 259.617703 
L 105.422636 259.028526 
L 105.570273 260.383563 
L 105.865548 261.216 
L 106.013185 259.456417 
L 106.160823 260.135648 
L 106.30846 260.250098 
L 106.603735 258.438038 
L 106.751372 260.179426 
L 106.89901 259.754865 
L 107.046647 260.092867 
L 107.194284 258.902159 
L 107.637196 259.188526 
L 107.784834 258.92933 
L 107.932471 260.238491 
L 108.227746 259.698447 
L 108.375383 259.817008 
L 108.523021 259.34255 
L 108.670658 259.468916 
L 108.818295 258.954518 
L 108.965933 259.34815 
L 109.11357 260.26035 
L 109.261207 259.71152 
L 109.408845 260.752331 
L 109.556482 259.347576 
L 109.704119 260.360091 
L 109.851757 260.255351 
L 109.999394 258.051667 
L 110.147031 260.550797 
L 110.294669 260.921347 
L 110.442306 260.13633 
L 110.589943 260.024194 
L 110.737581 258.788678 
L 111.32813 260.695906 
L 111.475768 260.195561 
L 111.771042 258.138688 
L 111.91868 259.956329 
L 112.066317 258.573861 
L 112.213954 259.826201 
L 112.361592 258.097807 
L 112.509229 259.913653 
L 112.656866 258.074728 
L 112.804504 258.797987 
L 112.952141 258.357906 
L 113.395053 259.615274 
L 113.690328 257.652427 
L 113.837965 259.218515 
L 113.985603 259.324219 
L 114.13324 258.24424 
L 114.280877 259.172296 
L 114.428515 259.277036 
L 114.576152 258.888744 
L 114.723789 259.24402 
L 114.871427 259.227055 
L 115.019064 258.707138 
L 115.166702 258.94752 
L 115.314339 258.256605 
L 115.461976 260.124405 
L 115.609614 258.893063 
L 115.757251 259.785807 
L 115.904888 259.869379 
L 116.052526 259.747455 
L 116.3478 257.825127 
L 116.495438 259.020969 
L 116.643075 257.935917 
L 116.790712 255.672861 
L 116.93835 259.413369 
L 117.085987 259.055131 
L 117.233625 257.997944 
L 117.528899 259.538428 
L 117.676537 259.91379 
L 117.971811 258.300929 
L 118.119449 258.143338 
L 118.414723 258.361353 
L 118.562361 258.206752 
L 119.005273 258.754327 
L 119.300547 258.704824 
L 119.595822 256.294605 
L 120.038734 259.127501 
L 120.186372 257.798073 
L 120.481646 259.050428 
L 120.629284 257.440041 
L 120.776921 257.41413 
L 120.924558 257.803277 
L 121.072196 256.404792 
L 121.36747 258.345562 
L 121.515108 257.564579 
L 121.662745 258.175467 
L 121.810383 258.149277 
L 121.95802 257.486009 
L 122.105657 255.244662 
L 122.253295 258.525249 
L 122.400932 258.277017 
L 122.548569 256.953353 
L 122.696207 257.073804 
L 122.843844 257.720475 
L 122.991481 257.301713 
L 123.139119 257.275257 
L 123.434393 256.794699 
L 123.582031 258.065453 
L 123.729668 257.685269 
L 123.877306 257.658589 
L 124.024943 257.249991 
L 124.17258 257.22321 
L 124.320218 257.578243 
L 124.467855 255.235102 
L 124.76313 256.84288 
L 124.910767 256.526624 
L 125.353679 257.627683 
L 125.648954 256.952882 
L 126.091866 257.828675 
L 126.239503 257.346807 
L 126.387141 256.255101 
L 126.534778 257.292578 
L 126.682415 257.383337 
L 126.830053 256.601502 
L 126.97769 254.774606 
L 127.125327 256.120254 
L 127.420602 255.256356 
L 127.568239 256.187212 
L 127.863514 256.134597 
L 128.011151 255.961697 
L 128.158789 257.233093 
L 128.306426 255.099419 
L 128.601701 257.793289 
L 128.896976 256.236042 
L 129.044613 256.211116 
L 129.339888 257.143871 
L 129.635162 256.247571 
L 129.7828 256.354232 
L 129.930437 254.26524 
L 130.078074 255.61398 
L 130.225712 254.953356 
L 130.373349 256.128899 
L 130.520987 255.543698 
L 130.668624 256.340413 
L 130.963899 256.657011 
L 131.259173 255.42919 
L 131.406811 255.834143 
L 131.554448 255.673379 
L 131.702085 254.371172 
L 131.849723 255.188021 
L 131.99736 253.944812 
L 132.144997 255.143693 
L 132.292635 254.282513 
L 132.440272 256.071011 
L 132.735547 255.496683 
L 132.883184 256.595326 
L 133.030822 256.790575 
L 133.178459 254.834634 
L 133.473734 256.509307 
L 133.621371 254.441402 
L 133.769008 255.619225 
L 133.916646 255.598197 
L 134.064283 255.835243 
L 134.21192 253.622151 
L 134.359558 255.917791 
L 134.507195 255.515464 
L 134.654832 256.452524 
L 134.80247 255.475046 
L 134.950107 255.320709 
L 135.097745 256.604783 
L 135.245382 254.38425 
L 135.393019 256.24414 
L 135.688294 253.805901 
L 135.835931 255.067046 
L 136.131206 255.168661 
L 136.278843 254.723154 
L 136.426481 255.267323 
L 136.574118 254.977119 
L 136.721755 254.200979 
L 136.869393 254.502108 
L 137.01703 253.999713 
L 137.312305 255.547606 
L 137.459942 255.280312 
L 137.60758 254.263847 
L 137.755217 254.983538 
L 137.902854 254.829711 
L 138.050492 255.344999 
L 138.345766 255.187602 
L 138.493404 254.480131 
L 138.641041 253.092971 
L 138.788678 253.078424 
L 138.936316 255.256338 
L 139.083953 255.719524 
L 139.231591 255.47258 
L 139.379228 256.523084 
L 139.526865 255.789573 
L 139.674503 254.366105 
L 139.82214 254.044425 
L 139.969777 252.966157 
L 140.265052 254.458285 
L 140.560327 254.431451 
L 140.707964 254.963977 
L 140.855601 254.685645 
L 141.003239 255.654584 
L 141.150876 255.051796 
L 141.298514 253.911073 
L 141.446151 254.05464 
L 141.593788 255.257911 
L 141.741426 255.000543 
L 141.889063 255.350509 
L 142.184338 253.332863 
L 142.331975 254.693173 
L 142.479612 253.811338 
L 142.774887 255.160232 
L 142.922524 255.266489 
L 143.070162 254.63466 
L 143.217799 253.25099 
L 143.365436 254.478046 
L 143.513074 254.039693 
L 143.660711 253.218498 
L 143.808349 255.428197 
L 144.251261 254.277643 
L 144.546535 255.378861 
L 144.694173 254.2492 
L 144.84181 255.248208 
L 144.989447 254.231175 
L 145.284722 256.148245 
L 145.432359 252.12864 
L 145.579997 254.972546 
L 145.727634 254.71974 
L 145.875272 254.181158 
L 146.022909 255.181456 
L 146.170546 253.876439 
L 146.613458 255.151458 
L 146.761096 253.036349 
L 146.908733 253.986588 
L 147.05637 252.460291 
L 147.204008 255.235429 
L 147.351645 253.511095 
L 147.499282 254.374163 
L 147.64692 252.81498 
L 147.794557 254.491642 
L 147.942195 254.354442 
L 148.089832 252.795528 
L 148.237469 254.844402 
L 148.385107 253.303994 
L 148.532744 253.767533 
L 148.680381 253.761546 
L 148.828019 254.938049 
L 148.975656 254.039157 
L 149.123293 255.041653 
L 149.270931 253.587377 
L 149.418568 253.880327 
L 149.713843 253.870175 
L 149.86148 254.146078 
L 150.009117 254.89631 
L 150.156755 254.529372 
L 150.304392 253.23566 
L 150.599667 253.697526 
L 150.747304 254.758557 
L 150.894942 254.118207 
L 151.042579 251.90005 
L 151.485491 254.862366 
L 151.633128 254.860335 
L 151.780766 253.368293 
L 151.928403 254.618469 
L 152.07604 253.82024 
L 152.223678 254.737013 
L 152.518953 253.034161 
L 152.66659 253.817768 
L 152.814227 252.68035 
L 152.961865 253.201537 
L 153.109502 252.861061 
L 153.404777 255.896744 
L 153.552414 253.366285 
L 153.847689 254.741414 
L 154.142963 252.689569 
L 154.290601 254.625848 
L 154.733513 253.218915 
L 154.88115 254.38359 
L 155.028788 253.542011 
L 155.176425 255.1057 
L 155.324062 255.108428 
L 155.4717 254.766229 
L 155.619337 254.769151 
L 155.914612 254.27263 
L 156.062249 254.003146 
L 156.209886 255.014561 
L 156.357524 254.282541 
L 156.505161 255.558074 
L 156.800436 252.155939 
L 156.948073 252.924729 
L 157.095711 254.683013 
L 157.243348 254.170822 
L 157.390985 254.812073 
L 157.68626 253.286678 
L 157.833897 253.609468 
L 157.981535 254.458337 
L 158.276809 254.064932 
L 158.424447 253.780944 
L 158.572084 251.544055 
L 158.867359 253.16057 
L 159.014996 255.637445 
L 159.310271 253.178665 
L 159.457908 255.55339 
L 159.605546 253.520614 
L 159.753183 253.683646 
L 159.90082 255.024202 
L 160.048458 253.995461 
L 160.343732 253.711116 
L 160.639007 255.059148 
L 160.934282 252.713384 
L 161.081919 255.41754 
L 161.229557 252.914803 
L 161.672469 254.870257 
L 161.820106 254.877087 
L 161.967743 255.122375 
L 162.115381 253.309492 
L 162.410655 255.256411 
L 162.558293 255.029589 
L 162.70593 253.333668 
L 162.853567 253.506516 
L 163.001205 254.128105 
L 163.148842 255.283479 
L 163.29648 254.810518 
L 163.444117 254.814684 
L 163.591754 253.690725 
L 164.034666 255.190016 
L 164.182304 255.307131 
L 164.329941 254.955273 
L 164.477578 254.301936 
L 164.625216 254.575356 
L 164.772853 255.640147 
L 164.92049 255.7447 
L 165.068128 255.531782 
L 165.215765 254.157906 
L 165.363403 254.828973 
L 165.51104 254.699158 
L 165.658677 254.823181 
L 165.806315 253.188925 
L 165.953952 256.218589 
L 166.101589 254.551702 
L 166.249227 254.545806 
L 166.396864 255.811205 
L 166.544501 253.661968 
L 166.692139 256.090826 
L 166.839776 254.896468 
L 167.135051 256.155693 
L 167.282688 254.209631 
L 167.430325 253.756298 
L 167.7256 256.195658 
L 167.873238 254.291112 
L 168.020875 255.975763 
L 168.168512 255.347713 
L 168.31615 255.642928 
L 168.463787 256.372035 
L 168.611424 255.79875 
L 168.759062 254.169835 
L 168.906699 255.126676 
L 169.054336 255.0998 
L 169.201974 254.726164 
L 169.349611 256.127461 
L 169.497248 256.268589 
L 169.644886 254.746733 
L 169.792523 256.282016 
L 169.940161 254.050794 
L 170.53071 256.061582 
L 170.678347 255.924416 
L 170.825985 254.929911 
L 171.268897 255.50463 
L 171.416534 254.346324 
L 172.007084 255.757444 
L 172.154721 254.633921 
L 172.302358 255.855073 
L 172.449996 254.022946 
L 172.74527 256.240343 
L 172.892908 255.151755 
L 173.040545 255.780451 
L 173.188182 254.303523 
L 173.33582 254.93163 
L 173.483457 253.537023 
L 173.631094 255.074329 
L 173.778732 254.482132 
L 173.926369 254.95319 
L 174.074006 254.087094 
L 174.221644 255.282653 
L 174.516919 255.03498 
L 174.664556 253.778006 
L 174.812193 254.78621 
L 174.959831 254.376066 
L 175.107468 254.837999 
L 175.255105 253.349411 
L 175.402743 253.720357 
L 175.55038 254.813425 
L 175.698017 253.687471 
L 175.845655 253.846846 
L 175.993292 254.19066 
L 176.140929 253.251193 
L 176.288567 253.122673 
L 176.436204 253.587339 
L 177.026754 252.487286 
L 177.174391 252.837132 
L 177.469666 251.688615 
L 177.617303 252.266789 
L 177.76494 251.487506 
L 177.912578 251.720059 
L 178.060215 251.163886 
L 178.207852 251.206416 
L 178.503127 250.744944 
L 178.798402 250.130114 
L 178.946039 249.568992 
L 179.241314 249.50948 
L 179.388951 248.940508 
L 179.536589 248.844835 
L 179.684226 248.264345 
L 179.979501 248.080907 
L 180.127138 247.682926 
L 180.274775 247.789403 
L 180.422413 247.729975 
L 180.717688 246.785927 
L 180.865325 247.126089 
L 181.012962 246.650497 
L 181.1606 246.951168 
L 181.455874 245.929609 
L 181.603512 246.29765 
L 181.898786 246.154035 
L 182.046424 245.631802 
L 182.194061 246.33592 
L 182.489336 245.634859 
L 182.636973 245.61973 
L 182.78461 245.454236 
L 182.932248 244.760206 
L 183.227523 245.076295 
L 183.37516 244.490957 
L 183.522797 244.450537 
L 183.818072 243.649199 
L 183.965709 243.663575 
L 184.851533 241.039248 
L 185.294446 239.871014 
L 185.58972 238.384025 
L 185.737358 238.253405 
L 186.032632 236.74246 
L 186.18027 236.67056 
L 186.623182 235.328365 
L 187.213731 233.261353 
L 187.509006 232.152209 
L 187.656643 231.728445 
L 187.804281 231.785442 
L 188.542467 229.521357 
L 188.690105 229.515516 
L 189.133017 228.046697 
L 189.428292 227.283066 
L 190.314116 224.660094 
L 190.757028 222.366506 
L 190.904665 222.281718 
L 191.19994 220.895352 
L 191.495214 219.812186 
L 191.642852 219.310176 
L 192.085764 216.670231 
L 192.233401 216.595116 
L 192.823951 213.049104 
L 192.971588 213.138781 
L 193.562137 210.71734 
L 193.709775 209.501928 
L 193.857412 209.253738 
L 194.300324 206.899773 
L 194.447962 206.728534 
L 194.743236 205.382601 
L 195.038511 203.766867 
L 195.186148 203.789446 
L 195.481423 202.227984 
L 195.62906 202.625813 
L 195.776698 202.217928 
L 196.071973 200.639341 
L 196.21961 200.283428 
L 196.662522 197.69264 
L 196.810159 198.302234 
L 197.105434 196.485043 
L 197.400709 195.149113 
L 197.548346 194.856235 
L 197.991258 192.37941 
L 198.286533 191.040596 
L 198.43417 189.56636 
L 198.581808 189.785855 
L 198.729445 189.400137 
L 198.877082 187.979611 
L 199.02472 187.763184 
L 199.467632 185.696541 
L 199.615269 185.324342 
L 199.762906 184.245822 
L 199.910544 184.181741 
L 200.058181 182.867152 
L 200.205818 182.664932 
L 200.353456 180.760264 
L 200.501093 181.058374 
L 201.091643 178.213507 
L 201.23928 177.270467 
L 201.386917 177.06817 
L 201.829829 175.161889 
L 202.125104 174.323955 
L 202.272741 173.140291 
L 202.420379 173.349988 
L 203.306203 169.485384 
L 203.45384 169.598167 
L 203.601478 168.349534 
L 203.749115 168.281392 
L 205.225489 161.531012 
L 205.668401 159.475717 
L 207.440049 151.807231 
L 207.587686 150.243078 
L 207.735324 150.198454 
L 208.178236 147.610384 
L 208.325873 147.542235 
L 209.359335 142.653104 
L 209.506972 142.264202 
L 210.097521 139.497106 
L 210.245159 139.355251 
L 210.835708 136.289583 
L 210.983345 136.351448 
L 211.130983 135.533298 
L 211.27862 135.355627 
L 211.573895 133.316017 
L 212.016807 131.414713 
L 212.459719 128.743803 
L 212.607356 128.695751 
L 212.902631 126.559494 
L 213.050268 126.272899 
L 213.345543 124.550485 
L 213.493181 124.188008 
L 214.379005 119.045163 
L 214.526642 118.85943 
L 215.117191 114.878888 
L 215.264829 115.018714 
L 215.560103 112.931417 
L 216.003016 110.478463 
L 216.150653 110.420782 
L 216.445928 108.023003 
L 216.593565 108.049933 
L 216.741202 107.587457 
L 217.184114 105.460652 
L 217.331752 105.438337 
L 217.627026 103.643212 
L 217.922301 102.982555 
L 218.808125 98.194561 
L 218.955763 97.594683 
L 219.1034 97.683715 
L 219.398675 95.286542 
L 219.693949 93.261118 
L 219.841587 92.761059 
L 219.989224 91.605282 
L 220.136862 91.560912 
L 220.432136 88.988302 
L 220.579774 88.492125 
L 221.022686 85.938362 
L 221.760872 81.399293 
L 221.90851 80.854118 
L 222.056147 79.872822 
L 222.203784 79.814481 
L 222.646697 76.69365 
L 222.941971 76.111049 
L 223.089609 74.59827 
L 223.237246 74.423311 
L 223.680158 71.510108 
L 224.12307 69.691979 
L 224.270707 69.614873 
L 224.565982 68.185294 
L 224.71362 66.540614 
L 224.861257 66.722591 
L 225.008894 65.702689 
L 225.156532 65.645668 
L 225.304169 64.693451 
L 225.451806 64.66978 
L 225.747081 62.628996 
L 225.894718 62.172429 
L 226.632905 58.294147 
L 226.780543 58.298641 
L 227.075817 56.089239 
L 227.223455 55.488213 
L 227.518729 53.795458 
L 227.666367 53.423242 
L 228.256916 49.591982 
L 228.404553 47.981347 
L 228.699828 47.300877 
L 228.847466 46.697361 
L 229.14274 44.828419 
L 229.585652 42.033662 
L 230.028564 40.396125 
L 230.323839 38.073366 
L 230.619114 37.001863 
L 230.766751 35.871671 
L 230.914388 36.255365 
L 231.062026 34.860494 
L 231.357301 34.392538 
L 232.243125 31.414127 
L 232.390762 31.350983 
L 232.538399 30.320823 
L 232.686037 30.274508 
L 232.981311 29.630419 
L 233.128949 30.214187 
L 233.424224 27.729078 
L 233.719498 29.265815 
L 233.867136 28.182069 
L 234.014773 28.201536 
L 234.16241 27.841064 
L 234.457685 29.821767 
L 234.75296 28.42338 
L 234.900597 28.939936 
L 235.048234 27.903433 
L 235.195872 29.279794 
L 235.343509 28.703795 
L 235.638784 30.309354 
L 235.786421 30.571481 
L 235.934059 29.440866 
L 236.081696 30.911572 
L 236.229333 28.275695 
L 236.376971 30.342447 
L 236.524608 30.011272 
L 236.672245 28.607501 
L 236.819883 28.492978 
L 236.96752 26.950593 
L 237.262795 26.810492 
L 237.410432 26.292031 
L 237.558069 24.049801 
L 237.705707 24.365522 
L 237.853344 23.808747 
L 238.000982 24.451495 
L 238.148619 24.136563 
L 238.296256 24.277804 
L 238.443894 21.156178 
L 238.591531 21.587763 
L 238.739168 20.763862 
L 238.886806 20.934181 
L 239.034443 20.377005 
L 239.18208 21.987334 
L 239.329718 20.486232 
L 239.477355 20.359221 
L 239.77263 21.061432 
L 239.920267 20.526017 
L 240.067905 19.296 
L 240.215542 20.390546 
L 240.363179 20.623441 
L 240.658454 20.024035 
L 240.806091 20.951475 
L 240.953729 20.660088 
L 241.249003 22.446774 
L 241.396641 22.154186 
L 241.691915 23.997733 
L 242.134828 26.162407 
L 242.282465 25.918206 
L 242.57774 28.41917 
L 242.725377 28.321888 
L 243.463564 32.983543 
L 243.611201 33.181648 
L 243.758838 34.313974 
L 243.906476 34.281882 
L 244.054113 36.261327 
L 244.201751 36.58487 
L 244.644663 39.384546 
L 244.7923 39.252767 
L 244.939937 41.250336 
L 245.087575 41.41127 
L 245.235212 41.738929 
L 246.121036 48.3133 
L 246.268673 47.112554 
L 246.563948 49.716683 
L 246.711586 49.272951 
L 247.00686 51.915011 
L 247.154498 52.278653 
L 247.892684 56.173124 
L 248.187959 56.180522 
L 248.630871 59.349313 
L 248.778509 58.682223 
L 248.926146 60.520228 
L 249.221421 61.25099 
L 249.516695 63.306482 
L 249.664333 63.38907 
L 249.81197 64.324674 
L 249.959607 64.206598 
L 250.254882 66.290132 
L 252.912355 81.770871 
L 253.059992 84.760803 
L 253.207629 84.406462 
L 253.650541 87.35905 
L 253.798179 88.324116 
L 253.945816 90.250153 
L 254.093453 90.307593 
L 254.388728 92.819798 
L 254.536365 92.516347 
L 254.684003 95.048169 
L 254.83164 95.474031 
L 255.126915 97.33939 
L 255.274552 99.343029 
L 255.42219 99.267393 
L 255.569827 100.952302 
L 255.717464 101.086727 
L 256.012739 104.407031 
L 256.160376 104.369638 
L 256.898563 110.071783 
L 257.193838 111.439842 
L 257.341475 112.271674 
L 257.489113 114.027242 
L 257.63675 114.456366 
L 257.932025 116.668792 
L 258.522574 120.467625 
L 258.965486 124.442644 
L 259.408398 126.832983 
L 259.556036 128.995109 
L 259.703673 129.393326 
L 259.85131 130.724558 
L 259.998948 130.86771 
L 260.294222 133.488852 
L 261.032409 138.368563 
L 262.065871 145.731994 
L 263.246969 153.13979 
L 263.394607 153.554211 
L 263.837519 156.72131 
L 263.985156 157.208229 
L 266.052079 169.202949 
L 266.199717 169.538527 
L 266.642629 172.463584 
L 266.937903 173.406438 
L 267.380815 176.562052 
L 268.26664 180.633819 
L 268.561914 182.889253 
L 268.857189 183.257481 
L 269.595376 186.886936 
L 269.743013 186.851213 
L 270.038288 188.570913 
L 270.185925 188.759751 
L 270.333562 189.248158 
L 270.628837 191.099686 
L 270.776475 190.921332 
L 270.924112 191.902024 
L 271.071749 191.642617 
L 271.367024 193.22186 
L 271.514661 193.955492 
L 271.662299 194.025166 
L 271.809936 194.453685 
L 272.105211 195.905731 
L 272.252848 196.443644 
L 272.400485 196.363921 
L 272.69576 197.894323 
L 272.843398 198.724749 
L 273.138672 199.159324 
L 273.433947 200.02852 
L 273.729222 201.497828 
L 274.172134 202.436436 
L 274.615046 204.699718 
L 274.762683 204.801574 
L 274.910321 204.767745 
L 275.353233 206.277398 
L 275.50087 206.215484 
L 275.648507 207.077345 
L 275.796145 207.176078 
L 275.943782 207.856475 
L 276.091419 207.732295 
L 276.386694 208.812452 
L 276.534331 209.25159 
L 276.829606 209.367001 
L 277.272518 210.874487 
L 277.420156 210.443935 
L 277.567793 211.594118 
L 277.71543 211.452569 
L 277.863068 211.90679 
L 278.010705 211.790821 
L 278.30598 212.946221 
L 278.453617 212.947283 
L 278.601254 213.695914 
L 278.748892 212.898449 
L 278.896529 213.076147 
L 279.191804 214.150236 
L 279.339441 213.85483 
L 279.487079 214.438948 
L 279.634716 215.699982 
L 279.782353 213.536037 
L 279.929991 215.717506 
L 280.077628 214.766641 
L 280.225265 216.180232 
L 280.372903 216.138175 
L 280.668177 217.420248 
L 280.815815 216.149091 
L 281.111089 217.387934 
L 281.258727 217.195767 
L 281.406364 217.304684 
L 281.554002 216.303036 
L 281.701639 218.163254 
L 281.849276 217.337812 
L 281.996914 217.7091 
L 282.144551 217.272778 
L 282.292188 219.084006 
L 282.439826 217.029981 
L 282.587463 219.602595 
L 282.7351 218.713631 
L 283.178012 218.434201 
L 283.473287 218.866245 
L 283.620925 219.691122 
L 283.768562 217.762541 
L 283.916199 219.694029 
L 284.063837 218.743725 
L 284.211474 220.471676 
L 284.359111 219.6305 
L 284.506749 220.297998 
L 284.654386 220.44174 
L 284.802023 220.329421 
L 284.949661 220.467887 
L 285.097298 221.68574 
L 285.244935 219.987507 
L 285.392573 220.118726 
L 285.54021 220.910045 
L 285.835485 220.074775 
L 285.983122 221.94318 
L 286.13076 221.224666 
L 286.278397 221.343359 
L 286.426034 221.078312 
L 286.721309 220.315947 
L 286.868946 220.176314 
L 287.016584 221.817144 
L 287.311858 220.370316 
L 287.459496 222.750722 
L 287.902408 221.739254 
L 288.197683 222.251254 
L 288.492957 220.8986 
L 288.640595 221.647298 
L 288.788232 223.466243 
L 288.935869 221.70803 
L 289.231144 223.986974 
L 289.378781 222.990501 
L 289.526419 222.763118 
L 289.821693 221.562141 
L 289.969331 221.646404 
L 290.116968 223.314257 
L 290.264606 222.847678 
L 290.412243 222.929176 
L 290.55988 222.116667 
L 290.707518 223.089614 
L 290.855155 221.986236 
L 291.298067 224.442291 
L 291.593342 222.218666 
L 291.740979 223.74223 
L 291.888616 223.338905 
L 292.036254 223.657184 
L 292.183891 223.60941 
L 292.331529 222.26847 
L 292.479166 224.644026 
L 292.774441 222.142042 
L 292.922078 222.553542 
L 293.069715 223.65526 
L 293.217353 223.855734 
L 293.36499 224.75175 
L 293.807902 223.86595 
L 293.955539 224.068317 
L 294.103177 225.508435 
L 294.398451 222.717804 
L 294.546089 225.072468 
L 294.693726 223.841554 
L 294.841364 224.19691 
L 294.989001 224.12032 
L 295.136638 224.858915 
L 295.284276 224.393523 
L 295.431913 225.113026 
L 295.57955 223.056168 
L 295.727188 224.725743 
L 295.874825 225.054887 
L 296.022462 225.723309 
L 296.1701 225.433155 
L 296.317737 225.962041 
L 296.613012 225.239516 
L 296.760649 226.573612 
L 296.908287 225.363305 
L 297.203561 225.743627 
L 297.351199 225.131221 
L 297.498836 225.73733 
L 297.646473 225.10461 
L 297.941748 226.04317 
L 298.089385 224.645041 
L 298.237023 226.405062 
L 298.38466 225.545314 
L 298.532297 227.679758 
L 298.97521 224.449016 
L 299.122847 226.502687 
L 299.270484 225.101481 
L 299.418122 225.324214 
L 299.565759 226.913353 
L 299.713396 226.967896 
L 299.861034 225.649584 
L 300.008671 226.831111 
L 300.156308 225.756727 
L 300.451583 226.732109 
L 300.59922 226.222377 
L 300.746858 227.21794 
L 300.894495 225.334921 
L 301.042133 227.786075 
L 301.337407 228.311052 
L 301.485045 226.375297 
L 301.780319 228.251209 
L 301.927957 228.299486 
L 302.075594 227.785363 
L 302.223231 227.950467 
L 302.370869 228.334159 
L 302.518506 229.084765 
L 302.666143 228.089258 
L 302.813781 228.134438 
L 302.961418 228.515954 
L 303.109055 228.105286 
L 303.256693 229.116911 
L 303.40433 228.191554 
L 303.551968 229.298327 
L 303.847242 227.540887 
L 304.142517 228.741055 
L 304.290154 228.552696 
L 304.437792 229.034966 
L 304.585429 229.072402 
L 304.733066 229.515378 
L 304.880704 228.211218 
L 305.175978 229.422194 
L 305.323616 229.031527 
L 305.471253 229.386179 
L 305.618891 228.751523 
L 305.766528 230.388086 
L 305.914165 228.176327 
L 306.20944 229.21704 
L 306.504715 229.272419 
L 306.652352 228.451197 
L 306.799989 229.097283 
L 306.947627 229.237046 
L 307.095264 228.907459 
L 307.390539 230.678902 
L 307.538176 229.440139 
L 307.685814 230.367399 
L 307.833451 229.590176 
L 307.981088 229.923755 
L 308.128726 229.83921 
L 308.276363 231.505894 
L 308.571638 230.286058 
L 308.719275 230.755404 
L 308.866912 228.612866 
L 309.01455 229.14206 
L 309.162187 227.5733 
L 309.309824 228.783489 
L 309.457462 228.793857 
L 309.605099 230.274215 
L 309.752736 229.432501 
L 309.900374 230.841798 
L 310.195649 228.698608 
L 310.343286 229.340975 
L 310.490923 229.463272 
L 310.638561 229.803849 
L 310.786198 228.849355 
L 311.081473 230.022111 
L 311.376747 229.355521 
L 311.672022 230.320828 
L 311.967297 228.97484 
L 312.262572 230.004792 
L 312.557846 228.551106 
L 312.705484 230.571321 
L 313.000758 228.528673 
L 313.148396 230.637782 
L 313.44367 228.211156 
L 313.591308 228.347276 
L 313.738945 229.371541 
L 314.181857 229.778141 
L 314.329495 228.427195 
L 314.624769 228.670782 
L 315.067681 230.815211 
L 315.215319 228.190689 
L 315.362956 229.652748 
L 315.510593 229.190469 
L 315.658231 227.178844 
L 315.805868 229.267503 
L 315.953505 229.247751 
L 316.101143 228.076948 
L 316.396418 229.070457 
L 316.544055 228.810092 
L 316.691692 228.787831 
L 316.83933 227.669843 
L 317.134604 229.29372 
L 317.282242 228.932714 
L 317.429879 229.660188 
L 317.577516 228.128362 
L 317.872791 227.649709 
L 318.168066 228.416911 
L 318.46334 230.039279 
L 318.610978 228.335299 
L 318.758615 229.006867 
L 318.906253 227.606251 
L 319.05389 228.61339 
L 319.201527 228.58469 
L 319.349165 226.903721 
L 319.496802 227.490957 
L 319.644439 229.046057 
L 319.792077 227.846966 
L 319.939714 228.664767 
L 320.087351 228.522426 
L 320.234989 229.028757 
L 320.677901 226.633239 
L 320.825538 226.602244 
L 320.973176 227.984504 
L 321.120813 227.571311 
L 321.26845 225.987302 
L 321.416088 228.465531 
L 321.711362 225.510009 
L 322.006637 228.549402 
L 322.154274 228.61955 
L 322.301912 226.752988 
L 322.449549 226.720203 
L 322.597186 226.834059 
L 322.744824 225.078621 
L 322.892461 228.352189 
L 323.040099 228.106659 
L 323.187736 226.084116 
L 323.335373 227.081865 
L 323.483011 227.047889 
L 323.630648 226.741053 
L 323.778285 227.482081 
L 323.925923 225.572476 
L 324.07356 226.495186 
L 324.221197 226.602805 
L 324.368835 228.862462 
L 324.664109 226.497485 
L 324.811747 227.116654 
L 324.959384 226.957214 
L 325.107022 226.248523 
L 325.402296 228.25374 
L 325.549934 225.686284 
L 325.697571 226.247389 
L 325.845208 225.770601 
L 325.992846 226.578543 
L 326.28812 226.240972 
L 326.435758 225.625705 
L 326.583395 226.805436 
L 326.731032 225.993772 
L 326.87867 225.815026 
L 327.026307 226.05942 
L 327.173944 225.595584 
L 327.469219 227.356955 
L 327.764494 224.813482 
L 327.912131 224.603787 
L 328.207406 226.524428 
L 328.355043 226.125825 
L 328.650318 224.764247 
L 328.797955 227.031834 
L 328.945593 224.692284 
L 329.09323 226.308349 
L 329.240867 226.033836 
L 329.388505 225.481663 
L 329.536142 226.427843 
L 329.68378 224.982357 
L 329.831417 224.638571 
L 329.979054 226.429857 
L 330.274329 224.36915 
L 330.421966 224.802873 
L 330.569604 226.286216 
L 330.717241 225.02022 
L 330.864878 226.104625 
L 331.012516 225.723613 
L 331.160153 224.912265 
L 331.30779 225.406877 
L 331.455428 224.399513 
L 331.603065 225.458713 
L 331.750703 225.171503 
L 331.89834 224.442808 
L 332.193615 225.780292 
L 332.341252 225.853935 
L 332.488889 225.118509 
L 332.636527 224.955301 
L 332.931801 222.818378 
L 333.079439 224.847657 
L 333.374713 225.602883 
L 333.522351 225.457631 
L 333.669988 223.704666 
L 333.817625 224.797072 
L 333.965263 223.472342 
L 334.1129 224.334401 
L 334.260538 223.234876 
L 334.851087 225.862817 
L 334.998724 224.996876 
L 335.146362 221.877997 
L 335.293999 224.696375 
L 335.441636 222.225741 
L 335.589274 223.413337 
L 335.736911 223.678384 
L 335.884548 223.645347 
L 336.032186 223.754911 
L 336.179823 225.266953 
L 336.327461 223.689734 
L 336.475098 225.099524 
L 336.770373 222.493471 
L 336.91801 224.21597 
L 337.065647 223.802417 
L 337.213285 224.028821 
L 337.360922 221.999846 
L 337.508559 223.838934 
L 337.656197 222.963705 
L 337.803834 223.511689 
L 337.951471 222.901821 
L 338.099109 223.450047 
L 338.246746 222.99188 
L 338.394384 221.783631 
L 338.689658 224.734568 
L 338.837296 223.432349 
L 339.13257 223.874966 
L 339.427845 222.281213 
L 339.575482 221.730672 
L 339.72312 223.989176 
L 340.018394 221.642816 
L 340.166032 222.893683 
L 340.313669 222.267768 
L 340.461307 222.395599 
L 340.608944 223.462446 
L 340.756581 222.917989 
L 340.904219 221.471893 
L 341.051856 222.283289 
L 341.199493 222.255794 
L 341.347131 223.323806 
L 341.494768 222.780571 
L 341.642405 223.146217 
L 341.93768 221.636795 
L 342.085317 224.081991 
L 342.380592 221.386843 
L 342.528229 222.992421 
L 342.675867 221.840157 
L 342.823504 222.413117 
L 342.971142 222.246868 
L 343.118779 222.504098 
L 343.266416 222.200236 
L 343.414054 222.177433 
L 343.561691 222.828024 
L 343.709328 221.834569 
L 344.004603 222.231997 
L 344.15224 222.349147 
L 344.299878 222.965369 
L 344.447515 221.06973 
L 344.74279 224.758924 
L 344.890427 221.350883 
L 345.185702 223.301367 
L 345.333339 221.611816 
L 345.480977 221.275093 
L 345.628614 222.546289 
L 345.776251 221.400474 
L 345.923889 221.539093 
L 346.071526 220.30051 
L 346.366801 221.168878 
L 346.514438 222.803997 
L 346.662075 221.604959 
L 346.809713 222.770895 
L 346.95735 222.754687 
L 347.104988 221.845562 
L 347.252625 219.753009 
L 347.400262 222.344949 
L 347.5479 222.453616 
L 347.695537 220.504222 
L 347.990812 223.092091 
L 348.286086 220.626943 
L 348.581361 221.972499 
L 348.728998 221.397598 
L 348.876636 221.674174 
L 349.171911 220.723631 
L 349.319548 221.911007 
L 349.467185 220.700821 
L 349.76246 222.260373 
L 349.910097 221.868461 
L 350.057735 220.827268 
L 350.353009 221.971499 
L 350.500647 221.119011 
L 350.648284 222.082369 
L 350.943559 220.778205 
L 351.091196 221.803058 
L 351.238833 220.424304 
L 351.386471 222.293556 
L 351.534108 221.370325 
L 351.681746 221.507686 
L 351.829383 220.036071 
L 351.97702 220.218895 
L 352.124658 222.149367 
L 352.272295 220.732393 
L 352.419932 220.561773 
L 352.56757 220.01824 
L 352.715207 218.951123 
L 353.010482 221.478463 
L 353.305756 222.250758 
L 353.453394 221.877683 
L 353.601031 221.184154 
L 353.748669 221.472711 
L 353.896306 219.17351 
L 354.043943 220.874875 
L 354.191581 221.031246 
L 354.486855 222.809601 
L 354.634493 222.248129 
L 354.78213 221.032692 
L 354.929767 221.612424 
L 355.077405 221.034325 
L 355.225042 221.614333 
L 355.520317 220.378697 
L 355.667954 220.882757 
L 355.815592 223.321333 
L 355.963229 220.885955 
L 356.110866 222.605239 
L 356.258504 221.625075 
L 356.406141 221.892229 
L 356.553778 222.721046 
L 356.701416 221.35088 
L 356.99669 221.057625 
L 357.144328 222.276378 
L 357.291965 220.577614 
L 357.439602 220.748027 
L 357.58724 221.510031 
L 357.734877 219.851619 
L 358.030152 222.050946 
L 358.325427 222.648235 
L 358.473064 221.670135 
L 358.768339 221.540166 
L 358.915976 221.544502 
L 359.063613 220.26911 
L 359.358888 222.788135 
L 359.506525 222.093407 
L 359.654163 222.09815 
L 359.8018 223.217463 
L 359.949437 221.136424 
L 360.097075 222.236502 
L 360.244712 221.586768 
L 360.39235 222.366912 
L 360.539987 220.999205 
L 360.687624 221.739332 
L 360.835262 223.047787 
L 360.982899 221.169513 
L 361.130536 221.173939 
L 361.278174 223.458841 
L 361.573448 221.899742 
L 361.721086 220.871982 
L 362.01636 222.530955 
L 362.311635 221.916524 
L 362.459273 222.421795 
L 362.60691 223.392321 
L 362.754547 221.650836 
L 363.049822 222.057392 
L 363.197459 220.375239 
L 363.345097 222.431152 
L 363.492734 221.059065 
L 363.640371 223.200928 
L 363.788009 222.77622 
L 363.935646 221.793397 
L 364.083283 221.653961 
L 364.230921 222.055816 
L 364.378558 220.1835 
L 364.526196 221.50563 
L 364.673833 221.64522 
L 364.82147 221.499519 
L 364.969108 223.080319 
L 365.116745 222.164624 
L 365.264382 222.0327 
L 365.41202 222.961364 
L 365.559657 221.475976 
L 365.707294 221.612168 
L 365.854932 223.539784 
L 366.297844 221.439236 
L 366.445481 223.117264 
L 366.593118 220.965669 
L 366.740756 222.78244 
L 366.888393 221.252084 
L 367.036031 222.866793 
L 367.331305 222.034411 
L 367.478943 221.893159 
L 367.62658 221.332512 
L 367.774217 223.20282 
L 367.921855 222.097355 
L 368.217129 222.849273 
L 368.512404 223.207711 
L 368.660041 222.467027 
L 368.807679 223.068038 
L 368.955316 222.946483 
L 369.102954 223.571691 
L 369.250591 223.632316 
L 369.545866 221.601098 
L 369.693503 222.912465 
L 369.988778 220.510696 
L 370.136415 220.786192 
L 370.284052 222.686914 
L 370.43169 221.899949 
L 370.579327 221.745883 
L 370.874602 222.539155 
L 371.022239 222.398386 
L 371.169877 221.932309 
L 371.317514 222.975869 
L 371.465151 222.166315 
L 371.612789 222.222859 
L 371.908063 223.129539 
L 372.055701 222.995988 
L 372.203338 221.59921 
L 372.350975 222.632224 
L 372.498613 221.377974 
L 372.64625 221.958133 
L 372.793887 221.591716 
L 372.941525 223.968596 
L 373.2368 221.406228 
L 373.384437 221.548488 
L 373.532074 220.712203 
L 373.679712 220.761371 
L 373.827349 222.889452 
L 373.974986 221.062996 
L 374.122624 222.199848 
L 374.270261 222.285938 
L 374.565536 220.964301 
L 374.713173 221.17851 
L 374.86081 222.347425 
L 375.008448 220.613394 
L 375.156085 221.549967 
L 375.303722 220.541561 
L 375.45136 218.764552 
L 375.598997 221.603942 
L 375.894272 220.466826 
L 376.189547 219.661719 
L 376.632459 220.507079 
L 376.780096 219.956008 
L 376.927733 220.463222 
L 377.223008 219.441607 
L 377.370645 219.61444 
L 377.518283 219.218956 
L 377.66592 220.150761 
L 377.961195 219.76166 
L 378.108832 218.135804 
L 378.25647 219.989345 
L 378.404107 218.522657 
L 378.551744 219.040229 
L 378.699382 220.118938 
L 378.847019 218.258347 
L 378.994656 219.006593 
L 379.142294 217.616884 
L 379.289931 218.07926 
L 379.437568 217.371472 
L 379.585206 218.435772 
L 379.732843 217.800842 
L 379.880481 218.189146 
L 380.175755 216.088488 
L 380.323393 217.655259 
L 380.47103 217.362297 
L 380.913942 214.56073 
L 381.061579 215.358387 
L 381.209217 215.118371 
L 381.356854 216.810589 
L 381.504491 216.346311 
L 381.652129 214.515853 
L 381.799766 215.335045 
L 381.947403 215.004896 
L 382.095041 214.176181 
L 382.242678 214.999894 
L 382.390316 213.41178 
L 382.537953 213.978214 
L 382.68559 213.615558 
L 382.833228 213.894716 
L 382.980865 212.997126 
L 383.128502 210.964324 
L 383.27614 211.845222 
L 383.423777 211.924968 
L 383.571414 211.293003 
L 383.719052 212.07407 
L 383.866689 211.6588 
L 384.014326 212.060976 
L 384.161964 212.951686 
L 384.457239 210.191684 
L 384.604876 211.599575 
L 384.900151 210.400744 
L 385.195425 209.864249 
L 385.4907 208.526198 
L 385.638337 209.007999 
L 385.785975 205.900534 
L 385.933612 208.662998 
L 386.081249 205.820676 
L 386.228887 207.72062 
L 386.376524 204.053892 
L 386.524162 208.532766 
L 386.671799 207.639811 
L 386.819436 209.659773 
L 387.114711 205.659308 
L 387.262348 209.413396 
L 387.557623 203.947331 
L 387.70526 203.21657 
L 387.852898 207.596768 
L 387.852898 207.596768 
" style="fill:none;stroke:#1f77b4;stroke-linecap:square;stroke-width:1.5;"/>
   </g>
   <g id="patch_3">
    <path d="M 46.965625 273.312 
L 46.965625 7.2 
" style="fill:none;stroke:#000000;stroke-linecap:square;stroke-linejoin:miter;stroke-width:0.8;"/>
   </g>
   <g id="patch_4">
    <path d="M 404.085625 273.312 
L 404.085625 7.2 
" style="fill:none;stroke:#000000;stroke-linecap:square;stroke-linejoin:miter;stroke-width:0.8;"/>
   </g>
   <g id="patch_5">
    <path d="M 46.965625 273.312 
L 404.085625 273.312 
" style="fill:none;stroke:#000000;stroke-linecap:square;stroke-linejoin:miter;stroke-width:0.8;"/>
   </g>
   <g id="patch_6">
    <path d="M 46.965625 7.2 
L 404.085625 7.2 
" style="fill:none;stroke:#000000;stroke-linecap:square;stroke-linejoin:miter;stroke-width:0.8;"/>
   </g>
  </g>
 </g>
 <defs>
  <clipPath id="p95e232014b">
   <rect height="266.112" width="357.12" x="46.965625" y="7.2"/>
  </clipPath>
 </defs>
</svg>
