<?xml version="1.0" encoding="utf-8" standalone="no"?>
<!DOCTYPE svg PUBLIC "-//W3C//DTD SVG 1.1//EN"
  "http://www.w3.org/Graphics/SVG/1.1/DTD/svg11.dtd">
<svg height="310.86825pt" version="1.1" viewBox="0 0 411.285625 310.86825" width="411.285625pt" xmlns="http://www.w3.org/2000/svg" xmlns:xlink="http://www.w3.org/1999/xlink">
 <metadata>
  <rdf:RDF xmlns:cc="http://creativecommons.org/ns#" xmlns:dc="http://purl.org/dc/elements/1.1/" xmlns:rdf="http://www.w3.org/1999/02/22-rdf-syntax-ns#">
   <cc:Work>
    <dc:type rdf:resource="http://purl.org/dc/dcmitype/StillImage"/>
    <dc:date>2022-01-24T15:01:17.082155</dc:date>
    <dc:format>image/svg+xml</dc:format>
    <dc:creator>
     <cc:Agent>
      <dc:title>Matplotlib v3.4.2, https://matplotlib.org/</dc:title>
     </cc:Agent>
    </dc:creator>
   </cc:Work>
  </rdf:RDF>
 </metadata>
 <defs>
  <style type="text/css">*{stroke-linecap:butt;stroke-linejoin:round;}</style>
 </defs>
 <g id="figure_1">
  <g id="patch_1">
   <path d="M 0 310.86825 
L 411.285625 310.86825 
L 411.285625 0 
L 0 0 
z
" style="fill:#ffffff;"/>
  </g>
  <g id="axes_1">
   <g id="patch_2">
    <path d="M 46.965625 273.312 
L 404.085625 273.312 
L 404.085625 7.2 
L 46.965625 7.2 
z
" style="fill:#ffffff;"/>
   </g>
   <g id="matplotlib.axis_1">
    <g id="xtick_1">
     <g id="line2d_1">
      <defs>
       <path d="M 0 0 
L 0 3.5 
" id="m5a376ee2d5" style="stroke:#000000;stroke-width:0.8;"/>
      </defs>
      <g>
       <use style="stroke:#000000;stroke-width:0.8;" x="77.888269" xlink:href="#m5a376ee2d5" y="273.312"/>
      </g>
     </g>
     <g id="text_1">
      <!-- −10 -->
      <g transform="translate(67.335925 287.910437)scale(0.1 -0.1)">
       <defs>
        <path d="M 678 2272 
L 4684 2272 
L 4684 1741 
L 678 1741 
L 678 2272 
z
" id="DejaVuSans-2212" transform="scale(0.015625)"/>
        <path d="M 794 531 
L 1825 531 
L 1825 4091 
L 703 3866 
L 703 4441 
L 1819 4666 
L 2450 4666 
L 2450 531 
L 3481 531 
L 3481 0 
L 794 0 
L 794 531 
z
" id="DejaVuSans-31" transform="scale(0.015625)"/>
        <path d="M 2034 4250 
Q 1547 4250 1301 3770 
Q 1056 3291 1056 2328 
Q 1056 1369 1301 889 
Q 1547 409 2034 409 
Q 2525 409 2770 889 
Q 3016 1369 3016 2328 
Q 3016 3291 2770 3770 
Q 2525 4250 2034 4250 
z
M 2034 4750 
Q 2819 4750 3233 4129 
Q 3647 3509 3647 2328 
Q 3647 1150 3233 529 
Q 2819 -91 2034 -91 
Q 1250 -91 836 529 
Q 422 1150 422 2328 
Q 422 3509 836 4129 
Q 1250 4750 2034 4750 
z
" id="DejaVuSans-30" transform="scale(0.015625)"/>
       </defs>
       <use xlink:href="#DejaVuSans-2212"/>
       <use x="83.789062" xlink:href="#DejaVuSans-31"/>
       <use x="147.412109" xlink:href="#DejaVuSans-30"/>
      </g>
     </g>
    </g>
    <g id="xtick_2">
     <g id="line2d_2">
      <g>
       <use style="stroke:#000000;stroke-width:0.8;" x="151.706947" xlink:href="#m5a376ee2d5" y="273.312"/>
      </g>
     </g>
     <g id="text_2">
      <!-- −5 -->
      <g transform="translate(144.335853 287.910437)scale(0.1 -0.1)">
       <defs>
        <path d="M 691 4666 
L 3169 4666 
L 3169 4134 
L 1269 4134 
L 1269 2991 
Q 1406 3038 1543 3061 
Q 1681 3084 1819 3084 
Q 2600 3084 3056 2656 
Q 3513 2228 3513 1497 
Q 3513 744 3044 326 
Q 2575 -91 1722 -91 
Q 1428 -91 1123 -41 
Q 819 9 494 109 
L 494 744 
Q 775 591 1075 516 
Q 1375 441 1709 441 
Q 2250 441 2565 725 
Q 2881 1009 2881 1497 
Q 2881 1984 2565 2268 
Q 2250 2553 1709 2553 
Q 1456 2553 1204 2497 
Q 953 2441 691 2322 
L 691 4666 
z
" id="DejaVuSans-35" transform="scale(0.015625)"/>
       </defs>
       <use xlink:href="#DejaVuSans-2212"/>
       <use x="83.789062" xlink:href="#DejaVuSans-35"/>
      </g>
     </g>
    </g>
    <g id="xtick_3">
     <g id="line2d_3">
      <g>
       <use style="stroke:#000000;stroke-width:0.8;" x="225.525625" xlink:href="#m5a376ee2d5" y="273.312"/>
      </g>
     </g>
     <g id="text_3">
      <!-- 0 -->
      <g transform="translate(222.344375 287.910437)scale(0.1 -0.1)">
       <use xlink:href="#DejaVuSans-30"/>
      </g>
     </g>
    </g>
    <g id="xtick_4">
     <g id="line2d_4">
      <g>
       <use style="stroke:#000000;stroke-width:0.8;" x="299.344303" xlink:href="#m5a376ee2d5" y="273.312"/>
      </g>
     </g>
     <g id="text_4">
      <!-- 5 -->
      <g transform="translate(296.163053 287.910437)scale(0.1 -0.1)">
       <use xlink:href="#DejaVuSans-35"/>
      </g>
     </g>
    </g>
    <g id="xtick_5">
     <g id="line2d_5">
      <g>
       <use style="stroke:#000000;stroke-width:0.8;" x="373.162981" xlink:href="#m5a376ee2d5" y="273.312"/>
      </g>
     </g>
     <g id="text_5">
      <!-- 10 -->
      <g transform="translate(366.800481 287.910437)scale(0.1 -0.1)">
       <use xlink:href="#DejaVuSans-31"/>
       <use x="63.623047" xlink:href="#DejaVuSans-30"/>
      </g>
     </g>
    </g>
    <g id="text_6">
     <!-- CV (Angstrom) -->
     <g transform="translate(188.9225 301.588562)scale(0.1 -0.1)">
      <defs>
       <path d="M 4122 4306 
L 4122 3641 
Q 3803 3938 3442 4084 
Q 3081 4231 2675 4231 
Q 1875 4231 1450 3742 
Q 1025 3253 1025 2328 
Q 1025 1406 1450 917 
Q 1875 428 2675 428 
Q 3081 428 3442 575 
Q 3803 722 4122 1019 
L 4122 359 
Q 3791 134 3420 21 
Q 3050 -91 2638 -91 
Q 1578 -91 968 557 
Q 359 1206 359 2328 
Q 359 3453 968 4101 
Q 1578 4750 2638 4750 
Q 3056 4750 3426 4639 
Q 3797 4528 4122 4306 
z
" id="DejaVuSans-43" transform="scale(0.015625)"/>
       <path d="M 1831 0 
L 50 4666 
L 709 4666 
L 2188 738 
L 3669 4666 
L 4325 4666 
L 2547 0 
L 1831 0 
z
" id="DejaVuSans-56" transform="scale(0.015625)"/>
       <path id="DejaVuSans-20" transform="scale(0.015625)"/>
       <path d="M 1984 4856 
Q 1566 4138 1362 3434 
Q 1159 2731 1159 2009 
Q 1159 1288 1364 580 
Q 1569 -128 1984 -844 
L 1484 -844 
Q 1016 -109 783 600 
Q 550 1309 550 2009 
Q 550 2706 781 3412 
Q 1013 4119 1484 4856 
L 1984 4856 
z
" id="DejaVuSans-28" transform="scale(0.015625)"/>
       <path d="M 2188 4044 
L 1331 1722 
L 3047 1722 
L 2188 4044 
z
M 1831 4666 
L 2547 4666 
L 4325 0 
L 3669 0 
L 3244 1197 
L 1141 1197 
L 716 0 
L 50 0 
L 1831 4666 
z
" id="DejaVuSans-41" transform="scale(0.015625)"/>
       <path d="M 3513 2113 
L 3513 0 
L 2938 0 
L 2938 2094 
Q 2938 2591 2744 2837 
Q 2550 3084 2163 3084 
Q 1697 3084 1428 2787 
Q 1159 2491 1159 1978 
L 1159 0 
L 581 0 
L 581 3500 
L 1159 3500 
L 1159 2956 
Q 1366 3272 1645 3428 
Q 1925 3584 2291 3584 
Q 2894 3584 3203 3211 
Q 3513 2838 3513 2113 
z
" id="DejaVuSans-6e" transform="scale(0.015625)"/>
       <path d="M 2906 1791 
Q 2906 2416 2648 2759 
Q 2391 3103 1925 3103 
Q 1463 3103 1205 2759 
Q 947 2416 947 1791 
Q 947 1169 1205 825 
Q 1463 481 1925 481 
Q 2391 481 2648 825 
Q 2906 1169 2906 1791 
z
M 3481 434 
Q 3481 -459 3084 -895 
Q 2688 -1331 1869 -1331 
Q 1566 -1331 1297 -1286 
Q 1028 -1241 775 -1147 
L 775 -588 
Q 1028 -725 1275 -790 
Q 1522 -856 1778 -856 
Q 2344 -856 2625 -561 
Q 2906 -266 2906 331 
L 2906 616 
Q 2728 306 2450 153 
Q 2172 0 1784 0 
Q 1141 0 747 490 
Q 353 981 353 1791 
Q 353 2603 747 3093 
Q 1141 3584 1784 3584 
Q 2172 3584 2450 3431 
Q 2728 3278 2906 2969 
L 2906 3500 
L 3481 3500 
L 3481 434 
z
" id="DejaVuSans-67" transform="scale(0.015625)"/>
       <path d="M 2834 3397 
L 2834 2853 
Q 2591 2978 2328 3040 
Q 2066 3103 1784 3103 
Q 1356 3103 1142 2972 
Q 928 2841 928 2578 
Q 928 2378 1081 2264 
Q 1234 2150 1697 2047 
L 1894 2003 
Q 2506 1872 2764 1633 
Q 3022 1394 3022 966 
Q 3022 478 2636 193 
Q 2250 -91 1575 -91 
Q 1294 -91 989 -36 
Q 684 19 347 128 
L 347 722 
Q 666 556 975 473 
Q 1284 391 1588 391 
Q 1994 391 2212 530 
Q 2431 669 2431 922 
Q 2431 1156 2273 1281 
Q 2116 1406 1581 1522 
L 1381 1569 
Q 847 1681 609 1914 
Q 372 2147 372 2553 
Q 372 3047 722 3315 
Q 1072 3584 1716 3584 
Q 2034 3584 2315 3537 
Q 2597 3491 2834 3397 
z
" id="DejaVuSans-73" transform="scale(0.015625)"/>
       <path d="M 1172 4494 
L 1172 3500 
L 2356 3500 
L 2356 3053 
L 1172 3053 
L 1172 1153 
Q 1172 725 1289 603 
Q 1406 481 1766 481 
L 2356 481 
L 2356 0 
L 1766 0 
Q 1100 0 847 248 
Q 594 497 594 1153 
L 594 3053 
L 172 3053 
L 172 3500 
L 594 3500 
L 594 4494 
L 1172 4494 
z
" id="DejaVuSans-74" transform="scale(0.015625)"/>
       <path d="M 2631 2963 
Q 2534 3019 2420 3045 
Q 2306 3072 2169 3072 
Q 1681 3072 1420 2755 
Q 1159 2438 1159 1844 
L 1159 0 
L 581 0 
L 581 3500 
L 1159 3500 
L 1159 2956 
Q 1341 3275 1631 3429 
Q 1922 3584 2338 3584 
Q 2397 3584 2469 3576 
Q 2541 3569 2628 3553 
L 2631 2963 
z
" id="DejaVuSans-72" transform="scale(0.015625)"/>
       <path d="M 1959 3097 
Q 1497 3097 1228 2736 
Q 959 2375 959 1747 
Q 959 1119 1226 758 
Q 1494 397 1959 397 
Q 2419 397 2687 759 
Q 2956 1122 2956 1747 
Q 2956 2369 2687 2733 
Q 2419 3097 1959 3097 
z
M 1959 3584 
Q 2709 3584 3137 3096 
Q 3566 2609 3566 1747 
Q 3566 888 3137 398 
Q 2709 -91 1959 -91 
Q 1206 -91 779 398 
Q 353 888 353 1747 
Q 353 2609 779 3096 
Q 1206 3584 1959 3584 
z
" id="DejaVuSans-6f" transform="scale(0.015625)"/>
       <path d="M 3328 2828 
Q 3544 3216 3844 3400 
Q 4144 3584 4550 3584 
Q 5097 3584 5394 3201 
Q 5691 2819 5691 2113 
L 5691 0 
L 5113 0 
L 5113 2094 
Q 5113 2597 4934 2840 
Q 4756 3084 4391 3084 
Q 3944 3084 3684 2787 
Q 3425 2491 3425 1978 
L 3425 0 
L 2847 0 
L 2847 2094 
Q 2847 2600 2669 2842 
Q 2491 3084 2119 3084 
Q 1678 3084 1418 2786 
Q 1159 2488 1159 1978 
L 1159 0 
L 581 0 
L 581 3500 
L 1159 3500 
L 1159 2956 
Q 1356 3278 1631 3431 
Q 1906 3584 2284 3584 
Q 2666 3584 2933 3390 
Q 3200 3197 3328 2828 
z
" id="DejaVuSans-6d" transform="scale(0.015625)"/>
       <path d="M 513 4856 
L 1013 4856 
Q 1481 4119 1714 3412 
Q 1947 2706 1947 2009 
Q 1947 1309 1714 600 
Q 1481 -109 1013 -844 
L 513 -844 
Q 928 -128 1133 580 
Q 1338 1288 1338 2009 
Q 1338 2731 1133 3434 
Q 928 4138 513 4856 
z
" id="DejaVuSans-29" transform="scale(0.015625)"/>
      </defs>
      <use xlink:href="#DejaVuSans-43"/>
      <use x="69.824219" xlink:href="#DejaVuSans-56"/>
      <use x="138.232422" xlink:href="#DejaVuSans-20"/>
      <use x="170.019531" xlink:href="#DejaVuSans-28"/>
      <use x="209.033203" xlink:href="#DejaVuSans-41"/>
      <use x="277.441406" xlink:href="#DejaVuSans-6e"/>
      <use x="340.820312" xlink:href="#DejaVuSans-67"/>
      <use x="404.296875" xlink:href="#DejaVuSans-73"/>
      <use x="456.396484" xlink:href="#DejaVuSans-74"/>
      <use x="495.605469" xlink:href="#DejaVuSans-72"/>
      <use x="534.46875" xlink:href="#DejaVuSans-6f"/>
      <use x="595.650391" xlink:href="#DejaVuSans-6d"/>
      <use x="693.0625" xlink:href="#DejaVuSans-29"/>
     </g>
    </g>
   </g>
   <g id="matplotlib.axis_2">
    <g id="ytick_1">
     <g id="line2d_6">
      <defs>
       <path d="M 0 0 
L -3.5 0 
" id="m911d206f4a" style="stroke:#000000;stroke-width:0.8;"/>
      </defs>
      <g>
       <use style="stroke:#000000;stroke-width:0.8;" x="46.965625" xlink:href="#m911d206f4a" y="261.216"/>
      </g>
     </g>
     <g id="text_7">
      <!-- 0 -->
      <g transform="translate(33.603125 265.015219)scale(0.1 -0.1)">
       <use xlink:href="#DejaVuSans-30"/>
      </g>
     </g>
    </g>
    <g id="ytick_2">
     <g id="line2d_7">
      <g>
       <use style="stroke:#000000;stroke-width:0.8;" x="46.965625" xlink:href="#m911d206f4a" y="222.417498"/>
      </g>
     </g>
     <g id="text_8">
      <!-- 20 -->
      <g transform="translate(27.240625 226.216717)scale(0.1 -0.1)">
       <defs>
        <path d="M 1228 531 
L 3431 531 
L 3431 0 
L 469 0 
L 469 531 
Q 828 903 1448 1529 
Q 2069 2156 2228 2338 
Q 2531 2678 2651 2914 
Q 2772 3150 2772 3378 
Q 2772 3750 2511 3984 
Q 2250 4219 1831 4219 
Q 1534 4219 1204 4116 
Q 875 4013 500 3803 
L 500 4441 
Q 881 4594 1212 4672 
Q 1544 4750 1819 4750 
Q 2544 4750 2975 4387 
Q 3406 4025 3406 3419 
Q 3406 3131 3298 2873 
Q 3191 2616 2906 2266 
Q 2828 2175 2409 1742 
Q 1991 1309 1228 531 
z
" id="DejaVuSans-32" transform="scale(0.015625)"/>
       </defs>
       <use xlink:href="#DejaVuSans-32"/>
       <use x="63.623047" xlink:href="#DejaVuSans-30"/>
      </g>
     </g>
    </g>
    <g id="ytick_3">
     <g id="line2d_8">
      <g>
       <use style="stroke:#000000;stroke-width:0.8;" x="46.965625" xlink:href="#m911d206f4a" y="183.618997"/>
      </g>
     </g>
     <g id="text_9">
      <!-- 40 -->
      <g transform="translate(27.240625 187.418216)scale(0.1 -0.1)">
       <defs>
        <path d="M 2419 4116 
L 825 1625 
L 2419 1625 
L 2419 4116 
z
M 2253 4666 
L 3047 4666 
L 3047 1625 
L 3713 1625 
L 3713 1100 
L 3047 1100 
L 3047 0 
L 2419 0 
L 2419 1100 
L 313 1100 
L 313 1709 
L 2253 4666 
z
" id="DejaVuSans-34" transform="scale(0.015625)"/>
       </defs>
       <use xlink:href="#DejaVuSans-34"/>
       <use x="63.623047" xlink:href="#DejaVuSans-30"/>
      </g>
     </g>
    </g>
    <g id="ytick_4">
     <g id="line2d_9">
      <g>
       <use style="stroke:#000000;stroke-width:0.8;" x="46.965625" xlink:href="#m911d206f4a" y="144.820495"/>
      </g>
     </g>
     <g id="text_10">
      <!-- 60 -->
      <g transform="translate(27.240625 148.619714)scale(0.1 -0.1)">
       <defs>
        <path d="M 2113 2584 
Q 1688 2584 1439 2293 
Q 1191 2003 1191 1497 
Q 1191 994 1439 701 
Q 1688 409 2113 409 
Q 2538 409 2786 701 
Q 3034 994 3034 1497 
Q 3034 2003 2786 2293 
Q 2538 2584 2113 2584 
z
M 3366 4563 
L 3366 3988 
Q 3128 4100 2886 4159 
Q 2644 4219 2406 4219 
Q 1781 4219 1451 3797 
Q 1122 3375 1075 2522 
Q 1259 2794 1537 2939 
Q 1816 3084 2150 3084 
Q 2853 3084 3261 2657 
Q 3669 2231 3669 1497 
Q 3669 778 3244 343 
Q 2819 -91 2113 -91 
Q 1303 -91 875 529 
Q 447 1150 447 2328 
Q 447 3434 972 4092 
Q 1497 4750 2381 4750 
Q 2619 4750 2861 4703 
Q 3103 4656 3366 4563 
z
" id="DejaVuSans-36" transform="scale(0.015625)"/>
       </defs>
       <use xlink:href="#DejaVuSans-36"/>
       <use x="63.623047" xlink:href="#DejaVuSans-30"/>
      </g>
     </g>
    </g>
    <g id="ytick_5">
     <g id="line2d_10">
      <g>
       <use style="stroke:#000000;stroke-width:0.8;" x="46.965625" xlink:href="#m911d206f4a" y="106.021994"/>
      </g>
     </g>
     <g id="text_11">
      <!-- 80 -->
      <g transform="translate(27.240625 109.821212)scale(0.1 -0.1)">
       <defs>
        <path d="M 2034 2216 
Q 1584 2216 1326 1975 
Q 1069 1734 1069 1313 
Q 1069 891 1326 650 
Q 1584 409 2034 409 
Q 2484 409 2743 651 
Q 3003 894 3003 1313 
Q 3003 1734 2745 1975 
Q 2488 2216 2034 2216 
z
M 1403 2484 
Q 997 2584 770 2862 
Q 544 3141 544 3541 
Q 544 4100 942 4425 
Q 1341 4750 2034 4750 
Q 2731 4750 3128 4425 
Q 3525 4100 3525 3541 
Q 3525 3141 3298 2862 
Q 3072 2584 2669 2484 
Q 3125 2378 3379 2068 
Q 3634 1759 3634 1313 
Q 3634 634 3220 271 
Q 2806 -91 2034 -91 
Q 1263 -91 848 271 
Q 434 634 434 1313 
Q 434 1759 690 2068 
Q 947 2378 1403 2484 
z
M 1172 3481 
Q 1172 3119 1398 2916 
Q 1625 2713 2034 2713 
Q 2441 2713 2670 2916 
Q 2900 3119 2900 3481 
Q 2900 3844 2670 4047 
Q 2441 4250 2034 4250 
Q 1625 4250 1398 4047 
Q 1172 3844 1172 3481 
z
" id="DejaVuSans-38" transform="scale(0.015625)"/>
       </defs>
       <use xlink:href="#DejaVuSans-38"/>
       <use x="63.623047" xlink:href="#DejaVuSans-30"/>
      </g>
     </g>
    </g>
    <g id="ytick_6">
     <g id="line2d_11">
      <g>
       <use style="stroke:#000000;stroke-width:0.8;" x="46.965625" xlink:href="#m911d206f4a" y="67.223492"/>
      </g>
     </g>
     <g id="text_12">
      <!-- 100 -->
      <g transform="translate(20.878125 71.022711)scale(0.1 -0.1)">
       <use xlink:href="#DejaVuSans-31"/>
       <use x="63.623047" xlink:href="#DejaVuSans-30"/>
       <use x="127.246094" xlink:href="#DejaVuSans-30"/>
      </g>
     </g>
    </g>
    <g id="ytick_7">
     <g id="line2d_12">
      <g>
       <use style="stroke:#000000;stroke-width:0.8;" x="46.965625" xlink:href="#m911d206f4a" y="28.424991"/>
      </g>
     </g>
     <g id="text_13">
      <!-- 120 -->
      <g transform="translate(20.878125 32.224209)scale(0.1 -0.1)">
       <use xlink:href="#DejaVuSans-31"/>
       <use x="63.623047" xlink:href="#DejaVuSans-32"/>
       <use x="127.246094" xlink:href="#DejaVuSans-30"/>
      </g>
     </g>
    </g>
    <g id="text_14">
     <!-- F (kJ/mol) -->
     <g transform="translate(14.798438 163.995844)rotate(-90)scale(0.1 -0.1)">
      <defs>
       <path d="M 628 4666 
L 3309 4666 
L 3309 4134 
L 1259 4134 
L 1259 2759 
L 3109 2759 
L 3109 2228 
L 1259 2228 
L 1259 0 
L 628 0 
L 628 4666 
z
" id="DejaVuSans-46" transform="scale(0.015625)"/>
       <path d="M 581 4863 
L 1159 4863 
L 1159 1991 
L 2875 3500 
L 3609 3500 
L 1753 1863 
L 3688 0 
L 2938 0 
L 1159 1709 
L 1159 0 
L 581 0 
L 581 4863 
z
" id="DejaVuSans-6b" transform="scale(0.015625)"/>
       <path d="M 628 4666 
L 1259 4666 
L 1259 325 
Q 1259 -519 939 -900 
Q 619 -1281 -91 -1281 
L -331 -1281 
L -331 -750 
L -134 -750 
Q 284 -750 456 -515 
Q 628 -281 628 325 
L 628 4666 
z
" id="DejaVuSans-4a" transform="scale(0.015625)"/>
       <path d="M 1625 4666 
L 2156 4666 
L 531 -594 
L 0 -594 
L 1625 4666 
z
" id="DejaVuSans-2f" transform="scale(0.015625)"/>
       <path d="M 603 4863 
L 1178 4863 
L 1178 0 
L 603 0 
L 603 4863 
z
" id="DejaVuSans-6c" transform="scale(0.015625)"/>
      </defs>
      <use xlink:href="#DejaVuSans-46"/>
      <use x="57.519531" xlink:href="#DejaVuSans-20"/>
      <use x="89.306641" xlink:href="#DejaVuSans-28"/>
      <use x="128.320312" xlink:href="#DejaVuSans-6b"/>
      <use x="186.230469" xlink:href="#DejaVuSans-4a"/>
      <use x="215.722656" xlink:href="#DejaVuSans-2f"/>
      <use x="249.414062" xlink:href="#DejaVuSans-6d"/>
      <use x="346.826172" xlink:href="#DejaVuSans-6f"/>
      <use x="408.007812" xlink:href="#DejaVuSans-6c"/>
      <use x="435.791016" xlink:href="#DejaVuSans-29"/>
     </g>
    </g>
   </g>
   <g id="line2d_13">
    <path clip-path="url(#pae41201524)" d="M 63.198352 217.477314 
L 63.34599 214.119836 
L 63.493627 222.790831 
L 63.788902 220.844021 
L 63.936539 219.466126 
L 64.084176 224.230684 
L 64.231814 220.899478 
L 64.379451 224.280608 
L 64.527088 222.037719 
L 64.674726 226.309584 
L 64.970001 226.393427 
L 65.117638 225.049546 
L 65.265275 225.611645 
L 65.412913 223.942117 
L 65.56055 227.356546 
L 65.708187 227.754805 
L 66.003462 227.203063 
L 66.151099 228.283995 
L 66.298737 227.717903 
L 66.446374 226.6348 
L 66.741649 229.706509 
L 66.889286 230.037534 
L 67.036924 228.820227 
L 67.184561 228.610011 
L 67.332198 232.228254 
L 67.479836 231.098818 
L 67.627473 231.408694 
L 67.77511 231.32681 
L 68.070385 232.483452 
L 68.218022 232.262822 
L 68.36566 231.821066 
L 68.513297 233.637594 
L 68.660934 233.001916 
L 68.808572 233.763957 
L 68.956209 233.903488 
L 69.103847 234.599272 
L 69.251484 234.611417 
L 69.399121 235.145927 
L 69.546759 233.516149 
L 69.989671 236.660506 
L 70.137308 236.920584 
L 70.58022 235.73772 
L 70.727857 237.469781 
L 70.875495 237.838266 
L 71.023132 236.3784 
L 71.170769 237.764061 
L 71.318407 237.601036 
L 71.466044 237.998082 
L 71.613682 238.059807 
L 71.761319 239.845725 
L 71.908956 237.810255 
L 72.056594 238.23388 
L 72.204231 239.489679 
L 72.499506 238.999557 
L 72.942418 239.865906 
L 73.090055 240.743214 
L 73.237692 239.88742 
L 73.38533 241.281 
L 73.532967 240.98813 
L 73.680605 241.635263 
L 73.828242 241.140041 
L 74.123517 242.98563 
L 74.418791 242.774318 
L 74.566429 242.409594 
L 74.714066 242.947611 
L 74.861703 242.358774 
L 75.009341 243.547162 
L 75.156978 242.901022 
L 75.304615 243.167513 
L 75.452253 242.132872 
L 75.747528 243.569097 
L 75.895165 243.427395 
L 76.042802 244.275546 
L 76.19044 243.645179 
L 76.338077 245.584594 
L 76.485714 244.070265 
L 76.633352 244.533244 
L 76.780989 243.584578 
L 77.076264 245.555328 
L 77.223901 244.165816 
L 77.371538 245.491322 
L 77.519176 245.446165 
L 77.666813 244.611075 
L 77.81445 246.208613 
L 78.109725 245.392596 
L 78.257363 246.45299 
L 78.405 245.074537 
L 78.552637 245.083261 
L 78.700275 247.224888 
L 78.847912 247.359637 
L 78.995549 247.040337 
L 79.143187 247.877184 
L 79.290824 247.84061 
L 79.586099 247.462829 
L 79.733736 248.629687 
L 79.881373 247.309888 
L 80.029011 247.217957 
L 80.176648 248.148085 
L 80.324286 246.750772 
L 80.471923 248.387586 
L 80.61956 247.805736 
L 80.767198 248.132602 
L 80.914835 249.429394 
L 81.21011 246.614205 
L 81.357747 248.980953 
L 81.505384 248.897582 
L 81.653022 249.905257 
L 81.800659 248.368545 
L 81.948296 249.019511 
L 82.095934 247.834913 
L 82.243571 250.162976 
L 82.391209 250.180707 
L 82.538846 249.830459 
L 82.686483 248.110012 
L 82.834121 249.636733 
L 82.981758 248.024764 
L 83.129395 249.173354 
L 83.277033 249.387254 
L 83.42467 248.999326 
L 83.867582 250.101155 
L 84.015219 249.74356 
L 84.162857 250.59834 
L 84.310494 248.727612 
L 84.605769 250.107083 
L 84.753406 249.145782 
L 84.901044 249.916788 
L 85.048681 250.004482 
L 85.196318 249.553339 
L 85.343956 250.662284 
L 85.491593 249.725669 
L 85.63923 250.947336 
L 85.786868 250.68218 
L 85.934505 250.885949 
L 86.082142 250.473029 
L 86.22978 251.283568 
L 86.377417 251.36648 
L 86.525054 250.850835 
L 86.672692 249.625052 
L 86.820329 251.140367 
L 86.967967 250.967011 
L 87.115604 251.177095 
L 87.263241 249.949924 
L 87.410879 250.800018 
L 87.558516 250.433153 
L 87.853791 252.70814 
L 88.001428 251.782699 
L 88.149065 252.660525 
L 88.296703 250.337131 
L 88.44434 251.631736 
L 88.591977 251.433449 
L 88.739615 251.788084 
L 88.887252 251.729588 
L 89.03489 250.897216 
L 89.477802 253.034585 
L 89.625439 252.115138 
L 89.773076 252.589473 
L 89.920714 252.665633 
L 90.068351 252.479928 
L 90.215988 249.463203 
L 90.511263 253.677224 
L 90.6589 254.07132 
L 90.806538 252.988419 
L 90.954175 254.422101 
L 91.101813 252.7279 
L 91.24945 252.6574 
L 91.397087 252.731109 
L 91.544725 251.650947 
L 91.692362 253.022263 
L 91.839999 252.64828 
L 91.987637 254.524358 
L 92.282911 251.825017 
L 92.430549 253.384984 
L 92.578186 253.312421 
L 92.725823 252.758873 
L 92.873461 254.505929 
L 93.021098 252.901646 
L 93.316373 253.953611 
L 93.611648 253.507651 
L 93.906922 255.231566 
L 94.05456 255.071138 
L 94.202197 253.465433 
L 94.349834 255.871565 
L 94.497472 252.482999 
L 94.645109 254.85284 
L 94.792746 254.512847 
L 94.940384 253.81214 
L 95.235658 255.625089 
L 95.383296 256.143918 
L 95.530933 255.393947 
L 95.678571 255.946164 
L 95.826208 252.175544 
L 95.973845 255.335373 
L 96.121483 254.520308 
L 96.26912 254.899468 
L 96.416757 256.928011 
L 96.564395 256.788317 
L 96.712032 255.668115 
L 96.859669 255.995283 
L 97.007307 255.931411 
L 97.154944 256.125227 
L 97.302581 256.060542 
L 97.450219 255.570853 
L 97.745494 257.510396 
L 97.893131 257.36696 
L 98.040768 257.734661 
L 98.188406 256.304304 
L 98.48368 258.297088 
L 98.778955 256.806104 
L 99.07423 257.740696 
L 99.221867 256.979832 
L 99.369504 257.036439 
L 99.517142 258.120919 
L 99.664779 258.37781 
L 99.812417 257.202155 
L 99.960054 258.180467 
L 100.107691 257.67677 
L 100.255329 258.591646 
L 100.402966 257.897351 
L 100.550603 257.831599 
L 100.698241 257.384953 
L 100.993515 258.841984 
L 101.141153 258.143766 
L 101.28879 258.190636 
L 101.436427 257.354451 
L 101.731702 258.32621 
L 101.879339 257.623771 
L 102.026977 258.852467 
L 102.174614 258.679069 
L 102.322252 258.8286 
L 102.469889 259.474112 
L 102.617526 259.417226 
L 102.765164 258.836651 
L 102.912801 258.982421 
L 103.060438 258.568026 
L 103.208076 259.845317 
L 103.355713 258.867622 
L 103.50335 258.900672 
L 103.650988 258.205508 
L 103.798625 259.074924 
L 104.241537 259.270263 
L 104.389175 259.507388 
L 104.536812 258.752648 
L 104.684449 260.13886 
L 104.979724 257.430764 
L 105.274999 259.325126 
L 105.422636 259.452717 
L 105.570273 258.523238 
L 105.865548 260.201931 
L 106.30846 258.325376 
L 106.456098 258.734 
L 106.603735 260.353418 
L 106.751372 259.780389 
L 106.89901 260.086944 
L 107.046647 259.793503 
L 107.194284 261.216 
L 107.341922 259.482724 
L 107.489559 260.005941 
L 107.637196 260.104927 
L 107.932471 260.822011 
L 108.080108 260.003752 
L 108.227746 260.379962 
L 108.375383 259.363521 
L 108.523021 259.468905 
L 108.670658 260.541628 
L 108.818295 260.444635 
L 108.965933 258.336975 
L 109.11357 260.600706 
L 109.261207 260.040632 
L 109.408845 258.301893 
L 109.556482 260.386185 
L 109.851757 258.654408 
L 109.999394 261.083263 
L 110.147031 259.327857 
L 110.294669 259.627374 
L 110.442306 259.396211 
L 110.589943 259.68666 
L 110.737581 258.135378 
L 110.885218 259.537864 
L 111.032856 258.484256 
L 111.32813 260.131355 
L 111.475768 258.402829 
L 111.623405 258.857932 
L 111.771042 258.469153 
L 111.91868 259.640245 
L 112.066317 258.98954 
L 112.213954 259.171536 
L 112.361592 258.213006 
L 112.509229 259.878383 
L 112.656866 258.740279 
L 112.804504 258.814718 
L 112.952141 257.669697 
L 113.099779 258.39674 
L 113.247416 258.473898 
L 113.395053 259.559219 
L 113.542691 258.27585 
L 113.690328 257.991879 
L 113.837965 258.191071 
L 113.985603 258.808326 
L 114.13324 257.606325 
L 114.280877 258.718715 
L 114.428515 257.515145 
L 114.576152 258.195585 
L 114.723789 258.148078 
L 114.871427 258.319808 
L 115.019064 257.93697 
L 115.166702 258.826736 
L 115.314339 257.352523 
L 115.461976 258.010768 
L 115.609614 256.264361 
L 115.757251 256.658819 
L 115.904888 257.511513 
L 116.200163 257.283688 
L 116.3478 257.464652 
L 116.643075 255.214619 
L 116.790712 257.735844 
L 117.085987 256.297879 
L 117.233625 256.762921 
L 117.381262 255.100437 
L 117.528899 255.374676 
L 117.676537 256.706634 
L 117.824174 254.561595 
L 117.971811 255.028995 
L 118.119449 257.405879 
L 118.267086 257.913976 
L 118.414723 257.851747 
L 118.562361 256.088792 
L 118.709998 256.62398 
L 118.857635 256.446824 
L 119.005273 256.927468 
L 119.300547 254.785595 
L 119.448185 256.190568 
L 119.595822 254.958869 
L 119.74346 255.702205 
L 120.038734 254.907591 
L 120.186372 255.978245 
L 120.334009 255.439885 
L 120.481646 255.732377 
L 120.776921 254.283751 
L 120.924558 256.278832 
L 121.072196 254.981791 
L 121.219833 255.512917 
L 121.36747 254.847581 
L 121.515108 255.70471 
L 121.662745 253.404816 
L 121.95802 254.825384 
L 122.253295 254.0431 
L 122.400932 255.082122 
L 122.548569 253.906343 
L 122.696207 253.697479 
L 122.843844 253.905319 
L 122.991481 253.836442 
L 123.139119 253.631118 
L 123.286756 254.208116 
L 123.582031 251.39175 
L 123.877306 252.999585 
L 124.17258 253.791049 
L 124.467855 250.75857 
L 124.615492 252.025426 
L 124.76313 251.609734 
L 124.910767 253.561158 
L 125.058404 253.371752 
L 125.206042 252.370993 
L 125.353679 253.468063 
L 125.501316 252.375752 
L 125.648954 253.211877 
L 125.796591 252.236312 
L 126.091866 253.55993 
L 126.239503 251.734535 
L 126.534778 253.025943 
L 126.830053 251.89221 
L 126.97769 252.347283 
L 127.125327 251.755294 
L 127.272965 252.569356 
L 127.568239 251.551448 
L 127.715877 251.343671 
L 127.863514 251.940277 
L 128.011151 251.618488 
L 128.158789 250.372822 
L 128.306426 251.075922 
L 128.454064 250.239888 
L 128.601701 251.220043 
L 128.749338 249.389726 
L 128.896976 251.088538 
L 129.044613 249.807072 
L 129.339888 251.402872 
L 129.487525 250.551778 
L 129.635162 251.843652 
L 129.7828 250.961294 
L 129.930437 250.768258 
L 130.078074 248.807471 
L 130.225712 250.372079 
L 130.373349 250.02407 
L 130.520987 250.382052 
L 130.668624 248.357267 
L 130.816261 250.518306 
L 130.963899 249.624447 
L 131.111536 249.7113 
L 131.259173 249.934243 
L 131.406811 249.126837 
L 131.554448 251.633249 
L 131.849723 249.405321 
L 131.99736 250.275913 
L 132.144997 250.452079 
L 132.292635 247.882166 
L 132.440272 248.195386 
L 132.58791 249.915956 
L 132.735547 249.049236 
L 132.883184 248.991296 
L 133.030822 249.864664 
L 133.178459 247.723162 
L 133.326096 248.820269 
L 133.473734 248.908708 
L 133.769008 247.310429 
L 133.916646 246.852597 
L 134.064283 249.826504 
L 134.21192 248.03134 
L 134.359558 248.993591 
L 134.507195 248.239164 
L 134.654832 249.26765 
L 134.80247 247.983666 
L 134.950107 245.026695 
L 135.097745 248.740629 
L 135.245382 247.677275 
L 135.393019 247.788087 
L 135.540657 247.418232 
L 135.688294 247.371796 
L 135.835931 247.951306 
L 135.983569 246.365354 
L 136.131206 248.792856 
L 136.278843 247.023382 
L 136.426481 249.38268 
L 136.574118 247.272179 
L 136.721755 247.83635 
L 137.164668 245.609629 
L 137.312305 247.071667 
L 137.459942 246.523756 
L 137.60758 246.48632 
L 137.755217 246.959345 
L 138.050492 246.723592 
L 138.198129 247.313897 
L 138.345766 247.424027 
L 138.493404 248.054194 
L 138.788678 243.677242 
L 138.936316 246.522961 
L 139.083953 246.655613 
L 139.231591 247.370704 
L 139.379228 247.340461 
L 139.526865 246.400841 
L 139.674503 246.694456 
L 139.82214 246.50728 
L 140.117415 245.569798 
L 140.265052 247.569133 
L 140.412689 246.711456 
L 140.560327 246.532327 
L 140.707964 245.838972 
L 140.855601 246.160531 
L 141.003239 245.791194 
L 141.150876 246.114091 
L 141.298514 244.530058 
L 141.446151 246.546764 
L 141.741426 245.113976 
L 141.889063 246.010454 
L 142.0367 245.27383 
L 142.184338 247.153212 
L 142.331975 245.239367 
L 142.479612 246.566797 
L 142.774887 243.866057 
L 142.922524 247.206715 
L 143.217799 245.529046 
L 143.365436 245.335812 
L 143.513074 244.938822 
L 143.660711 246.61549 
L 143.808349 246.160738 
L 143.955986 246.307552 
L 144.103623 247.617542 
L 144.251261 247.128375 
L 144.398898 247.722607 
L 144.546535 245.095444 
L 144.694173 247.245218 
L 144.84181 245.092431 
L 144.989447 246.435769 
L 145.137085 245.093226 
L 145.432359 245.097756 
L 145.579997 246.444809 
L 145.875272 245.111355 
L 146.022909 245.490048 
L 146.170546 244.506226 
L 146.318184 247.029795 
L 146.465821 247.038595 
L 146.613458 246.19206 
L 146.908733 246.213605 
L 147.05637 244.566063 
L 147.204008 246.685137 
L 147.499282 245.773085 
L 147.794557 247.151933 
L 147.942195 242.465373 
L 148.089832 246.631193 
L 148.237469 246.02337 
L 148.385107 246.81111 
L 148.532744 245.890309 
L 148.680381 246.849113 
L 148.828019 245.75359 
L 148.975656 248.137217 
L 149.123293 245.971332 
L 149.270931 246.63929 
L 149.418568 245.46723 
L 149.713843 246.062432 
L 149.86148 246.420657 
L 150.009117 247.957223 
L 150.156755 244.970615 
L 150.304392 246.958975 
L 150.45203 246.986044 
L 150.599667 246.042802 
L 150.747304 247.595906 
L 150.894942 246.768971 
L 151.042579 246.640243 
L 151.190216 246.161105 
L 151.337854 247.163557 
L 151.633128 246.075123 
L 151.780766 248.070876 
L 151.928403 244.625736 
L 152.07604 247.183577 
L 152.223678 246.397649 
L 152.371315 246.434646 
L 152.518953 247.997085 
L 152.66659 247.020914 
L 152.814227 248.075169 
L 152.961865 247.100634 
L 153.109502 247.602902 
L 153.257139 246.849755 
L 153.404777 246.716465 
L 153.552414 247.730956 
L 153.700051 246.028332 
L 153.995326 248.796879 
L 154.142963 248.056999 
L 154.438238 245.584569 
L 154.585876 248.609977 
L 154.88115 247.18458 
L 155.028788 245.534779 
L 155.176425 247.286281 
L 155.324062 247.513974 
L 155.4717 250.174352 
L 155.619337 247.95287 
L 155.766974 248.467342 
L 155.914612 247.177684 
L 156.062249 248.860018 
L 156.357524 247.713937 
L 156.505161 248.591453 
L 156.652799 247.049224 
L 156.948073 249.053044 
L 157.243348 249.953098 
L 157.68626 247.232617 
L 157.833897 250.753266 
L 158.129172 249.789857 
L 158.424447 248.860623 
L 158.572084 247.797721 
L 158.719721 249.603492 
L 158.867359 248.691502 
L 159.014996 248.926627 
L 159.162634 249.478402 
L 159.310271 249.537777 
L 159.457908 251.291826 
L 159.605546 248.212473 
L 159.753183 248.675605 
L 159.90082 249.929861 
L 160.048458 249.677382 
L 160.196095 251.129301 
L 160.49137 250.318339 
L 160.786644 251.369202 
L 160.934282 248.957419 
L 161.081919 252.269568 
L 161.377194 250.053027 
L 161.524831 251.291729 
L 161.672469 249.256946 
L 161.967743 252.084022 
L 162.115381 252.477239 
L 162.410655 251.379338 
L 162.558293 251.961708 
L 162.70593 251.894491 
L 162.853567 252.662058 
L 163.001205 252.494803 
L 163.148842 251.938962 
L 163.29648 252.3733 
L 163.444117 252.181769 
L 163.591754 252.237978 
L 163.739392 253.003083 
L 163.887029 251.810677 
L 164.034666 251.57195 
L 164.182304 253.382012 
L 164.477578 253.891601 
L 164.772853 253.034643 
L 164.92049 254.327382 
L 165.068128 254.09514 
L 165.215765 254.239832 
L 165.363403 252.989746 
L 165.51104 253.729276 
L 165.658677 252.828249 
L 165.953952 253.864759 
L 166.101589 254.417699 
L 166.249227 253.949919 
L 166.396864 254.402913 
L 166.544501 254.241048 
L 166.692139 252.853161 
L 166.839776 255.077617 
L 166.987413 253.450286 
L 167.135051 253.485108 
L 167.282688 253.392903 
L 167.430325 254.1344 
L 167.577963 255.501828 
L 167.7256 255.002651 
L 167.873238 253.760817 
L 168.168512 253.688961 
L 168.759062 255.520279 
L 168.906699 254.889633 
L 169.054336 255.096677 
L 169.349611 253.819106 
L 169.497248 255.662253 
L 169.644886 254.302875 
L 169.792523 255.582993 
L 169.940161 255.752085 
L 170.087798 254.300609 
L 170.235435 254.180338 
L 170.53071 255.462962 
L 170.678347 254.141935 
L 170.825985 255.338207 
L 170.973622 252.62904 
L 171.121259 255.196432 
L 171.268897 255.764702 
L 171.564171 253.724764 
L 171.711809 254.248169 
L 171.859446 256.857788 
L 172.007084 255.109494 
L 172.154721 255.778999 
L 172.302358 254.886614 
L 172.449996 255.63164 
L 172.597633 255.547364 
L 172.74527 255.301894 
L 172.892908 255.504618 
L 173.040545 255.171374 
L 173.188182 256.025521 
L 173.33582 254.928548 
L 173.483457 256.127223 
L 173.631094 255.017468 
L 173.926369 255.660918 
L 174.074006 255.425844 
L 174.221644 256.150163 
L 174.369281 254.980753 
L 174.516919 255.693018 
L 174.664556 255.851787 
L 174.812193 255.480547 
L 174.959831 254.69035 
L 175.107468 255.430168 
L 175.255105 254.854419 
L 175.402743 255.413317 
L 175.55038 255.238722 
L 175.698017 254.549019 
L 175.845655 254.515747 
L 175.993292 253.836954 
L 176.140929 254.016503 
L 176.288567 253.67645 
L 176.436204 254.847531 
L 176.583842 254.461631 
L 176.731479 253.514053 
L 177.026754 254.452802 
L 177.174391 254.356466 
L 177.322028 253.373449 
L 177.469666 253.150507 
L 177.617303 253.286521 
L 177.76494 252.48061 
L 177.912578 252.927814 
L 178.060215 252.872208 
L 178.207852 251.979012 
L 178.503127 251.762118 
L 178.798402 250.857809 
L 179.093677 250.398291 
L 179.241314 250.35827 
L 179.388951 250.492769 
L 179.536589 250.203294 
L 179.979501 248.692808 
L 180.422413 248.564975 
L 181.012962 247.229683 
L 181.1606 248.042477 
L 181.308237 247.248489 
L 181.455874 247.367694 
L 181.898786 246.57757 
L 182.046424 246.77733 
L 182.194061 246.040707 
L 182.489336 246.164612 
L 182.636973 245.389897 
L 182.78461 245.38135 
L 182.932248 245.82833 
L 183.227523 244.699061 
L 183.37516 244.733733 
L 183.522797 243.671007 
L 183.670435 243.878523 
L 183.818072 243.740466 
L 183.965709 242.669676 
L 184.113347 242.560193 
L 184.703896 240.799414 
L 184.851533 240.648757 
L 184.999171 239.658037 
L 185.146808 239.522272 
L 186.18027 235.495746 
L 186.327907 235.871829 
L 186.475544 234.5033 
L 186.623182 234.62882 
L 187.066094 232.713437 
L 187.213731 232.668823 
L 187.361369 232.202223 
L 187.656643 230.752024 
L 187.951918 230.189657 
L 188.099555 230.166234 
L 188.542467 228.39175 
L 188.837742 227.042534 
L 189.133017 226.358245 
L 189.280654 225.310268 
L 189.428292 225.48227 
L 190.314116 222.339995 
L 190.461753 221.210912 
L 190.60939 221.086597 
L 190.904665 219.277223 
L 191.19994 218.472087 
L 191.347577 217.301454 
L 191.495214 217.080615 
L 191.790489 215.015066 
L 191.938127 214.757681 
L 192.233401 212.640014 
L 192.381039 212.999771 
L 192.676313 210.984798 
L 192.823951 210.643703 
L 193.266863 208.061554 
L 193.4145 207.67845 
L 193.857412 204.888434 
L 194.00505 205.067672 
L 194.300324 202.983094 
L 194.447962 203.244841 
L 194.595599 202.647097 
L 194.743236 201.41236 
L 194.890874 201.388001 
L 195.038511 200.310589 
L 195.186148 200.153215 
L 195.333786 199.492705 
L 195.481423 198.306174 
L 195.62906 198.305396 
L 195.924335 196.581274 
L 196.21961 195.805234 
L 196.514885 193.156798 
L 196.662522 193.411182 
L 196.810159 193.478466 
L 196.957797 192.865192 
L 197.105434 191.060662 
L 197.253071 191.270265 
L 197.548346 189.646887 
L 197.843621 188.321313 
L 198.138895 187.334844 
L 198.43417 184.776449 
L 198.581808 185.044838 
L 199.02472 182.696223 
L 199.172357 182.680585 
L 199.319994 180.594244 
L 199.615269 180.100918 
L 200.058181 176.44813 
L 200.205818 176.735743 
L 202.125104 167.689215 
L 202.272741 167.614068 
L 202.863291 164.59143 
L 203.010928 164.466506 
L 203.158566 163.825984 
L 203.306203 163.766506 
L 204.487302 158.068498 
L 204.634939 158.178092 
L 205.077851 155.513364 
L 205.225489 155.360475 
L 205.373126 153.49383 
L 205.520763 153.601958 
L 206.701862 147.531892 
L 206.849499 147.164493 
L 208.325873 140.096533 
L 208.47351 139.633368 
L 208.768785 137.678845 
L 209.506972 134.448511 
L 209.949884 132.672289 
L 210.097521 131.270509 
L 210.245159 131.328091 
L 210.392796 129.781845 
L 210.540433 130.01262 
L 211.426258 125.301559 
L 211.86917 124.182882 
L 212.164444 121.836762 
L 212.312082 121.437026 
L 212.754994 119.051188 
L 213.050268 117.844658 
L 213.197906 116.520434 
L 213.345543 116.206736 
L 214.08373 111.531406 
L 214.231367 111.109915 
L 215.707741 103.253131 
L 215.855378 103.019661 
L 216.003016 101.968538 
L 216.150653 102.190708 
L 216.445928 99.917296 
L 217.774664 93.864856 
L 218.217576 91.515769 
L 218.365213 91.442989 
L 218.512851 90.894008 
L 218.660488 89.071039 
L 218.808125 89.025012 
L 219.1034 87.67212 
L 220.284499 80.292911 
L 220.432136 80.076155 
L 221.31796 74.351974 
L 221.465598 74.327973 
L 222.056147 70.511153 
L 222.203784 70.462013 
L 222.646697 67.246426 
L 222.941971 66.412421 
L 223.532521 62.785423 
L 223.680158 62.898109 
L 223.975433 61.116891 
L 224.12307 60.268358 
L 224.270707 60.094636 
L 224.71362 57.802898 
L 224.861257 57.8373 
L 225.008894 56.19604 
L 225.156532 56.154123 
L 225.451806 54.165253 
L 225.599444 52.985061 
L 225.747081 53.009165 
L 225.894718 52.893481 
L 226.042356 50.997127 
L 226.189993 50.646415 
L 227.371092 43.829032 
L 227.518729 43.839005 
L 227.666367 41.976006 
L 227.814004 42.003599 
L 228.109279 39.631412 
L 228.699828 36.344498 
L 228.847466 35.34347 
L 228.995103 35.217246 
L 229.14274 33.157849 
L 229.290378 33.471007 
L 229.438015 32.742562 
L 229.73329 30.071696 
L 229.880927 29.879496 
L 230.323839 27.56681 
L 230.766751 25.821029 
L 231.504938 23.41502 
L 231.652575 23.218884 
L 231.94785 20.359965 
L 232.095487 21.268605 
L 232.243125 20.997338 
L 232.390762 20.259712 
L 232.538399 20.730105 
L 232.686037 20.686816 
L 232.833674 19.296 
L 232.981311 20.545956 
L 233.276586 19.788217 
L 233.424224 20.765974 
L 233.719498 20.264531 
L 233.867136 20.411304 
L 234.16241 21.183877 
L 234.310048 20.462258 
L 234.605322 22.219413 
L 234.75296 23.504627 
L 234.900597 22.44509 
L 235.048234 23.797656 
L 235.195872 23.433408 
L 235.343509 25.215324 
L 235.491147 25.003502 
L 235.638784 26.561299 
L 235.786421 26.570387 
L 235.934059 28.210732 
L 236.081696 28.34543 
L 236.229333 27.183699 
L 236.524608 29.286034 
L 236.672245 28.964538 
L 236.819883 29.775062 
L 236.96752 27.59427 
L 237.115157 29.402319 
L 237.262795 28.26647 
L 237.410432 28.047846 
L 237.558069 26.534902 
L 237.705707 26.919655 
L 238.000982 24.942453 
L 238.148619 25.462149 
L 238.296256 24.152216 
L 238.443894 25.185048 
L 238.886806 22.466546 
L 239.034443 23.135168 
L 239.18208 22.559016 
L 239.329718 23.291415 
L 239.477355 23.291638 
L 239.624992 22.750203 
L 239.77263 23.435829 
L 239.920267 23.133117 
L 240.215542 21.745404 
L 240.363179 23.555517 
L 240.510817 23.855321 
L 240.658454 23.692922 
L 240.806091 23.828338 
L 240.953729 25.077186 
L 241.101366 25.341877 
L 241.249003 26.228301 
L 241.396641 25.748294 
L 242.134828 29.196332 
L 242.430102 30.863894 
L 242.57774 31.136397 
L 242.725377 32.072756 
L 242.873014 32.142147 
L 243.463564 35.34048 
L 243.611201 35.617841 
L 243.758838 36.364477 
L 244.054113 38.757169 
L 244.201751 39.510964 
L 244.349388 39.560052 
L 244.644663 42.044052 
L 244.7923 41.41464 
L 245.087575 44.079303 
L 245.235212 44.104357 
L 245.382849 45.298187 
L 245.530487 45.188196 
L 245.678124 45.459773 
L 245.825761 48.015045 
L 245.973399 47.292747 
L 246.121036 49.313276 
L 246.416311 50.052918 
L 246.711586 51.62669 
L 246.859223 52.003599 
L 247.154498 54.066367 
L 247.302135 54.426685 
L 247.59741 56.276035 
L 247.745047 56.065947 
L 248.040322 58.095289 
L 248.187959 58.07932 
L 248.483234 60.010412 
L 248.630871 59.845237 
L 248.926146 61.653793 
L 249.073783 61.768023 
L 249.369058 63.830414 
L 249.516695 63.690675 
L 249.81197 65.65508 
L 249.959607 65.922253 
L 250.254882 68.219469 
L 250.697794 69.968529 
L 250.993069 72.07593 
L 251.140706 72.20946 
L 252.02653 78.59252 
L 252.174168 78.963709 
L 252.61708 82.295684 
L 252.764717 82.699336 
L 253.207629 86.166189 
L 253.650541 88.223513 
L 253.798179 89.97852 
L 253.945816 90.393385 
L 254.536365 95.194442 
L 254.684003 95.957907 
L 255.274552 101.016906 
L 256.012739 105.160535 
L 256.308014 108.312009 
L 256.455651 108.126727 
L 257.932025 118.668689 
L 258.670211 123.435423 
L 258.817849 124.308923 
L 259.113123 127.310724 
L 259.260761 127.751492 
L 259.703673 131.784635 
L 259.998948 132.847819 
L 260.44186 136.857194 
L 260.589497 137.520125 
L 260.884772 139.791726 
L 261.032409 140.381912 
L 262.065871 147.937786 
L 262.213508 148.295343 
L 262.804057 152.667894 
L 262.951695 153.107198 
L 263.246969 155.291654 
L 263.394607 155.909171 
L 263.542244 157.192505 
L 263.689881 157.299459 
L 263.985156 159.495631 
L 264.723343 163.867308 
L 264.87098 164.296662 
L 266.790266 175.659036 
L 266.937903 176.006172 
L 267.233178 178.292595 
L 267.528453 178.871325 
L 267.823727 180.983874 
L 268.119002 182.013779 
L 268.414277 183.396142 
L 269.004826 186.613696 
L 269.595376 188.633337 
L 269.743013 189.837768 
L 269.89065 189.910403 
L 270.038288 190.842997 
L 270.185925 190.976238 
L 270.628837 192.406473 
L 270.924112 193.915394 
L 271.367024 195.248568 
L 271.514661 196.261506 
L 271.662299 195.994004 
L 272.252848 198.35311 
L 272.400485 198.636366 
L 272.69576 200.27143 
L 272.991035 200.898746 
L 273.433947 202.592393 
L 273.729222 203.374816 
L 274.024496 204.201555 
L 274.319771 205.517634 
L 274.615046 205.737528 
L 274.762683 206.821162 
L 274.910321 206.980512 
L 275.057958 207.650364 
L 275.205595 207.292754 
L 275.50087 208.370501 
L 275.943782 209.607318 
L 276.091419 209.672392 
L 276.386694 210.942017 
L 276.534331 210.722844 
L 276.977244 212.267946 
L 277.124881 211.477244 
L 277.272518 213.392499 
L 277.420156 213.103032 
L 277.71543 213.926825 
L 277.863068 214.686655 
L 278.010705 214.058582 
L 278.30598 214.620315 
L 278.453617 214.857539 
L 278.601254 215.443898 
L 278.748892 215.132158 
L 279.191804 216.797537 
L 279.339441 215.482573 
L 279.634716 217.107378 
L 279.782353 216.933691 
L 279.929991 217.254524 
L 280.077628 216.588536 
L 280.225265 217.809245 
L 280.372903 217.465269 
L 280.668177 218.89766 
L 280.815815 216.970833 
L 280.963452 218.884984 
L 281.111089 218.739895 
L 281.258727 217.818442 
L 281.554002 219.916594 
L 281.701639 219.093247 
L 281.849276 219.687378 
L 281.996914 219.446267 
L 282.144551 218.181387 
L 282.439826 220.505543 
L 282.587463 219.829233 
L 282.7351 221.026099 
L 282.882738 221.277922 
L 283.030375 220.709876 
L 283.32565 221.053361 
L 283.473287 220.709515 
L 283.620925 221.047845 
L 283.768562 222.286482 
L 283.916199 219.970238 
L 284.063837 221.600289 
L 284.211474 220.712093 
L 284.359111 221.064379 
L 284.506749 221.001951 
L 284.654386 220.343938 
L 284.802023 222.31837 
L 285.097298 222.91531 
L 285.244935 221.004131 
L 285.54021 223.139533 
L 285.835485 221.741118 
L 285.983122 222.405389 
L 286.13076 221.862569 
L 286.278397 222.209176 
L 286.426034 221.851009 
L 286.573672 222.968232 
L 286.868946 223.086138 
L 287.016584 222.649255 
L 287.164221 223.971091 
L 287.311858 222.500622 
L 287.459496 225.148961 
L 287.75477 223.387868 
L 287.902408 224.006968 
L 288.050045 222.873682 
L 288.197683 224.297191 
L 288.34532 223.987961 
L 288.492957 224.580205 
L 288.788232 222.507045 
L 288.935869 223.912166 
L 289.083507 223.118056 
L 289.231144 224.527454 
L 289.526419 224.483026 
L 289.969331 223.760216 
L 290.116968 225.131155 
L 290.264606 223.644237 
L 290.412243 225.391786 
L 290.55988 224.465101 
L 290.707518 225.744559 
L 290.855155 225.52153 
L 291.002792 226.268915 
L 291.15043 224.514332 
L 291.298067 224.45583 
L 291.593342 224.863503 
L 291.740979 224.103976 
L 292.036254 224.246169 
L 292.331529 226.246146 
L 292.479166 226.21121 
L 292.626803 225.603544 
L 292.774441 226.241609 
L 292.922078 224.347295 
L 293.217353 225.873339 
L 293.36499 224.037842 
L 293.660265 226.307347 
L 293.955539 225.12156 
L 294.103177 225.186049 
L 294.250814 226.791135 
L 294.398451 225.607346 
L 294.546089 227.027148 
L 294.693726 226.981541 
L 294.841364 225.027068 
L 294.989001 224.561151 
L 295.284276 227.339542 
L 295.431913 225.751353 
L 295.727188 227.629385 
L 295.874825 227.583525 
L 296.1701 225.577468 
L 296.317737 225.800972 
L 296.613012 227.772072 
L 296.760649 224.015256 
L 297.055924 227.721067 
L 297.203561 226.308899 
L 297.351199 227.835298 
L 297.498836 225.753902 
L 297.794111 226.688011 
L 297.941748 228.393135 
L 298.089385 228.228214 
L 298.38466 226.261386 
L 298.679935 228.444753 
L 298.97521 227.121114 
L 299.122847 227.466953 
L 299.418122 229.339246 
L 299.713396 227.067673 
L 300.008671 229.02196 
L 300.303946 227.580654 
L 300.451583 227.629939 
L 300.746858 228.807187 
L 300.894495 228.607188 
L 301.042133 229.683567 
L 301.18977 227.870921 
L 301.485045 229.824782 
L 301.780319 228.490463 
L 301.927957 228.535927 
L 302.075594 230.007448 
L 302.223231 230.15392 
L 302.370869 230.096193 
L 302.518506 228.279777 
L 302.666143 229.402744 
L 302.813781 227.889381 
L 302.961418 230.567448 
L 303.109055 228.743006 
L 303.256693 230.350944 
L 303.551968 230.533567 
L 303.699605 229.568371 
L 303.847242 231.181997 
L 303.99488 230.943791 
L 304.142517 229.296172 
L 304.437792 229.879715 
L 304.585429 230.485573 
L 304.733066 229.44111 
L 304.880704 229.863071 
L 305.028341 229.233173 
L 305.175978 231.50507 
L 305.323616 229.708348 
L 305.471253 229.99509 
L 305.618891 230.825217 
L 305.766528 228.095104 
L 305.914165 230.087054 
L 306.20944 230.728642 
L 306.357077 230.295358 
L 306.504715 231.304567 
L 306.652352 231.524661 
L 306.947627 230.969943 
L 307.095264 231.204767 
L 307.242901 229.056073 
L 307.390539 229.684706 
L 307.538176 230.954573 
L 307.833451 230.158548 
L 307.981088 231.73149 
L 308.128726 230.575316 
L 308.276363 231.955699 
L 308.424 229.965803 
L 308.571638 231.708909 
L 308.866912 230.01525 
L 309.162187 230.442464 
L 309.309824 230.581685 
L 309.457462 231.178169 
L 309.605099 230.351778 
L 309.752736 231.722316 
L 309.900374 231.531226 
L 310.048011 230.880175 
L 310.195649 232.650413 
L 310.490923 230.663189 
L 310.638561 231.362495 
L 310.786198 230.67619 
L 310.933835 230.555911 
L 311.081473 231.790801 
L 311.22911 230.166649 
L 311.376747 231.596407 
L 311.672022 231.0566 
L 311.819659 231.282898 
L 311.967297 231.058315 
L 312.114934 232.363019 
L 312.262572 231.171211 
L 312.410209 231.702023 
L 312.557846 230.171557 
L 312.705484 231.384882 
L 312.853121 230.931061 
L 313.000758 232.169294 
L 313.148396 230.680475 
L 313.44367 231.028062 
L 313.591308 230.905063 
L 313.738945 231.348531 
L 313.886582 230.522841 
L 314.03422 231.439194 
L 314.181857 230.50601 
L 314.329495 230.864427 
L 314.477132 229.343074 
L 314.624769 229.793883 
L 314.920044 229.146228 
L 315.067681 229.610529 
L 315.215319 229.597953 
L 315.362956 231.840161 
L 315.510593 231.431275 
L 315.658231 230.126908 
L 315.805868 231.603994 
L 315.953505 230.096915 
L 316.101143 231.052136 
L 316.24878 229.643778 
L 316.396418 231.919506 
L 316.691692 229.442838 
L 316.83933 229.994409 
L 316.986967 230.108128 
L 317.134604 230.815968 
L 317.577516 229.895283 
L 317.725154 230.261366 
L 317.872791 229.716063 
L 318.020428 230.217578 
L 318.168066 229.386695 
L 318.46334 230.621195 
L 318.758615 229.713561 
L 318.906253 231.278649 
L 319.05389 229.387651 
L 319.201527 230.384953 
L 319.349165 229.192493 
L 319.496802 229.849309 
L 319.644439 228.679313 
L 319.792077 228.965151 
L 319.939714 229.769962 
L 320.087351 228.757756 
L 320.234989 230.083318 
L 320.382626 229.149863 
L 320.530263 230.478366 
L 320.677901 230.45028 
L 320.825538 228.61863 
L 320.973176 229.446183 
L 321.120813 229.284775 
L 321.26845 231.127234 
L 321.416088 230.815971 
L 321.563725 228.314624 
L 321.711362 229.167062 
L 321.859 228.254814 
L 322.006637 229.966546 
L 322.154274 229.586098 
L 322.301912 228.624504 
L 322.449549 228.737976 
L 322.597186 229.115914 
L 322.744824 229.811641 
L 322.892461 227.704099 
L 323.040099 230.667575 
L 323.187736 228.719712 
L 323.335373 228.823591 
L 323.630648 229.72901 
L 323.778285 228.857423 
L 323.925923 229.981625 
L 324.07356 228.521521 
L 324.221197 228.756568 
L 324.368835 228.313342 
L 324.516472 229.184946 
L 324.664109 229.26706 
L 324.811747 228.065427 
L 324.959384 229.311346 
L 325.107022 229.162418 
L 325.402296 227.775928 
L 325.697571 229.959993 
L 325.845208 228.371336 
L 325.992846 228.066481 
L 326.140483 228.030408 
L 326.28812 227.084279 
L 327.026307 228.577787 
L 327.173944 226.865626 
L 327.321582 226.659195 
L 327.764494 228.275009 
L 328.059769 226.809466 
L 328.207406 228.284216 
L 328.355043 227.197084 
L 328.650318 228.054302 
L 328.797955 228.017457 
L 328.945593 227.603351 
L 329.09323 226.041841 
L 329.240867 227.260659 
L 329.388505 227.360036 
L 329.68378 226.865029 
L 329.831417 228.328776 
L 329.979054 227.211942 
L 330.274329 227.997419 
L 330.421966 227.960206 
L 330.569604 228.455218 
L 330.717241 225.979597 
L 330.864878 227.375817 
L 331.012516 227.580403 
L 331.160153 226.343715 
L 331.30779 227.008731 
L 331.455428 226.562038 
L 331.603065 226.664735 
L 331.750703 227.025075 
L 331.89834 225.33379 
L 332.045977 227.317505 
L 332.636527 226.116647 
L 332.784164 225.10806 
L 333.227076 226.520262 
L 333.374713 224.585902 
L 333.522351 226.313103 
L 333.669988 226.408539 
L 333.817625 226.984837 
L 333.965263 226.463639 
L 334.260538 226.390226 
L 334.555812 225.009529 
L 334.70345 225.449704 
L 334.851087 226.370965 
L 334.998724 226.209466 
L 335.146362 224.69615 
L 335.441636 226.10315 
L 335.589274 224.590399 
L 335.884548 226.246734 
L 336.032186 224.978859 
L 336.179823 225.098176 
L 336.327461 223.466067 
L 336.770373 226.042487 
L 336.91801 226.009052 
L 337.213285 225.296528 
L 337.360922 224.18381 
L 337.508559 225.996363 
L 337.656197 225.46696 
L 337.803834 226.381598 
L 337.951471 225.26944 
L 338.099109 225.100855 
L 338.246746 225.834333 
L 338.394384 225.305595 
L 338.542021 223.925065 
L 338.689658 224.063112 
L 338.837296 224.941444 
L 338.984933 224.164048 
L 339.13257 226.79428 
L 339.280208 224.260158 
L 339.575482 225.05434 
L 339.72312 224.469993 
L 339.870757 224.583885 
L 340.018394 225.45939 
L 340.166032 224.663588 
L 340.313669 223.005476 
L 340.461307 225.486068 
L 340.608944 224.289592 
L 340.756581 224.404754 
L 340.904219 225.623306 
L 341.051856 225.252827 
L 341.347131 223.684601 
L 341.494768 223.322858 
L 341.790043 224.745701 
L 341.93768 224.03612 
L 342.085317 224.43057 
L 342.232955 223.188273 
L 342.528229 224.740279 
L 342.675867 224.957138 
L 342.823504 221.458873 
L 343.118779 224.118368 
L 343.266416 224.094742 
L 343.414054 222.03989 
L 343.561691 223.614997 
L 343.709328 222.58776 
L 343.856966 224.401908 
L 344.004603 223.841929 
L 344.15224 224.358708 
L 344.299878 223.939698 
L 344.447515 224.055278 
L 344.74279 222.250351 
L 344.890427 222.033054 
L 345.185702 225.036161 
L 345.480977 223.918931 
L 345.628614 224.760369 
L 345.776251 221.920558 
L 346.071526 224.356979 
L 346.219163 223.408804 
L 346.366801 223.242822 
L 346.514438 223.795906 
L 346.662075 219.855337 
L 346.809713 223.486325 
L 346.95735 224.008375 
L 347.104988 223.73083 
L 347.252625 221.753161 
L 347.400262 224.32899 
L 347.5479 223.114541 
L 347.695537 223.248473 
L 347.843174 224.042104 
L 348.286086 221.229221 
L 348.433724 223.598599 
L 348.728998 223.704806 
L 348.876636 223.138472 
L 349.024273 221.972443 
L 349.171911 221.960374 
L 349.319548 224.269223 
L 349.467185 223.090905 
L 349.614823 223.224342 
L 349.910097 222.433732 
L 350.057735 223.193523 
L 350.205372 221.885928 
L 350.500647 224.413749 
L 350.795921 222.702898 
L 350.943559 224.49866 
L 351.091196 224.491499 
L 351.238833 223.268658 
L 351.386471 220.79047 
L 351.681746 223.896744 
L 351.829383 221.989596 
L 351.97702 223.63833 
L 352.124658 222.802186 
L 352.272295 223.091279 
L 352.419932 224.33493 
L 352.715207 221.782284 
L 352.862844 223.7412 
L 353.158119 223.348558 
L 353.305756 222.6227 
L 353.453394 223.067608 
L 353.601031 222.921297 
L 353.748669 223.602296 
L 353.896306 221.574762 
L 354.043943 222.614362 
L 354.191581 221.168883 
L 354.339218 222.765905 
L 354.486855 222.611466 
L 354.78213 221.75915 
L 354.929767 223.19709 
L 355.077405 222.450898 
L 355.225042 224.078864 
L 355.372679 223.720222 
L 355.520317 224.192747 
L 355.667954 222.286895 
L 355.815592 224.725505 
L 356.110866 220.490204 
L 356.406141 224.415581 
L 356.553778 222.290455 
L 356.99669 224.630355 
L 357.144328 223.341607 
L 357.291965 224.089078 
L 357.439602 223.208555 
L 357.58724 223.856537 
L 357.734877 223.978007 
L 357.882514 222.134766 
L 358.030152 222.13704 
L 358.325427 223.867897 
L 358.473064 223.99007 
L 358.620701 223.22727 
L 358.768339 220.983516 
L 358.915976 223.369587 
L 359.063613 223.882578 
L 359.211251 222.954992 
L 359.358888 223.766697 
L 359.506525 222.166753 
L 359.654163 222.340059 
L 359.8018 224.781926 
L 360.097075 222.827164 
L 360.244712 223.400724 
L 360.39235 222.358077 
L 360.539987 224.15385 
L 360.687624 222.990465 
L 360.835262 223.414998 
L 360.982899 222.372159 
L 361.130536 224.813806 
L 361.278174 223.288676 
L 361.425811 223.560673 
L 361.573448 224.402071 
L 361.721086 222.041822 
L 361.868723 224.06581 
L 362.01636 224.068262 
L 362.163998 223.020177 
L 362.311635 224.072555 
L 362.459273 222.875131 
L 362.754547 224.307734 
L 363.049822 223.028794 
L 363.197459 222.404078 
L 363.640371 224.079434 
L 363.788009 223.172861 
L 363.935646 223.448433 
L 364.083283 223.170515 
L 364.230921 221.680975 
L 364.378558 223.705025 
L 364.526196 221.86637 
L 364.673833 224.298073 
L 364.82147 223.822518 
L 364.969108 222.549505 
L 365.116745 223.937682 
L 365.264382 224.0529 
L 365.41202 224.810962 
L 365.559657 224.703989 
L 365.707294 224.997859 
L 365.854932 224.148206 
L 366.002569 224.141752 
L 366.150206 224.575015 
L 366.297844 223.381474 
L 366.593118 223.752341 
L 366.740756 222.786047 
L 367.036031 223.336119 
L 367.183668 223.188948 
L 367.331305 224.805575 
L 367.478943 224.381331 
L 367.62658 224.474806 
L 367.774217 222.551538 
L 367.921855 223.39332 
L 368.069492 223.378188 
L 368.217129 222.95309 
L 368.364767 225.08443 
L 368.512404 224.880668 
L 368.660041 223.80606 
L 368.807679 223.903235 
L 368.955316 222.860374 
L 369.102954 222.839033 
L 369.398228 224.561734 
L 369.693503 223.152606 
L 369.84114 224.283613 
L 370.136415 224.016621 
L 370.284052 224.592222 
L 370.43169 223.621492 
L 370.726964 224.301206 
L 370.874602 223.403696 
L 371.022239 223.367396 
L 371.317514 224.885095 
L 371.465151 222.753732 
L 371.612789 224.717365 
L 371.760426 223.507263 
L 371.908063 223.237557 
L 372.055701 223.416587 
L 372.203338 224.359988 
L 372.350975 222.97824 
L 372.498613 223.588488 
L 372.793887 223.482546 
L 372.941525 224.187769 
L 373.089162 222.825913 
L 373.2368 223.983328 
L 373.384437 222.222648 
L 373.532074 224.036963 
L 373.827349 223.455213 
L 373.974986 223.574134 
L 374.122624 223.025675 
L 374.417898 223.713925 
L 374.565536 221.677597 
L 374.86081 223.733621 
L 375.156085 222.492416 
L 375.303722 222.307074 
L 375.45136 222.982374 
L 375.598997 222.716024 
L 375.746635 223.307348 
L 375.894272 222.626816 
L 376.041909 221.318236 
L 376.189547 222.257404 
L 376.337184 222.432785 
L 376.484821 222.422226 
L 376.927733 222.840117 
L 377.075371 222.100294 
L 377.223008 220.516752 
L 377.370645 222.740938 
L 377.518283 222.90873 
L 377.813558 221.112383 
L 377.961195 221.850712 
L 378.108832 220.077285 
L 378.25647 220.482982 
L 378.404107 220.267041 
L 378.551744 220.80861 
L 378.699382 220.229366 
L 378.847019 220.992715 
L 378.994656 219.030612 
L 379.142294 221.065142 
L 379.289931 220.468 
L 379.437568 220.346731 
L 379.585206 219.103451 
L 379.732843 219.385023 
L 379.880481 220.145187 
L 380.028118 217.683847 
L 380.175755 218.821236 
L 380.323393 218.053173 
L 380.618667 219.287887 
L 380.766305 218.3355 
L 380.913942 218.508604 
L 381.209217 218.270292 
L 381.356854 216.467054 
L 381.504491 217.742281 
L 381.799766 216.507416 
L 381.947403 217.786364 
L 382.095041 217.287409 
L 382.242678 215.648972 
L 382.390316 216.422783 
L 382.68559 216.21137 
L 382.833228 214.79273 
L 382.980865 215.523556 
L 383.128502 214.593443 
L 383.423777 215.944145 
L 383.571414 215.961389 
L 383.866689 213.490264 
L 384.014326 214.346116 
L 384.604876 211.47261 
L 384.752513 212.285908 
L 384.900151 211.337925 
L 385.047788 212.157621 
L 385.195425 209.131685 
L 385.638337 211.735192 
L 385.785975 211.689781 
L 385.933612 208.887196 
L 386.081249 209.541475 
L 386.228887 207.035218 
L 386.524162 209.761697 
L 386.819436 206.935387 
L 386.967074 208.3122 
L 387.114711 208.300945 
L 387.262348 209.373456 
L 387.409986 204.93649 
L 387.557623 206.329432 
L 387.70526 204.942407 
L 387.852898 209.05151 
L 387.852898 209.05151 
" style="fill:none;stroke:#1f77b4;stroke-linecap:square;stroke-width:1.5;"/>
   </g>
   <g id="patch_3">
    <path d="M 46.965625 273.312 
L 46.965625 7.2 
" style="fill:none;stroke:#000000;stroke-linecap:square;stroke-linejoin:miter;stroke-width:0.8;"/>
   </g>
   <g id="patch_4">
    <path d="M 404.085625 273.312 
L 404.085625 7.2 
" style="fill:none;stroke:#000000;stroke-linecap:square;stroke-linejoin:miter;stroke-width:0.8;"/>
   </g>
   <g id="patch_5">
    <path d="M 46.965625 273.312 
L 404.085625 273.312 
" style="fill:none;stroke:#000000;stroke-linecap:square;stroke-linejoin:miter;stroke-width:0.8;"/>
   </g>
   <g id="patch_6">
    <path d="M 46.965625 7.2 
L 404.085625 7.2 
" style="fill:none;stroke:#000000;stroke-linecap:square;stroke-linejoin:miter;stroke-width:0.8;"/>
   </g>
  </g>
 </g>
 <defs>
  <clipPath id="pae41201524">
   <rect height="266.112" width="357.12" x="46.965625" y="7.2"/>
  </clipPath>
 </defs>
</svg>
