<?xml version="1.0" encoding="utf-8" standalone="no"?>
<!DOCTYPE svg PUBLIC "-//W3C//DTD SVG 1.1//EN"
  "http://www.w3.org/Graphics/SVG/1.1/DTD/svg11.dtd">
<svg height="310.86825pt" version="1.1" viewBox="0 0 411.285625 310.86825" width="411.285625pt" xmlns="http://www.w3.org/2000/svg" xmlns:xlink="http://www.w3.org/1999/xlink">
 <metadata>
  <rdf:RDF xmlns:cc="http://creativecommons.org/ns#" xmlns:dc="http://purl.org/dc/elements/1.1/" xmlns:rdf="http://www.w3.org/1999/02/22-rdf-syntax-ns#">
   <cc:Work>
    <dc:type rdf:resource="http://purl.org/dc/dcmitype/StillImage"/>
    <dc:date>2022-01-24T15:46:45.817198</dc:date>
    <dc:format>image/svg+xml</dc:format>
    <dc:creator>
     <cc:Agent>
      <dc:title>Matplotlib v3.4.2, https://matplotlib.org/</dc:title>
     </cc:Agent>
    </dc:creator>
   </cc:Work>
  </rdf:RDF>
 </metadata>
 <defs>
  <style type="text/css">*{stroke-linecap:butt;stroke-linejoin:round;}</style>
 </defs>
 <g id="figure_1">
  <g id="patch_1">
   <path d="M 0 310.86825 
L 411.285625 310.86825 
L 411.285625 0 
L 0 0 
z
" style="fill:#ffffff;"/>
  </g>
  <g id="axes_1">
   <g id="patch_2">
    <path d="M 46.965625 273.312 
L 404.085625 273.312 
L 404.085625 7.2 
L 46.965625 7.2 
z
" style="fill:#ffffff;"/>
   </g>
   <g id="matplotlib.axis_1">
    <g id="xtick_1">
     <g id="line2d_1">
      <defs>
       <path d="M 0 0 
L 0 3.5 
" id="m4d94130f38" style="stroke:#000000;stroke-width:0.8;"/>
      </defs>
      <g>
       <use style="stroke:#000000;stroke-width:0.8;" x="77.888269" xlink:href="#m4d94130f38" y="273.312"/>
      </g>
     </g>
     <g id="text_1">
      <!-- −10 -->
      <g transform="translate(67.335925 287.910437)scale(0.1 -0.1)">
       <defs>
        <path d="M 678 2272 
L 4684 2272 
L 4684 1741 
L 678 1741 
L 678 2272 
z
" id="DejaVuSans-2212" transform="scale(0.015625)"/>
        <path d="M 794 531 
L 1825 531 
L 1825 4091 
L 703 3866 
L 703 4441 
L 1819 4666 
L 2450 4666 
L 2450 531 
L 3481 531 
L 3481 0 
L 794 0 
L 794 531 
z
" id="DejaVuSans-31" transform="scale(0.015625)"/>
        <path d="M 2034 4250 
Q 1547 4250 1301 3770 
Q 1056 3291 1056 2328 
Q 1056 1369 1301 889 
Q 1547 409 2034 409 
Q 2525 409 2770 889 
Q 3016 1369 3016 2328 
Q 3016 3291 2770 3770 
Q 2525 4250 2034 4250 
z
M 2034 4750 
Q 2819 4750 3233 4129 
Q 3647 3509 3647 2328 
Q 3647 1150 3233 529 
Q 2819 -91 2034 -91 
Q 1250 -91 836 529 
Q 422 1150 422 2328 
Q 422 3509 836 4129 
Q 1250 4750 2034 4750 
z
" id="DejaVuSans-30" transform="scale(0.015625)"/>
       </defs>
       <use xlink:href="#DejaVuSans-2212"/>
       <use x="83.789062" xlink:href="#DejaVuSans-31"/>
       <use x="147.412109" xlink:href="#DejaVuSans-30"/>
      </g>
     </g>
    </g>
    <g id="xtick_2">
     <g id="line2d_2">
      <g>
       <use style="stroke:#000000;stroke-width:0.8;" x="151.706947" xlink:href="#m4d94130f38" y="273.312"/>
      </g>
     </g>
     <g id="text_2">
      <!-- −5 -->
      <g transform="translate(144.335853 287.910437)scale(0.1 -0.1)">
       <defs>
        <path d="M 691 4666 
L 3169 4666 
L 3169 4134 
L 1269 4134 
L 1269 2991 
Q 1406 3038 1543 3061 
Q 1681 3084 1819 3084 
Q 2600 3084 3056 2656 
Q 3513 2228 3513 1497 
Q 3513 744 3044 326 
Q 2575 -91 1722 -91 
Q 1428 -91 1123 -41 
Q 819 9 494 109 
L 494 744 
Q 775 591 1075 516 
Q 1375 441 1709 441 
Q 2250 441 2565 725 
Q 2881 1009 2881 1497 
Q 2881 1984 2565 2268 
Q 2250 2553 1709 2553 
Q 1456 2553 1204 2497 
Q 953 2441 691 2322 
L 691 4666 
z
" id="DejaVuSans-35" transform="scale(0.015625)"/>
       </defs>
       <use xlink:href="#DejaVuSans-2212"/>
       <use x="83.789062" xlink:href="#DejaVuSans-35"/>
      </g>
     </g>
    </g>
    <g id="xtick_3">
     <g id="line2d_3">
      <g>
       <use style="stroke:#000000;stroke-width:0.8;" x="225.525625" xlink:href="#m4d94130f38" y="273.312"/>
      </g>
     </g>
     <g id="text_3">
      <!-- 0 -->
      <g transform="translate(222.344375 287.910437)scale(0.1 -0.1)">
       <use xlink:href="#DejaVuSans-30"/>
      </g>
     </g>
    </g>
    <g id="xtick_4">
     <g id="line2d_4">
      <g>
       <use style="stroke:#000000;stroke-width:0.8;" x="299.344303" xlink:href="#m4d94130f38" y="273.312"/>
      </g>
     </g>
     <g id="text_4">
      <!-- 5 -->
      <g transform="translate(296.163053 287.910437)scale(0.1 -0.1)">
       <use xlink:href="#DejaVuSans-35"/>
      </g>
     </g>
    </g>
    <g id="xtick_5">
     <g id="line2d_5">
      <g>
       <use style="stroke:#000000;stroke-width:0.8;" x="373.162981" xlink:href="#m4d94130f38" y="273.312"/>
      </g>
     </g>
     <g id="text_5">
      <!-- 10 -->
      <g transform="translate(366.800481 287.910437)scale(0.1 -0.1)">
       <use xlink:href="#DejaVuSans-31"/>
       <use x="63.623047" xlink:href="#DejaVuSans-30"/>
      </g>
     </g>
    </g>
    <g id="text_6">
     <!-- CV (Angstrom) -->
     <g transform="translate(188.9225 301.588562)scale(0.1 -0.1)">
      <defs>
       <path d="M 4122 4306 
L 4122 3641 
Q 3803 3938 3442 4084 
Q 3081 4231 2675 4231 
Q 1875 4231 1450 3742 
Q 1025 3253 1025 2328 
Q 1025 1406 1450 917 
Q 1875 428 2675 428 
Q 3081 428 3442 575 
Q 3803 722 4122 1019 
L 4122 359 
Q 3791 134 3420 21 
Q 3050 -91 2638 -91 
Q 1578 -91 968 557 
Q 359 1206 359 2328 
Q 359 3453 968 4101 
Q 1578 4750 2638 4750 
Q 3056 4750 3426 4639 
Q 3797 4528 4122 4306 
z
" id="DejaVuSans-43" transform="scale(0.015625)"/>
       <path d="M 1831 0 
L 50 4666 
L 709 4666 
L 2188 738 
L 3669 4666 
L 4325 4666 
L 2547 0 
L 1831 0 
z
" id="DejaVuSans-56" transform="scale(0.015625)"/>
       <path id="DejaVuSans-20" transform="scale(0.015625)"/>
       <path d="M 1984 4856 
Q 1566 4138 1362 3434 
Q 1159 2731 1159 2009 
Q 1159 1288 1364 580 
Q 1569 -128 1984 -844 
L 1484 -844 
Q 1016 -109 783 600 
Q 550 1309 550 2009 
Q 550 2706 781 3412 
Q 1013 4119 1484 4856 
L 1984 4856 
z
" id="DejaVuSans-28" transform="scale(0.015625)"/>
       <path d="M 2188 4044 
L 1331 1722 
L 3047 1722 
L 2188 4044 
z
M 1831 4666 
L 2547 4666 
L 4325 0 
L 3669 0 
L 3244 1197 
L 1141 1197 
L 716 0 
L 50 0 
L 1831 4666 
z
" id="DejaVuSans-41" transform="scale(0.015625)"/>
       <path d="M 3513 2113 
L 3513 0 
L 2938 0 
L 2938 2094 
Q 2938 2591 2744 2837 
Q 2550 3084 2163 3084 
Q 1697 3084 1428 2787 
Q 1159 2491 1159 1978 
L 1159 0 
L 581 0 
L 581 3500 
L 1159 3500 
L 1159 2956 
Q 1366 3272 1645 3428 
Q 1925 3584 2291 3584 
Q 2894 3584 3203 3211 
Q 3513 2838 3513 2113 
z
" id="DejaVuSans-6e" transform="scale(0.015625)"/>
       <path d="M 2906 1791 
Q 2906 2416 2648 2759 
Q 2391 3103 1925 3103 
Q 1463 3103 1205 2759 
Q 947 2416 947 1791 
Q 947 1169 1205 825 
Q 1463 481 1925 481 
Q 2391 481 2648 825 
Q 2906 1169 2906 1791 
z
M 3481 434 
Q 3481 -459 3084 -895 
Q 2688 -1331 1869 -1331 
Q 1566 -1331 1297 -1286 
Q 1028 -1241 775 -1147 
L 775 -588 
Q 1028 -725 1275 -790 
Q 1522 -856 1778 -856 
Q 2344 -856 2625 -561 
Q 2906 -266 2906 331 
L 2906 616 
Q 2728 306 2450 153 
Q 2172 0 1784 0 
Q 1141 0 747 490 
Q 353 981 353 1791 
Q 353 2603 747 3093 
Q 1141 3584 1784 3584 
Q 2172 3584 2450 3431 
Q 2728 3278 2906 2969 
L 2906 3500 
L 3481 3500 
L 3481 434 
z
" id="DejaVuSans-67" transform="scale(0.015625)"/>
       <path d="M 2834 3397 
L 2834 2853 
Q 2591 2978 2328 3040 
Q 2066 3103 1784 3103 
Q 1356 3103 1142 2972 
Q 928 2841 928 2578 
Q 928 2378 1081 2264 
Q 1234 2150 1697 2047 
L 1894 2003 
Q 2506 1872 2764 1633 
Q 3022 1394 3022 966 
Q 3022 478 2636 193 
Q 2250 -91 1575 -91 
Q 1294 -91 989 -36 
Q 684 19 347 128 
L 347 722 
Q 666 556 975 473 
Q 1284 391 1588 391 
Q 1994 391 2212 530 
Q 2431 669 2431 922 
Q 2431 1156 2273 1281 
Q 2116 1406 1581 1522 
L 1381 1569 
Q 847 1681 609 1914 
Q 372 2147 372 2553 
Q 372 3047 722 3315 
Q 1072 3584 1716 3584 
Q 2034 3584 2315 3537 
Q 2597 3491 2834 3397 
z
" id="DejaVuSans-73" transform="scale(0.015625)"/>
       <path d="M 1172 4494 
L 1172 3500 
L 2356 3500 
L 2356 3053 
L 1172 3053 
L 1172 1153 
Q 1172 725 1289 603 
Q 1406 481 1766 481 
L 2356 481 
L 2356 0 
L 1766 0 
Q 1100 0 847 248 
Q 594 497 594 1153 
L 594 3053 
L 172 3053 
L 172 3500 
L 594 3500 
L 594 4494 
L 1172 4494 
z
" id="DejaVuSans-74" transform="scale(0.015625)"/>
       <path d="M 2631 2963 
Q 2534 3019 2420 3045 
Q 2306 3072 2169 3072 
Q 1681 3072 1420 2755 
Q 1159 2438 1159 1844 
L 1159 0 
L 581 0 
L 581 3500 
L 1159 3500 
L 1159 2956 
Q 1341 3275 1631 3429 
Q 1922 3584 2338 3584 
Q 2397 3584 2469 3576 
Q 2541 3569 2628 3553 
L 2631 2963 
z
" id="DejaVuSans-72" transform="scale(0.015625)"/>
       <path d="M 1959 3097 
Q 1497 3097 1228 2736 
Q 959 2375 959 1747 
Q 959 1119 1226 758 
Q 1494 397 1959 397 
Q 2419 397 2687 759 
Q 2956 1122 2956 1747 
Q 2956 2369 2687 2733 
Q 2419 3097 1959 3097 
z
M 1959 3584 
Q 2709 3584 3137 3096 
Q 3566 2609 3566 1747 
Q 3566 888 3137 398 
Q 2709 -91 1959 -91 
Q 1206 -91 779 398 
Q 353 888 353 1747 
Q 353 2609 779 3096 
Q 1206 3584 1959 3584 
z
" id="DejaVuSans-6f" transform="scale(0.015625)"/>
       <path d="M 3328 2828 
Q 3544 3216 3844 3400 
Q 4144 3584 4550 3584 
Q 5097 3584 5394 3201 
Q 5691 2819 5691 2113 
L 5691 0 
L 5113 0 
L 5113 2094 
Q 5113 2597 4934 2840 
Q 4756 3084 4391 3084 
Q 3944 3084 3684 2787 
Q 3425 2491 3425 1978 
L 3425 0 
L 2847 0 
L 2847 2094 
Q 2847 2600 2669 2842 
Q 2491 3084 2119 3084 
Q 1678 3084 1418 2786 
Q 1159 2488 1159 1978 
L 1159 0 
L 581 0 
L 581 3500 
L 1159 3500 
L 1159 2956 
Q 1356 3278 1631 3431 
Q 1906 3584 2284 3584 
Q 2666 3584 2933 3390 
Q 3200 3197 3328 2828 
z
" id="DejaVuSans-6d" transform="scale(0.015625)"/>
       <path d="M 513 4856 
L 1013 4856 
Q 1481 4119 1714 3412 
Q 1947 2706 1947 2009 
Q 1947 1309 1714 600 
Q 1481 -109 1013 -844 
L 513 -844 
Q 928 -128 1133 580 
Q 1338 1288 1338 2009 
Q 1338 2731 1133 3434 
Q 928 4138 513 4856 
z
" id="DejaVuSans-29" transform="scale(0.015625)"/>
      </defs>
      <use xlink:href="#DejaVuSans-43"/>
      <use x="69.824219" xlink:href="#DejaVuSans-56"/>
      <use x="138.232422" xlink:href="#DejaVuSans-20"/>
      <use x="170.019531" xlink:href="#DejaVuSans-28"/>
      <use x="209.033203" xlink:href="#DejaVuSans-41"/>
      <use x="277.441406" xlink:href="#DejaVuSans-6e"/>
      <use x="340.820312" xlink:href="#DejaVuSans-67"/>
      <use x="404.296875" xlink:href="#DejaVuSans-73"/>
      <use x="456.396484" xlink:href="#DejaVuSans-74"/>
      <use x="495.605469" xlink:href="#DejaVuSans-72"/>
      <use x="534.46875" xlink:href="#DejaVuSans-6f"/>
      <use x="595.650391" xlink:href="#DejaVuSans-6d"/>
      <use x="693.0625" xlink:href="#DejaVuSans-29"/>
     </g>
    </g>
   </g>
   <g id="matplotlib.axis_2">
    <g id="ytick_1">
     <g id="line2d_6">
      <defs>
       <path d="M 0 0 
L -3.5 0 
" id="m9a60cc3bcf" style="stroke:#000000;stroke-width:0.8;"/>
      </defs>
      <g>
       <use style="stroke:#000000;stroke-width:0.8;" x="46.965625" xlink:href="#m9a60cc3bcf" y="261.216"/>
      </g>
     </g>
     <g id="text_7">
      <!-- 0 -->
      <g transform="translate(33.603125 265.015219)scale(0.1 -0.1)">
       <use xlink:href="#DejaVuSans-30"/>
      </g>
     </g>
    </g>
    <g id="ytick_2">
     <g id="line2d_7">
      <g>
       <use style="stroke:#000000;stroke-width:0.8;" x="46.965625" xlink:href="#m9a60cc3bcf" y="218.351829"/>
      </g>
     </g>
     <g id="text_8">
      <!-- 20 -->
      <g transform="translate(27.240625 222.151048)scale(0.1 -0.1)">
       <defs>
        <path d="M 1228 531 
L 3431 531 
L 3431 0 
L 469 0 
L 469 531 
Q 828 903 1448 1529 
Q 2069 2156 2228 2338 
Q 2531 2678 2651 2914 
Q 2772 3150 2772 3378 
Q 2772 3750 2511 3984 
Q 2250 4219 1831 4219 
Q 1534 4219 1204 4116 
Q 875 4013 500 3803 
L 500 4441 
Q 881 4594 1212 4672 
Q 1544 4750 1819 4750 
Q 2544 4750 2975 4387 
Q 3406 4025 3406 3419 
Q 3406 3131 3298 2873 
Q 3191 2616 2906 2266 
Q 2828 2175 2409 1742 
Q 1991 1309 1228 531 
z
" id="DejaVuSans-32" transform="scale(0.015625)"/>
       </defs>
       <use xlink:href="#DejaVuSans-32"/>
       <use x="63.623047" xlink:href="#DejaVuSans-30"/>
      </g>
     </g>
    </g>
    <g id="ytick_3">
     <g id="line2d_8">
      <g>
       <use style="stroke:#000000;stroke-width:0.8;" x="46.965625" xlink:href="#m9a60cc3bcf" y="175.487658"/>
      </g>
     </g>
     <g id="text_9">
      <!-- 40 -->
      <g transform="translate(27.240625 179.286877)scale(0.1 -0.1)">
       <defs>
        <path d="M 2419 4116 
L 825 1625 
L 2419 1625 
L 2419 4116 
z
M 2253 4666 
L 3047 4666 
L 3047 1625 
L 3713 1625 
L 3713 1100 
L 3047 1100 
L 3047 0 
L 2419 0 
L 2419 1100 
L 313 1100 
L 313 1709 
L 2253 4666 
z
" id="DejaVuSans-34" transform="scale(0.015625)"/>
       </defs>
       <use xlink:href="#DejaVuSans-34"/>
       <use x="63.623047" xlink:href="#DejaVuSans-30"/>
      </g>
     </g>
    </g>
    <g id="ytick_4">
     <g id="line2d_9">
      <g>
       <use style="stroke:#000000;stroke-width:0.8;" x="46.965625" xlink:href="#m9a60cc3bcf" y="132.623487"/>
      </g>
     </g>
     <g id="text_10">
      <!-- 60 -->
      <g transform="translate(27.240625 136.422705)scale(0.1 -0.1)">
       <defs>
        <path d="M 2113 2584 
Q 1688 2584 1439 2293 
Q 1191 2003 1191 1497 
Q 1191 994 1439 701 
Q 1688 409 2113 409 
Q 2538 409 2786 701 
Q 3034 994 3034 1497 
Q 3034 2003 2786 2293 
Q 2538 2584 2113 2584 
z
M 3366 4563 
L 3366 3988 
Q 3128 4100 2886 4159 
Q 2644 4219 2406 4219 
Q 1781 4219 1451 3797 
Q 1122 3375 1075 2522 
Q 1259 2794 1537 2939 
Q 1816 3084 2150 3084 
Q 2853 3084 3261 2657 
Q 3669 2231 3669 1497 
Q 3669 778 3244 343 
Q 2819 -91 2113 -91 
Q 1303 -91 875 529 
Q 447 1150 447 2328 
Q 447 3434 972 4092 
Q 1497 4750 2381 4750 
Q 2619 4750 2861 4703 
Q 3103 4656 3366 4563 
z
" id="DejaVuSans-36" transform="scale(0.015625)"/>
       </defs>
       <use xlink:href="#DejaVuSans-36"/>
       <use x="63.623047" xlink:href="#DejaVuSans-30"/>
      </g>
     </g>
    </g>
    <g id="ytick_5">
     <g id="line2d_10">
      <g>
       <use style="stroke:#000000;stroke-width:0.8;" x="46.965625" xlink:href="#m9a60cc3bcf" y="89.759316"/>
      </g>
     </g>
     <g id="text_11">
      <!-- 80 -->
      <g transform="translate(27.240625 93.558534)scale(0.1 -0.1)">
       <defs>
        <path d="M 2034 2216 
Q 1584 2216 1326 1975 
Q 1069 1734 1069 1313 
Q 1069 891 1326 650 
Q 1584 409 2034 409 
Q 2484 409 2743 651 
Q 3003 894 3003 1313 
Q 3003 1734 2745 1975 
Q 2488 2216 2034 2216 
z
M 1403 2484 
Q 997 2584 770 2862 
Q 544 3141 544 3541 
Q 544 4100 942 4425 
Q 1341 4750 2034 4750 
Q 2731 4750 3128 4425 
Q 3525 4100 3525 3541 
Q 3525 3141 3298 2862 
Q 3072 2584 2669 2484 
Q 3125 2378 3379 2068 
Q 3634 1759 3634 1313 
Q 3634 634 3220 271 
Q 2806 -91 2034 -91 
Q 1263 -91 848 271 
Q 434 634 434 1313 
Q 434 1759 690 2068 
Q 947 2378 1403 2484 
z
M 1172 3481 
Q 1172 3119 1398 2916 
Q 1625 2713 2034 2713 
Q 2441 2713 2670 2916 
Q 2900 3119 2900 3481 
Q 2900 3844 2670 4047 
Q 2441 4250 2034 4250 
Q 1625 4250 1398 4047 
Q 1172 3844 1172 3481 
z
" id="DejaVuSans-38" transform="scale(0.015625)"/>
       </defs>
       <use xlink:href="#DejaVuSans-38"/>
       <use x="63.623047" xlink:href="#DejaVuSans-30"/>
      </g>
     </g>
    </g>
    <g id="ytick_6">
     <g id="line2d_11">
      <g>
       <use style="stroke:#000000;stroke-width:0.8;" x="46.965625" xlink:href="#m9a60cc3bcf" y="46.895145"/>
      </g>
     </g>
     <g id="text_12">
      <!-- 100 -->
      <g transform="translate(20.878125 50.694363)scale(0.1 -0.1)">
       <use xlink:href="#DejaVuSans-31"/>
       <use x="63.623047" xlink:href="#DejaVuSans-30"/>
       <use x="127.246094" xlink:href="#DejaVuSans-30"/>
      </g>
     </g>
    </g>
    <g id="text_13">
     <!-- F (kJ/mol) -->
     <g transform="translate(14.798438 163.995844)rotate(-90)scale(0.1 -0.1)">
      <defs>
       <path d="M 628 4666 
L 3309 4666 
L 3309 4134 
L 1259 4134 
L 1259 2759 
L 3109 2759 
L 3109 2228 
L 1259 2228 
L 1259 0 
L 628 0 
L 628 4666 
z
" id="DejaVuSans-46" transform="scale(0.015625)"/>
       <path d="M 581 4863 
L 1159 4863 
L 1159 1991 
L 2875 3500 
L 3609 3500 
L 1753 1863 
L 3688 0 
L 2938 0 
L 1159 1709 
L 1159 0 
L 581 0 
L 581 4863 
z
" id="DejaVuSans-6b" transform="scale(0.015625)"/>
       <path d="M 628 4666 
L 1259 4666 
L 1259 325 
Q 1259 -519 939 -900 
Q 619 -1281 -91 -1281 
L -331 -1281 
L -331 -750 
L -134 -750 
Q 284 -750 456 -515 
Q 628 -281 628 325 
L 628 4666 
z
" id="DejaVuSans-4a" transform="scale(0.015625)"/>
       <path d="M 1625 4666 
L 2156 4666 
L 531 -594 
L 0 -594 
L 1625 4666 
z
" id="DejaVuSans-2f" transform="scale(0.015625)"/>
       <path d="M 603 4863 
L 1178 4863 
L 1178 0 
L 603 0 
L 603 4863 
z
" id="DejaVuSans-6c" transform="scale(0.015625)"/>
      </defs>
      <use xlink:href="#DejaVuSans-46"/>
      <use x="57.519531" xlink:href="#DejaVuSans-20"/>
      <use x="89.306641" xlink:href="#DejaVuSans-28"/>
      <use x="128.320312" xlink:href="#DejaVuSans-6b"/>
      <use x="186.230469" xlink:href="#DejaVuSans-4a"/>
      <use x="215.722656" xlink:href="#DejaVuSans-2f"/>
      <use x="249.414062" xlink:href="#DejaVuSans-6d"/>
      <use x="346.826172" xlink:href="#DejaVuSans-6f"/>
      <use x="408.007812" xlink:href="#DejaVuSans-6c"/>
      <use x="435.791016" xlink:href="#DejaVuSans-29"/>
     </g>
    </g>
   </g>
   <g id="line2d_12">
    <path clip-path="url(#pb94eee9589)" d="M 63.198352 237.478857 
L 63.34599 238.802996 
L 63.788902 244.44092 
L 63.936539 241.49735 
L 64.084176 241.129359 
L 64.231814 243.550312 
L 64.379451 243.558793 
L 64.527088 244.665801 
L 64.674726 244.270222 
L 64.822363 241.189999 
L 65.117638 245.488853 
L 65.265275 245.852746 
L 65.412913 243.955723 
L 65.56055 246.081328 
L 65.708187 245.960884 
L 65.855825 244.728492 
L 66.151099 246.560961 
L 66.298737 245.073518 
L 66.446374 248.089855 
L 66.594011 245.376514 
L 66.741649 247.970804 
L 66.889286 246.208392 
L 67.036924 246.270674 
L 67.184561 247.659887 
L 67.332198 247.458751 
L 67.479836 248.854998 
L 67.77511 247.528765 
L 67.922748 249.578017 
L 68.070385 247.675311 
L 68.36566 249.70505 
L 68.513297 249.039875 
L 68.660934 249.230233 
L 68.956209 250.755865 
L 69.103847 249.996775 
L 69.251484 251.249103 
L 69.546759 249.478727 
L 69.694396 251.067181 
L 69.842033 251.319081 
L 69.989671 251.961407 
L 70.432583 249.95085 
L 70.875495 251.858741 
L 71.023132 252.099258 
L 71.170769 253.007301 
L 71.318407 251.151353 
L 71.613682 252.776229 
L 71.761319 251.553546 
L 72.056594 254.133234 
L 72.204231 251.645181 
L 72.351868 252.613189 
L 72.499506 251.762839 
L 72.647143 252.97203 
L 72.79478 251.56744 
L 72.942418 252.916328 
L 73.090055 251.875471 
L 73.237692 252.762157 
L 73.532967 252.114038 
L 73.680605 252.350637 
L 73.828242 251.676952 
L 73.975879 252.234518 
L 74.123517 253.261794 
L 74.271154 252.10303 
L 74.418791 252.810336 
L 74.566429 252.367131 
L 74.714066 252.868786 
L 74.861703 251.447065 
L 75.009341 252.544293 
L 75.304615 252.778657 
L 75.452253 251.290938 
L 75.59989 251.783728 
L 75.747528 251.198022 
L 75.895165 252.144025 
L 76.19044 251.235007 
L 76.338077 252.587719 
L 76.485714 252.884487 
L 76.780989 251.631966 
L 76.928626 251.392475 
L 77.076264 249.815196 
L 77.371538 251.395456 
L 77.519176 251.139431 
L 77.666813 249.976487 
L 77.81445 250.132451 
L 78.109725 251.965582 
L 78.257363 250.27043 
L 78.405 251.363338 
L 78.552637 251.477803 
L 78.700275 251.219842 
L 78.847912 250.532174 
L 78.995549 251.19895 
L 79.143187 251.058591 
L 79.290824 250.200532 
L 79.438461 250.766184 
L 79.586099 250.174254 
L 79.733736 250.874114 
L 79.881373 249.140477 
L 80.029011 250.844675 
L 80.176648 250.115459 
L 80.324286 250.250312 
L 80.471923 250.234234 
L 80.61956 249.418492 
L 80.767198 250.896522 
L 80.914835 250.747725 
L 81.062472 248.427871 
L 81.21011 249.99991 
L 81.357747 249.668274 
L 81.505384 249.965747 
L 81.653022 249.793751 
L 81.800659 250.22885 
L 81.948296 249.914992 
L 82.095934 250.476901 
L 82.243571 248.689156 
L 82.391209 248.860698 
L 82.538846 247.833319 
L 82.686483 249.680004 
L 82.981758 249.956266 
L 83.129395 250.637626 
L 83.42467 248.378414 
L 83.719945 247.260131 
L 84.015219 249.721636 
L 84.162857 249.557509 
L 84.310494 249.704117 
L 84.458132 248.107515 
L 84.753406 248.860032 
L 84.901044 247.434691 
L 85.048681 248.287847 
L 85.196318 247.873316 
L 85.343956 248.664569 
L 85.491593 247.869874 
L 85.63923 248.662983 
L 85.786868 247.870148 
L 85.934505 249.191363 
L 86.082142 249.024092 
L 86.22978 247.659269 
L 86.525054 249.530725 
L 86.672692 248.498841 
L 86.820329 249.049882 
L 87.115604 246.72339 
L 87.410879 249.885251 
L 87.558516 247.501135 
L 87.706153 247.958609 
L 87.853791 250.209437 
L 88.149065 247.5523 
L 88.296703 247.329159 
L 88.44434 248.821109 
L 88.887252 245.345854 
L 89.03489 248.505565 
L 89.182527 247.666395 
L 89.330164 247.91244 
L 89.477802 244.653882 
L 89.625439 247.950992 
L 89.773076 248.18922 
L 90.068351 250.326419 
L 90.215988 248.251978 
L 90.363626 249.593472 
L 90.511263 248.505702 
L 90.6589 249.962483 
L 90.806538 247.148905 
L 90.954175 247.172427 
L 91.24945 250.212377 
L 91.397087 247.245516 
L 91.692362 250.585053 
L 91.839999 247.583207 
L 92.282911 250.080105 
L 92.578186 249.801723 
L 92.873461 248.709257 
L 93.021098 248.948281 
L 93.168736 248.550133 
L 93.316373 250.894318 
L 93.46401 249.622463 
L 93.759285 251.535755 
L 93.906922 249.33418 
L 94.349834 251.257796 
L 94.497472 250.202165 
L 94.645109 251.597824 
L 94.792746 251.763087 
L 94.940384 251.390334 
L 95.088021 251.958998 
L 95.383296 250.737435 
L 95.530933 251.5256 
L 95.678571 251.698491 
L 95.826208 252.128716 
L 95.973845 251.901935 
L 96.26912 251.969868 
L 96.564395 252.667028 
L 96.712032 252.331713 
L 96.859669 252.733847 
L 97.007307 251.268456 
L 97.302581 254.545433 
L 97.450219 252.234747 
L 97.597856 253.241235 
L 97.745494 253.045146 
L 97.893131 253.076162 
L 98.040768 253.444486 
L 98.188406 252.254347 
L 98.336043 254.58688 
L 98.48368 252.174202 
L 98.631318 253.981368 
L 98.778955 252.230761 
L 99.07423 253.85796 
L 99.221867 253.560058 
L 99.369504 253.585607 
L 99.517142 253.145341 
L 99.664779 253.522153 
L 99.812417 253.313199 
L 99.960054 252.143097 
L 100.107691 253.590533 
L 100.255329 252.035888 
L 100.402966 254.274692 
L 100.550603 253.17669 
L 100.698241 253.195676 
L 100.845878 251.464609 
L 100.993515 252.570376 
L 101.141153 252.297848 
L 101.28879 252.741398 
L 101.436427 253.753646 
L 101.584065 253.414935 
L 101.731702 252.049602 
L 101.879339 253.792607 
L 102.026977 251.403714 
L 102.174614 253.813951 
L 102.469889 253.478859 
L 102.765164 251.076167 
L 102.912801 254.881554 
L 103.060438 251.964052 
L 103.355713 253.745017 
L 103.50335 251.806104 
L 103.650988 253.628742 
L 103.798625 252.581332 
L 103.946262 252.432808 
L 104.241537 253.120724 
L 104.389175 251.790531 
L 104.536812 253.237883 
L 104.684449 253.101598 
L 104.832087 253.470562 
L 105.274999 252.512102 
L 105.422636 253.778106 
L 105.570273 251.364099 
L 105.717911 252.323727 
L 105.865548 254.375258 
L 106.013185 254.652422 
L 106.160823 253.465097 
L 106.603735 252.639094 
L 106.751372 253.012863 
L 106.89901 254.431028 
L 107.194284 253.065348 
L 107.341922 252.51695 
L 107.489559 252.489532 
L 107.637196 253.895254 
L 107.784834 253.314297 
L 107.932471 254.041249 
L 108.227746 253.335598 
L 108.523021 253.268608 
L 108.818295 253.083156 
L 109.11357 253.009324 
L 109.261207 253.308949 
L 109.408845 254.171488 
L 109.556482 252.145498 
L 109.704119 252.967232 
L 109.851757 254.576601 
L 109.999394 251.886887 
L 110.147031 254.147364 
L 110.294669 251.801373 
L 110.442306 252.402558 
L 110.589943 253.742143 
L 110.885218 252.268149 
L 111.180493 251.531151 
L 111.475768 253.465965 
L 111.623405 251.250856 
L 111.771042 253.275914 
L 111.91868 251.938464 
L 112.066317 253.082836 
L 112.213954 251.196266 
L 112.361592 251.147208 
L 112.509229 252.426168 
L 112.656866 251.444602 
L 112.804504 251.520718 
L 112.952141 251.084264 
L 113.099779 251.295111 
L 113.247416 250.27034 
L 113.395053 250.933976 
L 113.542691 248.782523 
L 113.690328 249.640419 
L 113.985603 249.369809 
L 114.13324 248.379025 
L 114.428515 250.164151 
L 114.576152 249.502024 
L 114.723789 247.283968 
L 114.871427 249.06686 
L 115.019064 248.659923 
L 115.166702 249.300313 
L 115.314339 249.085517 
L 115.461976 248.127033 
L 115.609614 248.815434 
L 115.757251 247.825107 
L 115.904888 249.803892 
L 116.052526 247.069968 
L 116.200163 249.704441 
L 116.3478 247.416564 
L 116.643075 248.637796 
L 116.790712 245.802081 
L 117.085987 248.491756 
L 117.233625 246.440529 
L 117.381262 248.226019 
L 117.528899 245.272384 
L 117.676537 245.788454 
L 117.824174 248.08452 
L 117.971811 247.68161 
L 118.119449 245.649323 
L 118.267086 247.771411 
L 118.414723 247.901715 
L 118.562361 247.313137 
L 118.709998 247.45683 
L 118.857635 246.829749 
L 119.005273 244.821239 
L 119.15291 247.855024 
L 119.300547 244.737821 
L 119.595822 247.388044 
L 119.74346 246.374204 
L 120.038734 247.782429 
L 120.186372 244.505349 
L 120.334009 245.779851 
L 120.481646 245.258499 
L 120.629284 245.938202 
L 120.776921 247.273151 
L 121.072196 243.997739 
L 121.36747 249.141654 
L 121.515108 248.483382 
L 121.662745 247.262797 
L 121.810383 248.293599 
L 121.95802 245.444782 
L 122.105657 247.349809 
L 122.253295 246.253044 
L 122.400932 247.302699 
L 122.548569 244.864212 
L 122.843844 246.360253 
L 123.139119 248.975577 
L 123.286756 247.181923 
L 123.434393 247.47913 
L 123.582031 246.075198 
L 123.877306 247.276407 
L 124.024943 245.172297 
L 124.320218 247.686524 
L 124.467855 247.955148 
L 124.76313 245.553882 
L 125.058404 246.681748 
L 125.353679 246.995599 
L 125.501316 247.879051 
L 125.648954 247.136346 
L 125.796591 247.282405 
L 126.091866 246.616751 
L 126.239503 247.697161 
L 126.387141 246.244482 
L 126.534778 246.927745 
L 126.682415 246.920495 
L 126.830053 246.222719 
L 126.97769 246.906658 
L 127.125327 246.565824 
L 127.272965 246.559409 
L 127.420602 247.780459 
L 127.568239 246.547128 
L 127.863514 248.872825 
L 128.011151 246.529966 
L 128.158789 245.980432 
L 128.306426 247.318658 
L 128.601701 246.509136 
L 128.749338 248.376391 
L 128.896976 247.8621 
L 129.044613 246.664529 
L 129.339888 248.933259 
L 129.487525 247.569732 
L 129.635162 247.704236 
L 129.7828 245.928526 
L 129.930437 247.267744 
L 130.078074 246.464103 
L 130.225712 247.405693 
L 130.373349 245.717029 
L 130.520987 248.074709 
L 130.668624 248.070345 
L 130.816261 247.388308 
L 130.963899 247.526343 
L 131.111536 247.379133 
L 131.259173 248.653244 
L 131.849723 247.206924 
L 132.144997 248.387932 
L 132.292635 246.38927 
L 132.440272 246.026048 
L 132.735547 248.240274 
L 132.883184 245.210383 
L 133.030822 247.151537 
L 133.178459 246.677774 
L 133.326096 247.561775 
L 133.473734 249.291938 
L 133.621371 248.762529 
L 133.769008 245.36424 
L 134.21192 248.262306 
L 134.359558 245.713335 
L 134.80247 247.839807 
L 134.950107 247.950739 
L 135.097745 247.274461 
L 135.245382 248.617511 
L 135.393019 247.776769 
L 135.540657 248.473324 
L 135.688294 246.766895 
L 135.835931 246.433791 
L 135.983569 248.190151 
L 136.131206 248.285281 
L 136.278843 246.533858 
L 136.426481 247.642336 
L 136.574118 247.359683 
L 136.721755 248.635942 
L 137.312305 245.702346 
L 137.459942 248.076393 
L 137.60758 247.934717 
L 137.755217 248.562702 
L 138.050492 247.235075 
L 138.198129 247.582948 
L 138.345766 246.329198 
L 138.493404 248.310665 
L 138.641041 247.112012 
L 138.788678 247.809476 
L 138.936316 246.778595 
L 139.083953 246.605559 
L 139.379228 247.55628 
L 139.526865 246.637319 
L 139.674503 247.928345 
L 139.969777 246.523392 
L 140.117415 248.321679 
L 140.412689 245.345196 
L 140.560327 247.126078 
L 140.707964 246.318686 
L 141.150876 247.297341 
L 141.298514 246.14218 
L 141.446151 248.125085 
L 141.593788 246.185275 
L 141.741426 246.885348 
L 141.889063 245.816296 
L 142.184338 246.968007 
L 142.331975 245.808549 
L 142.479612 247.086801 
L 142.774887 246.178949 
L 142.922524 246.715462 
L 143.070162 246.318427 
L 143.217799 244.443393 
L 143.365436 246.668275 
L 143.513074 246.039554 
L 143.660711 245.985818 
L 143.808349 246.284307 
L 144.103623 245.82243 
L 144.398898 244.639167 
L 144.546535 246.339666 
L 144.84181 244.471566 
L 144.989447 244.843218 
L 145.137085 243.559554 
L 145.432359 245.438779 
L 145.727634 244.13268 
L 145.875272 245.832268 
L 146.022909 244.969506 
L 146.170546 245.156186 
L 146.318184 244.053563 
L 146.465821 244.140142 
L 146.613458 242.639468 
L 146.761096 244.564013 
L 146.908733 242.710187 
L 147.05637 244.325418 
L 147.204008 242.601256 
L 147.351645 243.811216 
L 147.499282 242.83932 
L 147.64692 242.616988 
L 147.794557 241.415063 
L 147.942195 242.847987 
L 148.089832 239.251569 
L 148.237469 242.74774 
L 148.385107 242.858448 
L 148.680381 241.119624 
L 148.828019 243.311932 
L 148.975656 243.124319 
L 149.123293 241.395952 
L 149.270931 241.35308 
L 149.418568 242.69867 
L 149.566205 240.641149 
L 149.86148 241.193374 
L 150.009117 240.061743 
L 150.156755 241.315441 
L 150.45203 240.196763 
L 150.599667 241.216832 
L 150.747304 239.897449 
L 151.042579 240.734314 
L 151.190216 240.052876 
L 151.337854 240.683663 
L 151.485491 238.694597 
L 151.928403 240.598882 
L 152.07604 237.640592 
L 152.223678 240.136699 
L 152.371315 238.872648 
L 152.518953 239.642488 
L 152.66659 239.120347 
L 152.814227 240.083631 
L 153.109502 238.526541 
L 153.257139 239.081941 
L 153.404777 240.268117 
L 153.552414 237.531662 
L 153.700051 237.527075 
L 153.847689 237.154682 
L 153.995326 241.401709 
L 154.142963 237.519306 
L 154.438238 239.05669 
L 154.585876 237.864817 
L 154.733513 239.059564 
L 155.028788 237.527671 
L 155.176425 238.795497 
L 155.324062 237.881622 
L 155.4717 240.054683 
L 155.619337 237.548233 
L 155.766974 237.900008 
L 156.062249 240.510781 
L 156.209886 237.923815 
L 156.357524 239.386591 
L 156.505161 238.572097 
L 156.652799 241.313008 
L 156.800436 239.665551 
L 156.948073 240.569694 
L 157.095711 239.439522 
L 157.243348 240.593312 
L 157.390985 239.203255 
L 157.538623 241.559089 
L 157.833897 241.229869 
L 158.129172 240.019772 
L 158.276809 242.124502 
L 158.424447 241.816045 
L 158.572084 240.294195 
L 158.719721 243.041504 
L 158.867359 240.327601 
L 159.014996 242.512502 
L 159.162634 242.065088 
L 159.310271 242.548386 
L 159.457908 240.399356 
L 159.605546 242.874893 
L 159.753183 241.805785 
L 160.048458 243.072777 
L 160.196095 242.51466 
L 160.343732 243.381221 
L 160.49137 242.401441 
L 160.639007 244.590345 
L 160.786644 243.445205 
L 161.229557 244.354272 
L 161.377194 244.031844 
L 161.524831 244.39964 
L 161.672469 242.884679 
L 161.820106 244.555931 
L 162.115381 243.382284 
L 162.263018 245.045479 
L 162.410655 244.863368 
L 162.558293 244.886945 
L 163.001205 245.73679 
L 163.148842 245.287012 
L 163.29648 244.335931 
L 163.444117 246.15822 
L 163.739392 243.908725 
L 163.887029 246.395524 
L 164.034666 244.33281 
L 164.182304 245.924153 
L 164.625216 243.20131 
L 164.772853 245.44221 
L 165.068128 244.369333 
L 165.215765 243.29111 
L 165.363403 246.194618 
L 165.51104 244.435609 
L 165.658677 246.05712 
L 165.953952 244.113897 
L 166.101589 243.718436 
L 166.249227 245.018481 
L 166.544501 243.484299 
L 166.692139 241.70618 
L 166.839776 244.50003 
L 166.987413 243.6962 
L 167.135051 244.909141 
L 167.282688 245.046464 
L 167.430325 243.450108 
L 167.577963 244.064078 
L 167.7256 243.79416 
L 167.873238 242.657113 
L 168.020875 244.526846 
L 168.31615 241.918499 
L 168.463787 243.420311 
L 168.611424 242.559228 
L 168.759062 240.503154 
L 168.906699 240.230576 
L 169.201974 242.624122 
L 169.349611 241.101235 
L 169.497248 241.829558 
L 169.644886 243.705455 
L 170.087798 240.90642 
L 170.235435 243.085021 
L 170.53071 242.129753 
L 170.678347 242.931413 
L 170.825985 242.55653 
L 170.973622 242.756885 
L 171.121259 241.472304 
L 171.268897 241.47554 
L 171.416534 240.967724 
L 171.564171 243.644845 
L 171.711809 242.570287 
L 171.859446 242.364745 
L 172.154721 243.290737 
L 172.302358 241.911613 
L 172.449996 242.90951 
L 172.597633 241.653459 
L 172.74527 244.591553 
L 172.892908 244.699638 
L 173.040545 241.343737 
L 173.33582 244.053638 
L 173.483457 243.065653 
L 173.926369 244.896545 
L 174.074006 243.783148 
L 174.221644 246.111909 
L 174.369281 244.790508 
L 174.516919 245.037671 
L 174.812193 246.421616 
L 174.959831 244.135412 
L 175.255105 245.86987 
L 175.402743 245.192781 
L 175.55038 245.556649 
L 175.698017 244.374187 
L 175.845655 245.52 
L 175.993292 245.551884 
L 176.288567 246.558955 
L 176.436204 247.071411 
L 176.583842 246.720478 
L 176.731479 245.922578 
L 176.879116 245.758438 
L 177.026754 246.868839 
L 177.322028 246.626052 
L 177.469666 247.110475 
L 177.617303 246.425683 
L 177.76494 246.733107 
L 177.912578 245.732506 
L 178.35549 247.285856 
L 178.503127 246.428268 
L 178.650765 246.432936 
L 178.798402 246.198175 
L 178.946039 246.744775 
L 179.241314 245.884195 
L 179.388951 245.582697 
L 179.536589 245.984195 
L 179.831863 245.669727 
L 179.979501 245.744979 
L 180.127138 245.250301 
L 180.274775 245.532778 
L 180.422413 245.449696 
L 180.57005 244.720157 
L 180.717688 245.217216 
L 180.865325 245.295094 
L 181.012962 245.004706 
L 181.1606 245.271015 
L 181.308237 244.591114 
L 181.455874 244.895486 
L 181.603512 244.39904 
L 181.751149 244.601157 
L 181.898786 244.508849 
L 182.046424 245.156848 
L 182.194061 244.596952 
L 182.341698 245.218973 
L 182.636973 244.084843 
L 182.78461 243.954165 
L 182.932248 244.227289 
L 183.079885 243.799379 
L 183.227523 243.954108 
L 183.37516 244.291337 
L 183.670435 243.182756 
L 183.818072 243.664386 
L 183.965709 243.050361 
L 184.113347 242.966787 
L 184.260984 242.643628 
L 184.408621 241.950906 
L 184.556259 242.098314 
L 184.851533 241.642293 
L 184.999171 241.544376 
L 185.146808 240.803372 
L 185.294446 240.842128 
L 185.58972 239.983111 
L 185.737358 239.106352 
L 185.884995 239.095203 
L 186.623182 237.061028 
L 186.918456 235.986428 
L 187.066094 235.656333 
L 187.213731 235.022254 
L 187.509006 234.798546 
L 187.804281 233.687802 
L 187.951918 233.504178 
L 188.39483 232.218933 
L 188.542467 232.063882 
L 188.837742 230.633393 
L 188.985379 230.733003 
L 189.280654 229.838409 
L 189.428292 229.195868 
L 189.575929 229.206267 
L 189.723566 228.081243 
L 189.871204 228.697071 
L 191.052302 223.415318 
L 191.19994 223.336645 
L 191.642852 221.015736 
L 192.085764 219.516894 
L 192.676313 216.556227 
L 192.823951 216.616115 
L 192.971588 216.17994 
L 193.119225 214.966363 
L 193.266863 214.800316 
L 193.4145 213.093962 
L 193.709775 212.712548 
L 194.00505 211.058857 
L 194.300324 209.578217 
L 194.447962 209.537395 
L 194.595599 208.310434 
L 194.743236 208.278869 
L 194.890874 206.992935 
L 195.038511 206.711504 
L 195.186148 206.187802 
L 195.333786 205.227947 
L 195.481423 205.014306 
L 195.62906 203.438085 
L 195.776698 204.335401 
L 196.071973 202.161118 
L 196.367247 201.346884 
L 196.514885 199.607333 
L 196.662522 199.695342 
L 196.957797 198.836035 
L 197.105434 197.152363 
L 197.253071 197.283199 
L 197.843621 194.445246 
L 197.991258 194.721652 
L 198.286533 192.507141 
L 198.581808 191.107012 
L 199.172357 188.103724 
L 199.467632 187.460362 
L 199.762906 185.773983 
L 199.910544 185.242825 
L 200.205818 183.336422 
L 200.353456 183.141459 
L 200.648731 181.15356 
L 200.796368 180.380734 
L 200.944005 180.366224 
L 201.091643 178.961008 
L 201.23928 178.635727 
L 202.125104 174.371561 
L 202.568016 172.597867 
L 202.715654 172.524708 
L 203.010928 171.032234 
L 203.306203 169.363784 
L 203.45384 169.453488 
L 203.601478 169.217099 
L 204.04439 165.887222 
L 204.192027 166.438832 
L 204.339664 164.301789 
L 204.487302 165.213688 
L 204.782577 162.376301 
L 204.930214 163.06594 
L 205.520763 159.147647 
L 205.668401 159.356076 
L 205.816038 158.467271 
L 205.963675 158.555191 
L 206.849499 152.919848 
L 206.997137 152.967165 
L 207.440049 150.046763 
L 207.587686 150.3666 
L 208.030598 147.670928 
L 208.325873 146.815008 
L 208.47351 145.435191 
L 208.621148 145.483754 
L 209.06406 143.394471 
L 209.654609 140.82713 
L 209.949884 139.533823 
L 210.097521 139.462062 
L 210.540433 136.778017 
L 210.835708 135.062902 
L 210.983345 135.081839 
L 211.573895 132.052752 
L 211.86917 131.447954 
L 212.164444 129.55079 
L 212.459719 128.297133 
L 212.754994 126.131744 
L 212.902631 126.062729 
L 213.197906 124.086541 
L 213.345543 124.064766 
L 213.493181 122.36034 
L 213.640818 122.270443 
L 214.08373 119.715113 
L 214.379005 118.618868 
L 214.821917 115.924302 
L 215.117191 114.667441 
L 215.264829 113.44665 
L 215.412466 113.171983 
L 215.707741 111.965907 
L 216.003016 110.168891 
L 218.808125 97.510525 
L 218.955763 95.772539 
L 219.1034 95.779297 
L 219.841587 91.13011 
L 219.989224 90.831196 
L 220.136862 89.032331 
L 220.284499 88.74198 
L 220.875048 86.183867 
L 221.022686 84.183982 
L 221.170323 84.03259 
L 221.90851 79.798055 
L 222.203784 78.167316 
L 222.499059 76.264635 
L 222.941971 73.845225 
L 223.089609 73.340454 
L 223.532521 70.564365 
L 223.680158 70.453893 
L 223.827795 69.029725 
L 223.975433 68.689411 
L 224.12307 67.318088 
L 224.270707 67.537128 
L 224.565982 65.975447 
L 224.861257 64.860327 
L 225.008894 63.386041 
L 225.156532 63.152367 
L 225.599444 61.305637 
L 225.894718 57.956368 
L 226.042356 58.749265 
L 226.189993 56.93202 
L 226.33763 56.555503 
L 226.632905 54.381331 
L 227.075817 51.637816 
L 227.223455 51.381551 
L 228.552191 42.228205 
L 228.847466 40.013268 
L 228.995103 39.685329 
L 229.585652 35.285062 
L 229.73329 35.38613 
L 230.176202 32.204236 
L 230.619114 29.322954 
L 231.062026 26.686795 
L 231.357301 25.312906 
L 231.800213 22.749063 
L 231.94785 22.329684 
L 232.095487 22.705538 
L 232.243125 22.151585 
L 232.390762 22.41693 
L 232.686037 20.450364 
L 232.833674 20.551547 
L 232.981311 20.079506 
L 233.128949 20.292997 
L 233.424224 20.135295 
L 233.571861 19.296 
L 233.867136 21.471723 
L 234.014773 21.506006 
L 234.310048 20.622389 
L 234.457685 22.052878 
L 234.605322 21.654295 
L 234.900597 24.161752 
L 235.048234 25.64601 
L 235.195872 25.149872 
L 235.343509 26.424869 
L 235.491147 24.570068 
L 235.786421 29.045932 
L 236.081696 30.218174 
L 236.229333 29.86743 
L 236.672245 32.900449 
L 236.819883 33.412592 
L 237.115157 35.694983 
L 237.262795 35.764142 
L 237.410432 37.625292 
L 237.558069 36.415313 
L 237.853344 38.338865 
L 238.000982 36.855565 
L 238.296256 38.462663 
L 238.443894 36.55941 
L 238.739168 36.493971 
L 238.886806 36.914164 
L 239.034443 34.737903 
L 239.18208 35.698198 
L 239.477355 35.230293 
L 239.624992 35.504971 
L 239.77263 37.133207 
L 239.920267 36.689136 
L 240.067905 36.865184 
L 240.510817 39.086707 
L 240.658454 38.921766 
L 240.806091 39.46574 
L 240.953729 39.457671 
L 241.396641 42.661045 
L 241.544278 41.80993 
L 242.430102 46.90816 
L 242.57774 47.42513 
L 242.725377 49.024285 
L 242.873014 49.298813 
L 243.020652 50.81674 
L 243.168289 50.423468 
L 243.463564 52.953305 
L 243.611201 54.508805 
L 243.758838 54.551382 
L 244.497025 59.050307 
L 244.644663 60.211144 
L 244.7923 60.416598 
L 245.678124 64.87376 
L 245.825761 67.092828 
L 245.973399 67.418274 
L 246.121036 68.41415 
L 246.268673 67.760019 
L 246.563948 70.366733 
L 246.711586 69.985996 
L 246.859223 71.812983 
L 247.00686 71.921644 
L 247.302135 73.450532 
L 247.449772 73.767489 
L 247.892684 76.349586 
L 248.040322 77.349707 
L 248.187959 77.087196 
L 248.483234 79.142969 
L 248.630871 79.314284 
L 248.926146 81.138763 
L 249.073783 81.425616 
L 249.664333 84.316473 
L 250.402519 89.042852 
L 250.550157 89.471596 
L 250.993069 92.992157 
L 251.288344 94.0656 
L 251.583618 96.54104 
L 252.02653 99.225821 
L 252.321805 101.633883 
L 252.469442 102.211143 
L 252.912355 106.088197 
L 253.059992 105.481231 
L 253.945816 113.704564 
L 254.093453 114.043596 
L 255.569827 125.676726 
L 255.717464 125.600465 
L 256.308014 130.294059 
L 256.603288 132.319528 
L 256.898563 134.440904 
L 257.341475 137.63595 
L 258.079662 143.434146 
L 258.227299 144.159969 
L 258.522574 146.322128 
L 259.260761 151.914226 
L 259.998948 157.587674 
L 260.44186 161.517665 
L 260.884772 164.325114 
L 261.180046 166.637353 
L 261.918233 172.152056 
L 262.361145 174.848757 
L 263.099332 179.522689 
L 263.394607 181.514084 
L 263.542244 182.167454 
L 264.132794 186.092777 
L 264.428068 187.977146 
L 264.87098 190.800791 
L 265.609167 195.108076 
L 265.756804 195.617095 
L 266.052079 198.332 
L 267.233178 204.76382 
L 267.823727 208.549331 
L 267.971365 208.601329 
L 268.561914 212.537681 
L 268.709552 212.914869 
L 269.004826 214.598824 
L 269.152464 214.457634 
L 269.447738 216.326015 
L 269.89065 218.369819 
L 270.185925 219.132885 
L 270.4812 220.080875 
L 270.628837 220.488183 
L 270.776475 221.678164 
L 271.071749 222.422706 
L 272.252848 226.823116 
L 272.400485 227.754805 
L 272.548123 227.512599 
L 272.69576 228.110093 
L 272.843398 229.331381 
L 272.991035 229.454168 
L 273.138672 229.730108 
L 273.28631 230.291745 
L 273.581584 231.762725 
L 273.729222 232.509434 
L 273.876859 232.425208 
L 274.172134 233.923343 
L 274.319771 233.624933 
L 274.615046 234.908434 
L 274.762683 235.328015 
L 274.910321 234.891728 
L 275.205595 236.708974 
L 275.353233 237.006494 
L 275.50087 236.910922 
L 275.648507 237.102938 
L 276.239057 238.99546 
L 276.386694 239.390316 
L 276.534331 239.130845 
L 276.977244 241.339622 
L 277.124881 241.324018 
L 277.272518 240.940289 
L 277.420156 241.215411 
L 277.71543 242.189943 
L 277.863068 242.754609 
L 278.010705 242.33342 
L 278.158342 243.671997 
L 278.30598 243.836698 
L 278.453617 243.390084 
L 278.896529 245.263582 
L 279.044166 244.548801 
L 279.191804 245.169903 
L 279.339441 244.98342 
L 279.634716 245.62697 
L 279.782353 244.789702 
L 279.929991 246.228821 
L 280.225265 247.05449 
L 280.52054 246.811024 
L 280.668177 247.314541 
L 280.815815 247.367028 
L 280.963452 247.78101 
L 281.111089 247.814202 
L 281.258727 248.13992 
L 281.406364 247.827586 
L 281.554002 246.84928 
L 281.701639 248.207697 
L 281.849276 248.07936 
L 281.996914 247.620385 
L 282.144551 249.105196 
L 282.439826 248.130835 
L 282.587463 250.093714 
L 282.7351 248.719911 
L 282.882738 249.656037 
L 283.030375 249.378958 
L 283.178012 249.360377 
L 283.32565 249.012686 
L 283.473287 249.180502 
L 283.620925 249.962072 
L 283.768562 249.167246 
L 284.063837 251.243295 
L 284.211474 251.137075 
L 284.359111 250.003151 
L 284.506749 250.875261 
L 284.802023 250.537937 
L 284.949661 250.887824 
L 285.097298 251.615851 
L 285.244935 250.828067 
L 285.392573 251.684286 
L 285.54021 250.737628 
L 285.835485 253.190048 
L 286.13076 250.722109 
L 286.426034 252.221226 
L 286.573672 251.316616 
L 286.721309 251.669108 
L 286.868946 252.54964 
L 287.016584 252.445798 
L 287.164221 252.10413 
L 287.311858 252.963758 
L 287.459496 252.189731 
L 287.607133 252.288833 
L 287.75477 252.14332 
L 287.902408 251.578478 
L 288.050045 251.530393 
L 288.34532 252.878923 
L 288.492957 252.608585 
L 288.788232 252.659143 
L 288.935869 253.346663 
L 289.083507 253.431633 
L 289.231144 253.738159 
L 289.378781 253.122439 
L 289.526419 253.902127 
L 289.674056 253.284135 
L 289.821693 251.783818 
L 289.969331 253.564385 
L 290.116968 251.939098 
L 290.264606 253.340148 
L 290.412243 252.720092 
L 290.55988 253.987268 
L 290.707518 253.295661 
L 290.855155 254.133204 
L 291.298067 252.523498 
L 291.445704 252.757465 
L 291.593342 254.115466 
L 291.740979 254.183584 
L 291.888616 254.122252 
L 292.036254 252.337986 
L 292.183891 253.706679 
L 292.331529 253.320418 
L 292.479166 253.385668 
L 292.626803 252.600081 
L 292.774441 253.966739 
L 292.922078 252.346181 
L 293.069715 252.603994 
L 293.217353 255.083239 
L 293.36499 252.917156 
L 293.512627 254.135261 
L 293.660265 252.659176 
L 293.807902 254.953813 
L 293.955539 255.143759 
L 294.103177 253.405799 
L 294.398451 256.568682 
L 294.546089 255.124078 
L 294.693726 255.9307 
L 294.841364 255.374704 
L 294.989001 253.582382 
L 295.136638 253.453296 
L 295.284276 255.001454 
L 295.431913 254.44769 
L 295.57955 254.970377 
L 295.727188 254.876981 
L 295.874825 256.157211 
L 296.022462 254.166308 
L 296.317737 256.790928 
L 296.613012 254.020152 
L 296.908287 255.900772 
L 297.055924 253.989028 
L 297.203561 254.042743 
L 297.498836 256.636866 
L 297.646473 256.302879 
L 297.794111 254.992525 
L 298.089385 256.590628 
L 298.38466 254.459524 
L 298.532297 257.585865 
L 298.679935 255.947515 
L 298.827572 256.294411 
L 298.97521 253.802337 
L 299.122847 257.439482 
L 299.270484 257.368169 
L 299.418122 256.632941 
L 299.565759 256.538548 
L 299.861034 257.0507 
L 300.008671 257.727562 
L 300.156308 256.116394 
L 300.303946 257.056011 
L 300.451583 255.699679 
L 300.746858 258.191208 
L 300.894495 257.760948 
L 301.042133 256.550426 
L 301.18977 257.595789 
L 301.337407 256.315082 
L 301.485045 257.812638 
L 301.632682 257.45992 
L 301.780319 258.723234 
L 302.075594 256.360647 
L 302.223231 257.490904 
L 302.370869 257.092677 
L 302.666143 258.635131 
L 302.813781 259.012904 
L 302.961418 258.829662 
L 303.109055 256.099831 
L 303.40433 257.519842 
L 303.551968 257.985192 
L 303.699605 259.76176 
L 303.99488 257.955318 
L 304.437792 259.080391 
L 304.585429 257.497786 
L 304.733066 258.531333 
L 305.028341 257.899659 
L 305.175978 256.774586 
L 305.323616 258.523922 
L 305.471253 257.839615 
L 305.618891 259.329494 
L 306.061803 257.951195 
L 306.20944 259.077897 
L 306.357077 259.226367 
L 306.504715 258.606404 
L 306.652352 258.897983 
L 306.799989 258.37276 
L 306.947627 258.944415 
L 307.095264 258.560402 
L 307.242901 260.558545 
L 307.390539 256.970216 
L 307.538176 257.868707 
L 307.685814 259.66371 
L 307.833451 258.799974 
L 307.981088 260.752126 
L 308.128726 260.373314 
L 308.276363 258.570627 
L 308.424 259.264176 
L 308.571638 260.817329 
L 308.719275 260.637432 
L 308.866912 259.676561 
L 309.01455 257.522069 
L 309.162187 260.576734 
L 309.457462 258.06645 
L 309.605099 259.237008 
L 309.752736 258.24562 
L 309.900374 258.559868 
L 310.195649 261.216 
L 310.343286 259.891909 
L 310.490923 260.235405 
L 310.638561 258.286714 
L 310.786198 258.596566 
L 310.933835 257.800754 
L 311.22911 259.168364 
L 311.376747 258.606547 
L 311.672022 260.774885 
L 312.114934 258.603341 
L 312.410209 259.421444 
L 312.557846 259.417488 
L 312.705484 260.236969 
L 312.853121 260.121523 
L 313.000758 258.724241 
L 313.148396 259.395394 
L 313.296033 257.764888 
L 313.44367 259.380691 
L 313.738945 258.539557 
L 313.886582 258.379558 
L 314.03422 259.592946 
L 314.181857 259.333716 
L 314.329495 259.808939 
L 314.477132 258.914779 
L 314.624769 259.667564 
L 314.772407 257.487226 
L 314.920044 258.595053 
L 315.067681 258.129158 
L 315.215319 259.958232 
L 315.362956 258.551846 
L 315.658231 259.446648 
L 315.805868 260.424989 
L 316.24878 258.999828 
L 316.396418 260.147966 
L 316.544055 258.694729 
L 316.691692 259.197065 
L 316.83933 257.761928 
L 316.986967 257.576819 
L 317.134604 258.331861 
L 317.577516 256.775863 
L 317.725154 258.524366 
L 317.872791 256.333473 
L 318.020428 258.999275 
L 318.315703 257.535607 
L 318.46334 258.264907 
L 318.610978 257.320963 
L 318.758615 258.488268 
L 318.906253 257.433944 
L 319.05389 257.243199 
L 319.201527 255.896964 
L 319.349165 256.079794 
L 319.496802 259.217715 
L 319.644439 258.328209 
L 319.792077 259.16269 
L 320.087351 257.970359 
L 320.234989 256.497073 
L 320.530263 258.290891 
L 320.677901 258.639424 
L 320.825538 258.361555 
L 320.973176 259.15625 
L 321.120813 257.327939 
L 321.26845 257.595246 
L 321.416088 258.11407 
L 321.563725 256.923524 
L 321.711362 258.308204 
L 321.859 258.638207 
L 322.006637 258.607482 
L 322.154274 256.291488 
L 322.449549 257.898952 
L 322.892461 256.309066 
L 323.040099 257.77151 
L 323.335373 254.843649 
L 323.483011 258.051124 
L 323.630648 258.37064 
L 323.778285 255.172283 
L 323.925923 256.878407 
L 324.07356 256.214977 
L 324.221197 257.883392 
L 324.368835 255.432901 
L 324.516472 256.112294 
L 324.664109 257.657144 
L 324.811747 257.367648 
L 324.959384 255.099392 
L 325.107022 256.891057 
L 325.402296 255.187364 
L 325.697571 258.107141 
L 325.992846 256.81439 
L 326.140483 257.299884 
L 326.28812 256.007855 
L 326.435758 256.126096 
L 326.583395 257.312619 
L 326.731032 255.897351 
L 326.87867 256.454911 
L 327.026307 255.663594 
L 327.173944 256.915611 
L 327.321582 254.516341 
L 327.616857 257.289888 
L 327.764494 254.404101 
L 327.912131 255.598925 
L 328.059769 255.23725 
L 328.207406 255.364117 
L 328.355043 256.615656 
L 328.502681 256.181749 
L 328.650318 256.788826 
L 328.797955 255.967263 
L 328.945593 257.065698 
L 329.240867 254.408469 
L 329.68378 256.987876 
L 330.126692 254.360227 
L 330.569604 255.508149 
L 330.717241 255.608248 
L 330.864878 254.511846 
L 331.012516 255.665816 
L 331.160153 255.887632 
L 331.30779 254.718908 
L 331.455428 255.413205 
L 331.603065 253.971404 
L 331.750703 254.601216 
L 331.89834 256.060328 
L 332.045977 254.828028 
L 332.193615 255.351834 
L 332.341252 253.949741 
L 332.488889 256.135001 
L 332.636527 254.959177 
L 332.784164 254.777122 
L 332.931801 251.709764 
L 333.079439 254.979636 
L 333.227076 254.940235 
L 333.374713 254.322395 
L 333.522351 255.859085 
L 333.669988 254.088964 
L 333.817625 253.725773 
L 333.965263 254.010876 
L 334.1129 253.972004 
L 334.260538 254.385296 
L 334.408175 253.225555 
L 334.555812 253.00587 
L 334.851087 254.513261 
L 334.998724 254.475311 
L 335.146362 252.269971 
L 335.293999 252.816155 
L 335.441636 254.758736 
L 335.589274 254.847321 
L 335.736911 254.423692 
L 335.884548 255.016527 
L 336.032186 253.321847 
L 336.179823 253.897039 
L 336.327461 253.249169 
L 336.475098 251.728924 
L 336.622735 253.642394 
L 336.770373 252.977048 
L 336.91801 253.717659 
L 337.065647 253.385247 
L 337.213285 251.962757 
L 337.360922 252.30976 
L 337.508559 254.126067 
L 337.951471 251.983713 
L 338.099109 253.856226 
L 338.246746 253.822147 
L 338.394384 252.069067 
L 338.542021 254.015267 
L 338.689658 252.182901 
L 338.837296 252.818545 
L 338.984933 252.291425 
L 339.13257 253.881745 
L 339.280208 252.874116 
L 339.427845 252.686379 
L 339.575482 251.421447 
L 339.72312 251.389072 
L 339.870757 252.894828 
L 340.018394 252.712297 
L 340.166032 252.831204 
L 340.608944 253.810481 
L 340.756581 250.074412 
L 340.904219 251.138955 
L 341.051856 253.471008 
L 341.199493 251.817964 
L 341.347131 251.95846 
L 341.642405 251.374894 
L 341.790043 252.352137 
L 341.93768 251.845436 
L 342.085317 252.594341 
L 342.232955 252.567558 
L 342.380592 250.856831 
L 342.528229 251.903707 
L 342.675867 251.87828 
L 342.823504 252.74637 
L 342.971142 252.440446 
L 343.266416 250.506719 
L 343.414054 252.369774 
L 343.561691 249.805588 
L 343.709328 251.548861 
L 343.856966 249.989239 
L 344.004603 250.792055 
L 344.15224 250.958835 
L 344.447515 251.9238 
L 344.595152 251.255473 
L 344.74279 252.035708 
L 344.890427 251.042281 
L 345.038065 251.693011 
L 345.185702 251.005889 
L 345.333339 251.163518 
L 345.480977 251.794978 
L 345.628614 251.928581 
L 345.776251 250.756 
L 346.071526 253.189853 
L 346.219163 251.39851 
L 346.366801 252.411393 
L 346.514438 252.121937 
L 346.662075 250.28 
L 346.809713 251.949658 
L 346.95735 250.250794 
L 347.252625 252.323753 
L 347.400262 251.746777 
L 347.5479 249.565724 
L 347.695537 251.414503 
L 347.843174 251.401526 
L 347.990812 250.894987 
L 348.138449 250.882531 
L 348.286086 248.788307 
L 348.728998 252.198088 
L 348.876636 251.318241 
L 349.024273 252.176317 
L 349.171911 250.259159 
L 349.319548 250.05465 
L 349.467185 252.532673 
L 349.76246 251.258758 
L 349.910097 251.844643 
L 350.205372 251.539257 
L 350.500647 251.670856 
L 350.648284 251.517506 
L 350.795921 252.460867 
L 350.943559 251.651345 
L 351.091196 251.78815 
L 351.238833 248.077272 
L 351.386471 251.183131 
L 351.681746 249.740033 
L 351.829383 252.038974 
L 351.97702 250.842431 
L 352.124658 252.032015 
L 352.272295 251.000611 
L 352.419932 252.535825 
L 352.56757 251.310051 
L 352.715207 251.458514 
L 352.862844 249.918728 
L 353.010482 252.150275 
L 353.305756 249.712819 
L 353.453394 251.598022 
L 353.601031 251.145245 
L 353.896306 252.145131 
L 354.043943 250.475004 
L 354.191581 251.596095 
L 354.339218 250.820067 
L 354.486855 250.984809 
L 354.634493 248.817614 
L 354.78213 251.450841 
L 355.077405 250.477548 
L 355.225042 251.742127 
L 355.372679 251.600548 
L 355.520317 252.279253 
L 355.667954 252.280477 
L 355.815592 252.650652 
L 356.110866 249.9229 
L 356.553778 251.894305 
L 356.701416 251.757588 
L 356.849053 250.84119 
L 356.99669 251.167732 
L 357.144328 250.501232 
L 357.291965 250.679294 
L 357.58724 252.04796 
L 357.734877 252.680893 
L 357.882514 252.054686 
L 358.030152 250.151564 
L 358.177789 251.348254 
L 358.325427 250.873158 
L 358.473064 249.767267 
L 358.768339 250.540993 
L 358.915976 250.54558 
L 359.211251 251.818862 
L 359.358888 251.069637 
L 359.506525 252.103103 
L 359.8018 250.575572 
L 360.097075 251.98875 
L 360.244712 251.712666 
L 360.539987 250.420967 
L 360.687624 251.582164 
L 360.835262 251.587398 
L 360.982899 251.881589 
L 361.130536 250.798228 
L 361.573448 252.684738 
L 361.721086 251.762903 
L 361.868723 249.453113 
L 362.01636 252.187965 
L 362.163998 252.191765 
L 362.311635 251.632064 
L 362.459273 252.945733 
L 362.60691 251.784791 
L 362.754547 252.204243 
L 362.902185 249.694019 
L 363.049822 253.507395 
L 363.197459 251.936106 
L 363.492734 252.344587 
L 363.640371 249.017178 
L 363.788009 252.960466 
L 363.935646 250.306329 
L 364.230921 252.472148 
L 364.378558 251.34098 
L 364.526196 251.179401 
L 364.82147 252.334413 
L 364.969108 252.45981 
L 365.116745 253.16972 
L 365.264382 250.827969 
L 365.41202 250.647684 
L 365.559657 252.044711 
L 365.707294 250.636025 
L 365.854932 251.893028 
L 366.002569 252.159924 
L 366.150206 253.014102 
L 366.297844 252.143387 
L 366.445481 252.394944 
L 366.740756 252.113461 
L 366.888393 252.234023 
L 367.036031 253.388565 
L 367.183668 253.581177 
L 367.478943 251.48495 
L 367.62658 251.163769 
L 367.921855 252.259356 
L 368.069492 251.980036 
L 368.217129 252.70767 
L 368.364767 252.687097 
L 368.512404 251.644075 
L 368.660041 252.282119 
L 368.807679 251.736216 
L 368.955316 253.645178 
L 369.102954 250.627189 
L 369.398228 252.150224 
L 369.545866 251.865408 
L 369.693503 253.404273 
L 370.136415 250.884961 
L 370.284052 251.948173 
L 370.43169 252.152459 
L 370.579327 250.919278 
L 370.726964 252.945086 
L 370.874602 252.696028 
L 371.022239 253.780624 
L 371.169877 251.170203 
L 371.317514 253.600063 
L 371.465151 252.181832 
L 371.612789 252.017518 
L 371.908063 252.345367 
L 372.055701 252.288285 
L 372.203338 252.916954 
L 372.350975 250.734519 
L 372.498613 250.80724 
L 372.64625 251.489875 
L 372.793887 250.808294 
L 372.941525 253.285007 
L 373.089162 251.836351 
L 373.2368 252.264021 
L 373.384437 251.9953 
L 373.532074 253.151333 
L 373.679712 251.938723 
L 373.827349 251.858329 
L 373.974986 251.04813 
L 374.122624 251.493339 
L 374.270261 250.877012 
L 374.417898 251.799995 
L 374.565536 251.021648 
L 374.713173 251.523386 
L 374.86081 250.28222 
L 375.008448 251.331387 
L 375.156085 250.741469 
L 375.45136 251.30201 
L 375.598997 250.0038 
L 375.746635 250.815155 
L 375.894272 250.111211 
L 376.041909 250.305448 
L 376.189547 249.2175 
L 376.337184 250.076974 
L 376.484821 249.330239 
L 376.632459 250.314366 
L 376.780096 249.914666 
L 376.927733 248.740604 
L 377.075371 248.731403 
L 377.370645 249.783645 
L 377.518283 248.57206 
L 377.66592 248.549697 
L 377.813558 249.737642 
L 377.961195 248.890753 
L 378.108832 249.213674 
L 378.25647 248.015226 
L 378.404107 247.87876 
L 378.551744 249.225515 
L 378.699382 247.914521 
L 378.847019 249.487019 
L 378.994656 247.324181 
L 379.142294 248.246884 
L 379.289931 246.11097 
L 379.585206 246.760459 
L 379.732843 245.686825 
L 379.880481 247.45198 
L 380.028118 246.845326 
L 380.175755 245.133616 
L 380.47103 246.224505 
L 380.618667 245.878897 
L 380.766305 246.143262 
L 380.913942 245.387256 
L 381.061579 244.029448 
L 381.209217 244.890396 
L 381.504491 243.34208 
L 381.652129 244.600859 
L 381.799766 243.495047 
L 381.947403 243.497551 
L 382.095041 242.82103 
L 382.242678 243.741587 
L 382.390316 243.850166 
L 382.537953 241.837856 
L 382.833228 241.436502 
L 382.980865 240.413392 
L 383.128502 240.301069 
L 383.27614 240.929907 
L 383.423777 239.454743 
L 383.571414 242.342237 
L 383.719052 238.784208 
L 383.866689 242.013959 
L 384.014326 239.056017 
L 384.161964 239.182309 
L 384.309601 237.900746 
L 384.457239 240.492524 
L 384.604876 238.926462 
L 384.900151 238.773323 
L 385.047788 239.113632 
L 385.4907 235.411863 
L 385.638337 237.772329 
L 385.785975 234.908083 
L 385.933612 236.889029 
L 386.081249 236.250769 
L 386.376524 233.339295 
L 386.524162 235.82085 
L 386.671799 236.118218 
L 386.967074 234.643772 
L 387.262348 232.025735 
L 387.409986 233.723634 
L 387.557623 232.650913 
L 387.852898 232.664827 
L 387.852898 232.664827 
" style="fill:none;stroke:#1f77b4;stroke-linecap:square;stroke-width:1.5;"/>
   </g>
   <g id="patch_3">
    <path d="M 46.965625 273.312 
L 46.965625 7.2 
" style="fill:none;stroke:#000000;stroke-linecap:square;stroke-linejoin:miter;stroke-width:0.8;"/>
   </g>
   <g id="patch_4">
    <path d="M 404.085625 273.312 
L 404.085625 7.2 
" style="fill:none;stroke:#000000;stroke-linecap:square;stroke-linejoin:miter;stroke-width:0.8;"/>
   </g>
   <g id="patch_5">
    <path d="M 46.965625 273.312 
L 404.085625 273.312 
" style="fill:none;stroke:#000000;stroke-linecap:square;stroke-linejoin:miter;stroke-width:0.8;"/>
   </g>
   <g id="patch_6">
    <path d="M 46.965625 7.2 
L 404.085625 7.2 
" style="fill:none;stroke:#000000;stroke-linecap:square;stroke-linejoin:miter;stroke-width:0.8;"/>
   </g>
  </g>
 </g>
 <defs>
  <clipPath id="pb94eee9589">
   <rect height="266.112" width="357.12" x="46.965625" y="7.2"/>
  </clipPath>
 </defs>
</svg>
