<?xml version="1.0" encoding="utf-8" standalone="no"?>
<!DOCTYPE svg PUBLIC "-//W3C//DTD SVG 1.1//EN"
  "http://www.w3.org/Graphics/SVG/1.1/DTD/svg11.dtd">
<svg height="310.86825pt" version="1.1" viewBox="0 0 411.285625 310.86825" width="411.285625pt" xmlns="http://www.w3.org/2000/svg" xmlns:xlink="http://www.w3.org/1999/xlink">
 <metadata>
  <rdf:RDF xmlns:cc="http://creativecommons.org/ns#" xmlns:dc="http://purl.org/dc/elements/1.1/" xmlns:rdf="http://www.w3.org/1999/02/22-rdf-syntax-ns#">
   <cc:Work>
    <dc:type rdf:resource="http://purl.org/dc/dcmitype/StillImage"/>
    <dc:date>2022-01-24T15:41:41.323617</dc:date>
    <dc:format>image/svg+xml</dc:format>
    <dc:creator>
     <cc:Agent>
      <dc:title>Matplotlib v3.4.2, https://matplotlib.org/</dc:title>
     </cc:Agent>
    </dc:creator>
   </cc:Work>
  </rdf:RDF>
 </metadata>
 <defs>
  <style type="text/css">*{stroke-linecap:butt;stroke-linejoin:round;}</style>
 </defs>
 <g id="figure_1">
  <g id="patch_1">
   <path d="M 0 310.86825 
L 411.285625 310.86825 
L 411.285625 0 
L 0 0 
z
" style="fill:#ffffff;"/>
  </g>
  <g id="axes_1">
   <g id="patch_2">
    <path d="M 46.965625 273.312 
L 404.085625 273.312 
L 404.085625 7.2 
L 46.965625 7.2 
z
" style="fill:#ffffff;"/>
   </g>
   <g id="matplotlib.axis_1">
    <g id="xtick_1">
     <g id="line2d_1">
      <defs>
       <path d="M 0 0 
L 0 3.5 
" id="ma3dae6bdb1" style="stroke:#000000;stroke-width:0.8;"/>
      </defs>
      <g>
       <use style="stroke:#000000;stroke-width:0.8;" x="77.888269" xlink:href="#ma3dae6bdb1" y="273.312"/>
      </g>
     </g>
     <g id="text_1">
      <!-- −10 -->
      <g transform="translate(67.335925 287.910437)scale(0.1 -0.1)">
       <defs>
        <path d="M 678 2272 
L 4684 2272 
L 4684 1741 
L 678 1741 
L 678 2272 
z
" id="DejaVuSans-2212" transform="scale(0.015625)"/>
        <path d="M 794 531 
L 1825 531 
L 1825 4091 
L 703 3866 
L 703 4441 
L 1819 4666 
L 2450 4666 
L 2450 531 
L 3481 531 
L 3481 0 
L 794 0 
L 794 531 
z
" id="DejaVuSans-31" transform="scale(0.015625)"/>
        <path d="M 2034 4250 
Q 1547 4250 1301 3770 
Q 1056 3291 1056 2328 
Q 1056 1369 1301 889 
Q 1547 409 2034 409 
Q 2525 409 2770 889 
Q 3016 1369 3016 2328 
Q 3016 3291 2770 3770 
Q 2525 4250 2034 4250 
z
M 2034 4750 
Q 2819 4750 3233 4129 
Q 3647 3509 3647 2328 
Q 3647 1150 3233 529 
Q 2819 -91 2034 -91 
Q 1250 -91 836 529 
Q 422 1150 422 2328 
Q 422 3509 836 4129 
Q 1250 4750 2034 4750 
z
" id="DejaVuSans-30" transform="scale(0.015625)"/>
       </defs>
       <use xlink:href="#DejaVuSans-2212"/>
       <use x="83.789062" xlink:href="#DejaVuSans-31"/>
       <use x="147.412109" xlink:href="#DejaVuSans-30"/>
      </g>
     </g>
    </g>
    <g id="xtick_2">
     <g id="line2d_2">
      <g>
       <use style="stroke:#000000;stroke-width:0.8;" x="151.706947" xlink:href="#ma3dae6bdb1" y="273.312"/>
      </g>
     </g>
     <g id="text_2">
      <!-- −5 -->
      <g transform="translate(144.335853 287.910437)scale(0.1 -0.1)">
       <defs>
        <path d="M 691 4666 
L 3169 4666 
L 3169 4134 
L 1269 4134 
L 1269 2991 
Q 1406 3038 1543 3061 
Q 1681 3084 1819 3084 
Q 2600 3084 3056 2656 
Q 3513 2228 3513 1497 
Q 3513 744 3044 326 
Q 2575 -91 1722 -91 
Q 1428 -91 1123 -41 
Q 819 9 494 109 
L 494 744 
Q 775 591 1075 516 
Q 1375 441 1709 441 
Q 2250 441 2565 725 
Q 2881 1009 2881 1497 
Q 2881 1984 2565 2268 
Q 2250 2553 1709 2553 
Q 1456 2553 1204 2497 
Q 953 2441 691 2322 
L 691 4666 
z
" id="DejaVuSans-35" transform="scale(0.015625)"/>
       </defs>
       <use xlink:href="#DejaVuSans-2212"/>
       <use x="83.789062" xlink:href="#DejaVuSans-35"/>
      </g>
     </g>
    </g>
    <g id="xtick_3">
     <g id="line2d_3">
      <g>
       <use style="stroke:#000000;stroke-width:0.8;" x="225.525625" xlink:href="#ma3dae6bdb1" y="273.312"/>
      </g>
     </g>
     <g id="text_3">
      <!-- 0 -->
      <g transform="translate(222.344375 287.910437)scale(0.1 -0.1)">
       <use xlink:href="#DejaVuSans-30"/>
      </g>
     </g>
    </g>
    <g id="xtick_4">
     <g id="line2d_4">
      <g>
       <use style="stroke:#000000;stroke-width:0.8;" x="299.344303" xlink:href="#ma3dae6bdb1" y="273.312"/>
      </g>
     </g>
     <g id="text_4">
      <!-- 5 -->
      <g transform="translate(296.163053 287.910437)scale(0.1 -0.1)">
       <use xlink:href="#DejaVuSans-35"/>
      </g>
     </g>
    </g>
    <g id="xtick_5">
     <g id="line2d_5">
      <g>
       <use style="stroke:#000000;stroke-width:0.8;" x="373.162981" xlink:href="#ma3dae6bdb1" y="273.312"/>
      </g>
     </g>
     <g id="text_5">
      <!-- 10 -->
      <g transform="translate(366.800481 287.910437)scale(0.1 -0.1)">
       <use xlink:href="#DejaVuSans-31"/>
       <use x="63.623047" xlink:href="#DejaVuSans-30"/>
      </g>
     </g>
    </g>
    <g id="text_6">
     <!-- CV (Angstrom) -->
     <g transform="translate(188.9225 301.588562)scale(0.1 -0.1)">
      <defs>
       <path d="M 4122 4306 
L 4122 3641 
Q 3803 3938 3442 4084 
Q 3081 4231 2675 4231 
Q 1875 4231 1450 3742 
Q 1025 3253 1025 2328 
Q 1025 1406 1450 917 
Q 1875 428 2675 428 
Q 3081 428 3442 575 
Q 3803 722 4122 1019 
L 4122 359 
Q 3791 134 3420 21 
Q 3050 -91 2638 -91 
Q 1578 -91 968 557 
Q 359 1206 359 2328 
Q 359 3453 968 4101 
Q 1578 4750 2638 4750 
Q 3056 4750 3426 4639 
Q 3797 4528 4122 4306 
z
" id="DejaVuSans-43" transform="scale(0.015625)"/>
       <path d="M 1831 0 
L 50 4666 
L 709 4666 
L 2188 738 
L 3669 4666 
L 4325 4666 
L 2547 0 
L 1831 0 
z
" id="DejaVuSans-56" transform="scale(0.015625)"/>
       <path id="DejaVuSans-20" transform="scale(0.015625)"/>
       <path d="M 1984 4856 
Q 1566 4138 1362 3434 
Q 1159 2731 1159 2009 
Q 1159 1288 1364 580 
Q 1569 -128 1984 -844 
L 1484 -844 
Q 1016 -109 783 600 
Q 550 1309 550 2009 
Q 550 2706 781 3412 
Q 1013 4119 1484 4856 
L 1984 4856 
z
" id="DejaVuSans-28" transform="scale(0.015625)"/>
       <path d="M 2188 4044 
L 1331 1722 
L 3047 1722 
L 2188 4044 
z
M 1831 4666 
L 2547 4666 
L 4325 0 
L 3669 0 
L 3244 1197 
L 1141 1197 
L 716 0 
L 50 0 
L 1831 4666 
z
" id="DejaVuSans-41" transform="scale(0.015625)"/>
       <path d="M 3513 2113 
L 3513 0 
L 2938 0 
L 2938 2094 
Q 2938 2591 2744 2837 
Q 2550 3084 2163 3084 
Q 1697 3084 1428 2787 
Q 1159 2491 1159 1978 
L 1159 0 
L 581 0 
L 581 3500 
L 1159 3500 
L 1159 2956 
Q 1366 3272 1645 3428 
Q 1925 3584 2291 3584 
Q 2894 3584 3203 3211 
Q 3513 2838 3513 2113 
z
" id="DejaVuSans-6e" transform="scale(0.015625)"/>
       <path d="M 2906 1791 
Q 2906 2416 2648 2759 
Q 2391 3103 1925 3103 
Q 1463 3103 1205 2759 
Q 947 2416 947 1791 
Q 947 1169 1205 825 
Q 1463 481 1925 481 
Q 2391 481 2648 825 
Q 2906 1169 2906 1791 
z
M 3481 434 
Q 3481 -459 3084 -895 
Q 2688 -1331 1869 -1331 
Q 1566 -1331 1297 -1286 
Q 1028 -1241 775 -1147 
L 775 -588 
Q 1028 -725 1275 -790 
Q 1522 -856 1778 -856 
Q 2344 -856 2625 -561 
Q 2906 -266 2906 331 
L 2906 616 
Q 2728 306 2450 153 
Q 2172 0 1784 0 
Q 1141 0 747 490 
Q 353 981 353 1791 
Q 353 2603 747 3093 
Q 1141 3584 1784 3584 
Q 2172 3584 2450 3431 
Q 2728 3278 2906 2969 
L 2906 3500 
L 3481 3500 
L 3481 434 
z
" id="DejaVuSans-67" transform="scale(0.015625)"/>
       <path d="M 2834 3397 
L 2834 2853 
Q 2591 2978 2328 3040 
Q 2066 3103 1784 3103 
Q 1356 3103 1142 2972 
Q 928 2841 928 2578 
Q 928 2378 1081 2264 
Q 1234 2150 1697 2047 
L 1894 2003 
Q 2506 1872 2764 1633 
Q 3022 1394 3022 966 
Q 3022 478 2636 193 
Q 2250 -91 1575 -91 
Q 1294 -91 989 -36 
Q 684 19 347 128 
L 347 722 
Q 666 556 975 473 
Q 1284 391 1588 391 
Q 1994 391 2212 530 
Q 2431 669 2431 922 
Q 2431 1156 2273 1281 
Q 2116 1406 1581 1522 
L 1381 1569 
Q 847 1681 609 1914 
Q 372 2147 372 2553 
Q 372 3047 722 3315 
Q 1072 3584 1716 3584 
Q 2034 3584 2315 3537 
Q 2597 3491 2834 3397 
z
" id="DejaVuSans-73" transform="scale(0.015625)"/>
       <path d="M 1172 4494 
L 1172 3500 
L 2356 3500 
L 2356 3053 
L 1172 3053 
L 1172 1153 
Q 1172 725 1289 603 
Q 1406 481 1766 481 
L 2356 481 
L 2356 0 
L 1766 0 
Q 1100 0 847 248 
Q 594 497 594 1153 
L 594 3053 
L 172 3053 
L 172 3500 
L 594 3500 
L 594 4494 
L 1172 4494 
z
" id="DejaVuSans-74" transform="scale(0.015625)"/>
       <path d="M 2631 2963 
Q 2534 3019 2420 3045 
Q 2306 3072 2169 3072 
Q 1681 3072 1420 2755 
Q 1159 2438 1159 1844 
L 1159 0 
L 581 0 
L 581 3500 
L 1159 3500 
L 1159 2956 
Q 1341 3275 1631 3429 
Q 1922 3584 2338 3584 
Q 2397 3584 2469 3576 
Q 2541 3569 2628 3553 
L 2631 2963 
z
" id="DejaVuSans-72" transform="scale(0.015625)"/>
       <path d="M 1959 3097 
Q 1497 3097 1228 2736 
Q 959 2375 959 1747 
Q 959 1119 1226 758 
Q 1494 397 1959 397 
Q 2419 397 2687 759 
Q 2956 1122 2956 1747 
Q 2956 2369 2687 2733 
Q 2419 3097 1959 3097 
z
M 1959 3584 
Q 2709 3584 3137 3096 
Q 3566 2609 3566 1747 
Q 3566 888 3137 398 
Q 2709 -91 1959 -91 
Q 1206 -91 779 398 
Q 353 888 353 1747 
Q 353 2609 779 3096 
Q 1206 3584 1959 3584 
z
" id="DejaVuSans-6f" transform="scale(0.015625)"/>
       <path d="M 3328 2828 
Q 3544 3216 3844 3400 
Q 4144 3584 4550 3584 
Q 5097 3584 5394 3201 
Q 5691 2819 5691 2113 
L 5691 0 
L 5113 0 
L 5113 2094 
Q 5113 2597 4934 2840 
Q 4756 3084 4391 3084 
Q 3944 3084 3684 2787 
Q 3425 2491 3425 1978 
L 3425 0 
L 2847 0 
L 2847 2094 
Q 2847 2600 2669 2842 
Q 2491 3084 2119 3084 
Q 1678 3084 1418 2786 
Q 1159 2488 1159 1978 
L 1159 0 
L 581 0 
L 581 3500 
L 1159 3500 
L 1159 2956 
Q 1356 3278 1631 3431 
Q 1906 3584 2284 3584 
Q 2666 3584 2933 3390 
Q 3200 3197 3328 2828 
z
" id="DejaVuSans-6d" transform="scale(0.015625)"/>
       <path d="M 513 4856 
L 1013 4856 
Q 1481 4119 1714 3412 
Q 1947 2706 1947 2009 
Q 1947 1309 1714 600 
Q 1481 -109 1013 -844 
L 513 -844 
Q 928 -128 1133 580 
Q 1338 1288 1338 2009 
Q 1338 2731 1133 3434 
Q 928 4138 513 4856 
z
" id="DejaVuSans-29" transform="scale(0.015625)"/>
      </defs>
      <use xlink:href="#DejaVuSans-43"/>
      <use x="69.824219" xlink:href="#DejaVuSans-56"/>
      <use x="138.232422" xlink:href="#DejaVuSans-20"/>
      <use x="170.019531" xlink:href="#DejaVuSans-28"/>
      <use x="209.033203" xlink:href="#DejaVuSans-41"/>
      <use x="277.441406" xlink:href="#DejaVuSans-6e"/>
      <use x="340.820312" xlink:href="#DejaVuSans-67"/>
      <use x="404.296875" xlink:href="#DejaVuSans-73"/>
      <use x="456.396484" xlink:href="#DejaVuSans-74"/>
      <use x="495.605469" xlink:href="#DejaVuSans-72"/>
      <use x="534.46875" xlink:href="#DejaVuSans-6f"/>
      <use x="595.650391" xlink:href="#DejaVuSans-6d"/>
      <use x="693.0625" xlink:href="#DejaVuSans-29"/>
     </g>
    </g>
   </g>
   <g id="matplotlib.axis_2">
    <g id="ytick_1">
     <g id="line2d_6">
      <defs>
       <path d="M 0 0 
L -3.5 0 
" id="ma8ab8fe0e6" style="stroke:#000000;stroke-width:0.8;"/>
      </defs>
      <g>
       <use style="stroke:#000000;stroke-width:0.8;" x="46.965625" xlink:href="#ma8ab8fe0e6" y="261.216"/>
      </g>
     </g>
     <g id="text_7">
      <!-- 0 -->
      <g transform="translate(33.603125 265.015219)scale(0.1 -0.1)">
       <use xlink:href="#DejaVuSans-30"/>
      </g>
     </g>
    </g>
    <g id="ytick_2">
     <g id="line2d_7">
      <g>
       <use style="stroke:#000000;stroke-width:0.8;" x="46.965625" xlink:href="#ma8ab8fe0e6" y="218.423584"/>
      </g>
     </g>
     <g id="text_8">
      <!-- 20 -->
      <g transform="translate(27.240625 222.222803)scale(0.1 -0.1)">
       <defs>
        <path d="M 1228 531 
L 3431 531 
L 3431 0 
L 469 0 
L 469 531 
Q 828 903 1448 1529 
Q 2069 2156 2228 2338 
Q 2531 2678 2651 2914 
Q 2772 3150 2772 3378 
Q 2772 3750 2511 3984 
Q 2250 4219 1831 4219 
Q 1534 4219 1204 4116 
Q 875 4013 500 3803 
L 500 4441 
Q 881 4594 1212 4672 
Q 1544 4750 1819 4750 
Q 2544 4750 2975 4387 
Q 3406 4025 3406 3419 
Q 3406 3131 3298 2873 
Q 3191 2616 2906 2266 
Q 2828 2175 2409 1742 
Q 1991 1309 1228 531 
z
" id="DejaVuSans-32" transform="scale(0.015625)"/>
       </defs>
       <use xlink:href="#DejaVuSans-32"/>
       <use x="63.623047" xlink:href="#DejaVuSans-30"/>
      </g>
     </g>
    </g>
    <g id="ytick_3">
     <g id="line2d_8">
      <g>
       <use style="stroke:#000000;stroke-width:0.8;" x="46.965625" xlink:href="#ma8ab8fe0e6" y="175.631168"/>
      </g>
     </g>
     <g id="text_9">
      <!-- 40 -->
      <g transform="translate(27.240625 179.430387)scale(0.1 -0.1)">
       <defs>
        <path d="M 2419 4116 
L 825 1625 
L 2419 1625 
L 2419 4116 
z
M 2253 4666 
L 3047 4666 
L 3047 1625 
L 3713 1625 
L 3713 1100 
L 3047 1100 
L 3047 0 
L 2419 0 
L 2419 1100 
L 313 1100 
L 313 1709 
L 2253 4666 
z
" id="DejaVuSans-34" transform="scale(0.015625)"/>
       </defs>
       <use xlink:href="#DejaVuSans-34"/>
       <use x="63.623047" xlink:href="#DejaVuSans-30"/>
      </g>
     </g>
    </g>
    <g id="ytick_4">
     <g id="line2d_9">
      <g>
       <use style="stroke:#000000;stroke-width:0.8;" x="46.965625" xlink:href="#ma8ab8fe0e6" y="132.838752"/>
      </g>
     </g>
     <g id="text_10">
      <!-- 60 -->
      <g transform="translate(27.240625 136.637971)scale(0.1 -0.1)">
       <defs>
        <path d="M 2113 2584 
Q 1688 2584 1439 2293 
Q 1191 2003 1191 1497 
Q 1191 994 1439 701 
Q 1688 409 2113 409 
Q 2538 409 2786 701 
Q 3034 994 3034 1497 
Q 3034 2003 2786 2293 
Q 2538 2584 2113 2584 
z
M 3366 4563 
L 3366 3988 
Q 3128 4100 2886 4159 
Q 2644 4219 2406 4219 
Q 1781 4219 1451 3797 
Q 1122 3375 1075 2522 
Q 1259 2794 1537 2939 
Q 1816 3084 2150 3084 
Q 2853 3084 3261 2657 
Q 3669 2231 3669 1497 
Q 3669 778 3244 343 
Q 2819 -91 2113 -91 
Q 1303 -91 875 529 
Q 447 1150 447 2328 
Q 447 3434 972 4092 
Q 1497 4750 2381 4750 
Q 2619 4750 2861 4703 
Q 3103 4656 3366 4563 
z
" id="DejaVuSans-36" transform="scale(0.015625)"/>
       </defs>
       <use xlink:href="#DejaVuSans-36"/>
       <use x="63.623047" xlink:href="#DejaVuSans-30"/>
      </g>
     </g>
    </g>
    <g id="ytick_5">
     <g id="line2d_10">
      <g>
       <use style="stroke:#000000;stroke-width:0.8;" x="46.965625" xlink:href="#ma8ab8fe0e6" y="90.046336"/>
      </g>
     </g>
     <g id="text_11">
      <!-- 80 -->
      <g transform="translate(27.240625 93.845555)scale(0.1 -0.1)">
       <defs>
        <path d="M 2034 2216 
Q 1584 2216 1326 1975 
Q 1069 1734 1069 1313 
Q 1069 891 1326 650 
Q 1584 409 2034 409 
Q 2484 409 2743 651 
Q 3003 894 3003 1313 
Q 3003 1734 2745 1975 
Q 2488 2216 2034 2216 
z
M 1403 2484 
Q 997 2584 770 2862 
Q 544 3141 544 3541 
Q 544 4100 942 4425 
Q 1341 4750 2034 4750 
Q 2731 4750 3128 4425 
Q 3525 4100 3525 3541 
Q 3525 3141 3298 2862 
Q 3072 2584 2669 2484 
Q 3125 2378 3379 2068 
Q 3634 1759 3634 1313 
Q 3634 634 3220 271 
Q 2806 -91 2034 -91 
Q 1263 -91 848 271 
Q 434 634 434 1313 
Q 434 1759 690 2068 
Q 947 2378 1403 2484 
z
M 1172 3481 
Q 1172 3119 1398 2916 
Q 1625 2713 2034 2713 
Q 2441 2713 2670 2916 
Q 2900 3119 2900 3481 
Q 2900 3844 2670 4047 
Q 2441 4250 2034 4250 
Q 1625 4250 1398 4047 
Q 1172 3844 1172 3481 
z
" id="DejaVuSans-38" transform="scale(0.015625)"/>
       </defs>
       <use xlink:href="#DejaVuSans-38"/>
       <use x="63.623047" xlink:href="#DejaVuSans-30"/>
      </g>
     </g>
    </g>
    <g id="ytick_6">
     <g id="line2d_11">
      <g>
       <use style="stroke:#000000;stroke-width:0.8;" x="46.965625" xlink:href="#ma8ab8fe0e6" y="47.25392"/>
      </g>
     </g>
     <g id="text_12">
      <!-- 100 -->
      <g transform="translate(20.878125 51.053139)scale(0.1 -0.1)">
       <use xlink:href="#DejaVuSans-31"/>
       <use x="63.623047" xlink:href="#DejaVuSans-30"/>
       <use x="127.246094" xlink:href="#DejaVuSans-30"/>
      </g>
     </g>
    </g>
    <g id="text_13">
     <!-- F (kJ/mol) -->
     <g transform="translate(14.798438 163.995844)rotate(-90)scale(0.1 -0.1)">
      <defs>
       <path d="M 628 4666 
L 3309 4666 
L 3309 4134 
L 1259 4134 
L 1259 2759 
L 3109 2759 
L 3109 2228 
L 1259 2228 
L 1259 0 
L 628 0 
L 628 4666 
z
" id="DejaVuSans-46" transform="scale(0.015625)"/>
       <path d="M 581 4863 
L 1159 4863 
L 1159 1991 
L 2875 3500 
L 3609 3500 
L 1753 1863 
L 3688 0 
L 2938 0 
L 1159 1709 
L 1159 0 
L 581 0 
L 581 4863 
z
" id="DejaVuSans-6b" transform="scale(0.015625)"/>
       <path d="M 628 4666 
L 1259 4666 
L 1259 325 
Q 1259 -519 939 -900 
Q 619 -1281 -91 -1281 
L -331 -1281 
L -331 -750 
L -134 -750 
Q 284 -750 456 -515 
Q 628 -281 628 325 
L 628 4666 
z
" id="DejaVuSans-4a" transform="scale(0.015625)"/>
       <path d="M 1625 4666 
L 2156 4666 
L 531 -594 
L 0 -594 
L 1625 4666 
z
" id="DejaVuSans-2f" transform="scale(0.015625)"/>
       <path d="M 603 4863 
L 1178 4863 
L 1178 0 
L 603 0 
L 603 4863 
z
" id="DejaVuSans-6c" transform="scale(0.015625)"/>
      </defs>
      <use xlink:href="#DejaVuSans-46"/>
      <use x="57.519531" xlink:href="#DejaVuSans-20"/>
      <use x="89.306641" xlink:href="#DejaVuSans-28"/>
      <use x="128.320312" xlink:href="#DejaVuSans-6b"/>
      <use x="186.230469" xlink:href="#DejaVuSans-4a"/>
      <use x="215.722656" xlink:href="#DejaVuSans-2f"/>
      <use x="249.414062" xlink:href="#DejaVuSans-6d"/>
      <use x="346.826172" xlink:href="#DejaVuSans-6f"/>
      <use x="408.007812" xlink:href="#DejaVuSans-6c"/>
      <use x="435.791016" xlink:href="#DejaVuSans-29"/>
     </g>
    </g>
   </g>
   <g id="line2d_12">
    <path clip-path="url(#pc92d4f5e0e)" d="M 63.198352 242.110857 
L 63.34599 244.812409 
L 63.493627 244.346641 
L 63.641264 243.310091 
L 63.788902 245.366472 
L 63.936539 244.752281 
L 64.084176 245.157322 
L 64.231814 243.813974 
L 64.527088 246.391817 
L 64.674726 244.076803 
L 65.117638 245.408066 
L 65.265275 246.770254 
L 65.412913 246.16555 
L 65.56055 247.515002 
L 65.855825 246.882689 
L 66.003462 247.611596 
L 66.151099 246.954824 
L 66.298737 247.140761 
L 66.446374 248.344745 
L 66.594011 246.282703 
L 66.741649 248.662383 
L 66.889286 246.870277 
L 67.036924 246.920453 
L 67.332198 247.331093 
L 67.479836 247.948601 
L 67.627473 247.137918 
L 67.77511 248.063299 
L 67.922748 248.122582 
L 68.070385 249.978742 
L 68.218022 249.10516 
L 68.36566 250.731225 
L 68.513297 248.630526 
L 68.660934 250.035754 
L 68.808572 249.127324 
L 68.956209 249.192465 
L 69.103847 250.029662 
L 69.251484 247.50445 
L 69.399121 249.734551 
L 69.546759 248.554073 
L 69.694396 250.495837 
L 69.842033 249.220939 
L 69.989671 250.427013 
L 70.137308 250.389435 
L 70.284945 249.290415 
L 70.432583 251.298318 
L 70.58022 251.628038 
L 70.727857 248.937561 
L 70.875495 251.926002 
L 71.023132 250.454028 
L 71.170769 251.145318 
L 71.318407 249.331885 
L 71.466044 252.005741 
L 71.613682 249.311056 
L 71.761319 251.486141 
L 71.908956 249.429009 
L 72.499506 252.233003 
L 72.647143 250.508343 
L 72.79478 251.25764 
L 72.942418 251.086269 
L 73.090055 250.535847 
L 73.237692 251.925779 
L 73.38533 251.117525 
L 73.532967 249.057558 
L 73.828242 252.008685 
L 73.975879 251.05809 
L 74.123517 251.563862 
L 74.271154 251.259606 
L 74.566429 252.209615 
L 74.714066 251.935202 
L 75.009341 252.110482 
L 75.156978 251.107342 
L 75.304615 253.13103 
L 75.59989 250.804256 
L 75.747528 252.951013 
L 76.19044 250.631568 
L 76.338077 252.574076 
L 76.485714 251.841688 
L 76.633352 251.864351 
L 76.780989 250.272854 
L 76.928626 250.598782 
L 77.076264 252.477699 
L 77.371538 250.19203 
L 77.519176 250.674026 
L 77.666813 252.113878 
L 77.81445 251.134227 
L 78.109725 250.883482 
L 78.257363 253.013242 
L 78.405 250.300481 
L 78.552637 250.472682 
L 78.700275 251.738295 
L 78.995549 250.184333 
L 79.143187 250.518549 
L 79.290824 251.656457 
L 79.438461 251.270634 
L 79.586099 249.879643 
L 79.733736 252.506862 
L 79.881373 251.297041 
L 80.029011 251.024073 
L 80.176648 249.912428 
L 80.471923 252.652899 
L 80.61956 251.85462 
L 80.767198 251.983692 
L 80.914835 251.741549 
L 81.062472 250.619716 
L 81.21011 251.357669 
L 81.357747 249.594789 
L 81.505384 250.636405 
L 81.653022 249.411427 
L 81.948296 250.806856 
L 82.095934 250.333788 
L 82.243571 251.113825 
L 82.391209 249.236107 
L 82.538846 250.978225 
L 82.686483 250.678659 
L 82.834121 250.016315 
L 82.981758 251.141422 
L 83.129395 249.847298 
L 83.277033 251.007604 
L 83.42467 250.549864 
L 83.572307 249.679954 
L 83.719945 250.230491 
L 84.015219 251.606715 
L 84.162857 251.053019 
L 84.458132 247.93473 
L 84.605769 251.22807 
L 84.753406 251.092536 
L 84.901044 250.305763 
L 85.048681 251.404225 
L 85.343956 248.750178 
L 85.491593 250.849957 
L 85.63923 250.371364 
L 85.786868 251.034118 
L 85.934505 250.735814 
L 86.082142 249.875332 
L 86.22978 249.698304 
L 86.377417 250.278342 
L 86.672692 250.315811 
L 86.820329 251.158227 
L 86.967967 247.918218 
L 87.115604 250.551925 
L 87.263241 249.207671 
L 87.410879 250.052631 
L 87.706153 249.494149 
L 87.853791 249.727518 
L 88.001428 251.488894 
L 88.149065 249.777303 
L 88.296703 249.803006 
L 88.44434 251.260941 
L 88.591977 250.251479 
L 88.739615 250.084616 
L 88.887252 251.793895 
L 89.03489 250.877806 
L 89.182527 251.24011 
L 89.330164 249.342489 
L 89.477802 248.886497 
L 89.625439 251.793039 
L 89.773076 251.359037 
L 89.920714 250.117438 
L 90.068351 251.256797 
L 90.363626 250.413679 
L 90.6589 250.478929 
L 90.806538 251.742457 
L 90.954175 251.930812 
L 91.101813 249.23863 
L 91.24945 250.203628 
L 91.397087 252.034271 
L 91.544725 251.065988 
L 91.692362 251.101769 
L 91.839999 252.29196 
L 91.987637 250.382556 
L 92.135274 250.419687 
L 92.282911 250.239418 
L 92.578186 253.302653 
L 92.725823 250.782216 
L 93.168736 254.497809 
L 93.316373 252.679867 
L 93.46401 252.416245 
L 93.611648 251.790166 
L 93.759285 252.951813 
L 93.906922 252.38406 
L 94.05456 252.263138 
L 94.349834 249.280393 
L 94.645109 253.215517 
L 94.792746 254.760071 
L 95.088021 249.795821 
L 95.383296 254.122397 
L 95.530933 253.909005 
L 95.678571 251.657184 
L 95.826208 254.003704 
L 95.973845 252.691006 
L 96.121483 254.485123 
L 96.26912 252.786739 
L 96.416757 254.455502 
L 96.712032 251.782947 
L 96.859669 254.065706 
L 97.007307 253.825249 
L 97.154944 252.900244 
L 97.302581 254.869497 
L 97.597856 253.043671 
L 97.745494 253.913847 
L 97.893131 253.961117 
L 98.188406 255.276229 
L 98.336043 254.101389 
L 98.48368 255.606094 
L 98.631318 255.65191 
L 98.778955 253.760553 
L 99.07423 255.427138 
L 99.221867 255.217169 
L 99.369504 253.412882 
L 99.517142 255.801052 
L 99.664779 254.18858 
L 99.812417 254.230878 
L 99.960054 254.586678 
L 100.107691 255.472338 
L 100.255329 255.246099 
L 100.402966 254.060958 
L 100.550603 257.062431 
L 100.698241 257.389857 
L 100.845878 255.402785 
L 100.993515 257.275065 
L 101.141153 255.338671 
L 101.28879 255.086357 
L 101.584065 256.909913 
L 101.731702 256.613761 
L 101.879339 254.251055 
L 102.026977 257.009835 
L 102.174614 254.983315 
L 102.322252 255.16894 
L 102.617526 257.542536 
L 102.912801 255.434396 
L 103.355713 257.86922 
L 103.50335 257.288069 
L 103.650988 255.703776 
L 103.798625 257.002209 
L 103.946262 254.801843 
L 104.241537 257.702244 
L 104.684449 255.22289 
L 104.832087 256.772436 
L 105.274999 257.801512 
L 105.422636 256.44109 
L 105.570273 256.703803 
L 105.717911 257.408284 
L 105.865548 257.30445 
L 106.013185 258.036025 
L 106.160823 256.205216 
L 106.30846 257.639637 
L 106.456098 257.20527 
L 106.751372 254.983834 
L 106.89901 257.425307 
L 107.046647 256.847776 
L 107.194284 258.034407 
L 107.489559 256.322848 
L 107.637196 258.110873 
L 107.932471 255.734037 
L 108.080108 258.175455 
L 108.375383 256.645783 
L 108.523021 258.135654 
L 108.670658 256.361825 
L 108.965933 258.179076 
L 109.11357 257.038215 
L 109.408845 256.646153 
L 109.556482 258.190251 
L 109.851757 256.456202 
L 109.999394 256.554646 
L 110.294669 257.59651 
L 110.442306 256.476727 
L 110.589943 256.449117 
L 110.885218 256.268901 
L 111.032856 256.826114 
L 111.32813 254.60041 
L 111.475768 256.732504 
L 111.623405 256.700048 
L 111.91868 255.660383 
L 112.066317 255.886662 
L 112.213954 255.317915 
L 112.361592 256.529625 
L 112.656866 256.345804 
L 112.804504 255.175044 
L 112.952141 256.602993 
L 113.099779 254.662389 
L 113.247416 254.310984 
L 113.542691 254.699704 
L 113.690328 253.126124 
L 113.837965 256.376182 
L 114.13324 254.545306 
L 114.280877 254.506158 
L 114.428515 254.613042 
L 114.576152 252.690535 
L 114.723789 254.237259 
L 114.871427 253.883385 
L 115.166702 255.090332 
L 115.314339 254.373613 
L 115.461976 254.475572 
L 115.609614 253.996201 
L 115.757251 253.132938 
L 115.904888 253.760275 
L 116.052526 252.287842 
L 116.200163 252.037735 
L 116.3478 252.969936 
L 116.495438 251.738158 
L 116.643075 252.519952 
L 116.790712 252.666326 
L 116.93835 252.625427 
L 117.085987 253.588173 
L 117.233625 253.392631 
L 117.381262 250.51992 
L 117.528899 250.73961 
L 117.676537 253.864152 
L 117.824174 252.906513 
L 117.971811 251.103692 
L 118.119449 251.717834 
L 118.267086 251.02352 
L 118.414723 253.374823 
L 118.709998 252.142024 
L 118.857635 252.458951 
L 119.005273 252.420261 
L 119.15291 249.769217 
L 119.300547 253.704251 
L 119.448185 250.227742 
L 119.595822 253.067122 
L 119.74346 250.866395 
L 119.891097 252.843653 
L 120.038734 252.653081 
L 120.186372 253.485052 
L 120.334009 250.723929 
L 120.629284 252.021645 
L 120.776921 252.322033 
L 121.072196 251.923486 
L 121.219833 252.061339 
L 121.36747 251.504961 
L 121.515108 248.624163 
L 121.810383 251.771329 
L 122.105657 253.074841 
L 122.400932 251.484917 
L 122.548569 251.458445 
L 122.696207 252.551772 
L 122.843844 250.216184 
L 122.991481 253.546114 
L 123.139119 251.532742 
L 123.286756 252.453057 
L 123.434393 250.942082 
L 123.582031 254.222799 
L 123.877306 251.242361 
L 124.024943 251.220511 
L 124.17258 253.120338 
L 124.320218 249.75985 
L 124.467855 252.130126 
L 124.615492 252.67194 
L 124.76313 252.378003 
L 125.058404 250.514567 
L 125.206042 249.866589 
L 125.353679 252.573701 
L 125.501316 251.842154 
L 125.648954 252.26238 
L 125.796591 250.982331 
L 125.944228 250.964082 
L 126.091866 252.065304 
L 126.239503 251.436855 
L 126.387141 252.831851 
L 126.534778 252.937086 
L 126.682415 250.313507 
L 126.830053 251.526717 
L 127.125327 250.644206 
L 127.420602 252.0539 
L 127.568239 252.176406 
L 127.715877 250.935253 
L 127.863514 252.279865 
L 128.011151 249.538087 
L 128.601701 253.604423 
L 128.749338 251.322314 
L 128.896976 251.148656 
L 129.19225 252.77584 
L 129.487525 250.928983 
L 129.635162 251.079797 
L 129.7828 251.066548 
L 129.930437 251.806382 
L 130.225712 250.694027 
L 130.520987 252.657705 
L 130.668624 251.600551 
L 130.816261 252.136014 
L 130.963899 250.275635 
L 131.111536 251.26699 
L 131.259173 250.063862 
L 131.406811 252.583815 
L 131.554448 250.752127 
L 131.702085 251.514767 
L 131.849723 251.051288 
L 131.99736 252.535013 
L 132.144997 250.177867 
L 132.292635 252.267783 
L 132.440272 250.334079 
L 132.58791 250.321609 
L 132.735547 250.484051 
L 133.030822 252.327651 
L 133.178459 249.708477 
L 133.326096 250.432793 
L 133.473734 252.75307 
L 133.621371 250.231459 
L 133.769008 250.886084 
L 133.916646 251.027295 
L 134.064283 249.00007 
L 134.21192 249.61491 
L 134.359558 252.084629 
L 134.507195 251.684627 
L 134.654832 252.861365 
L 134.80247 249.55852 
L 134.950107 249.342673 
L 135.097745 251.627176 
L 135.393019 251.1816 
L 135.540657 250.222389 
L 135.835931 252.061138 
L 135.983569 251.923124 
L 136.131206 250.330803 
L 136.574118 249.175517 
L 136.869393 251.574255 
L 137.01703 250.863892 
L 137.164668 250.993686 
L 137.312305 250.032823 
L 137.459942 250.185495 
L 137.60758 252.442534 
L 137.755217 252.638904 
L 137.902854 249.227335 
L 138.050492 251.439215 
L 138.345766 252.56826 
L 138.641041 250.367592 
L 138.788678 250.942446 
L 138.936316 250.006268 
L 139.083953 250.904117 
L 139.231591 249.060624 
L 139.379228 250.576068 
L 139.526865 250.844415 
L 139.674503 250.681564 
L 139.82214 251.076795 
L 139.969777 249.695278 
L 140.117415 251.165897 
L 140.265052 251.520937 
L 140.412689 250.716339 
L 140.560327 251.828245 
L 140.707964 251.573302 
L 140.855601 251.667394 
L 141.003239 252.194537 
L 141.150876 251.502665 
L 141.298514 251.710525 
L 141.446151 251.571199 
L 141.593788 250.526677 
L 141.741426 251.635912 
L 141.889063 250.475977 
L 142.0367 250.723914 
L 142.184338 249.506897 
L 142.331975 251.299996 
L 142.62725 249.905094 
L 142.774887 250.02821 
L 142.922524 249.027682 
L 143.070162 252.037168 
L 143.217799 251.590392 
L 143.365436 249.916797 
L 143.513074 250.959334 
L 143.660711 249.554671 
L 143.808349 249.680528 
L 143.955986 251.224814 
L 144.103623 250.595299 
L 144.251261 251.166186 
L 144.546535 249.055318 
L 144.694173 247.917294 
L 144.84181 248.088714 
L 144.989447 249.740163 
L 145.137085 248.028368 
L 145.432359 251.148367 
L 145.727634 249.869172 
L 145.875272 249.973735 
L 146.022909 251.642731 
L 146.170546 249.045242 
L 146.465821 250.934643 
L 146.613458 249.108485 
L 146.761096 249.655684 
L 146.908733 249.198293 
L 147.05637 247.431474 
L 147.204008 249.138352 
L 147.351645 249.397231 
L 147.499282 248.106203 
L 147.794557 250.212123 
L 148.089832 249.391737 
L 148.237469 247.963779 
L 148.385107 249.732221 
L 148.532744 247.909681 
L 148.680381 247.883392 
L 148.828019 249.901662 
L 148.975656 249.094102 
L 149.123293 248.927257 
L 149.270931 248.292799 
L 149.418568 248.428961 
L 149.713843 247.154562 
L 149.86148 248.204645 
L 150.009117 247.113614 
L 150.156755 247.47577 
L 150.304392 247.270146 
L 150.599667 249.0046 
L 150.747304 248.25677 
L 150.894942 248.242131 
L 151.190216 246.784059 
L 151.337854 248.204067 
L 151.633128 245.077987 
L 151.928403 248.899521 
L 152.223678 245.322993 
L 152.371315 246.509207 
L 152.66659 245.311876 
L 152.814227 247.293126 
L 152.961865 246.282339 
L 153.109502 246.911062 
L 153.257139 244.748162 
L 153.700051 246.719149 
L 153.995326 245.589217 
L 154.142963 246.73522 
L 154.290601 246.742178 
L 154.438238 246.09558 
L 154.585876 246.104055 
L 154.733513 245.876023 
L 154.88115 244.814976 
L 155.028788 246.578798 
L 155.176425 245.125444 
L 155.324062 246.811384 
L 155.4717 243.124725 
L 155.619337 246.410096 
L 155.766974 247.052603 
L 156.062249 244.918348 
L 156.209886 247.098061 
L 156.357524 247.114446 
L 156.505161 247.693746 
L 156.652799 246.056076 
L 156.800436 248.552269 
L 157.095711 245.603925 
L 157.243348 247.419738 
L 157.390985 247.440447 
L 157.538623 247.649073 
L 157.833897 246.456588 
L 157.981535 246.924889 
L 158.129172 245.757948 
L 158.276809 247.384224 
L 158.424447 247.603634 
L 158.572084 248.172846 
L 158.719721 247.051509 
L 158.867359 247.489644 
L 159.014996 247.316328 
L 159.162634 246.205302 
L 159.310271 248.482806 
L 159.457908 248.513029 
L 159.605546 249.318784 
L 159.753183 247.467428 
L 159.90082 248.931463 
L 160.196095 247.357152 
L 160.49137 248.908246 
L 160.639007 247.872946 
L 160.786644 249.590803 
L 160.934282 248.50843 
L 161.081919 249.213893 
L 161.229557 248.021639 
L 161.377194 250.666518 
L 161.672469 249.369136 
L 161.820106 249.860418 
L 161.967743 249.900842 
L 162.115381 248.997383 
L 162.410655 251.186266 
L 162.558293 250.613907 
L 162.70593 251.15273 
L 162.853567 249.853694 
L 163.001205 251.469405 
L 163.148842 250.377498 
L 163.29648 251.776949 
L 163.444117 251.365147 
L 163.591754 251.287918 
L 163.739392 249.795271 
L 163.887029 251.493197 
L 164.034666 251.038945 
L 164.329941 251.737816 
L 164.477578 251.662636 
L 164.625216 251.936621 
L 164.772853 249.019958 
L 165.068128 252.49666 
L 165.363403 251.5416 
L 165.51104 252.404295 
L 165.658677 250.493444 
L 165.806315 250.209042 
L 166.249227 253.016365 
L 166.396864 250.989312 
L 166.692139 251.884534 
L 166.839776 250.79214 
L 166.987413 252.080166 
L 167.135051 251.728224 
L 167.430325 252.422745 
L 167.577963 251.825975 
L 167.7256 251.721888 
L 167.873238 252.515814 
L 168.168512 251.382684 
L 168.31615 251.259824 
L 168.611424 252.533104 
L 168.759062 253.02186 
L 168.906699 251.65599 
L 169.054336 251.678043 
L 169.201974 250.017272 
L 169.349611 252.643057 
L 169.497248 253.013158 
L 169.644886 252.300885 
L 169.792523 252.812774 
L 169.940161 252.826209 
L 170.087798 252.34109 
L 170.235435 252.727831 
L 170.383073 253.627296 
L 170.53071 252.232907 
L 170.678347 252.236527 
L 170.825985 250.521523 
L 170.973622 251.523901 
L 171.121259 251.041716 
L 171.268897 252.48621 
L 171.416534 252.47634 
L 171.564171 250.299237 
L 171.711809 253.159149 
L 171.859446 253.462239 
L 172.007084 252.527115 
L 172.154721 253.51252 
L 172.302358 251.662726 
L 172.449996 253.641961 
L 172.597633 252.742408 
L 172.74527 253.646559 
L 172.892908 252.400046 
L 173.188182 251.892031 
L 173.33582 252.544549 
L 173.483457 254.882909 
L 173.778732 252.266861 
L 173.926369 252.486839 
L 174.221644 253.956119 
L 174.369281 252.796216 
L 174.664556 254.979604 
L 174.812193 253.702251 
L 175.107468 253.995749 
L 175.255105 252.963352 
L 175.402743 253.627135 
L 175.845655 253.366035 
L 175.993292 253.941236 
L 176.140929 253.801747 
L 176.288567 253.360239 
L 176.436204 253.383811 
L 176.583842 252.779999 
L 176.731479 252.731633 
L 176.879116 253.542721 
L 177.026754 253.038859 
L 177.174391 253.986743 
L 177.322028 253.014731 
L 177.469666 253.436382 
L 177.617303 253.353103 
L 177.76494 252.591822 
L 177.912578 253.019949 
L 178.207852 252.300136 
L 178.35549 252.309366 
L 178.503127 252.992641 
L 178.650765 251.771981 
L 178.798402 251.874497 
L 178.946039 251.415948 
L 179.093677 251.957899 
L 179.388951 251.040832 
L 179.536589 251.816415 
L 179.831863 250.31304 
L 180.127138 250.461305 
L 180.274775 249.992377 
L 180.422413 250.225975 
L 180.717688 249.676659 
L 181.1606 249.19647 
L 181.455874 249.24918 
L 181.603512 249.034052 
L 181.751149 249.297191 
L 181.898786 249.179097 
L 182.489336 247.782697 
L 182.636973 248.572465 
L 182.932248 247.796833 
L 183.079885 247.453212 
L 183.227523 247.653464 
L 183.522797 247.276809 
L 183.670435 247.1309 
L 184.113347 246.007128 
L 184.260984 246.221142 
L 184.556259 244.592894 
L 184.703896 244.200984 
L 184.851533 244.159585 
L 184.999171 243.739633 
L 185.146808 243.837897 
L 185.294446 242.612393 
L 185.58972 242.109034 
L 186.032632 240.100219 
L 186.18027 240.143363 
L 186.623182 238.803637 
L 187.213731 236.619809 
L 187.361369 236.056456 
L 187.509006 236.285543 
L 187.804281 235.146749 
L 187.951918 234.992722 
L 188.099555 233.964645 
L 188.247193 234.091922 
L 188.39483 233.75508 
L 188.542467 232.824758 
L 188.690105 232.688068 
L 188.985379 231.867431 
L 189.133017 231.689458 
L 189.280654 230.258032 
L 189.575929 229.817895 
L 189.723566 228.881148 
L 189.871204 228.982816 
L 191.052302 223.430363 
L 191.19994 223.598969 
L 191.347577 222.382912 
L 191.495214 222.360679 
L 191.938127 219.432734 
L 192.085764 219.568116 
L 192.676313 216.282222 
L 192.971588 215.115101 
L 193.266863 213.190007 
L 193.4145 212.63959 
L 193.562137 211.607007 
L 193.709775 211.703735 
L 193.857412 210.169524 
L 194.00505 210.1303 
L 194.152687 209.654581 
L 194.447962 207.932253 
L 195.186148 205.001291 
L 195.333786 204.507982 
L 195.481423 202.809096 
L 195.62906 202.687377 
L 195.924335 201.355029 
L 196.071973 200.813388 
L 196.21961 199.567485 
L 196.367247 199.948153 
L 196.514885 198.464388 
L 196.662522 198.911539 
L 197.253071 195.242134 
L 197.548346 194.269657 
L 197.695983 193.181211 
L 197.843621 193.376642 
L 198.43417 189.316842 
L 198.729445 188.443609 
L 199.319994 185.721902 
L 200.058181 180.829616 
L 200.205818 181.339531 
L 200.648731 177.819414 
L 200.796368 177.923887 
L 201.091643 176.73787 
L 201.386917 174.99974 
L 201.534555 174.777855 
L 201.682192 173.842248 
L 201.829829 173.654755 
L 202.420379 170.573783 
L 202.568016 170.620285 
L 203.010928 168.013044 
L 203.158566 167.753467 
L 203.45384 166.141693 
L 204.192027 163.187059 
L 204.339664 163.158655 
L 204.487302 161.186575 
L 204.634939 161.039333 
L 204.782577 160.657222 
L 205.225489 157.895318 
L 205.373126 158.033146 
L 205.668401 155.377203 
L 205.963675 154.72923 
L 206.25895 153.595222 
L 206.997137 149.470974 
L 207.144774 147.878376 
L 207.292412 147.580166 
L 207.882961 144.793697 
L 208.030598 144.81222 
L 208.47351 141.884162 
L 210.392796 133.221269 
L 210.540433 132.164228 
L 210.688071 132.578833 
L 210.983345 129.998142 
L 211.130983 130.131207 
L 211.86917 125.170283 
L 212.016807 125.246415 
L 212.312082 123.133785 
L 212.459719 122.126858 
L 212.607356 122.210248 
L 212.902631 120.795139 
L 213.050268 118.881229 
L 213.197906 118.922842 
L 213.640818 115.813911 
L 213.936093 115.216465 
L 214.08373 113.76957 
L 214.231367 113.737245 
L 214.674279 110.744131 
L 214.821917 110.31583 
L 214.969554 108.709345 
L 215.117191 108.564882 
L 215.707741 105.993968 
L 215.855378 104.392363 
L 216.003016 104.440316 
L 217.184114 97.788329 
L 217.774664 95.257267 
L 217.922301 95.486102 
L 218.217576 93.517252 
L 218.660488 90.731025 
L 218.808125 90.115923 
L 218.955763 88.889666 
L 219.1034 88.768646 
L 219.546312 86.025993 
L 219.693949 85.526449 
L 220.284499 81.192769 
L 220.432136 81.855339 
L 221.31796 76.324753 
L 221.760872 73.799344 
L 222.203784 71.497298 
L 222.351422 71.120765 
L 222.646697 69.332395 
L 222.794334 68.894355 
L 223.384883 65.509295 
L 224.565982 60.048959 
L 224.861257 58.798212 
L 225.156532 57.188325 
L 225.304169 56.115215 
L 225.451806 56.577132 
L 225.747081 55.164453 
L 226.042356 52.933124 
L 226.189993 52.450892 
L 226.33763 50.89831 
L 226.485268 51.770401 
L 226.92818 48.573683 
L 227.223455 47.149823 
L 227.371092 46.36267 
L 227.518729 44.953609 
L 227.666367 44.694292 
L 227.961641 43.136344 
L 228.256916 41.957851 
L 228.699828 38.41069 
L 228.847466 38.08162 
L 229.438015 34.824779 
L 229.585652 34.433526 
L 230.471476 29.073138 
L 230.619114 29.282449 
L 230.766751 29.0267 
L 231.062026 26.332864 
L 231.209663 26.383355 
L 231.504938 25.259376 
L 231.652575 24.134778 
L 231.800213 24.647035 
L 231.94785 22.912379 
L 232.095487 23.474183 
L 232.243125 22.031148 
L 232.390762 22.696424 
L 232.538399 21.314978 
L 232.686037 21.54074 
L 232.833674 21.112264 
L 233.128949 21.592307 
L 233.424224 19.296 
L 233.719498 20.05453 
L 233.867136 20.497021 
L 234.014773 20.516463 
L 234.16241 21.854064 
L 234.310048 19.939857 
L 234.457685 22.389648 
L 234.605322 21.773674 
L 234.900597 22.711699 
L 235.048234 23.930804 
L 235.195872 23.277954 
L 235.786421 27.455401 
L 235.934059 27.50117 
L 236.229333 30.339056 
L 236.376971 30.204296 
L 236.524608 29.568527 
L 236.819883 32.946963 
L 236.96752 32.431053 
L 237.115157 32.573137 
L 237.410432 34.409577 
L 237.705707 32.707582 
L 237.853344 33.850533 
L 238.148619 32.138391 
L 238.296256 32.67571 
L 238.443894 30.143574 
L 238.591531 31.049386 
L 238.886806 29.585344 
L 239.034443 29.44821 
L 239.18208 28.688161 
L 239.329718 29.609518 
L 239.477355 28.880885 
L 239.624992 30.417544 
L 239.77263 29.140346 
L 240.067905 30.695452 
L 240.215542 29.988958 
L 240.363179 31.202861 
L 240.510817 30.331597 
L 240.806091 32.403638 
L 240.953729 32.792878 
L 241.101366 32.85164 
L 241.396641 33.675732 
L 241.544278 34.014914 
L 241.98719 37.469203 
L 242.134828 37.59059 
L 242.282465 37.970443 
L 242.430102 40.124843 
L 242.57774 40.18542 
L 243.463564 45.935612 
L 243.611201 45.299355 
L 243.758838 46.149009 
L 244.054113 48.458865 
L 244.201751 47.899174 
L 244.497025 51.505905 
L 244.644663 50.609954 
L 244.939937 53.099 
L 245.087575 53.583423 
L 245.530487 56.084041 
L 245.678124 56.207762 
L 246.121036 59.614732 
L 246.268673 59.094708 
L 246.711586 62.066844 
L 247.00686 63.726377 
L 247.154498 63.459586 
L 247.59741 66.031489 
L 247.745047 65.928353 
L 248.040322 68.122795 
L 248.187959 68.077289 
L 248.483234 69.438371 
L 248.630871 69.521191 
L 248.778509 71.112363 
L 248.926146 71.133789 
L 249.221421 72.025204 
L 249.369058 73.783802 
L 249.516695 73.79579 
L 249.959607 76.90152 
L 250.107245 77.005082 
L 250.402519 78.486675 
L 250.550157 78.71178 
L 250.845432 81.134492 
L 251.583618 86.626368 
L 251.731256 86.607944 
L 252.02653 89.906456 
L 252.174168 90.000465 
L 252.321805 90.614615 
L 252.764717 94.362328 
L 252.912355 94.764974 
L 253.207629 96.714462 
L 253.355267 98.962799 
L 253.502904 98.74732 
L 253.945816 102.672042 
L 254.093453 103.730488 
L 254.241091 103.825753 
L 254.83164 110.005476 
L 255.42219 113.794467 
L 255.717464 116.329111 
L 256.012739 118.898196 
L 256.160376 120.857667 
L 256.455651 122.070682 
L 262.508783 172.405317 
L 262.65642 172.796716 
L 263.542244 179.95274 
L 263.689881 180.06498 
L 264.723343 187.19594 
L 265.313892 191.762631 
L 265.46153 191.748955 
L 265.609167 193.57795 
L 265.756804 193.838723 
L 266.052079 195.958772 
L 266.642629 199.883607 
L 266.790266 200.456777 
L 267.085541 202.695824 
L 267.233178 203.125858 
L 267.67609 205.967285 
L 267.823727 206.253932 
L 268.414277 210.254244 
L 268.561914 210.503277 
L 269.447738 215.507583 
L 269.595376 216.066107 
L 269.743013 216.113313 
L 270.038288 217.7265 
L 270.4812 219.610186 
L 270.628837 219.814984 
L 270.924112 221.178624 
L 271.071749 222.488429 
L 271.219387 221.994643 
L 271.367024 222.962364 
L 271.514661 222.792531 
L 271.809936 224.846285 
L 271.957573 224.926343 
L 272.252848 226.221306 
L 274.172134 233.080874 
L 274.319771 232.901215 
L 274.615046 234.820883 
L 274.762683 234.763019 
L 274.910321 235.133164 
L 275.057958 235.997047 
L 275.205595 235.587213 
L 275.50087 237.155838 
L 275.648507 237.732025 
L 275.796145 237.401344 
L 276.239057 238.817125 
L 276.386694 239.353746 
L 276.534331 239.429974 
L 276.681969 239.846069 
L 276.829606 239.767179 
L 277.124881 241.662474 
L 277.272518 241.6949 
L 277.420156 242.492069 
L 277.567793 241.882108 
L 277.71543 242.981251 
L 277.863068 243.029352 
L 278.010705 243.250237 
L 278.30598 243.325751 
L 278.453617 243.667575 
L 278.601254 244.304805 
L 278.748892 243.804607 
L 278.896529 244.832416 
L 279.044166 244.793563 
L 279.339441 246.057082 
L 279.487079 246.426132 
L 279.634716 245.071819 
L 279.929991 246.304835 
L 280.077628 246.886181 
L 280.225265 246.750236 
L 280.372903 247.124766 
L 280.52054 246.555316 
L 280.668177 246.764935 
L 280.815815 246.716166 
L 281.111089 248.10901 
L 281.258727 247.419571 
L 281.554002 248.4774 
L 281.701639 247.096861 
L 281.849276 248.100475 
L 281.996914 248.228741 
L 282.292188 249.41935 
L 282.7351 249.23903 
L 283.030375 250.132525 
L 283.178012 249.691589 
L 283.32565 250.138317 
L 283.473287 250.033454 
L 283.620925 248.694201 
L 283.768562 250.452458 
L 283.916199 250.701304 
L 284.211474 250.631623 
L 284.359111 250.376287 
L 284.506749 249.732931 
L 284.654386 249.874536 
L 284.802023 251.487632 
L 284.949661 249.901001 
L 285.097298 251.569669 
L 285.244935 250.765367 
L 285.392573 251.223853 
L 285.54021 252.749925 
L 285.687847 251.981882 
L 285.835485 251.803787 
L 285.983122 250.654404 
L 286.278397 252.45397 
L 286.573672 251.606751 
L 286.721309 253.070162 
L 287.016584 251.164549 
L 287.164221 252.486366 
L 287.311858 252.36588 
L 287.459496 253.207104 
L 287.75477 252.061594 
L 287.902408 252.282737 
L 288.197683 252.944145 
L 288.492957 253.455437 
L 288.640595 250.817706 
L 288.788232 252.024189 
L 288.935869 249.335604 
L 289.083507 254.310524 
L 289.231144 252.6945 
L 289.378781 252.360816 
L 289.526419 253.831204 
L 289.674056 253.684254 
L 289.821693 252.882378 
L 289.969331 253.956307 
L 290.116968 253.037665 
L 290.264606 251.151354 
L 290.412243 252.297628 
L 290.55988 251.863401 
L 290.855155 253.545143 
L 291.002792 254.363077 
L 291.15043 253.414729 
L 291.593342 254.981406 
L 291.740979 253.831908 
L 291.888616 254.166944 
L 292.036254 252.911851 
L 292.183891 254.034718 
L 292.331529 253.96269 
L 292.479166 254.028832 
L 292.626803 253.007948 
L 292.774441 254.433595 
L 292.922078 252.400867 
L 293.217353 255.818169 
L 293.36499 253.500234 
L 293.512627 253.56379 
L 293.660265 254.682828 
L 293.807902 254.168265 
L 293.955539 254.076244 
L 294.103177 254.443706 
L 294.250814 253.70781 
L 294.398451 254.85629 
L 294.546089 254.324313 
L 294.693726 255.384823 
L 294.841364 254.287482 
L 294.989001 254.662374 
L 295.136638 254.408955 
L 295.284276 252.305361 
L 295.431913 254.843418 
L 295.57955 254.424985 
L 295.727188 256.421339 
L 295.874825 255.599594 
L 296.022462 253.285326 
L 296.1701 255.436339 
L 296.317737 254.375491 
L 296.613012 255.891654 
L 296.760649 253.986643 
L 297.055924 256.58435 
L 297.203561 256.119832 
L 297.351199 256.571594 
L 297.498836 255.176231 
L 297.794111 257.223923 
L 297.941748 255.506302 
L 298.237023 256.641921 
L 298.38466 256.422156 
L 298.532297 255.722892 
L 298.679935 255.61201 
L 298.827572 255.988585 
L 298.97521 257.040434 
L 299.270484 255.652785 
L 299.418122 253.365618 
L 299.713396 258.028194 
L 300.008671 255.908547 
L 300.156308 257.450896 
L 300.303946 256.65637 
L 300.451583 257.550391 
L 300.59922 256.441199 
L 300.746858 257.243069 
L 300.894495 257.149349 
L 301.042133 256.422787 
L 301.18977 257.661608 
L 301.337407 257.146865 
L 301.485045 258.502259 
L 301.780319 256.489237 
L 301.927957 258.978673 
L 302.223231 257.118977 
L 302.370869 258.291423 
L 302.518506 258.075268 
L 302.666143 257.556716 
L 302.961418 259.395908 
L 303.109055 259.107885 
L 303.256693 257.262182 
L 303.40433 259.30298 
L 303.551968 257.80814 
L 303.699605 259.912224 
L 303.847242 259.078232 
L 303.99488 257.127942 
L 304.142517 258.91227 
L 304.290154 258.695435 
L 304.437792 258.986305 
L 304.585429 258.220257 
L 304.733066 258.932028 
L 304.880704 258.571114 
L 305.028341 259.368716 
L 305.175978 258.357195 
L 305.471253 259.09776 
L 305.618891 258.868299 
L 305.766528 259.981554 
L 305.914165 258.511808 
L 306.061803 260.752259 
L 306.20944 259.730299 
L 306.357077 259.872171 
L 306.504715 258.764054 
L 306.799989 260.384655 
L 307.095264 258.719082 
L 307.242901 260.659386 
L 307.538176 259.064669 
L 307.685814 259.605691 
L 307.833451 258.965091 
L 307.981088 260.003047 
L 308.128726 258.561984 
L 308.276363 258.578654 
L 308.424 259.172033 
L 308.571638 260.513083 
L 308.719275 258.920305 
L 308.866912 260.095658 
L 309.01455 259.494089 
L 309.309824 260.468008 
L 309.457462 260.795218 
L 309.605099 257.50069 
L 309.900374 261.216 
L 310.048011 259.291935 
L 310.195649 259.159283 
L 310.490923 260.633471 
L 310.786198 259.834896 
L 310.933835 259.450931 
L 311.081473 260.748754 
L 311.22911 258.890335 
L 311.376747 260.080961 
L 311.672022 258.887288 
L 311.819659 259.955785 
L 311.967297 260.072544 
L 312.114934 259.304951 
L 312.262572 260.626417 
L 312.410209 257.71401 
L 312.705484 261.019489 
L 313.000758 257.686591 
L 313.148396 259.780411 
L 313.296033 260.01401 
L 313.44367 258.959706 
L 313.591308 259.230449 
L 313.886582 260.743634 
L 314.03422 257.032423 
L 314.181857 260.064903 
L 314.477132 259.157274 
L 314.624769 259.664253 
L 314.772407 258.236961 
L 314.920044 259.634437 
L 315.067681 258.520125 
L 315.362956 259.945746 
L 315.658231 258.452239 
L 315.805868 258.584361 
L 316.101143 259.61741 
L 316.396418 257.165366 
L 316.544055 259.55697 
L 316.691692 259.413209 
L 316.83933 258.58965 
L 316.986967 259.244166 
L 317.282242 258.225966 
L 317.429879 259.175816 
L 317.577516 257.356503 
L 317.872791 259.103963 
L 318.315703 258.206287 
L 318.46334 259.371572 
L 318.610978 257.356719 
L 318.758615 259.076856 
L 318.906253 258.924838 
L 319.201527 257.075526 
L 319.349165 257.557073 
L 319.496802 257.021092 
L 319.644439 257.966628 
L 319.792077 257.14091 
L 319.939714 257.760767 
L 320.087351 257.578069 
L 320.234989 258.677678 
L 320.382626 258.253896 
L 320.530263 256.061555 
L 320.677901 258.196974 
L 320.825538 256.587181 
L 320.973176 259.135375 
L 321.120813 257.53318 
L 321.26845 257.504199 
L 321.416088 257.914005 
L 321.711362 257.566924 
L 321.859 257.683711 
L 322.006637 258.698826 
L 322.301912 254.311431 
L 322.449549 257.113403 
L 322.597186 256.923981 
L 322.744824 257.785287 
L 322.892461 256.529657 
L 323.040099 257.443359 
L 323.187736 257.116052 
L 323.335373 258.058187 
L 323.483011 257.898497 
L 323.778285 256.513092 
L 323.925923 256.312011 
L 324.07356 257.505403 
L 324.221197 257.19242 
L 324.516472 257.127784 
L 324.664109 255.21219 
L 324.811747 258.339128 
L 324.959384 256.883159 
L 325.107022 257.672677 
L 325.254659 256.816627 
L 325.402296 257.345398 
L 325.549934 256.120793 
L 325.845208 257.375588 
L 325.992846 257.209631 
L 326.140483 258.366216 
L 326.28812 255.237307 
L 326.435758 256.690201 
L 326.731032 256.169403 
L 326.87867 257.510498 
L 327.026307 257.475474 
L 327.321582 256.183837 
L 327.469219 256.587446 
L 327.764494 258.086974 
L 327.912131 255.394524 
L 328.059769 256.445534 
L 328.207406 255.148286 
L 328.355043 255.62123 
L 328.502681 256.612116 
L 328.650318 256.836648 
L 328.797955 256.672113 
L 328.945593 256.088255 
L 329.09323 256.194511 
L 329.240867 256.016037 
L 329.388505 254.679615 
L 329.536142 257.550483 
L 329.68378 256.951787 
L 329.831417 253.987646 
L 329.979054 255.223463 
L 330.126692 255.186803 
L 330.274329 256.922626 
L 330.421966 254.948972 
L 330.569604 255.686854 
L 330.717241 255.649811 
L 330.864878 256.28914 
L 331.012516 254.964841 
L 331.160153 256.927235 
L 331.455428 255.011941 
L 331.603065 254.974371 
L 331.750703 255.530334 
L 331.89834 254.899024 
L 332.045977 255.45487 
L 332.193615 254.155474 
L 332.341252 255.379228 
L 332.636527 254.550566 
L 332.784164 255.404249 
L 332.931801 254.634156 
L 333.079439 255.972341 
L 333.227076 256.054486 
L 333.374713 252.661903 
L 333.817625 255.140279 
L 333.965263 254.211337 
L 334.1129 254.927 
L 334.408175 253.935722 
L 334.555812 253.729443 
L 334.70345 254.779364 
L 335.146362 254.381829 
L 335.293999 253.004621 
L 335.441636 254.598658 
L 335.589274 253.810158 
L 335.736911 254.239157 
L 335.884548 254.203975 
L 336.032186 253.540391 
L 336.179823 254.1342 
L 336.327461 252.153521 
L 336.622735 254.725045 
L 336.770373 254.285464 
L 337.065647 252.775363 
L 337.213285 254.322976 
L 337.360922 253.557362 
L 337.508559 253.975412 
L 337.656197 253.491057 
L 337.803834 253.9094 
L 337.951471 254.801346 
L 338.099109 251.751642 
L 338.246746 252.129856 
L 338.394384 253.779033 
L 338.542021 252.446576 
L 338.837296 254.484693 
L 338.984933 252.35059 
L 339.13257 252.674794 
L 339.280208 254.389531 
L 339.72312 252.374404 
L 339.870757 250.439915 
L 340.166032 254.563397 
L 340.313669 254.415744 
L 340.461307 252.730328 
L 340.608944 252.700423 
L 340.756581 252.830086 
L 340.904219 254.296635 
L 341.051856 252.103558 
L 341.199493 252.419148 
L 341.494768 251.254193 
L 341.642405 252.498659 
L 341.790043 252.471072 
L 341.93768 252.757861 
L 342.085317 252.576271 
L 342.232955 252.05676 
L 342.380592 252.030612 
L 342.528229 253.993787 
L 342.823504 251.598535 
L 342.971142 253.016455 
L 343.118779 251.90565 
L 343.414054 252.506107 
L 343.561691 252.483074 
L 343.709328 253.037956 
L 343.856966 251.61547 
L 344.004603 252.416272 
L 344.15224 252.240047 
L 344.299878 252.95112 
L 344.74279 249.834206 
L 344.890427 252.588933 
L 345.038065 250.686442 
L 345.185702 252.403997 
L 345.333339 252.234734 
L 345.480977 252.366443 
L 345.628614 252.197725 
L 345.776251 252.618512 
L 345.923889 251.683493 
L 346.071526 251.830093 
L 346.219163 253.700058 
L 346.662075 249.597919 
L 346.809713 252.355946 
L 347.104988 250.231236 
L 347.252625 252.44998 
L 347.400262 251.347709 
L 347.5479 251.979942 
L 347.695537 251.142006 
L 347.990812 251.620858 
L 348.138449 251.097637 
L 348.286086 252.056363 
L 348.433724 251.244259 
L 348.581361 251.399899 
L 348.728998 252.303523 
L 349.024273 251.015713 
L 349.171911 252.538391 
L 349.319548 252.109958 
L 349.467185 252.513993 
L 349.614823 252.086202 
L 349.76246 252.999561 
L 349.910097 252.206106 
L 350.057735 250.752888 
L 350.205372 250.555267 
L 350.353009 251.581482 
L 350.500647 250.535661 
L 350.648284 251.5626 
L 350.795921 251.060716 
L 350.943559 253.495613 
L 351.091196 249.895981 
L 351.238833 252.261437 
L 351.386471 251.36243 
L 351.534108 252.246891 
L 351.681746 250.658989 
L 352.124658 252.617412 
L 352.272295 252.483365 
L 352.419932 251.784145 
L 352.56757 252.341608 
L 352.715207 249.828671 
L 352.862844 252.593159 
L 353.010482 252.328747 
L 353.158119 250.964634 
L 353.305756 253.067353 
L 353.453394 250.414602 
L 353.601031 252.179958 
L 353.748669 250.214571 
L 353.896306 252.309557 
L 354.043943 251.116194 
L 354.191581 251.592178 
L 354.339218 252.563132 
L 354.634493 250.763773 
L 354.78213 250.581293 
L 354.929767 251.269517 
L 355.077405 250.934651 
L 355.225042 249.994915 
L 355.372679 251.102233 
L 355.520317 250.932135 
L 355.667954 252.292012 
L 355.815592 252.017986 
L 355.963229 252.92026 
L 356.110866 251.100885 
L 356.258504 251.265454 
L 356.406141 251.730389 
L 356.553778 248.594197 
L 356.701416 251.267829 
L 356.849053 250.579502 
L 356.99669 250.76195 
L 357.144328 252.807731 
L 357.291965 251.274427 
L 357.439602 251.276732 
L 357.58724 250.402436 
L 357.734877 250.40529 
L 357.882514 252.311974 
L 358.030152 250.217741 
L 358.177789 251.2924 
L 358.325427 250.225399 
L 358.473064 252.83595 
L 358.768339 250.433017 
L 358.915976 251.628948 
L 359.063613 250.443315 
L 359.211251 250.81703 
L 359.358888 249.404713 
L 359.506525 251.94795 
L 359.654163 251.954072 
L 359.8018 251.349761 
L 359.949437 251.966809 
L 360.097075 251.676815 
L 360.244712 252.261034 
L 360.39235 251.840633 
L 360.539987 251.847484 
L 360.687624 250.11762 
L 360.835262 251.861293 
L 360.982899 250.714234 
L 361.130536 252.56917 
L 361.425811 250.734691 
L 361.573448 253.318287 
L 361.868723 250.566938 
L 362.01636 250.941338 
L 362.163998 252.347548 
L 362.311635 252.214686 
L 362.459273 250.396312 
L 362.60691 252.630998 
L 362.754547 252.504185 
L 362.902185 251.317947 
L 363.345097 252.247075 
L 363.492734 251.497406 
L 363.788009 252.78979 
L 363.935646 250.996086 
L 364.083283 253.161616 
L 364.230921 251.34324 
L 364.526196 252.795364 
L 364.673833 251.667292 
L 364.82147 253.042465 
L 364.969108 251.665071 
L 365.264382 253.824601 
L 365.559657 252.521276 
L 365.707294 252.381874 
L 365.854932 253.140675 
L 366.002569 253.015165 
L 366.150206 253.583335 
L 366.445481 253.231539 
L 366.593118 252.061151 
L 366.740756 252.332932 
L 367.036031 253.193194 
L 367.183668 253.064263 
L 367.331305 253.506242 
L 367.478943 252.274638 
L 367.62658 252.52721 
L 367.774217 254.07971 
L 367.921855 251.651223 
L 368.069492 252.606979 
L 368.217129 251.912184 
L 368.364767 252.440643 
L 368.512404 253.47926 
L 368.660041 253.457624 
L 368.807679 252.375705 
L 368.955316 252.965836 
L 369.102954 253.055405 
L 369.250591 252.676934 
L 369.398228 251.11386 
L 369.693503 252.589789 
L 369.84114 252.910071 
L 369.988778 251.453972 
L 370.284052 253.242359 
L 370.579327 252.615302 
L 370.726964 252.801997 
L 370.874602 250.760294 
L 371.022239 253.143643 
L 371.169877 252.444182 
L 371.317514 252.734609 
L 371.465151 253.67738 
L 371.612789 251.417964 
L 371.760426 252.692251 
L 371.908063 252.638808 
L 372.203338 252.081708 
L 372.350975 252.360191 
L 372.498613 252.189652 
L 372.64625 252.554524 
L 372.793887 252.490374 
L 372.941525 251.997183 
L 373.089162 250.243609 
L 373.2368 252.488117 
L 373.384437 250.814781 
L 373.532074 252.536885 
L 373.679712 252.739826 
L 373.974986 251.017206 
L 374.122624 251.723641 
L 374.270261 251.204246 
L 374.713173 252.67221 
L 374.86081 252.241729 
L 375.156085 250.429115 
L 375.45136 251.303034 
L 375.598997 250.798559 
L 375.746635 251.906893 
L 375.894272 250.266152 
L 376.041909 250.046473 
L 376.189547 251.500917 
L 376.337184 251.039752 
L 376.484821 248.852601 
L 376.780096 250.785387 
L 376.927733 249.799867 
L 377.075371 249.68004 
L 377.223008 248.770677 
L 377.370645 250.811625 
L 377.66592 248.749285 
L 377.813558 250.185651 
L 377.961195 249.332302 
L 378.108832 249.666873 
L 378.25647 247.880646 
L 378.404107 248.323056 
L 378.551744 247.106985 
L 378.699382 249.882955 
L 378.847019 250.049034 
L 378.994656 249.127397 
L 379.142294 247.312986 
L 379.289931 247.059201 
L 379.437568 247.039615 
L 379.585206 246.785131 
L 379.732843 246.150943 
L 379.880481 247.383589 
L 380.028118 245.181988 
L 380.175755 247.59003 
L 380.323393 247.808948 
L 380.913942 243.736 
L 381.061579 246.683148 
L 381.209217 244.524855 
L 381.356854 246.02996 
L 381.652129 244.528415 
L 381.947403 244.986775 
L 382.095041 242.698143 
L 382.390316 243.905535 
L 382.68559 244.155197 
L 382.980865 240.88331 
L 383.128502 243.204306 
L 383.27614 241.604878 
L 383.423777 241.50022 
L 383.719052 242.385831 
L 383.866689 241.372538 
L 384.014326 241.443651 
L 384.309601 240.195886 
L 384.604876 238.939246 
L 384.752513 238.614265 
L 384.900151 239.253732 
L 385.047788 240.883712 
L 385.195425 238.405575 
L 385.343063 239.273906 
L 385.4907 236.12107 
L 385.638337 237.40781 
L 385.933612 237.872949 
L 386.228887 236.256641 
L 386.376524 236.222371 
L 386.524162 234.028369 
L 386.671799 234.511237 
L 386.819436 232.790181 
L 386.967074 235.364175 
L 387.114711 235.351444 
L 387.262348 232.03938 
L 387.409986 235.339349 
L 387.557623 233.377539 
L 387.70526 227.519589 
L 387.852898 232.051437 
L 387.852898 232.051437 
" style="fill:none;stroke:#1f77b4;stroke-linecap:square;stroke-width:1.5;"/>
   </g>
   <g id="patch_3">
    <path d="M 46.965625 273.312 
L 46.965625 7.2 
" style="fill:none;stroke:#000000;stroke-linecap:square;stroke-linejoin:miter;stroke-width:0.8;"/>
   </g>
   <g id="patch_4">
    <path d="M 404.085625 273.312 
L 404.085625 7.2 
" style="fill:none;stroke:#000000;stroke-linecap:square;stroke-linejoin:miter;stroke-width:0.8;"/>
   </g>
   <g id="patch_5">
    <path d="M 46.965625 273.312 
L 404.085625 273.312 
" style="fill:none;stroke:#000000;stroke-linecap:square;stroke-linejoin:miter;stroke-width:0.8;"/>
   </g>
   <g id="patch_6">
    <path d="M 46.965625 7.2 
L 404.085625 7.2 
" style="fill:none;stroke:#000000;stroke-linecap:square;stroke-linejoin:miter;stroke-width:0.8;"/>
   </g>
  </g>
 </g>
 <defs>
  <clipPath id="pc92d4f5e0e">
   <rect height="266.112" width="357.12" x="46.965625" y="7.2"/>
  </clipPath>
 </defs>
</svg>
