<?xml version="1.0" encoding="utf-8" standalone="no"?>
<!DOCTYPE svg PUBLIC "-//W3C//DTD SVG 1.1//EN"
  "http://www.w3.org/Graphics/SVG/1.1/DTD/svg11.dtd">
<svg height="310.86825pt" version="1.1" viewBox="0 0 411.285625 310.86825" width="411.285625pt" xmlns="http://www.w3.org/2000/svg" xmlns:xlink="http://www.w3.org/1999/xlink">
 <metadata>
  <rdf:RDF xmlns:cc="http://creativecommons.org/ns#" xmlns:dc="http://purl.org/dc/elements/1.1/" xmlns:rdf="http://www.w3.org/1999/02/22-rdf-syntax-ns#">
   <cc:Work>
    <dc:type rdf:resource="http://purl.org/dc/dcmitype/StillImage"/>
    <dc:date>2022-01-24T15:10:07.789860</dc:date>
    <dc:format>image/svg+xml</dc:format>
    <dc:creator>
     <cc:Agent>
      <dc:title>Matplotlib v3.4.2, https://matplotlib.org/</dc:title>
     </cc:Agent>
    </dc:creator>
   </cc:Work>
  </rdf:RDF>
 </metadata>
 <defs>
  <style type="text/css">*{stroke-linecap:butt;stroke-linejoin:round;}</style>
 </defs>
 <g id="figure_1">
  <g id="patch_1">
   <path d="M 0 310.86825 
L 411.285625 310.86825 
L 411.285625 0 
L 0 0 
z
" style="fill:#ffffff;"/>
  </g>
  <g id="axes_1">
   <g id="patch_2">
    <path d="M 46.965625 273.312 
L 404.085625 273.312 
L 404.085625 7.2 
L 46.965625 7.2 
z
" style="fill:#ffffff;"/>
   </g>
   <g id="matplotlib.axis_1">
    <g id="xtick_1">
     <g id="line2d_1">
      <defs>
       <path d="M 0 0 
L 0 3.5 
" id="ma9628fd3fc" style="stroke:#000000;stroke-width:0.8;"/>
      </defs>
      <g>
       <use style="stroke:#000000;stroke-width:0.8;" x="77.888269" xlink:href="#ma9628fd3fc" y="273.312"/>
      </g>
     </g>
     <g id="text_1">
      <!-- −10 -->
      <g transform="translate(67.335925 287.910437)scale(0.1 -0.1)">
       <defs>
        <path d="M 678 2272 
L 4684 2272 
L 4684 1741 
L 678 1741 
L 678 2272 
z
" id="DejaVuSans-2212" transform="scale(0.015625)"/>
        <path d="M 794 531 
L 1825 531 
L 1825 4091 
L 703 3866 
L 703 4441 
L 1819 4666 
L 2450 4666 
L 2450 531 
L 3481 531 
L 3481 0 
L 794 0 
L 794 531 
z
" id="DejaVuSans-31" transform="scale(0.015625)"/>
        <path d="M 2034 4250 
Q 1547 4250 1301 3770 
Q 1056 3291 1056 2328 
Q 1056 1369 1301 889 
Q 1547 409 2034 409 
Q 2525 409 2770 889 
Q 3016 1369 3016 2328 
Q 3016 3291 2770 3770 
Q 2525 4250 2034 4250 
z
M 2034 4750 
Q 2819 4750 3233 4129 
Q 3647 3509 3647 2328 
Q 3647 1150 3233 529 
Q 2819 -91 2034 -91 
Q 1250 -91 836 529 
Q 422 1150 422 2328 
Q 422 3509 836 4129 
Q 1250 4750 2034 4750 
z
" id="DejaVuSans-30" transform="scale(0.015625)"/>
       </defs>
       <use xlink:href="#DejaVuSans-2212"/>
       <use x="83.789062" xlink:href="#DejaVuSans-31"/>
       <use x="147.412109" xlink:href="#DejaVuSans-30"/>
      </g>
     </g>
    </g>
    <g id="xtick_2">
     <g id="line2d_2">
      <g>
       <use style="stroke:#000000;stroke-width:0.8;" x="151.706947" xlink:href="#ma9628fd3fc" y="273.312"/>
      </g>
     </g>
     <g id="text_2">
      <!-- −5 -->
      <g transform="translate(144.335853 287.910437)scale(0.1 -0.1)">
       <defs>
        <path d="M 691 4666 
L 3169 4666 
L 3169 4134 
L 1269 4134 
L 1269 2991 
Q 1406 3038 1543 3061 
Q 1681 3084 1819 3084 
Q 2600 3084 3056 2656 
Q 3513 2228 3513 1497 
Q 3513 744 3044 326 
Q 2575 -91 1722 -91 
Q 1428 -91 1123 -41 
Q 819 9 494 109 
L 494 744 
Q 775 591 1075 516 
Q 1375 441 1709 441 
Q 2250 441 2565 725 
Q 2881 1009 2881 1497 
Q 2881 1984 2565 2268 
Q 2250 2553 1709 2553 
Q 1456 2553 1204 2497 
Q 953 2441 691 2322 
L 691 4666 
z
" id="DejaVuSans-35" transform="scale(0.015625)"/>
       </defs>
       <use xlink:href="#DejaVuSans-2212"/>
       <use x="83.789062" xlink:href="#DejaVuSans-35"/>
      </g>
     </g>
    </g>
    <g id="xtick_3">
     <g id="line2d_3">
      <g>
       <use style="stroke:#000000;stroke-width:0.8;" x="225.525625" xlink:href="#ma9628fd3fc" y="273.312"/>
      </g>
     </g>
     <g id="text_3">
      <!-- 0 -->
      <g transform="translate(222.344375 287.910437)scale(0.1 -0.1)">
       <use xlink:href="#DejaVuSans-30"/>
      </g>
     </g>
    </g>
    <g id="xtick_4">
     <g id="line2d_4">
      <g>
       <use style="stroke:#000000;stroke-width:0.8;" x="299.344303" xlink:href="#ma9628fd3fc" y="273.312"/>
      </g>
     </g>
     <g id="text_4">
      <!-- 5 -->
      <g transform="translate(296.163053 287.910437)scale(0.1 -0.1)">
       <use xlink:href="#DejaVuSans-35"/>
      </g>
     </g>
    </g>
    <g id="xtick_5">
     <g id="line2d_5">
      <g>
       <use style="stroke:#000000;stroke-width:0.8;" x="373.162981" xlink:href="#ma9628fd3fc" y="273.312"/>
      </g>
     </g>
     <g id="text_5">
      <!-- 10 -->
      <g transform="translate(366.800481 287.910437)scale(0.1 -0.1)">
       <use xlink:href="#DejaVuSans-31"/>
       <use x="63.623047" xlink:href="#DejaVuSans-30"/>
      </g>
     </g>
    </g>
    <g id="text_6">
     <!-- CV (Angstrom) -->
     <g transform="translate(188.9225 301.588562)scale(0.1 -0.1)">
      <defs>
       <path d="M 4122 4306 
L 4122 3641 
Q 3803 3938 3442 4084 
Q 3081 4231 2675 4231 
Q 1875 4231 1450 3742 
Q 1025 3253 1025 2328 
Q 1025 1406 1450 917 
Q 1875 428 2675 428 
Q 3081 428 3442 575 
Q 3803 722 4122 1019 
L 4122 359 
Q 3791 134 3420 21 
Q 3050 -91 2638 -91 
Q 1578 -91 968 557 
Q 359 1206 359 2328 
Q 359 3453 968 4101 
Q 1578 4750 2638 4750 
Q 3056 4750 3426 4639 
Q 3797 4528 4122 4306 
z
" id="DejaVuSans-43" transform="scale(0.015625)"/>
       <path d="M 1831 0 
L 50 4666 
L 709 4666 
L 2188 738 
L 3669 4666 
L 4325 4666 
L 2547 0 
L 1831 0 
z
" id="DejaVuSans-56" transform="scale(0.015625)"/>
       <path id="DejaVuSans-20" transform="scale(0.015625)"/>
       <path d="M 1984 4856 
Q 1566 4138 1362 3434 
Q 1159 2731 1159 2009 
Q 1159 1288 1364 580 
Q 1569 -128 1984 -844 
L 1484 -844 
Q 1016 -109 783 600 
Q 550 1309 550 2009 
Q 550 2706 781 3412 
Q 1013 4119 1484 4856 
L 1984 4856 
z
" id="DejaVuSans-28" transform="scale(0.015625)"/>
       <path d="M 2188 4044 
L 1331 1722 
L 3047 1722 
L 2188 4044 
z
M 1831 4666 
L 2547 4666 
L 4325 0 
L 3669 0 
L 3244 1197 
L 1141 1197 
L 716 0 
L 50 0 
L 1831 4666 
z
" id="DejaVuSans-41" transform="scale(0.015625)"/>
       <path d="M 3513 2113 
L 3513 0 
L 2938 0 
L 2938 2094 
Q 2938 2591 2744 2837 
Q 2550 3084 2163 3084 
Q 1697 3084 1428 2787 
Q 1159 2491 1159 1978 
L 1159 0 
L 581 0 
L 581 3500 
L 1159 3500 
L 1159 2956 
Q 1366 3272 1645 3428 
Q 1925 3584 2291 3584 
Q 2894 3584 3203 3211 
Q 3513 2838 3513 2113 
z
" id="DejaVuSans-6e" transform="scale(0.015625)"/>
       <path d="M 2906 1791 
Q 2906 2416 2648 2759 
Q 2391 3103 1925 3103 
Q 1463 3103 1205 2759 
Q 947 2416 947 1791 
Q 947 1169 1205 825 
Q 1463 481 1925 481 
Q 2391 481 2648 825 
Q 2906 1169 2906 1791 
z
M 3481 434 
Q 3481 -459 3084 -895 
Q 2688 -1331 1869 -1331 
Q 1566 -1331 1297 -1286 
Q 1028 -1241 775 -1147 
L 775 -588 
Q 1028 -725 1275 -790 
Q 1522 -856 1778 -856 
Q 2344 -856 2625 -561 
Q 2906 -266 2906 331 
L 2906 616 
Q 2728 306 2450 153 
Q 2172 0 1784 0 
Q 1141 0 747 490 
Q 353 981 353 1791 
Q 353 2603 747 3093 
Q 1141 3584 1784 3584 
Q 2172 3584 2450 3431 
Q 2728 3278 2906 2969 
L 2906 3500 
L 3481 3500 
L 3481 434 
z
" id="DejaVuSans-67" transform="scale(0.015625)"/>
       <path d="M 2834 3397 
L 2834 2853 
Q 2591 2978 2328 3040 
Q 2066 3103 1784 3103 
Q 1356 3103 1142 2972 
Q 928 2841 928 2578 
Q 928 2378 1081 2264 
Q 1234 2150 1697 2047 
L 1894 2003 
Q 2506 1872 2764 1633 
Q 3022 1394 3022 966 
Q 3022 478 2636 193 
Q 2250 -91 1575 -91 
Q 1294 -91 989 -36 
Q 684 19 347 128 
L 347 722 
Q 666 556 975 473 
Q 1284 391 1588 391 
Q 1994 391 2212 530 
Q 2431 669 2431 922 
Q 2431 1156 2273 1281 
Q 2116 1406 1581 1522 
L 1381 1569 
Q 847 1681 609 1914 
Q 372 2147 372 2553 
Q 372 3047 722 3315 
Q 1072 3584 1716 3584 
Q 2034 3584 2315 3537 
Q 2597 3491 2834 3397 
z
" id="DejaVuSans-73" transform="scale(0.015625)"/>
       <path d="M 1172 4494 
L 1172 3500 
L 2356 3500 
L 2356 3053 
L 1172 3053 
L 1172 1153 
Q 1172 725 1289 603 
Q 1406 481 1766 481 
L 2356 481 
L 2356 0 
L 1766 0 
Q 1100 0 847 248 
Q 594 497 594 1153 
L 594 3053 
L 172 3053 
L 172 3500 
L 594 3500 
L 594 4494 
L 1172 4494 
z
" id="DejaVuSans-74" transform="scale(0.015625)"/>
       <path d="M 2631 2963 
Q 2534 3019 2420 3045 
Q 2306 3072 2169 3072 
Q 1681 3072 1420 2755 
Q 1159 2438 1159 1844 
L 1159 0 
L 581 0 
L 581 3500 
L 1159 3500 
L 1159 2956 
Q 1341 3275 1631 3429 
Q 1922 3584 2338 3584 
Q 2397 3584 2469 3576 
Q 2541 3569 2628 3553 
L 2631 2963 
z
" id="DejaVuSans-72" transform="scale(0.015625)"/>
       <path d="M 1959 3097 
Q 1497 3097 1228 2736 
Q 959 2375 959 1747 
Q 959 1119 1226 758 
Q 1494 397 1959 397 
Q 2419 397 2687 759 
Q 2956 1122 2956 1747 
Q 2956 2369 2687 2733 
Q 2419 3097 1959 3097 
z
M 1959 3584 
Q 2709 3584 3137 3096 
Q 3566 2609 3566 1747 
Q 3566 888 3137 398 
Q 2709 -91 1959 -91 
Q 1206 -91 779 398 
Q 353 888 353 1747 
Q 353 2609 779 3096 
Q 1206 3584 1959 3584 
z
" id="DejaVuSans-6f" transform="scale(0.015625)"/>
       <path d="M 3328 2828 
Q 3544 3216 3844 3400 
Q 4144 3584 4550 3584 
Q 5097 3584 5394 3201 
Q 5691 2819 5691 2113 
L 5691 0 
L 5113 0 
L 5113 2094 
Q 5113 2597 4934 2840 
Q 4756 3084 4391 3084 
Q 3944 3084 3684 2787 
Q 3425 2491 3425 1978 
L 3425 0 
L 2847 0 
L 2847 2094 
Q 2847 2600 2669 2842 
Q 2491 3084 2119 3084 
Q 1678 3084 1418 2786 
Q 1159 2488 1159 1978 
L 1159 0 
L 581 0 
L 581 3500 
L 1159 3500 
L 1159 2956 
Q 1356 3278 1631 3431 
Q 1906 3584 2284 3584 
Q 2666 3584 2933 3390 
Q 3200 3197 3328 2828 
z
" id="DejaVuSans-6d" transform="scale(0.015625)"/>
       <path d="M 513 4856 
L 1013 4856 
Q 1481 4119 1714 3412 
Q 1947 2706 1947 2009 
Q 1947 1309 1714 600 
Q 1481 -109 1013 -844 
L 513 -844 
Q 928 -128 1133 580 
Q 1338 1288 1338 2009 
Q 1338 2731 1133 3434 
Q 928 4138 513 4856 
z
" id="DejaVuSans-29" transform="scale(0.015625)"/>
      </defs>
      <use xlink:href="#DejaVuSans-43"/>
      <use x="69.824219" xlink:href="#DejaVuSans-56"/>
      <use x="138.232422" xlink:href="#DejaVuSans-20"/>
      <use x="170.019531" xlink:href="#DejaVuSans-28"/>
      <use x="209.033203" xlink:href="#DejaVuSans-41"/>
      <use x="277.441406" xlink:href="#DejaVuSans-6e"/>
      <use x="340.820312" xlink:href="#DejaVuSans-67"/>
      <use x="404.296875" xlink:href="#DejaVuSans-73"/>
      <use x="456.396484" xlink:href="#DejaVuSans-74"/>
      <use x="495.605469" xlink:href="#DejaVuSans-72"/>
      <use x="534.46875" xlink:href="#DejaVuSans-6f"/>
      <use x="595.650391" xlink:href="#DejaVuSans-6d"/>
      <use x="693.0625" xlink:href="#DejaVuSans-29"/>
     </g>
    </g>
   </g>
   <g id="matplotlib.axis_2">
    <g id="ytick_1">
     <g id="line2d_6">
      <defs>
       <path d="M 0 0 
L -3.5 0 
" id="m9f7b2d8082" style="stroke:#000000;stroke-width:0.8;"/>
      </defs>
      <g>
       <use style="stroke:#000000;stroke-width:0.8;" x="46.965625" xlink:href="#m9f7b2d8082" y="261.216"/>
      </g>
     </g>
     <g id="text_7">
      <!-- 0 -->
      <g transform="translate(33.603125 265.015219)scale(0.1 -0.1)">
       <use xlink:href="#DejaVuSans-30"/>
      </g>
     </g>
    </g>
    <g id="ytick_2">
     <g id="line2d_7">
      <g>
       <use style="stroke:#000000;stroke-width:0.8;" x="46.965625" xlink:href="#m9f7b2d8082" y="223.639824"/>
      </g>
     </g>
     <g id="text_8">
      <!-- 20 -->
      <g transform="translate(27.240625 227.439043)scale(0.1 -0.1)">
       <defs>
        <path d="M 1228 531 
L 3431 531 
L 3431 0 
L 469 0 
L 469 531 
Q 828 903 1448 1529 
Q 2069 2156 2228 2338 
Q 2531 2678 2651 2914 
Q 2772 3150 2772 3378 
Q 2772 3750 2511 3984 
Q 2250 4219 1831 4219 
Q 1534 4219 1204 4116 
Q 875 4013 500 3803 
L 500 4441 
Q 881 4594 1212 4672 
Q 1544 4750 1819 4750 
Q 2544 4750 2975 4387 
Q 3406 4025 3406 3419 
Q 3406 3131 3298 2873 
Q 3191 2616 2906 2266 
Q 2828 2175 2409 1742 
Q 1991 1309 1228 531 
z
" id="DejaVuSans-32" transform="scale(0.015625)"/>
       </defs>
       <use xlink:href="#DejaVuSans-32"/>
       <use x="63.623047" xlink:href="#DejaVuSans-30"/>
      </g>
     </g>
    </g>
    <g id="ytick_3">
     <g id="line2d_8">
      <g>
       <use style="stroke:#000000;stroke-width:0.8;" x="46.965625" xlink:href="#m9f7b2d8082" y="186.063648"/>
      </g>
     </g>
     <g id="text_9">
      <!-- 40 -->
      <g transform="translate(27.240625 189.862867)scale(0.1 -0.1)">
       <defs>
        <path d="M 2419 4116 
L 825 1625 
L 2419 1625 
L 2419 4116 
z
M 2253 4666 
L 3047 4666 
L 3047 1625 
L 3713 1625 
L 3713 1100 
L 3047 1100 
L 3047 0 
L 2419 0 
L 2419 1100 
L 313 1100 
L 313 1709 
L 2253 4666 
z
" id="DejaVuSans-34" transform="scale(0.015625)"/>
       </defs>
       <use xlink:href="#DejaVuSans-34"/>
       <use x="63.623047" xlink:href="#DejaVuSans-30"/>
      </g>
     </g>
    </g>
    <g id="ytick_4">
     <g id="line2d_9">
      <g>
       <use style="stroke:#000000;stroke-width:0.8;" x="46.965625" xlink:href="#m9f7b2d8082" y="148.487472"/>
      </g>
     </g>
     <g id="text_10">
      <!-- 60 -->
      <g transform="translate(27.240625 152.286691)scale(0.1 -0.1)">
       <defs>
        <path d="M 2113 2584 
Q 1688 2584 1439 2293 
Q 1191 2003 1191 1497 
Q 1191 994 1439 701 
Q 1688 409 2113 409 
Q 2538 409 2786 701 
Q 3034 994 3034 1497 
Q 3034 2003 2786 2293 
Q 2538 2584 2113 2584 
z
M 3366 4563 
L 3366 3988 
Q 3128 4100 2886 4159 
Q 2644 4219 2406 4219 
Q 1781 4219 1451 3797 
Q 1122 3375 1075 2522 
Q 1259 2794 1537 2939 
Q 1816 3084 2150 3084 
Q 2853 3084 3261 2657 
Q 3669 2231 3669 1497 
Q 3669 778 3244 343 
Q 2819 -91 2113 -91 
Q 1303 -91 875 529 
Q 447 1150 447 2328 
Q 447 3434 972 4092 
Q 1497 4750 2381 4750 
Q 2619 4750 2861 4703 
Q 3103 4656 3366 4563 
z
" id="DejaVuSans-36" transform="scale(0.015625)"/>
       </defs>
       <use xlink:href="#DejaVuSans-36"/>
       <use x="63.623047" xlink:href="#DejaVuSans-30"/>
      </g>
     </g>
    </g>
    <g id="ytick_5">
     <g id="line2d_10">
      <g>
       <use style="stroke:#000000;stroke-width:0.8;" x="46.965625" xlink:href="#m9f7b2d8082" y="110.911296"/>
      </g>
     </g>
     <g id="text_11">
      <!-- 80 -->
      <g transform="translate(27.240625 114.710515)scale(0.1 -0.1)">
       <defs>
        <path d="M 2034 2216 
Q 1584 2216 1326 1975 
Q 1069 1734 1069 1313 
Q 1069 891 1326 650 
Q 1584 409 2034 409 
Q 2484 409 2743 651 
Q 3003 894 3003 1313 
Q 3003 1734 2745 1975 
Q 2488 2216 2034 2216 
z
M 1403 2484 
Q 997 2584 770 2862 
Q 544 3141 544 3541 
Q 544 4100 942 4425 
Q 1341 4750 2034 4750 
Q 2731 4750 3128 4425 
Q 3525 4100 3525 3541 
Q 3525 3141 3298 2862 
Q 3072 2584 2669 2484 
Q 3125 2378 3379 2068 
Q 3634 1759 3634 1313 
Q 3634 634 3220 271 
Q 2806 -91 2034 -91 
Q 1263 -91 848 271 
Q 434 634 434 1313 
Q 434 1759 690 2068 
Q 947 2378 1403 2484 
z
M 1172 3481 
Q 1172 3119 1398 2916 
Q 1625 2713 2034 2713 
Q 2441 2713 2670 2916 
Q 2900 3119 2900 3481 
Q 2900 3844 2670 4047 
Q 2441 4250 2034 4250 
Q 1625 4250 1398 4047 
Q 1172 3844 1172 3481 
z
" id="DejaVuSans-38" transform="scale(0.015625)"/>
       </defs>
       <use xlink:href="#DejaVuSans-38"/>
       <use x="63.623047" xlink:href="#DejaVuSans-30"/>
      </g>
     </g>
    </g>
    <g id="ytick_6">
     <g id="line2d_11">
      <g>
       <use style="stroke:#000000;stroke-width:0.8;" x="46.965625" xlink:href="#m9f7b2d8082" y="73.33512"/>
      </g>
     </g>
     <g id="text_12">
      <!-- 100 -->
      <g transform="translate(20.878125 77.134339)scale(0.1 -0.1)">
       <use xlink:href="#DejaVuSans-31"/>
       <use x="63.623047" xlink:href="#DejaVuSans-30"/>
       <use x="127.246094" xlink:href="#DejaVuSans-30"/>
      </g>
     </g>
    </g>
    <g id="ytick_7">
     <g id="line2d_12">
      <g>
       <use style="stroke:#000000;stroke-width:0.8;" x="46.965625" xlink:href="#m9f7b2d8082" y="35.758944"/>
      </g>
     </g>
     <g id="text_13">
      <!-- 120 -->
      <g transform="translate(20.878125 39.558163)scale(0.1 -0.1)">
       <use xlink:href="#DejaVuSans-31"/>
       <use x="63.623047" xlink:href="#DejaVuSans-32"/>
       <use x="127.246094" xlink:href="#DejaVuSans-30"/>
      </g>
     </g>
    </g>
    <g id="text_14">
     <!-- F (kJ/mol) -->
     <g transform="translate(14.798438 163.995844)rotate(-90)scale(0.1 -0.1)">
      <defs>
       <path d="M 628 4666 
L 3309 4666 
L 3309 4134 
L 1259 4134 
L 1259 2759 
L 3109 2759 
L 3109 2228 
L 1259 2228 
L 1259 0 
L 628 0 
L 628 4666 
z
" id="DejaVuSans-46" transform="scale(0.015625)"/>
       <path d="M 581 4863 
L 1159 4863 
L 1159 1991 
L 2875 3500 
L 3609 3500 
L 1753 1863 
L 3688 0 
L 2938 0 
L 1159 1709 
L 1159 0 
L 581 0 
L 581 4863 
z
" id="DejaVuSans-6b" transform="scale(0.015625)"/>
       <path d="M 628 4666 
L 1259 4666 
L 1259 325 
Q 1259 -519 939 -900 
Q 619 -1281 -91 -1281 
L -331 -1281 
L -331 -750 
L -134 -750 
Q 284 -750 456 -515 
Q 628 -281 628 325 
L 628 4666 
z
" id="DejaVuSans-4a" transform="scale(0.015625)"/>
       <path d="M 1625 4666 
L 2156 4666 
L 531 -594 
L 0 -594 
L 1625 4666 
z
" id="DejaVuSans-2f" transform="scale(0.015625)"/>
       <path d="M 603 4863 
L 1178 4863 
L 1178 0 
L 603 0 
L 603 4863 
z
" id="DejaVuSans-6c" transform="scale(0.015625)"/>
      </defs>
      <use xlink:href="#DejaVuSans-46"/>
      <use x="57.519531" xlink:href="#DejaVuSans-20"/>
      <use x="89.306641" xlink:href="#DejaVuSans-28"/>
      <use x="128.320312" xlink:href="#DejaVuSans-6b"/>
      <use x="186.230469" xlink:href="#DejaVuSans-4a"/>
      <use x="215.722656" xlink:href="#DejaVuSans-2f"/>
      <use x="249.414062" xlink:href="#DejaVuSans-6d"/>
      <use x="346.826172" xlink:href="#DejaVuSans-6f"/>
      <use x="408.007812" xlink:href="#DejaVuSans-6c"/>
      <use x="435.791016" xlink:href="#DejaVuSans-29"/>
     </g>
    </g>
   </g>
   <g id="line2d_13">
    <path clip-path="url(#p0ec150375f)" d="M 63.198352 215.471272 
L 63.34599 211.173296 
L 63.493627 217.044611 
L 63.641264 217.049243 
L 63.788902 217.68388 
L 63.936539 217.071161 
L 64.084176 214.465824 
L 64.231814 215.532956 
L 64.379451 220.383672 
L 64.674726 217.19864 
L 64.970001 220.179195 
L 65.117638 219.442052 
L 65.265275 219.899508 
L 65.412913 220.998844 
L 65.56055 221.056321 
L 65.855825 221.769319 
L 66.003462 221.554089 
L 66.151099 222.178663 
L 66.298737 221.70296 
L 66.446374 223.874337 
L 66.594011 223.140735 
L 66.741649 223.654084 
L 66.889286 223.53627 
L 67.036924 223.838525 
L 67.184561 224.687266 
L 67.332198 222.33576 
L 67.479836 225.062236 
L 67.627473 224.638244 
L 67.77511 225.905378 
L 67.922748 225.557385 
L 68.070385 225.98628 
L 68.218022 224.706732 
L 68.36566 227.303648 
L 68.513297 225.528485 
L 68.660934 227.556396 
L 68.808572 225.786647 
L 68.956209 227.938473 
L 69.251484 226.540459 
L 69.399121 227.004122 
L 69.546759 228.833851 
L 69.694396 228.274392 
L 69.842033 229.015338 
L 70.137308 229.315243 
L 70.284945 229.995154 
L 70.58022 228.202047 
L 70.727857 230.154779 
L 71.023132 229.402583 
L 71.466044 231.4697 
L 71.613682 230.443988 
L 71.908956 230.900116 
L 72.056594 229.515755 
L 72.499506 232.452814 
L 72.647143 232.314795 
L 72.79478 232.591653 
L 72.942418 231.717836 
L 73.090055 232.935805 
L 73.237692 233.21128 
L 73.38533 234.135353 
L 73.532967 232.901705 
L 73.680605 233.521171 
L 73.828242 234.653707 
L 73.975879 234.371082 
L 74.123517 233.821265 
L 74.418791 234.888273 
L 74.566429 235.515525 
L 74.714066 235.036462 
L 74.861703 235.858311 
L 75.156978 232.951093 
L 75.304615 235.617875 
L 75.452253 236.083284 
L 75.59989 235.300993 
L 75.747528 236.69871 
L 75.895165 236.866268 
L 76.042802 236.142562 
L 76.19044 237.199414 
L 76.338077 236.989843 
L 76.485714 236.528883 
L 76.633352 236.580033 
L 76.780989 237.673372 
L 76.928626 236.671535 
L 77.076264 236.586583 
L 77.223901 238.605293 
L 77.371538 237.032657 
L 77.519176 237.191972 
L 77.666813 238.3466 
L 77.81445 237.977129 
L 77.962088 238.951013 
L 78.109725 238.176945 
L 78.257363 238.332047 
L 78.405 237.60895 
L 78.552637 237.762349 
L 79.143187 239.681105 
L 79.290824 238.912976 
L 79.586099 240.525355 
L 79.733736 240.273048 
L 79.881373 239.501699 
L 80.029011 241.418668 
L 80.324286 239.254651 
L 80.471923 241.489066 
L 80.61956 241.43997 
L 80.914835 240.502469 
L 81.062472 241.236574 
L 81.21011 241.028695 
L 81.357747 242.237155 
L 81.505384 241.058837 
L 81.800659 241.333113 
L 82.095934 243.108805 
L 82.243571 241.611498 
L 82.391209 242.239659 
L 82.538846 241.747699 
L 82.686483 242.012964 
L 82.834121 243.191383 
L 82.981758 242.277773 
L 83.129395 243.757539 
L 83.277033 242.132618 
L 83.42467 242.79929 
L 83.572307 241.092006 
L 83.719945 243.539799 
L 84.015219 242.635725 
L 84.162857 244.361381 
L 84.310494 244.692621 
L 84.753406 244.54501 
L 84.901044 243.396205 
L 85.048681 245.612814 
L 85.196318 244.691781 
L 85.343956 246.045602 
L 85.491593 244.93993 
L 85.63923 245.179121 
L 85.786868 244.946106 
L 86.082142 245.066194 
L 86.22978 246.208539 
L 86.525054 245.796597 
L 86.672692 246.963394 
L 86.820329 245.798048 
L 86.967967 245.665165 
L 87.115604 246.160517 
L 87.263241 245.773381 
L 87.410879 246.400276 
L 87.558516 246.519822 
L 87.853791 244.858144 
L 88.001428 245.153973 
L 88.44434 247.580459 
L 88.591977 246.424392 
L 88.739615 247.927227 
L 88.887252 247.706341 
L 89.03489 248.869977 
L 89.330164 245.466256 
L 89.477802 248.058478 
L 89.625439 246.091865 
L 89.773076 248.858361 
L 89.920714 246.509957 
L 90.068351 248.280336 
L 90.215988 246.559839 
L 90.363626 247.833324 
L 90.511263 247.800967 
L 90.6589 248.066003 
L 90.806538 249.566722 
L 90.954175 249.103282 
L 91.101813 247.617366 
L 91.397087 248.495427 
L 91.544725 248.456724 
L 91.692362 250.148274 
L 91.987637 249.246722 
L 92.135274 250.917125 
L 92.282911 249.474225 
L 92.430549 250.48906 
L 92.578186 250.602059 
L 92.725823 249.36655 
L 93.168736 250.425035 
L 93.316373 250.668401 
L 93.46401 250.078634 
L 93.611648 250.75802 
L 93.759285 250.732459 
L 93.906922 251.110246 
L 94.05456 252.852097 
L 94.349834 251.169915 
L 94.497472 250.845441 
L 94.645109 252.903765 
L 94.792746 252.371365 
L 94.940384 252.701819 
L 95.088021 250.962679 
L 95.383296 253.128867 
L 95.530933 250.768993 
L 95.678571 251.221461 
L 95.973845 254.053038 
L 96.121483 252.71203 
L 96.26912 252.943766 
L 96.564395 252.468576 
L 97.007307 254.47313 
L 97.154944 252.246794 
L 97.302581 255.063613 
L 97.450219 252.768643 
L 97.597856 254.443804 
L 97.745494 254.759483 
L 97.893131 254.525532 
L 98.040768 255.735646 
L 98.188406 253.840048 
L 98.336043 254.202739 
L 98.48368 256.196958 
L 98.631318 256.20262 
L 98.778955 255.528235 
L 98.926592 256.386669 
L 99.07423 255.813577 
L 99.221867 256.004214 
L 99.369504 256.566931 
L 99.517142 254.663769 
L 99.664779 256.558181 
L 99.812417 255.937438 
L 99.960054 256.022507 
L 100.107691 256.319606 
L 100.255329 255.485276 
L 100.550603 256.964487 
L 100.698241 255.727823 
L 100.993515 257.826135 
L 101.141153 257.276681 
L 101.28879 254.198151 
L 101.584065 257.202432 
L 101.731702 257.757498 
L 101.879339 257.543641 
L 102.026977 258.077006 
L 102.322252 257.444282 
L 102.469889 257.296313 
L 102.617526 259.22376 
L 102.765164 257.937971 
L 102.912801 258.463382 
L 103.060438 258.342762 
L 103.208076 257.378189 
L 103.355713 258.979086 
L 103.650988 257.18827 
L 103.798625 258.887543 
L 103.946262 258.187122 
L 104.241537 258.768198 
L 104.389175 257.435756 
L 104.536812 258.06 
L 104.684449 257.993116 
L 104.832087 259.125098 
L 104.979724 257.48118 
L 105.274999 260.408978 
L 105.422636 259.00343 
L 105.570273 259.130054 
L 105.717911 258.974761 
L 106.013185 258.937572 
L 106.30846 257.895566 
L 106.456098 260.060005 
L 106.603735 259.036482 
L 106.751372 259.943868 
L 106.89901 259.713808 
L 107.046647 260.441162 
L 107.194284 258.482626 
L 107.489559 258.161066 
L 107.784834 259.153023 
L 107.932471 259.797853 
L 108.080108 259.356331 
L 108.227746 259.543546 
L 108.375383 259.071458 
L 108.670658 259.359624 
L 108.818295 260.51301 
L 108.965933 258.960146 
L 109.11357 259.617025 
L 109.261207 258.944518 
L 109.556482 259.673423 
L 109.704119 259.008937 
L 109.851757 259.978904 
L 109.999394 260.120506 
L 110.147031 260.476636 
L 110.294669 259.587078 
L 110.589943 259.955612 
L 110.737581 259.154182 
L 110.885218 259.31054 
L 111.032856 258.603856 
L 111.180493 259.159634 
L 111.32813 257.870003 
L 111.623405 259.057363 
L 111.91868 257.723817 
L 112.213954 260.246377 
L 112.361592 258.854381 
L 112.509229 258.808989 
L 112.656866 258.27846 
L 112.804504 258.330711 
L 112.952141 258.843662 
L 113.099779 258.228981 
L 113.247416 258.274471 
L 113.395053 257.917317 
L 113.542691 258.968909 
L 113.690328 257.480049 
L 113.837965 257.63884 
L 113.985603 256.891093 
L 114.13324 256.950642 
L 114.428515 257.986279 
L 114.576152 257.528975 
L 114.723789 257.660448 
L 114.871427 257.391598 
L 115.019064 255.317624 
L 115.314339 256.026257 
L 115.461976 257.299484 
L 115.609614 257.414469 
L 115.757251 256.946043 
L 116.052526 257.873034 
L 116.200163 257.368927 
L 116.3478 257.459602 
L 116.495438 256.221938 
L 116.643075 256.553332 
L 116.790712 256.365851 
L 116.93835 256.378716 
L 117.085987 254.772186 
L 117.233625 256.394535 
L 117.381262 256.397693 
L 117.528899 254.63349 
L 117.676537 254.800073 
L 117.824174 256.299993 
L 117.971811 256.112892 
L 118.119449 254.511788 
L 118.267086 256.271242 
L 118.414723 254.185704 
L 118.562361 256.238803 
L 118.709998 256.218806 
L 118.857635 254.00962 
L 119.15291 255.117892 
L 119.300547 255.199789 
L 119.448185 253.589318 
L 119.595822 253.962842 
L 119.74346 253.7386 
L 119.891097 253.744842 
L 120.038734 252.757071 
L 120.186372 253.523056 
L 120.334009 252.669274 
L 120.481646 253.733832 
L 120.629284 252.702398 
L 120.776921 253.399425 
L 120.924558 252.596514 
L 121.072196 253.765894 
L 121.36747 252.11877 
L 121.515108 252.246214 
L 121.662745 250.402833 
L 121.810383 252.675876 
L 122.105657 250.531596 
L 122.253295 253.162991 
L 122.400932 252.862187 
L 122.548569 251.142624 
L 122.696207 252.333668 
L 122.843844 252.302285 
L 123.139119 251.341349 
L 123.286756 249.526215 
L 123.582031 252.02293 
L 123.877306 250.472043 
L 124.024943 251.45494 
L 124.17258 251.412759 
L 124.320218 249.59664 
L 124.467855 250.484535 
L 124.615492 249.070865 
L 124.76313 250.41771 
L 124.910767 249.5452 
L 125.058404 249.410982 
L 125.353679 247.979905 
L 125.501316 248.128641 
L 125.648954 247.708806 
L 125.796591 246.224554 
L 126.091866 249.391142 
L 126.387141 247.025434 
L 126.534778 247.439897 
L 126.682415 247.430543 
L 126.830053 247.99684 
L 127.125327 246.619717 
L 127.272965 246.617006 
L 127.420602 247.10407 
L 127.568239 246.965222 
L 127.715877 246.460899 
L 127.863514 246.687198 
L 128.011151 246.307686 
L 128.158789 246.637535 
L 128.306426 245.775921 
L 128.454064 245.765118 
L 128.601701 245.625941 
L 128.896976 244.951509 
L 129.044613 244.812583 
L 129.19225 245.774345 
L 129.487525 244.112668 
L 129.635162 243.974502 
L 129.7828 244.516984 
L 129.930437 244.250992 
L 130.078074 242.014125 
L 130.225712 244.809546 
L 130.373349 244.093773 
L 130.520987 244.198126 
L 130.668624 243.016836 
L 130.816261 243.68715 
L 130.963899 243.29927 
L 131.111536 243.540456 
L 131.259173 244.077762 
L 131.406811 242.347367 
L 131.554448 242.499461 
L 131.702085 242.084032 
L 131.849723 242.237544 
L 132.292635 240.940438 
L 132.440272 242.600204 
L 132.735547 240.883879 
L 132.883184 241.061417 
L 133.030822 239.964309 
L 133.326096 241.111977 
L 133.473734 239.222518 
L 133.621371 241.724702 
L 133.769008 240.028404 
L 133.916646 239.90988 
L 134.064283 239.121669 
L 134.21192 239.675652 
L 134.359558 238.705526 
L 134.654832 240.18583 
L 134.80247 239.665204 
L 135.097745 239.718083 
L 135.393019 237.105079 
L 135.540657 236.768316 
L 135.688294 238.863774 
L 136.131206 236.792081 
L 136.278843 238.996705 
L 136.426481 237.369323 
L 136.574118 237.08418 
L 136.721755 238.140726 
L 136.869393 236.49377 
L 137.01703 237.317345 
L 137.164668 236.689012 
L 137.312305 237.123958 
L 137.459942 235.211678 
L 137.755217 236.494876 
L 137.902854 235.828711 
L 138.050492 237.28596 
L 138.198129 237.048035 
L 138.345766 234.665972 
L 138.493404 235.048479 
L 138.641041 234.494296 
L 138.936316 235.614391 
L 139.083953 234.716531 
L 139.231591 232.014738 
L 139.526865 234.014719 
L 139.82214 234.33703 
L 139.969777 233.797344 
L 140.117415 235.014681 
L 140.265052 232.230578 
L 140.412689 233.596849 
L 140.707964 229.971573 
L 140.855601 232.306931 
L 141.003239 232.25057 
L 141.150876 231.873147 
L 141.298514 230.24453 
L 141.446151 232.681849 
L 141.593788 230.594793 
L 141.741426 230.103616 
L 142.0367 233.925522 
L 142.184338 230.839804 
L 142.331975 230.397879 
L 142.479612 231.819926 
L 142.62725 231.120585 
L 142.774887 231.441948 
L 142.922524 230.288648 
L 143.070162 232.308445 
L 143.217799 231.381166 
L 143.365436 231.36669 
L 143.513074 229.284555 
L 143.660711 232.256469 
L 143.808349 229.764156 
L 143.955986 231.964198 
L 144.103623 231.662197 
L 144.251261 229.271762 
L 144.546535 231.984294 
L 144.694173 231.0239 
L 144.84181 231.386959 
L 144.989447 230.275621 
L 145.284722 232.078503 
L 145.432359 230.758388 
L 145.579997 231.164639 
L 145.727634 230.823724 
L 145.875272 230.006534 
L 146.022909 231.946968 
L 146.170546 230.94451 
L 146.465821 232.085753 
L 146.613458 227.843845 
L 146.761096 231.869705 
L 146.908733 229.305116 
L 147.204008 234.378687 
L 147.351645 231.396231 
L 147.499282 232.813615 
L 147.64692 232.583065 
L 147.794557 231.611897 
L 147.942195 234.083014 
L 148.089832 232.143968 
L 148.237469 232.226266 
L 148.532744 234.863734 
L 148.680381 233.745042 
L 148.828019 231.350239 
L 148.975656 234.199036 
L 149.123293 233.117706 
L 149.270931 235.116467 
L 149.418568 232.594602 
L 149.566205 234.329673 
L 149.713843 234.702318 
L 149.86148 233.954616 
L 150.009117 234.063241 
L 150.156755 235.028137 
L 150.45203 233.729332 
L 150.599667 236.092475 
L 150.747304 233.179444 
L 150.894942 236.954465 
L 151.042579 235.458846 
L 151.633128 236.716711 
L 151.780766 236.350428 
L 151.928403 234.57903 
L 152.07604 237.957412 
L 152.223678 237.680901 
L 152.371315 236.018504 
L 152.66659 238.290076 
L 152.814227 236.099486 
L 153.404777 239.555095 
L 153.552414 239.321288 
L 153.847689 239.607035 
L 153.995326 238.656652 
L 154.142963 240.448899 
L 154.290601 238.143247 
L 154.585876 239.931708 
L 154.88115 241.362064 
L 155.176425 240.089518 
L 155.324062 241.288948 
L 155.4717 240.626583 
L 155.619337 242.453853 
L 155.766974 241.564896 
L 155.914612 239.822534 
L 156.209886 242.232676 
L 156.357524 242.002768 
L 156.505161 242.164618 
L 156.652799 243.078882 
L 156.800436 242.690718 
L 157.095711 243.908066 
L 157.243348 242.988391 
L 157.390985 244.401112 
L 157.538623 244.569523 
L 157.68626 244.068153 
L 157.833897 246.595963 
L 157.981535 246.979873 
L 158.424447 245.437726 
L 158.719721 246.098058 
L 158.867359 247.226916 
L 159.014996 247.148733 
L 159.162634 248.046768 
L 159.310271 247.368336 
L 159.457908 245.967813 
L 159.605546 246.998817 
L 159.753183 249.378208 
L 159.90082 248.929338 
L 160.048458 249.42965 
L 160.196095 249.283319 
L 160.343732 250.277348 
L 160.49137 248.506905 
L 160.786644 251.338289 
L 160.934282 249.44375 
L 161.081919 250.868949 
L 161.229557 250.16975 
L 161.377194 250.344442 
L 161.672469 251.665062 
L 161.820106 251.099069 
L 161.967743 252.474081 
L 162.263018 252.542222 
L 162.410655 252.112301 
L 162.70593 252.447396 
L 162.853567 253.658948 
L 163.001205 252.21248 
L 163.148842 253.046385 
L 163.29648 252.772051 
L 163.444117 253.471817 
L 163.591754 254.876039 
L 163.739392 253.685353 
L 163.887029 254.695699 
L 164.034666 254.849976 
L 164.182304 254.547208 
L 164.329941 254.698038 
L 164.477578 255.034544 
L 164.625216 256.171992 
L 164.772853 255.594848 
L 164.92049 255.908589 
L 165.068128 254.811971 
L 165.215765 256.589918 
L 165.658677 257.364 
L 165.806315 256.466505 
L 165.953952 257.964971 
L 166.101589 256.894195 
L 166.249227 257.425451 
L 166.396864 256.301309 
L 166.544501 257.424678 
L 166.692139 257.622216 
L 166.839776 258.123199 
L 166.987413 257.765004 
L 167.135051 258.488665 
L 167.282688 257.269904 
L 167.577963 259.008163 
L 167.7256 258.596103 
L 167.873238 258.534012 
L 168.020875 258.210203 
L 168.168512 259.581032 
L 168.31615 258.469508 
L 168.463787 259.112963 
L 168.611424 258.79777 
L 168.759062 257.660268 
L 169.054336 259.84164 
L 169.201974 259.90718 
L 169.497248 259.594748 
L 169.644886 259.724481 
L 169.792523 259.139031 
L 169.940161 260.04054 
L 170.235435 260.051016 
L 170.383073 258.948964 
L 170.53071 260.659933 
L 170.678347 259.687798 
L 170.825985 260.956585 
L 171.121259 259.57403 
L 171.268897 260.738997 
L 171.416534 259.326087 
L 171.564171 260.468894 
L 171.711809 260.65629 
L 171.859446 260.012044 
L 172.007084 260.204874 
L 172.302358 258.831976 
L 172.597633 261.216 
L 172.74527 259.822315 
L 172.892908 260.911111 
L 173.040545 259.365355 
L 173.188182 260.737851 
L 173.33582 259.689744 
L 173.483457 260.409198 
L 173.631094 259.727694 
L 173.778732 259.913514 
L 173.926369 259.580489 
L 174.221644 260.589553 
L 174.369281 259.954089 
L 174.516919 259.816002 
L 174.664556 261.204838 
L 174.959831 259.476681 
L 175.107468 260.332563 
L 175.255105 260.003069 
L 175.402743 260.474438 
L 175.55038 260.268038 
L 175.698017 259.376285 
L 175.845655 259.686941 
L 175.993292 259.312784 
L 176.140929 259.291754 
L 176.288567 259.390918 
L 176.436204 259.253502 
L 176.583842 258.794379 
L 176.731479 258.927303 
L 176.879116 259.278747 
L 177.174391 258.301624 
L 177.322028 258.294353 
L 177.469666 258.049666 
L 177.617303 258.162442 
L 177.76494 257.589946 
L 177.912578 257.590536 
L 178.207852 257.323591 
L 178.35549 256.589321 
L 178.650765 256.708822 
L 178.798402 255.815413 
L 179.241314 255.341976 
L 179.388951 254.694365 
L 179.536589 254.807257 
L 179.684226 254.703032 
L 179.831863 253.70627 
L 180.127138 253.65737 
L 180.274775 253.362812 
L 180.422413 253.326292 
L 180.57005 252.973117 
L 180.717688 253.288641 
L 180.865325 253.076275 
L 181.012962 252.573382 
L 181.308237 252.272583 
L 181.455874 251.781381 
L 181.603512 252.209301 
L 181.751149 251.244711 
L 181.898786 251.151603 
L 182.046424 251.329558 
L 182.341698 250.717059 
L 182.489336 250.83371 
L 182.932248 250.324403 
L 183.227523 248.889476 
L 183.37516 249.266413 
L 183.522797 249.04487 
L 183.965709 247.544294 
L 184.408621 246.602458 
L 184.703896 245.501034 
L 184.851533 245.232436 
L 185.737358 241.683318 
L 185.884995 241.386439 
L 186.18027 240.563252 
L 186.327907 240.321408 
L 186.918456 237.784909 
L 187.066094 237.75505 
L 187.509006 236.041003 
L 187.656643 235.703028 
L 187.804281 235.746887 
L 187.951918 234.75187 
L 188.099555 234.852117 
L 188.39483 233.242384 
L 189.133017 231.150137 
L 189.280654 230.262787 
L 189.428292 230.216551 
L 189.723566 228.766231 
L 189.871204 228.527395 
L 190.166478 227.393092 
L 190.757028 224.279697 
L 190.904665 224.404636 
L 191.19994 222.510314 
L 191.347577 221.686404 
L 191.495214 221.586649 
L 191.790489 219.973595 
L 192.528676 216.534832 
L 192.971588 213.946837 
L 193.119225 213.607267 
L 193.562137 211.182042 
L 193.709775 210.882913 
L 194.00505 209.575621 
L 194.152687 209.050605 
L 194.447962 207.093895 
L 194.595599 207.39991 
L 194.743236 206.704508 
L 194.890874 205.332756 
L 195.186148 204.896722 
L 195.481423 203.244237 
L 195.62906 202.947257 
L 195.776698 202.195733 
L 195.924335 200.814986 
L 196.071973 201.017514 
L 196.21961 200.443968 
L 196.367247 199.20696 
L 196.514885 199.121138 
L 196.662522 198.150309 
L 196.810159 198.108274 
L 197.105434 196.083906 
L 197.695983 193.577123 
L 197.843621 193.281101 
L 198.581808 188.665529 
L 198.877082 187.639722 
L 199.02472 187.226345 
L 199.467632 184.915572 
L 199.615269 184.731046 
L 200.353456 180.477192 
L 200.501093 180.327637 
L 200.796368 179.040662 
L 201.23928 177.074735 
L 201.829829 174.413647 
L 201.977467 174.247951 
L 202.125104 172.742747 
L 202.420379 172.557015 
L 202.715654 170.83684 
L 203.158566 169.017931 
L 203.306203 168.727481 
L 203.45384 168.145247 
L 203.601478 166.710685 
L 203.749115 166.636104 
L 204.339664 164.371915 
L 204.487302 162.950689 
L 204.634939 162.973618 
L 204.782577 162.399726 
L 205.077851 160.201244 
L 205.520763 158.689003 
L 205.963675 155.406232 
L 206.111313 155.672653 
L 206.554225 153.945308 
L 206.849499 151.563264 
L 206.997137 151.840497 
L 207.292412 149.205752 
L 207.440049 149.271792 
L 207.882961 147.317184 
L 208.030598 145.944775 
L 208.178236 145.905818 
L 208.621148 143.373768 
L 209.654609 138.166211 
L 209.802247 138.358477 
L 209.949884 138.320535 
L 210.245159 135.747403 
L 210.392796 135.746903 
L 210.688071 134.582444 
L 211.426258 131.675239 
L 211.721532 129.688684 
L 212.312082 126.599669 
L 212.459719 126.425043 
L 213.050268 122.569746 
L 213.197906 121.542062 
L 213.345543 121.758427 
L 213.493181 120.656074 
L 213.640818 120.776744 
L 214.231367 116.961272 
L 214.379005 116.588977 
L 214.526642 115.859783 
L 214.821917 113.90737 
L 214.969554 113.549344 
L 215.412466 110.776104 
L 215.560103 110.609638 
L 216.003016 108.024636 
L 216.150653 107.506669 
L 216.29829 106.351156 
L 216.445928 106.330752 
L 216.741202 104.783723 
L 218.660488 96.033413 
L 219.251037 93.171237 
L 219.398675 92.582575 
L 219.693949 90.339976 
L 219.841587 90.423778 
L 220.136862 87.839353 
L 220.284499 87.95992 
L 220.727411 84.107852 
L 220.875048 84.271004 
L 221.31796 81.584905 
L 221.465598 81.327541 
L 221.760872 79.582405 
L 222.203784 76.985159 
L 222.351422 76.633233 
L 222.646697 74.749868 
L 223.237246 71.931826 
L 223.384883 70.949508 
L 223.532521 70.739299 
L 224.71362 65.29193 
L 224.861257 64.962721 
L 225.156532 63.62974 
L 225.599444 61.248164 
L 225.747081 60.884964 
L 225.894718 59.7798 
L 226.042356 60.016532 
L 226.33763 57.609432 
L 226.485268 57.644776 
L 226.632905 56.951216 
L 226.92818 55.154903 
L 227.075817 53.926125 
L 227.223455 53.956627 
L 227.666367 50.636013 
L 228.109279 49.445617 
L 228.552191 46.304234 
L 228.699828 46.386465 
L 229.14274 42.656143 
L 229.290378 42.773807 
L 229.438015 42.251472 
L 229.73329 40.462587 
L 229.880927 39.983823 
L 230.176202 37.528192 
L 230.471476 37.019818 
L 230.914388 34.764776 
L 231.652575 31.566376 
L 231.800213 32.081149 
L 231.94785 30.336773 
L 232.095487 30.616924 
L 232.243125 28.899856 
L 232.538399 29.975331 
L 232.686037 28.240975 
L 232.833674 29.155209 
L 233.128949 27.096709 
L 233.276586 27.697118 
L 233.571861 26.506972 
L 233.719498 27.198623 
L 233.867136 25.952586 
L 234.014773 26.035295 
L 234.16241 27.607386 
L 234.457685 25.760179 
L 234.605322 25.734529 
L 234.900597 26.517574 
L 235.048234 25.669761 
L 235.195872 25.708489 
L 235.491147 24.548152 
L 235.638784 27.39851 
L 235.934059 24.890574 
L 236.081696 27.888416 
L 236.229333 22.874058 
L 236.376971 22.032752 
L 236.524608 22.775405 
L 236.672245 22.543726 
L 236.819883 23.553018 
L 237.115157 21.278622 
L 237.262795 23.979093 
L 237.410432 19.296 
L 237.558069 22.393243 
L 237.705707 21.343605 
L 237.853344 22.645424 
L 238.000982 22.36197 
L 238.148619 22.600047 
L 238.443894 21.780492 
L 238.591531 20.249264 
L 238.739168 21.888596 
L 238.886806 21.47198 
L 239.034443 22.100787 
L 239.18208 21.760341 
L 239.329718 23.206498 
L 239.477355 22.947303 
L 239.77263 23.825064 
L 239.920267 23.613722 
L 240.363179 25.328906 
L 240.510817 25.586483 
L 240.658454 25.407143 
L 241.101366 28.102058 
L 241.249003 28.150223 
L 241.691915 30.101394 
L 241.839553 30.278949 
L 242.134828 31.627753 
L 242.282465 31.127727 
L 242.430102 33.519614 
L 243.168289 36.284345 
L 243.463564 37.88171 
L 243.906476 40.378482 
L 244.054113 40.434916 
L 244.497025 43.098843 
L 244.644663 43.687763 
L 244.7923 44.989345 
L 244.939937 44.833622 
L 245.087575 46.416581 
L 245.235212 46.343664 
L 245.382849 47.854251 
L 245.530487 48.204987 
L 245.678124 49.261492 
L 245.825761 49.220832 
L 246.268673 51.945462 
L 246.416311 51.755368 
L 246.563948 53.452575 
L 246.859223 54.305915 
L 247.302135 56.656605 
L 247.449772 56.759228 
L 248.040322 59.365594 
L 248.187959 59.619521 
L 248.335596 60.747067 
L 248.483234 60.782447 
L 248.778509 62.686296 
L 248.926146 62.9212 
L 249.81197 67.070842 
L 250.107245 68.88415 
L 250.254882 69.128489 
L 250.402519 70.48495 
L 250.550157 70.73309 
L 251.435981 75.621683 
L 251.583618 76.052103 
L 251.878893 78.554975 
L 252.02653 79.025573 
L 252.321805 81.135414 
L 252.61708 82.340348 
L 252.912355 85.080115 
L 253.207629 87.180329 
L 253.650541 88.960412 
L 254.093453 92.97235 
L 254.241091 93.136989 
L 254.684003 97.001142 
L 254.83164 97.842185 
L 254.979277 97.941106 
L 255.865102 105.040172 
L 256.012739 105.244106 
L 256.308014 108.269527 
L 256.455651 107.894697 
L 256.603288 110.2399 
L 256.898563 110.94053 
L 257.489113 115.409057 
L 257.63675 115.878808 
L 258.079662 119.614816 
L 258.227299 120.012022 
L 260.589497 137.281967 
L 260.737134 137.527989 
L 260.884772 139.3238 
L 261.032409 139.542756 
L 261.180046 141.381618 
L 261.327684 141.491494 
L 261.770596 145.093287 
L 261.918233 145.371708 
L 262.361145 148.782334 
L 264.575706 161.818423 
L 264.87098 163.508094 
L 265.166255 165.125267 
L 265.904442 168.814971 
L 266.052079 170.296577 
L 266.199717 170.640315 
L 266.790266 174.1027 
L 267.380815 177.117745 
L 269.152464 185.701613 
L 269.300101 185.964853 
L 269.743013 187.977202 
L 269.89065 188.398541 
L 270.038288 189.224413 
L 270.185925 189.279105 
L 270.4812 190.565715 
L 270.628837 190.844155 
L 271.367024 193.634334 
L 271.662299 193.984646 
L 271.957573 195.010331 
L 272.105211 195.390288 
L 272.843398 198.510412 
L 274.024496 202.343122 
L 274.172134 202.187294 
L 274.319771 202.73033 
L 274.467408 203.759092 
L 274.615046 203.46042 
L 274.910321 204.692971 
L 275.057958 205.228095 
L 275.205595 205.212913 
L 275.353233 204.847527 
L 275.50087 206.082551 
L 275.648507 206.255993 
L 276.091419 207.629837 
L 276.386694 208.104225 
L 276.681969 208.927904 
L 276.829606 209.240911 
L 277.272518 209.347641 
L 277.567793 210.905442 
L 277.71543 210.121642 
L 277.863068 212.076169 
L 278.010705 212.001445 
L 278.158342 211.737568 
L 278.30598 212.863082 
L 278.601254 211.295145 
L 278.748892 212.848401 
L 279.044166 213.160321 
L 279.191804 213.563455 
L 279.339441 213.282396 
L 279.634716 214.054226 
L 279.782353 213.729833 
L 280.077628 215.191223 
L 280.225265 214.303758 
L 280.372903 214.65198 
L 280.52054 214.057741 
L 280.668177 216.08892 
L 280.815815 216.29154 
L 280.963452 214.830289 
L 281.111089 215.22897 
L 281.258727 216.305931 
L 281.406364 215.917839 
L 281.554002 215.991013 
L 281.849276 216.98504 
L 282.144551 216.083417 
L 282.292188 216.187164 
L 282.439826 218.153556 
L 282.587463 217.675529 
L 282.7351 217.924503 
L 282.882738 217.000095 
L 283.178012 218.363794 
L 283.32565 218.156551 
L 283.473287 217.475712 
L 283.620925 218.909173 
L 283.768562 217.872709 
L 283.916199 217.742256 
L 284.063837 217.887143 
L 284.211474 218.216486 
L 284.359111 219.038304 
L 284.506749 218.008033 
L 284.654386 219.833329 
L 284.949661 219.405438 
L 285.244935 218.441697 
L 285.392573 219.067318 
L 285.54021 218.890242 
L 285.835485 219.873288 
L 285.983122 219.026277 
L 286.13076 219.345359 
L 286.278397 219.027878 
L 286.426034 220.960043 
L 286.573672 219.666358 
L 286.868946 220.957749 
L 287.016584 220.362199 
L 287.164221 219.296181 
L 287.459496 221.013234 
L 287.607133 220.456301 
L 287.75477 221.022305 
L 288.050045 220.08865 
L 288.197683 220.612916 
L 288.34532 219.385981 
L 288.492957 221.0874 
L 288.640595 221.268119 
L 288.788232 221.892304 
L 288.935869 221.237308 
L 289.083507 219.367477 
L 289.378781 220.719497 
L 289.526419 220.55622 
L 289.674056 220.988364 
L 290.116968 221.323388 
L 290.264606 221.505779 
L 290.412243 220.744309 
L 290.55988 220.814646 
L 290.707518 221.259245 
L 290.855155 220.684942 
L 291.002792 221.743106 
L 291.298067 221.022211 
L 291.445704 221.473315 
L 291.593342 222.633156 
L 291.740979 220.941588 
L 291.888616 222.761321 
L 292.036254 220.924338 
L 292.183891 222.687674 
L 292.331529 222.541435 
L 292.479166 222.156337 
L 292.626803 220.710342 
L 292.774441 222.393721 
L 292.922078 221.712365 
L 293.069715 222.279206 
L 293.217353 221.963385 
L 293.512627 223.229518 
L 293.807902 221.92881 
L 293.955539 222.86357 
L 294.103177 222.92064 
L 294.250814 221.354591 
L 294.398451 222.918061 
L 294.546089 222.974141 
L 294.693726 222.911248 
L 294.841364 220.882717 
L 294.989001 221.121641 
L 295.136638 222.8299 
L 295.284276 221.578226 
L 295.431913 223.642832 
L 295.57955 222.992398 
L 295.727188 223.411278 
L 295.874825 222.269954 
L 296.022462 222.322828 
L 296.1701 222.808267 
L 296.317737 222.115039 
L 296.465374 223.789697 
L 296.613012 223.360158 
L 296.760649 223.411355 
L 296.908287 221.234193 
L 297.055924 221.859267 
L 297.203561 223.928251 
L 297.351199 223.352295 
L 297.646473 223.958038 
L 297.794111 223.885097 
L 297.941748 223.548144 
L 298.089385 223.981649 
L 298.237023 225.676201 
L 298.38466 222.810161 
L 298.532297 224.48004 
L 298.679935 224.170706 
L 298.827572 225.009498 
L 298.97521 224.73228 
L 299.122847 224.055657 
L 299.270484 225.041545 
L 299.713396 224.364024 
L 299.861034 224.147807 
L 300.156308 224.861055 
L 300.303946 224.002789 
L 300.451583 224.045735 
L 300.59922 224.228263 
L 300.746858 223.83767 
L 300.894495 225.928596 
L 301.042133 224.99716 
L 301.18977 225.038462 
L 301.337407 224.003543 
L 301.485045 224.873307 
L 301.632682 224.65312 
L 301.780319 223.811696 
L 301.927957 224.312498 
L 302.075594 225.843975 
L 302.223231 225.195604 
L 302.370869 225.355586 
L 302.666143 226.778962 
L 302.813781 225.345953 
L 302.961418 226.174748 
L 303.109055 224.897097 
L 303.256693 225.922827 
L 303.551968 224.862002 
L 303.699605 225.035781 
L 303.847242 226.485712 
L 304.142517 225.895691 
L 304.290154 226.04302 
L 304.437792 225.958315 
L 304.585429 226.939788 
L 304.733066 225.778151 
L 304.880704 226.386637 
L 305.028341 226.191988 
L 305.175978 226.332843 
L 305.323616 227.177215 
L 305.471253 226.710096 
L 305.618891 225.69035 
L 305.766528 226.656107 
L 305.914165 226.573048 
L 306.061803 226.258143 
L 306.357077 227.796579 
L 306.652352 225.446013 
L 306.799989 226.707132 
L 306.947627 226.50392 
L 307.095264 226.523234 
L 307.242901 226.765068 
L 307.390539 227.395153 
L 307.538176 226.908019 
L 307.685814 226.924598 
L 307.833451 226.375178 
L 307.981088 226.268648 
L 308.128726 227.753078 
L 308.276363 227.488412 
L 308.424 228.291766 
L 308.571638 226.791552 
L 309.01455 228.255794 
L 309.162187 225.979871 
L 309.309824 226.495948 
L 309.457462 226.504199 
L 309.605099 226.390028 
L 309.752736 225.735746 
L 309.900374 226.643455 
L 310.048011 225.887325 
L 310.195649 227.308745 
L 310.490923 226.296018 
L 310.638561 226.298823 
L 310.933835 228.32761 
L 311.376747 225.90687 
L 311.524385 225.765946 
L 311.672022 227.520278 
L 311.819659 227.215603 
L 311.967297 227.979622 
L 312.114934 226.65743 
L 312.262572 226.653478 
L 312.410209 226.87762 
L 312.557846 225.59818 
L 312.705484 226.866975 
L 312.853121 226.747928 
L 313.000758 226.131814 
L 313.296033 226.610784 
L 313.44367 226.602647 
L 313.591308 226.475375 
L 313.738945 225.823295 
L 314.03422 227.011961 
L 314.181857 226.554794 
L 314.329495 225.349305 
L 314.477132 225.906627 
L 314.624769 227.374965 
L 314.772407 225.606687 
L 314.920044 227.047425 
L 315.067681 226.821162 
L 315.362956 225.960735 
L 315.510593 226.07461 
L 315.658231 226.976979 
L 315.805868 225.915843 
L 315.953505 225.767992 
L 316.101143 224.535563 
L 316.24878 224.85376 
L 316.396418 226.790376 
L 316.544055 226.207537 
L 316.691692 226.189593 
L 316.83933 226.841863 
L 316.986967 226.030745 
L 317.134604 226.367685 
L 317.282242 225.186677 
L 317.429879 225.586696 
L 317.577516 226.744137 
L 317.725154 226.171477 
L 317.872791 226.379082 
L 318.020428 224.934515 
L 318.168066 226.446225 
L 318.46334 224.391336 
L 318.758615 226.017165 
L 319.05389 225.970328 
L 319.201527 223.743887 
L 319.349165 226.577407 
L 319.496802 225.136479 
L 319.644439 225.873547 
L 319.792077 223.646144 
L 319.939714 225.33 
L 320.087351 224.291481 
L 320.234989 227.091938 
L 320.530263 226.060633 
L 320.677901 226.64678 
L 320.825538 224.475024 
L 321.120813 225.122903 
L 321.26845 226.036617 
L 321.416088 226.218053 
L 321.563725 225.874941 
L 321.859 224.579852 
L 322.301912 225.844743 
L 322.449549 224.324214 
L 322.597186 225.788294 
L 322.892461 224.382898 
L 323.040099 225.255536 
L 323.187736 223.87826 
L 323.483011 224.802328 
L 323.630648 224.092271 
L 323.778285 225.447056 
L 323.925923 225.306711 
L 324.07356 225.494456 
L 324.221197 224.115811 
L 324.368835 224.868044 
L 324.516472 223.910128 
L 324.664109 223.730332 
L 324.811747 224.528316 
L 324.959384 223.816586 
L 325.107022 224.069186 
L 325.254659 224.680502 
L 325.402296 224.648694 
L 325.549934 223.973771 
L 325.697571 225.557755 
L 325.845208 223.16407 
L 325.992846 223.290647 
L 326.140483 223.980659 
L 326.28812 223.672421 
L 326.435758 224.176021 
L 326.583395 223.882959 
L 326.731032 225.614572 
L 326.87867 223.397537 
L 327.173944 224.137239 
L 327.321582 223.979379 
L 327.469219 224.863806 
L 327.912131 222.371032 
L 328.059769 224.061355 
L 328.207406 224.375665 
L 328.355043 223.212491 
L 328.502681 223.715656 
L 328.650318 223.807618 
L 328.797955 222.820451 
L 328.945593 224.533915 
L 329.09323 222.6007 
L 329.240867 223.797174 
L 329.388505 223.121115 
L 329.536142 224.704066 
L 329.831417 223.021726 
L 329.979054 224.604598 
L 330.126692 223.223191 
L 330.274329 223.565051 
L 330.421966 222.604675 
L 330.717241 223.465076 
L 331.160153 223.118058 
L 331.30779 222.255388 
L 331.455428 220.168022 
L 331.603065 222.621192 
L 331.750703 222.723459 
L 332.045977 223.62097 
L 332.341252 221.866674 
L 332.488889 222.940913 
L 332.636527 222.782396 
L 332.784164 222.995605 
L 332.931801 221.732615 
L 333.079439 222.682058 
L 333.227076 220.420724 
L 333.374713 222.487109 
L 333.522351 221.599547 
L 333.669988 221.566519 
L 333.817625 222.120172 
L 333.965263 223.503997 
L 334.408175 220.35763 
L 334.70345 222.687396 
L 334.998724 220.421336 
L 335.146362 223.247495 
L 335.293999 221.659744 
L 335.441636 223.285988 
L 335.589274 220.657424 
L 335.736911 222.468717 
L 335.884548 222.197878 
L 336.032186 222.289346 
L 336.179823 221.476393 
L 336.327461 219.754662 
L 336.475098 221.952981 
L 336.622735 221.663037 
L 336.770373 222.019088 
L 336.91801 221.989909 
L 337.065647 222.647929 
L 337.213285 220.153589 
L 337.360922 221.517909 
L 337.508559 220.608048 
L 337.656197 220.738483 
L 337.803834 220.551295 
L 337.951471 222.258821 
L 338.099109 220.807576 
L 338.246746 220.625952 
L 338.394384 221.044761 
L 338.689658 220.383839 
L 338.837296 222.202285 
L 338.984933 221.210145 
L 339.13257 221.314826 
L 339.280208 220.274287 
L 339.427845 222.200884 
L 339.575482 220.965576 
L 339.72312 221.334939 
L 339.870757 220.478986 
L 340.018394 221.021067 
L 340.166032 220.858689 
L 340.313669 221.100165 
L 340.461307 220.666154 
L 340.608944 221.17624 
L 340.756581 221.02192 
L 340.904219 220.141747 
L 341.051856 220.838601 
L 341.199493 220.393282 
L 341.347131 221.752786 
L 341.790043 219.668206 
L 341.93768 219.473532 
L 342.232955 221.714411 
L 342.380592 220.19854 
L 342.528229 219.87288 
L 342.675867 220.832777 
L 342.823504 220.935093 
L 342.971142 222.198826 
L 343.118779 220.085249 
L 343.266416 220.743802 
L 343.414054 222.226152 
L 343.561691 219.394826 
L 343.709328 220.679988 
L 343.856966 220.262994 
L 344.004603 221.232811 
L 344.299878 219.292503 
L 344.447515 221.060045 
L 344.595152 218.722256 
L 344.74279 220.279879 
L 344.890427 219.840935 
L 345.038065 218.473981 
L 345.185702 219.947828 
L 345.333339 219.482824 
L 345.480977 219.767133 
L 345.628614 220.676274 
L 345.923889 219.411399 
L 346.071526 218.72338 
L 346.219163 219.376788 
L 346.366801 218.865983 
L 346.662075 221.7201 
L 346.809713 219.309647 
L 346.95735 220.757203 
L 347.252625 219.102251 
L 347.400262 220.099748 
L 347.5479 219.070826 
L 347.695537 219.367948 
L 347.843174 219.352735 
L 348.138449 220.517484 
L 348.286086 219.457203 
L 348.433724 219.442901 
L 348.581361 221.230353 
L 348.876636 220.081933 
L 349.024273 216.69195 
L 349.171911 221.559669 
L 349.319548 219.213978 
L 349.467185 219.634559 
L 349.76246 218.353715 
L 349.910097 220.361205 
L 350.057735 219.002033 
L 350.205372 220.220942 
L 350.353009 219.427786 
L 350.500647 219.557768 
L 350.648284 220.42555 
L 350.943559 219.530161 
L 351.091196 219.381771 
L 351.238833 218.926979 
L 351.386471 220.383104 
L 351.681746 218.050231 
L 351.829383 220.0057 
L 351.97702 219.745872 
L 352.124658 219.86814 
L 352.272295 219.733906 
L 352.419932 218.873936 
L 352.56757 219.45524 
L 352.715207 218.540357 
L 352.862844 219.012615 
L 353.010482 218.854458 
L 353.158119 219.296862 
L 353.305756 219.292824 
L 353.453394 219.696762 
L 353.748669 217.980826 
L 353.896306 219.134437 
L 354.043943 218.158255 
L 354.191581 220.402772 
L 354.486855 217.966047 
L 354.78213 220.502675 
L 354.929767 217.95887 
L 355.077405 217.956728 
L 355.225042 218.65026 
L 355.372679 220.494345 
L 355.520317 220.034987 
L 355.667954 218.644907 
L 355.815592 219.524646 
L 355.963229 219.247475 
L 356.110866 218.128889 
L 356.258504 218.304584 
L 356.406141 219.651731 
L 356.701416 220.025163 
L 356.849053 218.948658 
L 356.99669 220.797675 
L 357.144328 220.258075 
L 357.439602 220.023483 
L 357.58724 219.240719 
L 357.882514 220.89871 
L 358.177789 219.382629 
L 358.325427 217.12543 
L 358.473064 217.752233 
L 358.620701 217.753396 
L 358.768339 219.908237 
L 358.915976 216.661304 
L 359.211251 221.007649 
L 359.506525 219.395153 
L 359.654163 219.664911 
L 359.8018 220.389269 
L 359.949437 219.668847 
L 360.097075 219.670863 
L 360.244712 220.821624 
L 360.39235 219.928282 
L 360.539987 220.170652 
L 360.687624 218.665537 
L 360.835262 220.05584 
L 360.982899 220.05765 
L 361.130536 220.293731 
L 361.278174 219.814254 
L 361.425811 218.509562 
L 361.573448 220.298115 
L 361.721086 219.557768 
L 361.868723 217.981898 
L 362.01636 218.837098 
L 362.311635 218.991649 
L 362.459273 220.738235 
L 362.60691 220.414736 
L 362.754547 220.524569 
L 362.902185 219.819569 
L 363.049822 220.412562 
L 363.197459 220.063947 
L 363.492734 218.671945 
L 363.640371 220.405372 
L 363.788009 220.174091 
L 363.935646 220.171107 
L 364.083283 220.822742 
L 364.526196 219.79012 
L 364.673833 219.910219 
L 364.82147 218.126501 
L 364.969108 220.586275 
L 365.116745 220.788463 
L 365.41202 218.612832 
L 365.559657 220.868177 
L 365.707294 219.739094 
L 365.854932 221.047058 
L 366.150206 220.416481 
L 366.297844 220.921965 
L 366.445481 220.172676 
L 366.593118 220.045802 
L 366.888393 219.395907 
L 367.036031 218.962948 
L 367.183668 218.949289 
L 367.331305 220.096407 
L 367.478943 220.081368 
L 367.62658 219.949883 
L 367.774217 218.09142 
L 367.921855 218.244567 
L 368.069492 221.639293 
L 368.364767 219.493999 
L 368.512404 220.884481 
L 368.660041 220.671669 
L 368.807679 220.023468 
L 368.955316 219.88718 
L 369.102954 220.502901 
L 369.398228 220.247486 
L 369.693503 218.738224 
L 369.84114 220.56133 
L 369.988778 220.131665 
L 370.136415 220.202964 
L 370.284052 218.469406 
L 370.726964 221.069328 
L 371.022239 219.988023 
L 371.169877 220.699308 
L 371.317514 219.906449 
L 371.465151 220.527538 
L 371.760426 218.878853 
L 371.908063 219.624413 
L 372.203338 218.97464 
L 372.350975 220.330005 
L 372.498613 220.44794 
L 372.64625 219.369104 
L 372.793887 219.208313 
L 372.941525 218.704663 
L 373.089162 219.964942 
L 373.384437 218.159029 
L 373.532074 219.779935 
L 373.679712 218.735182 
L 373.827349 220.071053 
L 373.974986 219.668028 
L 374.122624 219.684221 
L 374.270261 218.567016 
L 374.417898 219.868606 
L 374.565536 219.549201 
L 374.713173 218.447798 
L 375.008448 219.397406 
L 375.156085 219.315742 
L 375.303722 216.810955 
L 375.598997 219.222126 
L 375.894272 219.275941 
L 376.041909 217.576961 
L 376.189547 218.52924 
L 376.337184 217.697529 
L 376.484821 217.983625 
L 376.632459 219.692738 
L 376.780096 217.40281 
L 376.927733 217.684288 
L 377.075371 217.097964 
L 377.370645 218.054627 
L 377.518283 217.355864 
L 377.66592 217.918308 
L 377.813558 217.886367 
L 377.961195 216.936709 
L 378.108832 217.586665 
L 378.25647 217.066189 
L 378.404107 215.46012 
L 378.699382 217.130338 
L 378.847019 216.520454 
L 378.994656 215.336192 
L 379.142294 216.28632 
L 379.289931 215.616504 
L 379.437568 216.303624 
L 379.585206 216.185083 
L 379.732843 214.635195 
L 379.880481 215.864517 
L 380.028118 214.507714 
L 380.175755 216.325264 
L 380.323393 214.687133 
L 380.47103 214.95157 
L 380.618667 214.646139 
L 380.913942 215.589574 
L 381.209217 212.863877 
L 381.504491 214.320156 
L 381.652129 214.38143 
L 381.799766 212.659291 
L 381.947403 212.668172 
L 382.095041 212.441186 
L 382.242678 212.568746 
L 382.390316 212.2292 
L 382.537953 212.473049 
L 382.68559 211.097041 
L 382.833228 211.677721 
L 383.128502 211.224049 
L 383.27614 211.516077 
L 383.866689 209.89968 
L 384.014326 209.483729 
L 384.161964 209.5758 
L 384.309601 210.126001 
L 384.457239 208.505641 
L 384.604876 209.010412 
L 384.752513 210.468675 
L 385.047788 207.349389 
L 385.195425 208.187356 
L 385.4907 206.665812 
L 385.638337 208.034985 
L 385.933612 205.276679 
L 386.081249 205.587004 
L 386.376524 204.393694 
L 386.524162 205.821134 
L 386.671799 200.650276 
L 386.967074 202.819569 
L 387.114711 202.182884 
L 387.262348 203.847381 
L 387.409986 203.844289 
L 387.557623 203.351394 
L 387.70526 203.850013 
L 387.852898 202.813161 
L 387.852898 202.813161 
" style="fill:none;stroke:#1f77b4;stroke-linecap:square;stroke-width:1.5;"/>
   </g>
   <g id="patch_3">
    <path d="M 46.965625 273.312 
L 46.965625 7.2 
" style="fill:none;stroke:#000000;stroke-linecap:square;stroke-linejoin:miter;stroke-width:0.8;"/>
   </g>
   <g id="patch_4">
    <path d="M 404.085625 273.312 
L 404.085625 7.2 
" style="fill:none;stroke:#000000;stroke-linecap:square;stroke-linejoin:miter;stroke-width:0.8;"/>
   </g>
   <g id="patch_5">
    <path d="M 46.965625 273.312 
L 404.085625 273.312 
" style="fill:none;stroke:#000000;stroke-linecap:square;stroke-linejoin:miter;stroke-width:0.8;"/>
   </g>
   <g id="patch_6">
    <path d="M 46.965625 7.2 
L 404.085625 7.2 
" style="fill:none;stroke:#000000;stroke-linecap:square;stroke-linejoin:miter;stroke-width:0.8;"/>
   </g>
  </g>
 </g>
 <defs>
  <clipPath id="p0ec150375f">
   <rect height="266.112" width="357.12" x="46.965625" y="7.2"/>
  </clipPath>
 </defs>
</svg>
