<?xml version="1.0" encoding="utf-8" standalone="no"?>
<!DOCTYPE svg PUBLIC "-//W3C//DTD SVG 1.1//EN"
  "http://www.w3.org/Graphics/SVG/1.1/DTD/svg11.dtd">
<svg height="313.545708pt" version="1.1" viewBox="0 0 411.285625 313.545708" width="411.285625pt" xmlns="http://www.w3.org/2000/svg" xmlns:xlink="http://www.w3.org/1999/xlink">
 <metadata>
  <rdf:RDF xmlns:cc="http://creativecommons.org/ns#" xmlns:dc="http://purl.org/dc/elements/1.1/" xmlns:rdf="http://www.w3.org/1999/02/22-rdf-syntax-ns#">
   <cc:Work>
    <dc:type rdf:resource="http://purl.org/dc/dcmitype/StillImage"/>
    <dc:date>2022-01-24T14:50:04.801380</dc:date>
    <dc:format>image/svg+xml</dc:format>
    <dc:creator>
     <cc:Agent>
      <dc:title>Matplotlib v3.4.2, https://matplotlib.org/</dc:title>
     </cc:Agent>
    </dc:creator>
   </cc:Work>
  </rdf:RDF>
 </metadata>
 <defs>
  <style type="text/css">*{stroke-linecap:butt;stroke-linejoin:round;}</style>
 </defs>
 <g id="figure_1">
  <g id="patch_1">
   <path d="M 0 313.545708 
L 411.285625 313.545708 
L 411.285625 0 
L 0 0 
z
" style="fill:#ffffff;"/>
  </g>
  <g id="axes_1">
   <g id="patch_2">
    <path d="M 46.965625 275.989458 
L 404.085625 275.989458 
L 404.085625 9.877458 
L 46.965625 9.877458 
z
" style="fill:#ffffff;"/>
   </g>
   <g id="matplotlib.axis_1">
    <g id="xtick_1">
     <g id="line2d_1">
      <defs>
       <path d="M 0 0 
L 0 3.5 
" id="mb837cf80e2" style="stroke:#000000;stroke-width:0.8;"/>
      </defs>
      <g>
       <use style="stroke:#000000;stroke-width:0.8;" x="77.888269" xlink:href="#mb837cf80e2" y="275.989458"/>
      </g>
     </g>
     <g id="text_1">
      <!-- −10 -->
      <g transform="translate(67.335925 290.587895)scale(0.1 -0.1)">
       <defs>
        <path d="M 678 2272 
L 4684 2272 
L 4684 1741 
L 678 1741 
L 678 2272 
z
" id="DejaVuSans-2212" transform="scale(0.015625)"/>
        <path d="M 794 531 
L 1825 531 
L 1825 4091 
L 703 3866 
L 703 4441 
L 1819 4666 
L 2450 4666 
L 2450 531 
L 3481 531 
L 3481 0 
L 794 0 
L 794 531 
z
" id="DejaVuSans-31" transform="scale(0.015625)"/>
        <path d="M 2034 4250 
Q 1547 4250 1301 3770 
Q 1056 3291 1056 2328 
Q 1056 1369 1301 889 
Q 1547 409 2034 409 
Q 2525 409 2770 889 
Q 3016 1369 3016 2328 
Q 3016 3291 2770 3770 
Q 2525 4250 2034 4250 
z
M 2034 4750 
Q 2819 4750 3233 4129 
Q 3647 3509 3647 2328 
Q 3647 1150 3233 529 
Q 2819 -91 2034 -91 
Q 1250 -91 836 529 
Q 422 1150 422 2328 
Q 422 3509 836 4129 
Q 1250 4750 2034 4750 
z
" id="DejaVuSans-30" transform="scale(0.015625)"/>
       </defs>
       <use xlink:href="#DejaVuSans-2212"/>
       <use x="83.789062" xlink:href="#DejaVuSans-31"/>
       <use x="147.412109" xlink:href="#DejaVuSans-30"/>
      </g>
     </g>
    </g>
    <g id="xtick_2">
     <g id="line2d_2">
      <g>
       <use style="stroke:#000000;stroke-width:0.8;" x="151.706947" xlink:href="#mb837cf80e2" y="275.989458"/>
      </g>
     </g>
     <g id="text_2">
      <!-- −5 -->
      <g transform="translate(144.335853 290.587895)scale(0.1 -0.1)">
       <defs>
        <path d="M 691 4666 
L 3169 4666 
L 3169 4134 
L 1269 4134 
L 1269 2991 
Q 1406 3038 1543 3061 
Q 1681 3084 1819 3084 
Q 2600 3084 3056 2656 
Q 3513 2228 3513 1497 
Q 3513 744 3044 326 
Q 2575 -91 1722 -91 
Q 1428 -91 1123 -41 
Q 819 9 494 109 
L 494 744 
Q 775 591 1075 516 
Q 1375 441 1709 441 
Q 2250 441 2565 725 
Q 2881 1009 2881 1497 
Q 2881 1984 2565 2268 
Q 2250 2553 1709 2553 
Q 1456 2553 1204 2497 
Q 953 2441 691 2322 
L 691 4666 
z
" id="DejaVuSans-35" transform="scale(0.015625)"/>
       </defs>
       <use xlink:href="#DejaVuSans-2212"/>
       <use x="83.789062" xlink:href="#DejaVuSans-35"/>
      </g>
     </g>
    </g>
    <g id="xtick_3">
     <g id="line2d_3">
      <g>
       <use style="stroke:#000000;stroke-width:0.8;" x="225.525625" xlink:href="#mb837cf80e2" y="275.989458"/>
      </g>
     </g>
     <g id="text_3">
      <!-- 0 -->
      <g transform="translate(222.344375 290.587895)scale(0.1 -0.1)">
       <use xlink:href="#DejaVuSans-30"/>
      </g>
     </g>
    </g>
    <g id="xtick_4">
     <g id="line2d_4">
      <g>
       <use style="stroke:#000000;stroke-width:0.8;" x="299.344303" xlink:href="#mb837cf80e2" y="275.989458"/>
      </g>
     </g>
     <g id="text_4">
      <!-- 5 -->
      <g transform="translate(296.163053 290.587895)scale(0.1 -0.1)">
       <use xlink:href="#DejaVuSans-35"/>
      </g>
     </g>
    </g>
    <g id="xtick_5">
     <g id="line2d_5">
      <g>
       <use style="stroke:#000000;stroke-width:0.8;" x="373.162981" xlink:href="#mb837cf80e2" y="275.989458"/>
      </g>
     </g>
     <g id="text_5">
      <!-- 10 -->
      <g transform="translate(366.800481 290.587895)scale(0.1 -0.1)">
       <use xlink:href="#DejaVuSans-31"/>
       <use x="63.623047" xlink:href="#DejaVuSans-30"/>
      </g>
     </g>
    </g>
    <g id="text_6">
     <!-- CV (Angstrom) -->
     <g transform="translate(188.9225 304.26602)scale(0.1 -0.1)">
      <defs>
       <path d="M 4122 4306 
L 4122 3641 
Q 3803 3938 3442 4084 
Q 3081 4231 2675 4231 
Q 1875 4231 1450 3742 
Q 1025 3253 1025 2328 
Q 1025 1406 1450 917 
Q 1875 428 2675 428 
Q 3081 428 3442 575 
Q 3803 722 4122 1019 
L 4122 359 
Q 3791 134 3420 21 
Q 3050 -91 2638 -91 
Q 1578 -91 968 557 
Q 359 1206 359 2328 
Q 359 3453 968 4101 
Q 1578 4750 2638 4750 
Q 3056 4750 3426 4639 
Q 3797 4528 4122 4306 
z
" id="DejaVuSans-43" transform="scale(0.015625)"/>
       <path d="M 1831 0 
L 50 4666 
L 709 4666 
L 2188 738 
L 3669 4666 
L 4325 4666 
L 2547 0 
L 1831 0 
z
" id="DejaVuSans-56" transform="scale(0.015625)"/>
       <path id="DejaVuSans-20" transform="scale(0.015625)"/>
       <path d="M 1984 4856 
Q 1566 4138 1362 3434 
Q 1159 2731 1159 2009 
Q 1159 1288 1364 580 
Q 1569 -128 1984 -844 
L 1484 -844 
Q 1016 -109 783 600 
Q 550 1309 550 2009 
Q 550 2706 781 3412 
Q 1013 4119 1484 4856 
L 1984 4856 
z
" id="DejaVuSans-28" transform="scale(0.015625)"/>
       <path d="M 2188 4044 
L 1331 1722 
L 3047 1722 
L 2188 4044 
z
M 1831 4666 
L 2547 4666 
L 4325 0 
L 3669 0 
L 3244 1197 
L 1141 1197 
L 716 0 
L 50 0 
L 1831 4666 
z
" id="DejaVuSans-41" transform="scale(0.015625)"/>
       <path d="M 3513 2113 
L 3513 0 
L 2938 0 
L 2938 2094 
Q 2938 2591 2744 2837 
Q 2550 3084 2163 3084 
Q 1697 3084 1428 2787 
Q 1159 2491 1159 1978 
L 1159 0 
L 581 0 
L 581 3500 
L 1159 3500 
L 1159 2956 
Q 1366 3272 1645 3428 
Q 1925 3584 2291 3584 
Q 2894 3584 3203 3211 
Q 3513 2838 3513 2113 
z
" id="DejaVuSans-6e" transform="scale(0.015625)"/>
       <path d="M 2906 1791 
Q 2906 2416 2648 2759 
Q 2391 3103 1925 3103 
Q 1463 3103 1205 2759 
Q 947 2416 947 1791 
Q 947 1169 1205 825 
Q 1463 481 1925 481 
Q 2391 481 2648 825 
Q 2906 1169 2906 1791 
z
M 3481 434 
Q 3481 -459 3084 -895 
Q 2688 -1331 1869 -1331 
Q 1566 -1331 1297 -1286 
Q 1028 -1241 775 -1147 
L 775 -588 
Q 1028 -725 1275 -790 
Q 1522 -856 1778 -856 
Q 2344 -856 2625 -561 
Q 2906 -266 2906 331 
L 2906 616 
Q 2728 306 2450 153 
Q 2172 0 1784 0 
Q 1141 0 747 490 
Q 353 981 353 1791 
Q 353 2603 747 3093 
Q 1141 3584 1784 3584 
Q 2172 3584 2450 3431 
Q 2728 3278 2906 2969 
L 2906 3500 
L 3481 3500 
L 3481 434 
z
" id="DejaVuSans-67" transform="scale(0.015625)"/>
       <path d="M 2834 3397 
L 2834 2853 
Q 2591 2978 2328 3040 
Q 2066 3103 1784 3103 
Q 1356 3103 1142 2972 
Q 928 2841 928 2578 
Q 928 2378 1081 2264 
Q 1234 2150 1697 2047 
L 1894 2003 
Q 2506 1872 2764 1633 
Q 3022 1394 3022 966 
Q 3022 478 2636 193 
Q 2250 -91 1575 -91 
Q 1294 -91 989 -36 
Q 684 19 347 128 
L 347 722 
Q 666 556 975 473 
Q 1284 391 1588 391 
Q 1994 391 2212 530 
Q 2431 669 2431 922 
Q 2431 1156 2273 1281 
Q 2116 1406 1581 1522 
L 1381 1569 
Q 847 1681 609 1914 
Q 372 2147 372 2553 
Q 372 3047 722 3315 
Q 1072 3584 1716 3584 
Q 2034 3584 2315 3537 
Q 2597 3491 2834 3397 
z
" id="DejaVuSans-73" transform="scale(0.015625)"/>
       <path d="M 1172 4494 
L 1172 3500 
L 2356 3500 
L 2356 3053 
L 1172 3053 
L 1172 1153 
Q 1172 725 1289 603 
Q 1406 481 1766 481 
L 2356 481 
L 2356 0 
L 1766 0 
Q 1100 0 847 248 
Q 594 497 594 1153 
L 594 3053 
L 172 3053 
L 172 3500 
L 594 3500 
L 594 4494 
L 1172 4494 
z
" id="DejaVuSans-74" transform="scale(0.015625)"/>
       <path d="M 2631 2963 
Q 2534 3019 2420 3045 
Q 2306 3072 2169 3072 
Q 1681 3072 1420 2755 
Q 1159 2438 1159 1844 
L 1159 0 
L 581 0 
L 581 3500 
L 1159 3500 
L 1159 2956 
Q 1341 3275 1631 3429 
Q 1922 3584 2338 3584 
Q 2397 3584 2469 3576 
Q 2541 3569 2628 3553 
L 2631 2963 
z
" id="DejaVuSans-72" transform="scale(0.015625)"/>
       <path d="M 1959 3097 
Q 1497 3097 1228 2736 
Q 959 2375 959 1747 
Q 959 1119 1226 758 
Q 1494 397 1959 397 
Q 2419 397 2687 759 
Q 2956 1122 2956 1747 
Q 2956 2369 2687 2733 
Q 2419 3097 1959 3097 
z
M 1959 3584 
Q 2709 3584 3137 3096 
Q 3566 2609 3566 1747 
Q 3566 888 3137 398 
Q 2709 -91 1959 -91 
Q 1206 -91 779 398 
Q 353 888 353 1747 
Q 353 2609 779 3096 
Q 1206 3584 1959 3584 
z
" id="DejaVuSans-6f" transform="scale(0.015625)"/>
       <path d="M 3328 2828 
Q 3544 3216 3844 3400 
Q 4144 3584 4550 3584 
Q 5097 3584 5394 3201 
Q 5691 2819 5691 2113 
L 5691 0 
L 5113 0 
L 5113 2094 
Q 5113 2597 4934 2840 
Q 4756 3084 4391 3084 
Q 3944 3084 3684 2787 
Q 3425 2491 3425 1978 
L 3425 0 
L 2847 0 
L 2847 2094 
Q 2847 2600 2669 2842 
Q 2491 3084 2119 3084 
Q 1678 3084 1418 2786 
Q 1159 2488 1159 1978 
L 1159 0 
L 581 0 
L 581 3500 
L 1159 3500 
L 1159 2956 
Q 1356 3278 1631 3431 
Q 1906 3584 2284 3584 
Q 2666 3584 2933 3390 
Q 3200 3197 3328 2828 
z
" id="DejaVuSans-6d" transform="scale(0.015625)"/>
       <path d="M 513 4856 
L 1013 4856 
Q 1481 4119 1714 3412 
Q 1947 2706 1947 2009 
Q 1947 1309 1714 600 
Q 1481 -109 1013 -844 
L 513 -844 
Q 928 -128 1133 580 
Q 1338 1288 1338 2009 
Q 1338 2731 1133 3434 
Q 928 4138 513 4856 
z
" id="DejaVuSans-29" transform="scale(0.015625)"/>
      </defs>
      <use xlink:href="#DejaVuSans-43"/>
      <use x="69.824219" xlink:href="#DejaVuSans-56"/>
      <use x="138.232422" xlink:href="#DejaVuSans-20"/>
      <use x="170.019531" xlink:href="#DejaVuSans-28"/>
      <use x="209.033203" xlink:href="#DejaVuSans-41"/>
      <use x="277.441406" xlink:href="#DejaVuSans-6e"/>
      <use x="340.820312" xlink:href="#DejaVuSans-67"/>
      <use x="404.296875" xlink:href="#DejaVuSans-73"/>
      <use x="456.396484" xlink:href="#DejaVuSans-74"/>
      <use x="495.605469" xlink:href="#DejaVuSans-72"/>
      <use x="534.46875" xlink:href="#DejaVuSans-6f"/>
      <use x="595.650391" xlink:href="#DejaVuSans-6d"/>
      <use x="693.0625" xlink:href="#DejaVuSans-29"/>
     </g>
    </g>
   </g>
   <g id="matplotlib.axis_2">
    <g id="ytick_1">
     <g id="line2d_6">
      <defs>
       <path d="M 0 0 
L -3.5 0 
" id="meb18631b13" style="stroke:#000000;stroke-width:0.8;"/>
      </defs>
      <g>
       <use style="stroke:#000000;stroke-width:0.8;" x="46.965625" xlink:href="#meb18631b13" y="263.893458"/>
      </g>
     </g>
     <g id="text_7">
      <!-- 0 -->
      <g transform="translate(33.603125 267.692676)scale(0.1 -0.1)">
       <use xlink:href="#DejaVuSans-30"/>
      </g>
     </g>
    </g>
    <g id="ytick_2">
     <g id="line2d_7">
      <g>
       <use style="stroke:#000000;stroke-width:0.8;" x="46.965625" xlink:href="#meb18631b13" y="227.765709"/>
      </g>
     </g>
     <g id="text_8">
      <!-- 20 -->
      <g transform="translate(27.240625 231.564928)scale(0.1 -0.1)">
       <defs>
        <path d="M 1228 531 
L 3431 531 
L 3431 0 
L 469 0 
L 469 531 
Q 828 903 1448 1529 
Q 2069 2156 2228 2338 
Q 2531 2678 2651 2914 
Q 2772 3150 2772 3378 
Q 2772 3750 2511 3984 
Q 2250 4219 1831 4219 
Q 1534 4219 1204 4116 
Q 875 4013 500 3803 
L 500 4441 
Q 881 4594 1212 4672 
Q 1544 4750 1819 4750 
Q 2544 4750 2975 4387 
Q 3406 4025 3406 3419 
Q 3406 3131 3298 2873 
Q 3191 2616 2906 2266 
Q 2828 2175 2409 1742 
Q 1991 1309 1228 531 
z
" id="DejaVuSans-32" transform="scale(0.015625)"/>
       </defs>
       <use xlink:href="#DejaVuSans-32"/>
       <use x="63.623047" xlink:href="#DejaVuSans-30"/>
      </g>
     </g>
    </g>
    <g id="ytick_3">
     <g id="line2d_8">
      <g>
       <use style="stroke:#000000;stroke-width:0.8;" x="46.965625" xlink:href="#meb18631b13" y="191.637961"/>
      </g>
     </g>
     <g id="text_9">
      <!-- 40 -->
      <g transform="translate(27.240625 195.43718)scale(0.1 -0.1)">
       <defs>
        <path d="M 2419 4116 
L 825 1625 
L 2419 1625 
L 2419 4116 
z
M 2253 4666 
L 3047 4666 
L 3047 1625 
L 3713 1625 
L 3713 1100 
L 3047 1100 
L 3047 0 
L 2419 0 
L 2419 1100 
L 313 1100 
L 313 1709 
L 2253 4666 
z
" id="DejaVuSans-34" transform="scale(0.015625)"/>
       </defs>
       <use xlink:href="#DejaVuSans-34"/>
       <use x="63.623047" xlink:href="#DejaVuSans-30"/>
      </g>
     </g>
    </g>
    <g id="ytick_4">
     <g id="line2d_9">
      <g>
       <use style="stroke:#000000;stroke-width:0.8;" x="46.965625" xlink:href="#meb18631b13" y="155.510212"/>
      </g>
     </g>
     <g id="text_10">
      <!-- 60 -->
      <g transform="translate(27.240625 159.309431)scale(0.1 -0.1)">
       <defs>
        <path d="M 2113 2584 
Q 1688 2584 1439 2293 
Q 1191 2003 1191 1497 
Q 1191 994 1439 701 
Q 1688 409 2113 409 
Q 2538 409 2786 701 
Q 3034 994 3034 1497 
Q 3034 2003 2786 2293 
Q 2538 2584 2113 2584 
z
M 3366 4563 
L 3366 3988 
Q 3128 4100 2886 4159 
Q 2644 4219 2406 4219 
Q 1781 4219 1451 3797 
Q 1122 3375 1075 2522 
Q 1259 2794 1537 2939 
Q 1816 3084 2150 3084 
Q 2853 3084 3261 2657 
Q 3669 2231 3669 1497 
Q 3669 778 3244 343 
Q 2819 -91 2113 -91 
Q 1303 -91 875 529 
Q 447 1150 447 2328 
Q 447 3434 972 4092 
Q 1497 4750 2381 4750 
Q 2619 4750 2861 4703 
Q 3103 4656 3366 4563 
z
" id="DejaVuSans-36" transform="scale(0.015625)"/>
       </defs>
       <use xlink:href="#DejaVuSans-36"/>
       <use x="63.623047" xlink:href="#DejaVuSans-30"/>
      </g>
     </g>
    </g>
    <g id="ytick_5">
     <g id="line2d_10">
      <g>
       <use style="stroke:#000000;stroke-width:0.8;" x="46.965625" xlink:href="#meb18631b13" y="119.382464"/>
      </g>
     </g>
     <g id="text_11">
      <!-- 80 -->
      <g transform="translate(27.240625 123.181683)scale(0.1 -0.1)">
       <defs>
        <path d="M 2034 2216 
Q 1584 2216 1326 1975 
Q 1069 1734 1069 1313 
Q 1069 891 1326 650 
Q 1584 409 2034 409 
Q 2484 409 2743 651 
Q 3003 894 3003 1313 
Q 3003 1734 2745 1975 
Q 2488 2216 2034 2216 
z
M 1403 2484 
Q 997 2584 770 2862 
Q 544 3141 544 3541 
Q 544 4100 942 4425 
Q 1341 4750 2034 4750 
Q 2731 4750 3128 4425 
Q 3525 4100 3525 3541 
Q 3525 3141 3298 2862 
Q 3072 2584 2669 2484 
Q 3125 2378 3379 2068 
Q 3634 1759 3634 1313 
Q 3634 634 3220 271 
Q 2806 -91 2034 -91 
Q 1263 -91 848 271 
Q 434 634 434 1313 
Q 434 1759 690 2068 
Q 947 2378 1403 2484 
z
M 1172 3481 
Q 1172 3119 1398 2916 
Q 1625 2713 2034 2713 
Q 2441 2713 2670 2916 
Q 2900 3119 2900 3481 
Q 2900 3844 2670 4047 
Q 2441 4250 2034 4250 
Q 1625 4250 1398 4047 
Q 1172 3844 1172 3481 
z
" id="DejaVuSans-38" transform="scale(0.015625)"/>
       </defs>
       <use xlink:href="#DejaVuSans-38"/>
       <use x="63.623047" xlink:href="#DejaVuSans-30"/>
      </g>
     </g>
    </g>
    <g id="ytick_6">
     <g id="line2d_11">
      <g>
       <use style="stroke:#000000;stroke-width:0.8;" x="46.965625" xlink:href="#meb18631b13" y="83.254716"/>
      </g>
     </g>
     <g id="text_12">
      <!-- 100 -->
      <g transform="translate(20.878125 87.053934)scale(0.1 -0.1)">
       <use xlink:href="#DejaVuSans-31"/>
       <use x="63.623047" xlink:href="#DejaVuSans-30"/>
       <use x="127.246094" xlink:href="#DejaVuSans-30"/>
      </g>
     </g>
    </g>
    <g id="ytick_7">
     <g id="line2d_12">
      <g>
       <use style="stroke:#000000;stroke-width:0.8;" x="46.965625" xlink:href="#meb18631b13" y="47.126967"/>
      </g>
     </g>
     <g id="text_13">
      <!-- 120 -->
      <g transform="translate(20.878125 50.926186)scale(0.1 -0.1)">
       <use xlink:href="#DejaVuSans-31"/>
       <use x="63.623047" xlink:href="#DejaVuSans-32"/>
       <use x="127.246094" xlink:href="#DejaVuSans-30"/>
      </g>
     </g>
    </g>
    <g id="ytick_8">
     <g id="line2d_13">
      <g>
       <use style="stroke:#000000;stroke-width:0.8;" x="46.965625" xlink:href="#meb18631b13" y="10.999219"/>
      </g>
     </g>
     <g id="text_14">
      <!-- 140 -->
      <g transform="translate(20.878125 14.798438)scale(0.1 -0.1)">
       <use xlink:href="#DejaVuSans-31"/>
       <use x="63.623047" xlink:href="#DejaVuSans-34"/>
       <use x="127.246094" xlink:href="#DejaVuSans-30"/>
      </g>
     </g>
    </g>
    <g id="text_15">
     <!-- F (kJ/mol) -->
     <g transform="translate(14.798438 166.673301)rotate(-90)scale(0.1 -0.1)">
      <defs>
       <path d="M 628 4666 
L 3309 4666 
L 3309 4134 
L 1259 4134 
L 1259 2759 
L 3109 2759 
L 3109 2228 
L 1259 2228 
L 1259 0 
L 628 0 
L 628 4666 
z
" id="DejaVuSans-46" transform="scale(0.015625)"/>
       <path d="M 581 4863 
L 1159 4863 
L 1159 1991 
L 2875 3500 
L 3609 3500 
L 1753 1863 
L 3688 0 
L 2938 0 
L 1159 1709 
L 1159 0 
L 581 0 
L 581 4863 
z
" id="DejaVuSans-6b" transform="scale(0.015625)"/>
       <path d="M 628 4666 
L 1259 4666 
L 1259 325 
Q 1259 -519 939 -900 
Q 619 -1281 -91 -1281 
L -331 -1281 
L -331 -750 
L -134 -750 
Q 284 -750 456 -515 
Q 628 -281 628 325 
L 628 4666 
z
" id="DejaVuSans-4a" transform="scale(0.015625)"/>
       <path d="M 1625 4666 
L 2156 4666 
L 531 -594 
L 0 -594 
L 1625 4666 
z
" id="DejaVuSans-2f" transform="scale(0.015625)"/>
       <path d="M 603 4863 
L 1178 4863 
L 1178 0 
L 603 0 
L 603 4863 
z
" id="DejaVuSans-6c" transform="scale(0.015625)"/>
      </defs>
      <use xlink:href="#DejaVuSans-46"/>
      <use x="57.519531" xlink:href="#DejaVuSans-20"/>
      <use x="89.306641" xlink:href="#DejaVuSans-28"/>
      <use x="128.320312" xlink:href="#DejaVuSans-6b"/>
      <use x="186.230469" xlink:href="#DejaVuSans-4a"/>
      <use x="215.722656" xlink:href="#DejaVuSans-2f"/>
      <use x="249.414062" xlink:href="#DejaVuSans-6d"/>
      <use x="346.826172" xlink:href="#DejaVuSans-6f"/>
      <use x="408.007812" xlink:href="#DejaVuSans-6c"/>
      <use x="435.791016" xlink:href="#DejaVuSans-29"/>
     </g>
    </g>
   </g>
   <g id="line2d_14">
    <path clip-path="url(#paf41c33b9b)" d="M 63.198352 221.949754 
L 63.34599 229.199246 
L 63.493627 230.022696 
L 63.641264 229.207318 
L 63.788902 226.915929 
L 63.936539 230.748015 
L 64.084176 225.121877 
L 64.231814 230.094511 
L 64.379451 229.299652 
L 64.527088 229.330328 
L 64.674726 230.881081 
L 64.822363 228.398286 
L 64.970001 233.75166 
L 65.117638 232.14139 
L 65.265275 232.666635 
L 65.412913 233.903185 
L 65.56055 232.304574 
L 65.708187 235.489804 
L 65.855825 233.336713 
L 66.003462 233.406353 
L 66.151099 236.173417 
L 66.298737 233.94882 
L 66.446374 236.100054 
L 66.594011 234.113828 
L 66.741649 236.028626 
L 66.889286 235.589325 
L 67.036924 236.909467 
L 67.184561 236.055675 
L 67.332198 236.414911 
L 67.479836 238.000095 
L 67.627473 235.161982 
L 67.922748 237.958958 
L 68.070385 237.447052 
L 68.218022 237.56793 
L 68.513297 239.936313 
L 68.660934 237.717145 
L 68.808572 239.907637 
L 68.956209 239.731953 
L 69.103847 239.869786 
L 69.251484 240.750506 
L 69.399121 240.754773 
L 69.546759 241.038764 
L 69.694396 240.757007 
L 69.989671 240.748226 
L 70.137308 242.158264 
L 70.284945 242.064116 
L 70.432583 243.453662 
L 70.58022 243.203752 
L 70.727857 244.661698 
L 70.875495 244.035644 
L 71.023132 244.103663 
L 71.170769 242.491831 
L 71.466044 245.493108 
L 71.613682 244.873851 
L 71.761319 245.500599 
L 71.908956 243.342179 
L 72.056594 245.093175 
L 72.204231 244.235918 
L 72.351868 245.926493 
L 72.647143 244.066531 
L 72.79478 246.168429 
L 72.942418 246.344657 
L 73.090055 246.111174 
L 73.237692 246.28768 
L 73.38533 247.679218 
L 73.680605 246.816819 
L 73.828242 246.992774 
L 73.975879 248.849934 
L 74.123517 247.75342 
L 74.271154 248.392972 
L 74.418791 248.003043 
L 74.566429 249.90205 
L 74.714066 249.569461 
L 74.861703 248.619755 
L 75.009341 250.617531 
L 75.304615 249.030323 
L 75.452253 250.341556 
L 75.59989 250.508168 
L 75.747528 250.434275 
L 76.19044 251.003915 
L 76.338077 251.082804 
L 76.633352 251.714906 
L 76.780989 251.033744 
L 76.928626 251.368079 
L 77.076264 251.152559 
L 77.223901 252.172628 
L 77.519176 250.873689 
L 77.81445 253.28158 
L 77.962088 252.980573 
L 78.109725 253.04303 
L 78.257363 251.586316 
L 78.552637 253.610485 
L 78.847912 252.851931 
L 78.995549 253.437827 
L 79.143187 252.270249 
L 79.290824 254.027284 
L 79.586099 253.48647 
L 79.733736 254.477367 
L 79.881373 254.353769 
L 80.176648 252.885244 
L 80.471923 255.582484 
L 80.61956 254.005862 
L 80.767198 255.437632 
L 80.914835 255.229717 
L 81.062472 256.358308 
L 81.21011 255.681059 
L 81.357747 255.545431 
L 81.505384 254.939327 
L 81.653022 255.227704 
L 81.800659 255.13905 
L 81.948296 255.692195 
L 82.095934 253.739447 
L 82.391209 255.708689 
L 82.538846 255.980881 
L 82.686483 254.976799 
L 82.981758 256.336089 
L 83.129395 256.33522 
L 83.572307 255.492954 
L 83.867582 257.329416 
L 84.015219 255.845944 
L 84.162857 256.907679 
L 84.310494 255.288635 
L 84.458132 257.562324 
L 84.753406 255.514297 
L 84.901044 257.283877 
L 85.048681 257.083057 
L 85.196318 255.184526 
L 85.491593 258.591015 
L 85.63923 256.428132 
L 85.786868 257.431817 
L 86.22978 256.579066 
L 86.377417 255.426409 
L 86.525054 257.26577 
L 86.672692 256.271525 
L 86.820329 257.88854 
L 86.967967 257.240946 
L 87.263241 257.364474 
L 87.410879 255.373138 
L 87.558516 256.507732 
L 87.706153 256.567578 
L 87.853791 256.488261 
L 88.001428 258.083216 
L 88.149065 257.722112 
L 88.44434 256.577619 
L 88.739615 258.469234 
L 88.887252 256.288455 
L 89.03489 258.481842 
L 89.182527 258.435767 
L 89.330164 256.29014 
L 89.477802 258.441305 
L 89.773076 257.356205 
L 89.920714 256.505228 
L 90.215988 258.492724 
L 90.363626 258.202467 
L 90.511263 258.254245 
L 90.6589 259.263441 
L 90.954175 257.342554 
L 91.101813 258.214587 
L 91.24945 257.132491 
L 91.397087 259.115431 
L 91.544725 258.23766 
L 91.692362 256.395414 
L 91.839999 256.636461 
L 91.987637 259.416625 
L 92.135274 257.587083 
L 92.282911 258.73347 
L 92.430549 258.902149 
L 92.578186 257.885402 
L 92.873461 258.676257 
L 93.021098 258.029646 
L 93.168736 258.225227 
L 93.316373 259.747295 
L 93.611648 256.822907 
L 93.759285 259.212785 
L 93.906922 258.879159 
L 94.202197 257.404278 
L 94.349834 258.747631 
L 94.497472 259.067842 
L 94.645109 261.199274 
L 94.792746 260.113802 
L 94.940384 260.160594 
L 95.235658 259.802929 
L 95.383296 260.509964 
L 95.530933 260.238132 
L 95.678571 259.571436 
L 95.826208 260.219168 
L 95.973845 259.398306 
L 96.26912 260.785834 
L 96.564395 259.441482 
L 97.007307 261.010398 
L 97.302581 260.317726 
L 97.450219 258.018889 
L 97.745494 261.620314 
L 98.040768 260.408991 
L 98.336043 261.693823 
L 98.48368 260.406709 
L 98.631318 260.57443 
L 98.926592 261.759278 
L 99.07423 259.051413 
L 99.221867 260.476026 
L 99.369504 260.772307 
L 99.517142 261.396602 
L 99.664779 260.721559 
L 99.812417 261.471907 
L 99.960054 259.948656 
L 100.107691 261.203042 
L 100.255329 261.470225 
L 100.402966 261.274714 
L 100.698241 261.344499 
L 100.993515 262.648891 
L 101.28879 261.595249 
L 101.436427 262.468124 
L 101.584065 260.906359 
L 101.731702 262.130115 
L 101.879339 261.603724 
L 102.026977 262.494608 
L 102.174614 262.620991 
L 102.322252 261.692161 
L 102.617526 263.247353 
L 102.765164 261.775434 
L 102.912801 262.252949 
L 103.060438 262.059064 
L 103.208076 262.905886 
L 103.355713 262.109087 
L 103.50335 263.315287 
L 103.650988 262.042469 
L 103.798625 263.775096 
L 103.946262 261.599709 
L 104.0939 262.8525 
L 104.241537 261.511221 
L 104.536812 262.394116 
L 104.684449 261.569226 
L 104.832087 263.754295 
L 104.979724 262.105535 
L 105.274999 262.254878 
L 105.422636 262.269956 
L 105.717911 262.412025 
L 105.865548 263.339339 
L 106.013185 262.656967 
L 106.160823 263.45403 
L 106.30846 263.554003 
L 106.456098 263.19601 
L 106.603735 263.205314 
L 106.751372 262.91671 
L 106.89901 261.762863 
L 107.046647 263.41668 
L 107.194284 263.690859 
L 107.341922 262.514429 
L 107.489559 263.340923 
L 107.784834 262.527294 
L 107.932471 263.256793 
L 108.080108 261.236096 
L 108.375383 262.963947 
L 108.523021 262.534538 
L 108.670658 262.753703 
L 108.818295 262.643752 
L 108.965933 262.055691 
L 109.11357 263.70979 
L 109.261207 262.049445 
L 109.556482 263.697293 
L 109.704119 262.034875 
L 109.851757 261.771102 
L 110.147031 263.118606 
L 110.294669 261.878962 
L 110.589943 263.188759 
L 110.737581 262.337826 
L 110.885218 262.209921 
L 111.032856 262.429538 
L 111.180493 262.186301 
L 111.32813 263.13131 
L 111.475768 262.160222 
L 111.623405 263.893458 
L 111.771042 261.888154 
L 111.91868 262.977524 
L 112.066317 262.657999 
L 112.213954 263.23034 
L 112.361592 262.519039 
L 112.509229 263.008572 
L 112.656866 259.57046 
L 112.952141 263.822909 
L 113.099779 261.733118 
L 113.247416 262.718816 
L 113.395053 261.566269 
L 113.542691 261.796011 
L 113.837965 262.734411 
L 113.985603 262.19399 
L 114.13324 262.489808 
L 114.280877 261.686311 
L 114.428515 260.24345 
L 114.576152 260.383723 
L 114.723789 261.100046 
L 114.871427 262.473148 
L 115.019064 260.621461 
L 115.314339 262.781406 
L 115.461976 262.166961 
L 115.609614 262.729225 
L 115.757251 261.05591 
L 116.200163 262.236751 
L 116.3478 260.228986 
L 116.643075 261.389611 
L 117.085987 260.083364 
L 117.381262 262.823984 
L 117.528899 258.947645 
L 117.676537 261.839467 
L 117.971811 261.347111 
L 118.119449 260.309822 
L 118.267086 260.681477 
L 118.414723 260.24535 
L 118.709998 261.40522 
L 119.005273 261.230431 
L 119.15291 259.63682 
L 119.300547 259.445162 
L 119.448185 261.018549 
L 119.595822 260.383051 
L 119.74346 260.950744 
L 119.891097 260.565386 
L 120.038734 260.768398 
L 120.334009 259.947052 
L 120.481646 260.047124 
L 120.629284 260.012622 
L 120.776921 260.108673 
L 120.924558 259.943454 
L 121.072196 260.409953 
L 121.36747 259.27543 
L 121.515108 261.067596 
L 121.662745 261.032814 
L 121.810383 259.600529 
L 122.253295 260.688614 
L 122.400932 259.853134 
L 122.548569 260.512784 
L 122.696207 260.143937 
L 122.843844 259.356277 
L 122.991481 260.817805 
L 123.286756 260.2293 
L 123.434393 257.965277 
L 123.582031 260.373775 
L 123.729668 258.716601 
L 123.877306 259.376048 
L 124.024943 259.075794 
L 124.17258 259.90742 
L 124.320218 259.758183 
L 124.615492 258.796492 
L 124.76313 259.766751 
L 124.910767 258.999327 
L 125.058404 260.125903 
L 125.206042 259.059693 
L 125.648954 258.407815 
L 125.796591 257.750452 
L 125.944228 259.135318 
L 126.239503 257.968297 
L 126.387141 259.382785 
L 126.682415 258.712574 
L 126.830053 257.831218 
L 126.97769 258.514054 
L 127.125327 258.345861 
L 127.272965 259.290414 
L 127.420602 257.37493 
L 127.568239 259.332658 
L 127.715877 258.213216 
L 127.863514 259.774038 
L 128.158789 257.212023 
L 128.306426 259.062397 
L 128.454064 257.470598 
L 128.749338 259.286678 
L 129.044613 258.063716 
L 129.19225 257.316789 
L 129.339888 258.504697 
L 129.635162 256.183289 
L 129.7828 258.867367 
L 129.930437 256.847667 
L 130.078074 258.589946 
L 130.373349 257.084349 
L 130.520987 257.209131 
L 130.668624 258.477601 
L 130.816261 257.583286 
L 130.963899 257.555955 
L 131.259173 257.893934 
L 131.554448 256.01369 
L 131.99736 257.761956 
L 132.292635 256.736124 
L 132.440272 256.710584 
L 132.735547 257.877875 
L 132.883184 258.513411 
L 133.030822 255.757478 
L 133.178459 256.585495 
L 133.326096 255.892285 
L 133.621371 257.360007 
L 133.769008 256.789335 
L 133.916646 258.025444 
L 134.21192 256.418659 
L 134.507195 258.041919 
L 134.654832 257.067441 
L 134.80247 257.302889 
L 134.950107 256.30684 
L 135.245382 257.713114 
L 135.393019 258.121678 
L 135.540657 256.375456 
L 135.688294 256.646022 
L 135.835931 256.182584 
L 135.983569 257.26073 
L 136.131206 256.143821 
L 136.278843 257.222655 
L 136.426481 255.784465 
L 136.574118 256.935588 
L 136.721755 256.370945 
L 136.869393 257.150674 
L 137.01703 256.618039 
L 137.164668 257.353949 
L 137.312305 257.337491 
L 137.60758 256.552856 
L 137.755217 256.398718 
L 137.902854 258.018699 
L 138.050492 256.368664 
L 138.198129 257.579342 
L 138.493404 255.213472 
L 139.083953 257.277708 
L 139.231591 256.259524 
L 139.379228 257.021311 
L 139.526865 256.373349 
L 139.674503 256.626394 
L 139.82214 255.609108 
L 140.117415 257.304378 
L 140.412689 256.569239 
L 140.707964 257.035457 
L 140.855601 255.198182 
L 141.003239 257.014976 
L 141.150876 255.348205 
L 141.298514 256.507833 
L 141.446151 254.406376 
L 141.741426 255.474919 
L 141.889063 256.722094 
L 142.0367 256.833899 
L 142.184338 257.87844 
L 142.479612 256.440059 
L 142.62725 256.6833 
L 142.774887 254.334063 
L 142.922524 257.347144 
L 143.217799 255.860901 
L 143.365436 255.855485 
L 143.513074 256.767803 
L 143.660711 255.988818 
L 144.103623 255.533544 
L 144.251261 255.038382 
L 144.398898 256.501901 
L 144.546535 256.372609 
L 144.694173 257.401733 
L 144.84181 255.521723 
L 144.989447 255.520509 
L 145.137085 256.617365 
L 145.284722 254.666521 
L 145.432359 256.235793 
L 145.727634 256.737786 
L 145.875272 256.73872 
L 146.170546 256.240412 
L 146.318184 256.242309 
L 146.465821 255.971347 
L 146.613458 255.973838 
L 146.761096 253.858898 
L 146.908733 256.633816 
L 147.204008 256.640709 
L 147.351645 256.521085 
L 147.499282 255.994458 
L 147.64692 257.0042 
L 147.942195 254.895817 
L 148.089832 257.23838 
L 148.385107 254.727604 
L 148.532744 256.30268 
L 148.680381 254.547466 
L 148.828019 256.445379 
L 148.975656 256.451776 
L 149.123293 256.708797 
L 149.270931 252.336731 
L 149.418568 256.722824 
L 149.566205 256.076072 
L 149.713843 257.309006 
L 150.009117 256.754073 
L 150.156755 255.342923 
L 150.304392 256.647971 
L 150.45203 255.190841 
L 150.599667 255.534212 
L 150.747304 255.033368 
L 150.894942 257.04713 
L 151.190216 257.61193 
L 151.337854 256.045179 
L 151.633128 256.865809 
L 151.780766 256.878072 
L 151.928403 256.50971 
L 152.07604 253.900725 
L 152.223678 257.37961 
L 152.371315 255.164376 
L 152.66659 257.841357 
L 152.814227 256.974203 
L 153.109502 254.233013 
L 153.404777 257.157049 
L 153.552414 257.053368 
L 153.847689 256.142271 
L 153.995326 258.550494 
L 154.290601 255.884234 
L 154.438238 257.509424 
L 154.733513 256.397817 
L 154.88115 257.565038 
L 155.028788 257.583967 
L 155.176425 256.45459 
L 155.324062 256.755558 
L 155.4717 255.148341 
L 155.619337 257.987169 
L 155.766974 258.211699 
L 155.914612 257.099154 
L 156.209886 257.266048 
L 156.357524 257.980747 
L 156.505161 255.479495 
L 156.652799 257.570354 
L 156.800436 255.520232 
L 157.095711 257.862963 
L 157.243348 257.652516 
L 157.390985 256.608158 
L 157.538623 257.573934 
L 157.68626 255.042817 
L 157.833897 257.234852 
L 157.981535 256.217252 
L 158.276809 256.581646 
L 158.424447 255.934244 
L 158.572084 259.255531 
L 158.719721 257.08947 
L 158.867359 258.843131 
L 159.014996 256.020468 
L 159.162634 258.045875 
L 159.310271 257.950685 
L 159.605546 257.358943 
L 159.753183 258.467619 
L 160.048458 256.35108 
L 160.196095 256.196573 
L 160.343732 257.861804 
L 160.49137 258.244716 
L 160.639007 257.375631 
L 160.786644 258.514572 
L 160.934282 256.654597 
L 161.081919 258.558995 
L 161.229557 258.238753 
L 161.377194 258.711758 
L 161.524831 256.906795 
L 161.672469 258.646981 
L 161.820106 257.825157 
L 161.967743 259.008413 
L 162.115381 259.131033 
L 162.263018 257.014409 
L 162.558293 259.389749 
L 162.70593 259.009389 
L 162.853567 257.971383 
L 163.148842 259.469553 
L 163.29648 257.31305 
L 163.444117 258.549625 
L 163.591754 257.650574 
L 163.739392 258.465663 
L 163.887029 256.140674 
L 164.034666 258.851341 
L 164.182304 259.497549 
L 164.329941 257.878357 
L 164.477578 259.328664 
L 164.625216 259.343553 
L 164.772853 259.55816 
L 164.92049 259.161994 
L 165.068128 258.223014 
L 165.215765 258.101 
L 165.363403 258.37797 
L 165.51104 258.124033 
L 166.396864 259.864227 
L 166.692139 258.578976 
L 166.839776 260.73205 
L 166.987413 259.387009 
L 167.282688 259.979226 
L 167.430325 258.590437 
L 167.577963 258.589724 
L 167.7256 260.244792 
L 167.873238 258.458045 
L 168.31615 259.865064 
L 168.463787 259.25541 
L 168.611424 259.940571 
L 168.906699 260.008296 
L 169.201974 258.858987 
L 169.349611 260.930173 
L 169.644886 258.047845 
L 169.792523 258.891074 
L 169.940161 260.539464 
L 170.087798 258.362431 
L 170.235435 260.480691 
L 170.383073 260.04121 
L 170.53071 260.488334 
L 170.678347 259.519556 
L 170.825985 259.477303 
L 170.973622 260.12624 
L 171.121259 259.287605 
L 171.268897 259.77592 
L 171.416534 259.633013 
L 171.564171 258.389475 
L 171.711809 259.328924 
L 171.859446 258.979285 
L 172.449996 260.435953 
L 172.597633 259.410409 
L 172.74527 259.459129 
L 172.892908 260.179527 
L 173.188182 259.800406 
L 173.33582 259.728015 
L 173.483457 259.893216 
L 173.631094 259.363134 
L 173.778732 259.809568 
L 173.926369 258.005363 
L 174.221644 259.900411 
L 174.369281 258.827711 
L 174.516919 259.233092 
L 174.664556 259.011903 
L 174.812193 259.549566 
L 175.107468 258.737224 
L 175.255105 258.523673 
L 175.402743 258.783964 
L 175.698017 258.651757 
L 175.845655 258.353305 
L 175.993292 258.905108 
L 176.140929 258.55761 
L 176.436204 258.406457 
L 176.583842 258.037599 
L 176.731479 258.347415 
L 176.879116 257.528189 
L 177.026754 257.84504 
L 177.174391 257.726261 
L 177.322028 256.71221 
L 177.469666 256.950134 
L 177.617303 256.782632 
L 177.912578 256.919661 
L 178.060215 256.595667 
L 178.207852 256.761501 
L 178.35549 256.074315 
L 178.503127 256.141153 
L 178.798402 255.285747 
L 178.946039 255.54462 
L 179.093677 254.079877 
L 179.241314 254.477829 
L 179.388951 254.545789 
L 179.684226 253.656548 
L 179.831863 253.853226 
L 180.57005 252.481076 
L 180.717688 252.494967 
L 181.012962 251.604871 
L 181.308237 252.171703 
L 181.455874 251.922339 
L 181.603512 250.598732 
L 181.751149 251.107782 
L 181.898786 251.134725 
L 182.046424 251.433545 
L 182.194061 251.236432 
L 182.341698 250.640506 
L 182.489336 250.890754 
L 182.932248 250.004076 
L 183.37516 248.995798 
L 183.522797 249.256024 
L 183.818072 248.190819 
L 183.965709 247.999423 
L 184.260984 247.314262 
L 184.408621 247.349333 
L 184.703896 246.104405 
L 184.851533 246.081627 
L 185.146808 244.549854 
L 185.442083 243.77101 
L 185.58972 242.823923 
L 185.737358 243.107374 
L 186.623182 239.948947 
L 186.918456 239.674772 
L 187.361369 237.657391 
L 187.656643 237.453417 
L 187.951918 236.155759 
L 188.247193 235.809999 
L 188.39483 234.616627 
L 188.542467 234.460083 
L 188.690105 234.590006 
L 188.837742 233.754751 
L 188.985379 233.739357 
L 190.166478 229.457875 
L 190.314116 229.376427 
L 190.757028 227.26984 
L 191.495214 224.244345 
L 191.790489 223.001603 
L 191.938127 222.047926 
L 192.085764 222.390336 
L 192.528676 220.123686 
L 192.971588 218.088457 
L 193.266863 217.040667 
L 193.562137 215.627819 
L 193.709775 215.365411 
L 194.152687 213.06039 
L 194.300324 212.715771 
L 194.447962 211.51237 
L 194.595599 211.482534 
L 195.038511 209.810478 
L 195.186148 209.769473 
L 195.62906 207.974271 
L 195.776698 207.440691 
L 195.924335 205.608411 
L 196.071973 205.70221 
L 196.21961 205.543179 
L 196.367247 204.636934 
L 196.514885 204.4327 
L 196.662522 203.913711 
L 196.957797 202.695971 
L 197.843621 198.401852 
L 198.138895 197.934655 
L 198.43417 195.850787 
L 198.729445 195.07328 
L 199.615269 190.073283 
L 199.762906 190.567414 
L 200.058181 188.952954 
L 200.353456 187.630604 
L 200.501093 187.46108 
L 200.796368 186.300433 
L 201.091643 184.736313 
L 201.23928 184.790101 
L 201.534555 182.962646 
L 202.125104 180.553493 
L 202.420379 179.064784 
L 202.568016 179.341941 
L 202.715654 178.362908 
L 202.863291 178.166588 
L 203.010928 176.967501 
L 203.158566 176.815531 
L 203.306203 175.69181 
L 203.45384 176.011723 
L 203.601478 175.217007 
L 203.749115 175.079781 
L 203.896752 174.100437 
L 204.04439 174.354941 
L 204.339664 172.5255 
L 205.373126 167.688562 
L 205.668401 166.517927 
L 206.406587 163.818437 
L 206.554225 162.273777 
L 206.701862 162.249371 
L 206.849499 161.881894 
L 206.997137 160.381013 
L 207.144774 160.096581 
L 207.587686 157.606632 
L 207.882961 156.739031 
L 208.030598 155.33185 
L 208.178236 155.220992 
L 208.47351 153.950178 
L 209.06406 150.686007 
L 209.211697 150.830903 
L 209.654609 148.966793 
L 209.949884 147.734618 
L 210.097521 147.537548 
L 210.688071 144.692658 
L 210.835708 144.054685 
L 210.983345 143.930718 
L 211.27862 142.578782 
L 211.721532 140.551068 
L 211.86917 140.248674 
L 212.164444 138.396045 
L 212.312082 138.03179 
L 212.607356 136.012612 
L 212.754994 136.140766 
L 213.050268 133.697627 
L 213.197906 133.668873 
L 213.640818 130.972768 
L 213.788455 130.789781 
L 214.231367 128.316585 
L 214.674279 126.765654 
L 215.264829 123.398172 
L 215.560103 122.047171 
L 216.003016 119.76921 
L 216.150653 119.617811 
L 216.445928 117.704254 
L 217.184114 114.726238 
L 217.331752 113.541751 
L 217.479389 113.772589 
L 217.774664 112.156831 
L 217.922301 111.719862 
L 218.069939 110.349694 
L 218.217576 110.756243 
L 218.365213 109.166093 
L 218.660488 108.315503 
L 218.808125 107.111837 
L 218.955763 106.973796 
L 219.1034 105.383953 
L 219.251037 105.905694 
L 219.693949 103.094605 
L 222.794334 86.610965 
L 222.941971 86.591449 
L 224.270707 79.904938 
L 224.418345 80.184511 
L 224.565982 78.966888 
L 224.71362 78.748482 
L 225.304169 75.594249 
L 225.451806 75.737812 
L 225.599444 75.20453 
L 225.747081 74.121595 
L 225.894718 74.001642 
L 226.189993 71.891946 
L 226.33763 71.854971 
L 226.485268 71.311117 
L 226.632905 69.806042 
L 226.92818 68.873048 
L 227.075817 68.246898 
L 227.223455 67.04355 
L 227.371092 66.859277 
L 227.814004 64.089127 
L 228.256916 61.994448 
L 228.552191 60.12238 
L 228.847466 58.834827 
L 229.73329 53.753658 
L 229.880927 53.441426 
L 230.028564 52.108357 
L 230.176202 52.193389 
L 230.323839 50.432295 
L 230.471476 50.925968 
L 230.766751 49.402228 
L 231.062026 48.247007 
L 231.357301 45.936312 
L 231.504938 46.46226 
L 231.800213 45.775582 
L 231.94785 45.472325 
L 232.243125 43.629646 
L 232.390762 44.053334 
L 232.538399 43.110985 
L 232.686037 43.632121 
L 232.981311 42.590442 
L 233.128949 43.414048 
L 233.276586 43.46814 
L 233.424224 43.088523 
L 233.571861 42.062202 
L 233.719498 42.554553 
L 233.867136 41.543774 
L 234.014773 42.483014 
L 234.16241 41.250312 
L 234.310048 41.795303 
L 234.457685 41.506761 
L 234.605322 41.977266 
L 234.75296 40.048942 
L 234.900597 41.150534 
L 235.048234 38.529029 
L 235.195872 38.019286 
L 235.343509 38.698631 
L 235.491147 38.320317 
L 235.638784 37.634849 
L 235.786421 35.158426 
L 235.934059 36.21541 
L 236.229333 34.939091 
L 236.376971 31.613586 
L 236.524608 32.014504 
L 236.672245 32.088055 
L 236.96752 29.786148 
L 237.115157 29.882244 
L 237.262795 28.979089 
L 237.410432 29.006949 
L 237.558069 25.208589 
L 237.853344 26.702304 
L 238.000982 25.723614 
L 238.148619 25.701332 
L 238.296256 22.367586 
L 238.443894 24.283576 
L 238.591531 22.63175 
L 238.886806 23.399201 
L 239.034443 23.356814 
L 239.18208 22.155988 
L 239.329718 22.888389 
L 239.477355 22.636525 
L 239.77263 22.551818 
L 239.920267 21.973458 
L 240.363179 24.241267 
L 240.510817 24.142342 
L 240.658454 24.894572 
L 240.806091 24.449782 
L 240.953729 24.757838 
L 241.101366 25.983296 
L 241.249003 25.485814 
L 241.544278 26.966892 
L 241.691915 26.85066 
L 241.839553 28.151931 
L 242.282465 28.963657 
L 242.430102 30.795617 
L 242.57774 30.805247 
L 242.725377 31.745466 
L 242.873014 31.572342 
L 243.020652 33.031647 
L 243.168289 33.277362 
L 243.315926 34.609994 
L 243.463564 34.725471 
L 244.349388 38.682379 
L 244.497025 40.220664 
L 244.644663 40.156519 
L 245.235212 42.992092 
L 245.382849 44.360817 
L 245.530487 44.489813 
L 245.973399 47.38809 
L 246.121036 47.246106 
L 246.268673 47.60331 
L 246.563948 50.611227 
L 246.711586 50.771825 
L 246.859223 51.252622 
L 247.154498 53.160482 
L 247.302135 53.143364 
L 247.745047 54.808075 
L 247.892684 56.23425 
L 248.040322 56.09651 
L 248.630871 58.857689 
L 248.778509 59.153582 
L 249.073783 61.022012 
L 249.221421 60.298884 
L 249.516695 62.336576 
L 249.81197 63.469806 
L 250.107245 65.564868 
L 250.254882 66.560403 
L 250.402519 66.383603 
L 250.697794 69.001349 
L 250.845432 68.88214 
L 251.140706 70.931468 
L 252.02653 75.272523 
L 252.321805 77.830907 
L 253.502904 85.537823 
L 253.945816 88.502253 
L 254.093453 88.86018 
L 254.388728 91.0249 
L 254.684003 92.767753 
L 255.569827 99.658014 
L 255.717464 99.349243 
L 257.193838 108.952782 
L 257.341475 109.571575 
L 257.63675 112.087307 
L 257.932025 114.111565 
L 258.079662 114.36658 
L 258.374937 116.992118 
L 258.817849 119.624993 
L 259.408398 124.138433 
L 259.998948 127.871125 
L 261.475321 137.669062 
L 261.918233 140.450666 
L 262.213508 142.702588 
L 262.361145 143.563799 
L 262.508783 143.704414 
L 262.804057 145.883643 
L 262.951695 146.136975 
L 263.394607 149.427436 
L 263.542244 149.577359 
L 264.132794 152.878694 
L 265.46153 160.482908 
L 265.609167 160.589022 
L 265.904442 162.323976 
L 266.199717 163.773241 
L 266.347354 164.230224 
L 266.642629 166.641464 
L 267.085541 168.201004 
L 267.233178 169.711302 
L 267.380815 169.947609 
L 267.67609 171.546727 
L 267.823727 171.734305 
L 267.971365 173.223102 
L 268.119002 173.365695 
L 268.561914 175.765917 
L 268.709552 176.63078 
L 268.857189 176.646858 
L 269.300101 178.935334 
L 269.447738 178.954007 
L 269.743013 180.759354 
L 269.89065 180.909898 
L 270.038288 181.870437 
L 270.185925 182.094361 
L 270.628837 183.889032 
L 270.776475 183.715231 
L 270.924112 184.550927 
L 271.071749 184.661389 
L 271.367024 185.977942 
L 271.809936 187.474229 
L 272.400485 189.277316 
L 272.843398 190.933137 
L 272.991035 191.467924 
L 273.138672 191.174346 
L 273.433947 193.04665 
L 273.581584 193.387127 
L 273.729222 193.266643 
L 274.024496 194.099651 
L 274.172134 195.237146 
L 274.319771 195.346474 
L 274.615046 196.297422 
L 274.762683 196.395313 
L 274.910321 196.685526 
L 275.205595 197.863529 
L 275.353233 197.895538 
L 275.50087 198.690446 
L 275.648507 198.144496 
L 275.796145 199.197288 
L 276.091419 199.781271 
L 276.239057 199.259566 
L 276.534331 201.059911 
L 276.681969 200.769954 
L 276.829606 201.576094 
L 276.977244 201.316128 
L 277.124881 201.482787 
L 277.272518 202.100748 
L 277.420156 201.533223 
L 277.71543 203.080806 
L 277.863068 203.216317 
L 278.010705 204.353579 
L 278.158342 203.652 
L 278.30598 204.550983 
L 278.748892 204.10327 
L 279.191804 205.326196 
L 279.339441 205.020336 
L 279.487079 206.774698 
L 279.634716 206.215 
L 279.782353 206.423757 
L 279.929991 206.401542 
L 280.077628 206.582538 
L 280.372903 206.394883 
L 280.52054 206.596429 
L 280.668177 207.680408 
L 280.963452 207.822072 
L 281.111089 207.601536 
L 281.406364 208.395598 
L 281.554002 208.805031 
L 281.701639 208.496248 
L 281.849276 208.491657 
L 281.996914 209.670594 
L 282.144551 209.173301 
L 282.292188 209.757454 
L 282.439826 208.390857 
L 282.7351 210.178064 
L 282.882738 210.154326 
L 283.030375 209.750906 
L 283.178012 210.489404 
L 283.32565 208.756534 
L 283.473287 210.159467 
L 283.620925 210.235865 
L 283.768562 210.90923 
L 283.916199 210.121952 
L 284.211474 210.40954 
L 284.359111 210.372353 
L 284.506749 210.685906 
L 284.654386 210.73265 
L 284.802023 210.951877 
L 284.949661 211.725972 
L 285.097298 210.752674 
L 285.244935 211.74659 
L 285.392573 211.455494 
L 285.54021 211.575957 
L 285.687847 212.263428 
L 286.13076 210.967179 
L 286.278397 211.29267 
L 286.426034 211.897452 
L 286.573672 213.301125 
L 286.721309 211.615074 
L 287.016584 212.590725 
L 287.164221 211.483134 
L 287.311858 213.29268 
L 287.607133 211.417215 
L 287.75477 212.617149 
L 287.902408 212.808204 
L 288.050045 212.060359 
L 288.197683 213.534012 
L 288.34532 213.361847 
L 288.492957 212.445606 
L 288.640595 212.753463 
L 288.788232 212.018857 
L 288.935869 211.974028 
L 289.083507 213.517633 
L 289.231144 212.985914 
L 289.378781 213.58702 
L 289.526419 213.66866 
L 289.674056 213.941096 
L 289.969331 212.676498 
L 290.116968 212.623822 
L 290.264606 214.1598 
L 290.412243 212.360933 
L 290.55988 212.579423 
L 290.707518 213.879346 
L 290.855155 213.258693 
L 291.002792 213.455329 
L 291.15043 212.873663 
L 291.298067 214.17074 
L 291.445704 213.289805 
L 291.593342 214.722351 
L 291.740979 213.014096 
L 291.888616 214.000844 
L 292.331529 214.322861 
L 292.479166 213.772012 
L 292.626803 215.392665 
L 292.774441 214.857463 
L 292.922078 213.69824 
L 293.069715 214.538197 
L 293.217353 213.538354 
L 293.36499 214.548201 
L 293.660265 214.797125 
L 293.807902 213.795906 
L 293.955539 215.266957 
L 294.103177 215.104888 
L 294.250814 213.51098 
L 294.398451 215.774044 
L 294.546089 215.055709 
L 294.693726 215.999779 
L 294.841364 214.929235 
L 294.989001 215.703682 
L 295.136638 214.648242 
L 295.284276 215.483516 
L 295.431913 214.168218 
L 295.57955 214.386715 
L 295.727188 215.544503 
L 295.874825 213.653922 
L 296.022462 217.197205 
L 296.1701 216.294074 
L 296.317737 217.047504 
L 296.465374 214.584567 
L 296.613012 215.8986 
L 296.760649 215.833039 
L 296.908287 216.365322 
L 297.055924 214.973562 
L 297.351199 216.647176 
L 297.498836 216.478003 
L 297.646473 217.277609 
L 297.794111 216.228589 
L 297.941748 216.02612 
L 298.089385 216.080825 
L 298.237023 216.265768 
L 298.38466 217.551119 
L 298.532297 215.03398 
L 298.679935 216.426531 
L 298.827572 216.729755 
L 298.97521 217.763224 
L 299.418122 215.681543 
L 299.565759 217.450845 
L 299.713396 215.941197 
L 299.861034 217.551631 
L 300.008671 217.259081 
L 300.156308 217.425561 
L 300.303946 216.987035 
L 300.451583 218.905337 
L 300.59922 217.454532 
L 300.746858 218.647933 
L 300.894495 217.429748 
L 301.18977 218.789178 
L 301.337407 215.427621 
L 301.485045 218.396303 
L 301.632682 217.410595 
L 301.780319 217.582475 
L 301.927957 218.828331 
L 302.223231 216.893062 
L 302.370869 218.558206 
L 302.518506 217.92364 
L 302.666143 217.84224 
L 302.813781 218.007221 
L 302.961418 218.510747 
L 303.109055 218.551184 
L 303.40433 219.701244 
L 303.551968 217.691028 
L 303.699605 219.225642 
L 303.99488 217.664837 
L 304.290154 218.390793 
L 304.437792 217.910208 
L 304.585429 218.697158 
L 304.733066 218.493532 
L 304.880704 220.312562 
L 305.028341 218.678768 
L 305.175978 220.209345 
L 305.323616 218.497428 
L 305.471253 218.650949 
L 305.766528 220.961599 
L 306.061803 219.001192 
L 306.20944 220.236354 
L 306.357077 218.56574 
L 306.652352 220.038063 
L 306.799989 219.669484 
L 306.947627 220.858575 
L 307.095264 220.011381 
L 307.242901 220.220382 
L 307.390539 220.053102 
L 307.538176 219.232133 
L 307.685814 220.80007 
L 307.833451 220.979247 
L 307.981088 219.830378 
L 308.276363 220.348077 
L 308.571638 219.232324 
L 308.719275 219.363127 
L 308.866912 219.259109 
L 309.01455 220.8547 
L 309.309824 219.744701 
L 309.457462 219.534948 
L 309.605099 219.973751 
L 309.752736 219.772783 
L 309.900374 220.190604 
L 310.048011 221.00296 
L 310.343286 219.105704 
L 310.490923 218.983912 
L 310.638561 220.219764 
L 310.786198 219.919689 
L 310.933835 220.418465 
L 311.081473 219.599465 
L 311.22911 219.601326 
L 311.376747 219.127836 
L 311.524385 219.489113 
L 311.672022 221.038085 
L 311.967297 219.250244 
L 312.114934 219.485746 
L 312.262572 218.449096 
L 312.410209 220.224522 
L 312.557846 219.360366 
L 312.705484 217.816709 
L 312.853121 220.114031 
L 313.000758 220.007958 
L 313.148396 219.459141 
L 313.44367 217.954134 
L 313.738945 219.072681 
L 313.886582 219.865701 
L 314.03422 218.930188 
L 314.181857 219.849283 
L 314.329495 218.509157 
L 314.477132 219.154053 
L 314.624769 218.347184 
L 314.920044 219.475112 
L 315.067681 219.11296 
L 315.215319 219.983659 
L 315.362956 217.8342 
L 315.510593 220.058951 
L 315.805868 218.671645 
L 315.953505 220.020408 
L 316.101143 219.02578 
L 316.544055 219.864605 
L 316.691692 219.538606 
L 316.83933 218.570999 
L 316.986967 219.613259 
L 317.134604 219.271174 
L 317.282242 219.785296 
L 317.429879 217.941451 
L 317.577516 218.214981 
L 317.725154 219.422649 
L 317.872791 218.318117 
L 318.020428 219.166662 
L 318.168066 219.148125 
L 318.315703 220.397262 
L 318.46334 218.104743 
L 318.610978 218.489115 
L 318.758615 216.953393 
L 318.906253 219.271024 
L 319.05389 218.679749 
L 319.201527 219.230456 
L 319.349165 218.388333 
L 319.496802 219.598876 
L 319.644439 219.47879 
L 319.792077 218.695719 
L 319.939714 219.125222 
L 320.087351 219.103588 
L 320.234989 217.99516 
L 320.530263 218.703723 
L 320.677901 218.444203 
L 320.825538 218.421722 
L 320.973176 219.076213 
L 321.26845 217.408377 
L 321.416088 217.814704 
L 321.563725 216.71721 
L 321.711362 219.2645 
L 321.859 217.605739 
L 322.006637 217.581971 
L 322.154274 217.69668 
L 322.301912 216.598348 
L 322.449549 218.283937 
L 322.597186 217.888914 
L 322.744824 218.465907 
L 322.892461 217.435617 
L 323.187736 218.15961 
L 323.335373 217.069034 
L 323.630648 218.42494 
L 323.778285 216.680484 
L 323.925923 218.791936 
L 324.221197 217.341127 
L 324.516472 218.68438 
L 324.811747 216.157573 
L 324.959384 218.700415 
L 325.107022 217.440928 
L 325.254659 217.663002 
L 325.402296 217.253494 
L 325.549934 217.605768 
L 325.697571 218.842529 
L 325.845208 217.66791 
L 325.992846 217.51846 
L 326.140483 218.5669 
L 326.28812 217.078357 
L 326.435758 218.31152 
L 326.583395 218.477486 
L 326.87867 217.801723 
L 327.026307 218.665483 
L 327.173944 215.85856 
L 327.321582 217.247554 
L 327.616857 217.64835 
L 327.764494 217.154766 
L 328.059769 217.443583 
L 328.207406 217.738041 
L 328.355043 218.386097 
L 328.502681 217.568876 
L 328.650318 215.199584 
L 328.797955 215.514497 
L 328.945593 217.980108 
L 329.09323 216.489121 
L 329.240867 217.409024 
L 329.388505 217.482722 
L 329.536142 216.522765 
L 329.68378 217.311692 
L 330.126692 215.052416 
L 330.274329 216.960346 
L 330.569604 215.888403 
L 330.717241 215.253299 
L 330.864878 216.352086 
L 331.012516 216.562009 
L 331.160153 216.157656 
L 331.30779 214.954441 
L 331.455428 216.577283 
L 331.603065 214.539509 
L 331.750703 217.349624 
L 332.193615 215.65302 
L 332.341252 216.485262 
L 332.488889 216.099402 
L 332.636527 216.301972 
L 332.784164 215.779731 
L 332.931801 213.22357 
L 333.227076 216.388608 
L 333.374713 215.76796 
L 333.522351 215.733328 
L 333.669988 216.704164 
L 333.965263 215.873334 
L 334.1129 215.955969 
L 334.260538 215.303457 
L 334.408175 216.112758 
L 334.555812 215.492647 
L 334.70345 216.464059 
L 334.851087 214.750981 
L 334.998724 216.295124 
L 335.146362 215.717956 
L 335.293999 214.502292 
L 335.441636 214.759702 
L 335.589274 214.726457 
L 335.736911 214.966508 
L 335.884548 216.392443 
L 336.032186 214.336761 
L 336.179823 215.926153 
L 336.327461 214.271526 
L 336.475098 214.803066 
L 336.622735 214.054082 
L 336.770373 214.996181 
L 336.91801 215.207776 
L 337.065647 215.055725 
L 337.213285 214.079012 
L 337.360922 214.195106 
L 337.508559 214.837331 
L 337.803834 214.647693 
L 337.951471 215.647612 
L 338.099109 215.073025 
L 338.246746 212.662735 
L 338.394384 213.97683 
L 338.542021 213.487503 
L 338.689658 214.058562 
L 338.837296 213.584542 
L 339.13257 213.824483 
L 339.280208 214.210629 
L 339.427845 214.046204 
L 339.575482 214.15096 
L 339.72312 213.986866 
L 339.870757 215.354939 
L 340.018394 213.928249 
L 340.166032 214.414743 
L 340.313669 214.385949 
L 340.461307 212.937711 
L 340.608944 213.231363 
L 340.756581 214.538194 
L 340.904219 213.328248 
L 341.199493 213.564301 
L 341.347131 214.068087 
L 341.494768 214.041493 
L 341.642405 214.489958 
L 341.93768 213.433042 
L 342.085317 211.290121 
L 342.232955 214.388428 
L 342.380592 212.914999 
L 342.528229 213.191418 
L 342.675867 212.709127 
L 342.823504 214.178843 
L 342.971142 213.918745 
L 343.118779 212.476569 
L 343.414054 213.728968 
L 343.561691 211.688962 
L 343.856966 214.140888 
L 344.004603 213.769438 
L 344.15224 213.869794 
L 344.299878 212.47438 
L 344.447515 212.455292 
L 344.595152 213.929558 
L 344.74279 213.423569 
L 344.890427 213.893069 
L 345.038065 212.840901 
L 345.185702 212.823441 
L 345.333339 212.013756 
L 345.480977 213.70676 
L 345.628614 214.03253 
L 345.776251 212.133986 
L 345.923889 213.414129 
L 346.071526 213.3983 
L 346.219163 213.255783 
L 346.366801 212.071143 
L 346.662075 214.13794 
L 346.95735 211.841965 
L 347.104988 211.651017 
L 347.252625 211.261309 
L 347.400262 213.266201 
L 347.5479 213.496242 
L 347.695537 214.143453 
L 347.843174 213.226162 
L 347.990812 213.336725 
L 348.138449 212.226377 
L 348.286086 213.311667 
L 348.581361 212.490404 
L 348.728998 213.152519 
L 348.876636 213.264607 
L 349.171911 211.986913 
L 349.467185 212.971638 
L 349.614823 212.831136 
L 349.76246 213.202552 
L 349.910097 211.426857 
L 350.205372 213.852904 
L 350.353009 211.911697 
L 350.648284 212.497839 
L 350.795921 211.555019 
L 350.943559 211.718154 
L 351.238833 213.362206 
L 351.386471 212.464941 
L 351.534108 213.233666 
L 351.681746 211.852426 
L 351.829383 214.181188 
L 351.97702 212.583126 
L 352.419932 212.83604 
L 352.56757 212.567403 
L 352.715207 213.430921 
L 352.862844 211.97894 
L 353.601031 213.946929 
L 353.748669 213.945196 
L 353.896306 213.524203 
L 354.043943 212.115344 
L 354.191581 211.803267 
L 354.339218 212.80764 
L 354.486855 212.933672 
L 354.634493 213.627483 
L 354.78213 213.407045 
L 354.929767 212.674318 
L 355.077405 211.104621 
L 355.225042 213.406096 
L 355.372679 212.539287 
L 355.520317 212.93145 
L 355.667954 212.539659 
L 355.815592 213.05557 
L 355.963229 212.805749 
L 356.110866 212.259647 
L 356.406141 213.05878 
L 356.553778 212.544496 
L 356.701416 213.061398 
L 356.849053 212.265774 
L 356.99669 212.267543 
L 357.291965 211.479143 
L 357.58724 213.644901 
L 357.734877 212.131614 
L 357.882514 212.956089 
L 358.030152 212.428579 
L 358.177789 212.570626 
L 358.325427 211.323297 
L 358.620701 213.097563 
L 358.768339 212.30457 
L 358.915976 212.725182 
L 359.063613 212.165814 
L 359.211251 213.115519 
L 359.358888 212.87006 
L 359.506525 212.875136 
L 359.8018 211.716409 
L 359.949437 212.043843 
L 360.244712 213.504015 
L 360.39235 211.392007 
L 360.687624 214.247898 
L 360.835262 213.295952 
L 361.130536 213.063907 
L 361.278174 212.248146 
L 361.425811 213.435963 
L 361.573448 213.441556 
L 361.868723 212.834245 
L 362.01636 213.220493 
L 362.311635 212.84955 
L 362.459273 213.47251 
L 362.902185 212.303448 
L 363.049822 214.033025 
L 363.345097 212.462176 
L 363.492734 213.499718 
L 363.640371 212.884384 
L 363.788009 212.886953 
L 364.083283 213.392335 
L 364.230921 213.393972 
L 364.378558 213.024737 
L 364.526196 214.158061 
L 364.673833 212.479501 
L 364.969108 213.397006 
L 365.116745 213.025964 
L 365.264382 213.952586 
L 365.41202 212.329206 
L 365.559657 213.509631 
L 365.707294 213.621551 
L 365.854932 214.624373 
L 366.002569 214.146574 
L 366.150206 214.143021 
L 366.445481 212.736922 
L 366.593118 214.693245 
L 367.036031 211.972753 
L 367.183668 213.792206 
L 367.331305 213.993696 
L 367.478943 214.650119 
L 367.62658 214.076681 
L 367.774217 214.066477 
L 367.921855 214.346317 
L 368.069492 213.16182 
L 368.217129 212.898908 
L 368.364767 214.116942 
L 368.512404 214.387398 
L 368.807679 212.709638 
L 368.955316 215.25189 
L 369.102954 214.675042 
L 369.398228 212.893546 
L 369.693503 214.419962 
L 369.84114 213.931928 
L 369.988778 214.09946 
L 370.136415 213.252589 
L 370.284052 213.3373 
L 370.43169 213.828032 
L 370.579327 211.873118 
L 370.726964 213.768866 
L 370.874602 214.022063 
L 371.022239 213.704634 
L 371.169877 212.689553 
L 371.317514 214.357609 
L 371.465151 213.188479 
L 371.612789 213.560219 
L 371.760426 214.243122 
L 371.908063 213.764339 
L 372.055701 213.812931 
L 372.203338 214.437764 
L 372.498613 212.997135 
L 372.64625 212.948685 
L 372.793887 214.619577 
L 372.941525 213.435636 
L 373.089162 213.473487 
L 373.2368 212.633101 
L 373.532074 213.566736 
L 373.679712 212.965656 
L 373.974986 214.089142 
L 374.122624 212.479092 
L 374.270261 212.412543 
L 374.565536 213.891561 
L 374.713173 212.687443 
L 374.86081 213.373704 
L 375.008448 213.298445 
L 375.156085 211.873125 
L 375.303722 213.515267 
L 375.45136 212.57016 
L 375.598997 212.979951 
L 375.746635 212.043321 
L 375.894272 212.141591 
L 376.041909 212.875728 
L 376.189547 211.68641 
L 376.337184 212.137069 
L 376.484821 210.776795 
L 376.632459 211.950867 
L 376.780096 211.855407 
L 377.075371 212.218897 
L 377.370645 211.285399 
L 377.518283 211.915006 
L 377.66592 210.805624 
L 377.813558 212.464336 
L 377.961195 211.819328 
L 378.108832 210.29482 
L 378.25647 211.072616 
L 378.404107 210.881921 
L 378.551744 211.010808 
L 378.699382 210.899569 
L 378.847019 211.014808 
L 378.994656 210.268723 
L 379.142294 210.155479 
L 379.289931 208.993601 
L 379.437568 210.63428 
L 379.585206 209.89734 
L 379.732843 210.02626 
L 379.880481 209.497775 
L 380.028118 208.52663 
L 380.175755 209.268123 
L 380.323393 208.297204 
L 380.47103 209.039126 
L 380.618667 209.177847 
L 380.913942 207.041744 
L 381.209217 208.644844 
L 381.356854 207.908632 
L 381.504491 207.893824 
L 381.652129 208.637909 
L 381.799766 206.742255 
L 381.947403 207.75563 
L 382.095041 206.414342 
L 382.242678 206.542189 
L 382.390316 206.86994 
L 382.68559 205.236801 
L 382.833228 205.413571 
L 382.980865 205.045973 
L 383.128502 205.607727 
L 383.27614 206.690226 
L 383.423777 205.30595 
L 383.571414 205.093264 
L 383.719052 203.118136 
L 383.866689 205.179358 
L 384.014326 204.71999 
L 384.161964 201.521088 
L 384.309601 203.185712 
L 384.457239 201.878857 
L 384.604876 203.047918 
L 384.752513 203.160052 
L 384.900151 200.910857 
L 385.195425 202.431911 
L 385.343063 201.01755 
L 385.4907 202.882806 
L 385.638337 198.961061 
L 385.785975 202.041616 
L 386.081249 199.930054 
L 386.228887 200.772521 
L 386.376524 199.53495 
L 386.671799 200.696687 
L 386.819436 198.287748 
L 387.114711 200.380388 
L 387.262348 195.954091 
L 387.409986 195.129442 
L 387.557623 199.07474 
L 387.852898 197.26071 
L 387.852898 197.26071 
" style="fill:none;stroke:#1f77b4;stroke-linecap:square;stroke-width:1.5;"/>
   </g>
   <g id="patch_3">
    <path d="M 46.965625 275.989458 
L 46.965625 9.877458 
" style="fill:none;stroke:#000000;stroke-linecap:square;stroke-linejoin:miter;stroke-width:0.8;"/>
   </g>
   <g id="patch_4">
    <path d="M 404.085625 275.989458 
L 404.085625 9.877458 
" style="fill:none;stroke:#000000;stroke-linecap:square;stroke-linejoin:miter;stroke-width:0.8;"/>
   </g>
   <g id="patch_5">
    <path d="M 46.965625 275.989458 
L 404.085625 275.989458 
" style="fill:none;stroke:#000000;stroke-linecap:square;stroke-linejoin:miter;stroke-width:0.8;"/>
   </g>
   <g id="patch_6">
    <path d="M 46.965625 9.877458 
L 404.085625 9.877458 
" style="fill:none;stroke:#000000;stroke-linecap:square;stroke-linejoin:miter;stroke-width:0.8;"/>
   </g>
  </g>
 </g>
 <defs>
  <clipPath id="paf41c33b9b">
   <rect height="266.112" width="357.12" x="46.965625" y="9.877458"/>
  </clipPath>
 </defs>
</svg>
